<?xml version="1.0" encoding="UTF-8" standalone="no"?>
<!-- Created with Inkscape (http://www.inkscape.org/) -->

<svg
   xmlns:dc="http://purl.org/dc/elements/1.1/"
   xmlns:cc="http://creativecommons.org/ns#"
   xmlns:rdf="http://www.w3.org/1999/02/22-rdf-syntax-ns#"
   xmlns:svg="http://www.w3.org/2000/svg"
   xmlns="http://www.w3.org/2000/svg"
   xmlns:sodipodi="http://sodipodi.sourceforge.net/DTD/sodipodi-0.dtd"
   xmlns:inkscape="http://www.inkscape.org/namespaces/inkscape"
   version="1.1"
   id="svg2"
   xml:space="preserve"
   width="586.66669"
   height="319.58533"
   viewBox="0 0 586.66669 319.58533"
   sodipodi:docname="federation-deploy-2.svg"
   inkscape:version="0.92.4 (unknown)"><metadata
     id="metadata8"><rdf:RDF><cc:Work
         rdf:about=""><dc:format>image/svg+xml</dc:format><dc:type
           rdf:resource="http://purl.org/dc/dcmitype/StillImage" /><dc:title></dc:title></cc:Work></rdf:RDF></metadata><defs
     id="defs6"><clipPath
       clipPathUnits="userSpaceOnUse"
       id="clipPath20"><path
         d="M 0,239.689 H 440 V 0 H 0 Z"
         id="path18"
         inkscape:connector-curvature="0" /></clipPath><clipPath
       clipPathUnits="userSpaceOnUse"
       id="clipPath84"><path
         d="M 0,239.689 H 440 V 0 H 0 Z"
         id="path82"
         inkscape:connector-curvature="0" /></clipPath><clipPath
       clipPathUnits="userSpaceOnUse"
       id="clipPath126"><path
         d="M 0,239.689 H 440 V 0 H 0 Z"
         id="path124"
         inkscape:connector-curvature="0" /></clipPath><clipPath
       clipPathUnits="userSpaceOnUse"
       id="clipPath142"><path
         d="m 101.348,170.982 h 14.983 V 156 h -14.983 z"
         id="path140"
         inkscape:connector-curvature="0" /></clipPath><clipPath
       clipPathUnits="userSpaceOnUse"
       id="clipPath156"><path
         d="M 120.077,170.982 H 135.06 V 156 h -14.983 z"
         id="path154"
         inkscape:connector-curvature="0" /></clipPath><clipPath
       clipPathUnits="userSpaceOnUse"
       id="clipPath170"><path
         d="M 120.077,152.253 H 135.06 V 137.27 h -14.983 z"
         id="path168"
         inkscape:connector-curvature="0" /></clipPath><clipPath
       clipPathUnits="userSpaceOnUse"
       id="clipPath184"><path
         d="m 101.348,152.253 h 14.983 V 137.27 h -14.983 z"
         id="path182"
         inkscape:connector-curvature="0" /></clipPath><clipPath
       clipPathUnits="userSpaceOnUse"
       id="clipPath198"><path
         d="M 312.767,159.48 H 327.75 V 144.498 H 312.767 Z"
         id="path196"
         inkscape:connector-curvature="0" /></clipPath><clipPath
       clipPathUnits="userSpaceOnUse"
       id="clipPath212"><path
         d="M 312.767,140.751 H 327.75 V 125.768 H 312.767 Z"
         id="path210"
         inkscape:connector-curvature="0" /></clipPath><clipPath
       clipPathUnits="userSpaceOnUse"
       id="clipPath226"><path
         d="m 294.038,140.751 h 14.983 v -14.983 h -14.983 z"
         id="path224"
         inkscape:connector-curvature="0" /></clipPath><clipPath
       clipPathUnits="userSpaceOnUse"
       id="clipPath242"><path
         d="m 18.6475,52.9629 h 6.8554 v -6.8535 h -6.8554 z"
         id="path240"
         inkscape:connector-curvature="0" /></clipPath><clipPath
       clipPathUnits="userSpaceOnUse"
       id="clipPath266"><path
         d="M 0,239.689 H 440 V 0 H 0 Z"
         id="path264"
         inkscape:connector-curvature="0" /></clipPath><clipPath
       clipPathUnits="userSpaceOnUse"
       id="clipPath288"><path
         d="M 0,239.689 H 440 V 0 H 0 Z"
         id="path286"
         inkscape:connector-curvature="0" /></clipPath><clipPath
       clipPathUnits="userSpaceOnUse"
       id="clipPath314"><path
         d="m 19.8789,34.7656 h 8.3272 V 26.439 h -8.3272 z"
         id="path312"
         inkscape:connector-curvature="0" /></clipPath><clipPath
       clipPathUnits="userSpaceOnUse"
       id="clipPath328"><path
         d="m 30.2881,34.7656 h 8.3266 V 26.439 h -8.3266 z"
         id="path326"
         inkscape:connector-curvature="0" /></clipPath><clipPath
       clipPathUnits="userSpaceOnUse"
       id="clipPath342"><path
         d="m 30.2881,24.3569 h 8.3266 v -8.3271 h -8.3266 z"
         id="path340"
         inkscape:connector-curvature="0" /></clipPath><clipPath
       clipPathUnits="userSpaceOnUse"
       id="clipPath356"><path
         d="m 19.8789,24.3569 h 8.3272 v -8.3271 h -8.3272 z"
         id="path354"
         inkscape:connector-curvature="0" /></clipPath><marker
       inkscape:stockid="Arrow2Mend"
       orient="auto"
       refY="0"
       refX="0"
       id="Arrow2Mend-35-2"
       style="overflow:visible"
       inkscape:isstock="true"><path
         inkscape:connector-curvature="0"
         id="path18367-62-7"
         style="fill:#4b7782;fill-opacity:1;fill-rule:evenodd;stroke:#4b7782;stroke-width:0.625;stroke-linejoin:round;stroke-opacity:1"
         d="M 8.7185878,4.0337352 -2.2072895,0.01601326 8.7185884,-4.0017078 c -1.7454984,2.3720609 -1.7354408,5.6174519 -6e-7,8.035443 z"
         transform="scale(-0.6)" /></marker></defs><sodipodi:namedview
     pagecolor="#ffffff"
     bordercolor="#666666"
     borderopacity="1"
     objecttolerance="10"
     gridtolerance="10"
     guidetolerance="10"
     inkscape:pageopacity="0"
     inkscape:pageshadow="2"
     inkscape:window-width="1368"
     inkscape:window-height="704"
     id="namedview4"
     showgrid="false"
     inkscape:zoom="2.0886716"
     inkscape:cx="305.2254"
     inkscape:cy="246.60226"
     inkscape:window-x="0"
     inkscape:window-y="27"
     inkscape:window-maximized="1"
     inkscape:current-layer="g10" /><g
     id="g10"
     inkscape:groupmode="layer"
     inkscape:label="scenario%20figure_5_2"
     transform="matrix(1.3333333,0,0,-1.3333333,0,319.58533)"><path
   d="M 136.663,135.582 H 99.744 V 172.5 h 36.919 z"
   style="fill:#00adee;fill-opacity:0.60000002;fill-rule:nonzero;stroke:none"
   id="path12"
   inkscape:connector-curvature="0" /><g
   id="g14"><g
     id="g16"
     clip-path="url(#clipPath20)"><g
       id="g22"
       transform="translate(298.0977,161.9487)"
       style="fill:#eb9612;fill-opacity:0.80000001;stroke:#000000;stroke-opacity:1;stroke-width:1.29975003;stroke-miterlimit:4;stroke-dasharray:none"><path
         d="m 0,0 c -2.348,0 -4.707,0.158 -7.037,-0.037 -3.666,-0.307 -6.463,2.75 -5.725,6.522 0.764,3.892 2.672,6.745 5.987,8.775 0.728,0.445 1.25,0.554 2.115,-0.016 2.848,-1.877 5.908,-1.969 8.89,-0.288 0.973,0.55 1.733,0.816 2.733,0.147 C 10.662,12.626 12.855,9.311 12.795,4.746 12.76,2.021 11.088,0.198 8.373,0.085 5.586,-0.031 2.791,0.06 0,0.06 Z"
         style="fill:#eb9612;fill-opacity:0.80000001;fill-rule:evenodd;stroke:#000000;stroke-opacity:1;stroke-width:1.29975003;stroke-miterlimit:4;stroke-dasharray:none"
         id="path24"
         inkscape:connector-curvature="0" /></g><g
       id="g26"
       transform="translate(304.8437,178.6675)"
       style="fill:#eb9612;fill-opacity:0.80000001;stroke:#000000;stroke-opacity:1;stroke-width:1.29975003;stroke-miterlimit:4;stroke-dasharray:none"><path
         d="m 0,0 c 1.648,1.146 3.057,2.167 4.521,3.099 0.258,0.164 0.85,0.085 1.129,-0.11 3.03,-2.108 6.987,-2.003 9.846,-0.021 0.303,0.21 0.906,0.252 1.25,0.099 4.117,-1.825 6.918,-6.504 6.641,-11.001 -0.16,-2.609 -2.045,-4.345 -5.174,-4.462 -3.229,-0.122 -6.465,-0.049 -9.695,0.011 -0.301,0.005 -0.84,0.518 -0.85,0.809 -0.16,4.953 -2.809,8.328 -6.77,10.902 C 0.715,-0.556 0.549,-0.414 0,0"
         style="fill:#eb9612;fill-opacity:0.80000001;fill-rule:evenodd;stroke:#000000;stroke-opacity:1;stroke-width:1.29975003;stroke-miterlimit:4;stroke-dasharray:none"
         id="path28"
         inkscape:connector-curvature="0" /></g><g
       id="g30"
       transform="translate(283.5195,166.27)"
       style="fill:#eb9612;fill-opacity:0.80000001;stroke:#000000;stroke-opacity:1;stroke-width:1.29975003;stroke-miterlimit:4;stroke-dasharray:none"><path
         d="m 0,0 c -3.887,0 -7.605,-0.066 -11.32,0.022 -2.633,0.064 -4.717,3.016 -4.28,5.831 0.407,2.627 1.198,5.108 3.153,7.003 1.035,1.004 2.246,1.838 3.439,2.658 0.25,0.172 0.858,0.066 1.164,-0.127 1.823,-1.149 3.776,-1.866 5.916,-1.431 1.436,0.292 2.795,0.95 4.198,1.414 0.378,0.125 0.925,0.333 1.171,0.169 C 4.852,14.598 6.193,13.555 7.832,12.345 2.689,9.603 0.49,5.423 0,0"
         style="fill:#eb9612;fill-opacity:0.80000001;fill-rule:evenodd;stroke:#000000;stroke-opacity:1;stroke-width:1.29975003;stroke-miterlimit:4;stroke-dasharray:none"
         id="path32"
         inkscape:connector-curvature="0" /></g><g
       id="g34"
       transform="translate(280.7598,196.1519)"
       style="fill:#eb9612;fill-opacity:0.80000001;stroke:#000000;stroke-opacity:1;stroke-width:1.29975003;stroke-miterlimit:4;stroke-dasharray:none"><path
         d="m 0,0 c 3.604,0.324 7.574,-2.664 7.463,-7.857 -0.068,-3.208 -3.119,-7.048 -7.524,-7.006 -4.396,0.042 -7.33,3.922 -7.404,7.001 C -7.586,-2.725 -3.592,0.337 0,0"
         style="fill:#eb9612;fill-opacity:0.80000001;fill-rule:evenodd;stroke:#000000;stroke-opacity:1;stroke-width:1.29975003;stroke-miterlimit:4;stroke-dasharray:none"
         id="path36"
         inkscape:connector-curvature="0" /></g><g
       id="g38"
       transform="translate(305.5215,184.0815)"
       style="fill:#eb9612;fill-opacity:0.80000001;stroke:#000000;stroke-opacity:1;stroke-width:1.29975003;stroke-miterlimit:4;stroke-dasharray:none"><path
         d="m 0,0 c 0.066,-3.319 -2.875,-7.086 -7.594,-7.084 -3.871,0.002 -7.398,3.5 -7.304,7.622 0.085,3.901 3.064,7.077 6.941,7.254 C -3.375,8.001 -0.008,4.991 0,0"
         style="fill:#eb9612;fill-opacity:0.80000001;fill-rule:evenodd;stroke:#000000;stroke-opacity:1;stroke-width:1.29975003;stroke-miterlimit:4;stroke-dasharray:none"
         id="path40"
         inkscape:connector-curvature="0" /></g><g
       id="g42"
       transform="translate(315.3418,181.4146)"
       style="fill:#eb9612;fill-opacity:0.80000001;stroke:#000000;stroke-opacity:1;stroke-width:1.29975003;stroke-miterlimit:4;stroke-dasharray:none"><path
         d="m 0,0 c -4.592,0.053 -7.422,3.239 -7.355,7.649 0.056,3.856 3.117,7.14 7.459,7.127 C 4.508,14.764 7.52,11.377 7.531,7.614 7.545,3.058 4.609,-0.031 0,0"
         style="fill:#eb9612;fill-opacity:0.80000001;fill-rule:evenodd;stroke:#000000;stroke-opacity:1;stroke-width:1.29975003;stroke-miterlimit:4;stroke-dasharray:none"
         id="path44"
         inkscape:connector-curvature="0" /></g><g
       id="g46"
       transform="translate(214.8535,108.6812)"><path
         d="m 0,0 c 0,11.462 7.3,55.761 18.386,59.714 15.834,5.647 22.401,3.168 33.407,2.757"
         style="fill:none;stroke:#231f20;stroke-width:2;stroke-linecap:butt;stroke-linejoin:miter;stroke-miterlimit:10;stroke-dasharray:none;stroke-opacity:1"
         id="path48"
         inkscape:connector-curvature="0" /></g><g
       id="g50"
       transform="translate(260.5996,168.3198)"><path
         d="M 0,0 -0.299,0.955 5.953,2.912 -0.094,5.431 0.291,6.354 8.873,2.778 Z"
         style="fill:#231f20;fill-opacity:1;fill-rule:nonzero;stroke:none"
         id="path52"
         inkscape:connector-curvature="0" /></g><g
       id="g54"
       transform="translate(393.1016,174.1011)"
       style="fill:#eb9612;fill-opacity:0.80000001;stroke-width:0.75000002;stroke-miterlimit:4;stroke-dasharray:none;stroke:#000000;stroke-opacity:1"><path
         d="M 0,0 C 0,1.205 -0.016,2.189 0.006,3.174 0.023,3.849 -0.422,4.183 -1.219,4.365 -1.865,4.513 -2.48,4.736 -3.107,4.932 -3.363,5.011 -3.613,5.102 -3.867,5.187 -3.889,4.956 -3.967,4.719 -3.922,4.495 -3.814,3.939 -3.504,3.455 -3.977,2.829 -4.197,2.535 -3.797,1.692 -3.35,1.423 -2.42,0.862 -1.27,0.519 0,0 m -0.246,-19.94 c -0.012,1.311 -0.953,2.388 -0.195,3.564 0.086,0.131 -0.164,0.508 -0.385,0.617 -0.887,0.439 -1.822,0.817 -2.725,1.208 -0.808,-0.545 -1.295,-2.941 -0.74,-3.539 0.121,-0.13 0.299,-0.238 0.475,-0.324 0.826,-0.403 1.65,-0.804 2.494,-1.183 0.31,-0.139 0.67,-0.216 1.076,-0.343 m 13.904,3.645 c 0.238,-2.059 0.387,-2.249 2.731,-2.939 0.826,-0.244 1.531,0.021 1.666,0.667 0.162,0.769 0.191,1.588 0.015,2.348 -0.062,0.265 -0.912,0.417 -1.394,0.63 -0.063,0.027 -0.061,0.144 -0.121,0.166 -0.742,0.277 -1.491,0.543 -2.237,0.813 -0.218,-0.562 -0.439,-1.123 -0.66,-1.685 m -32.664,-3.561 c 0.154,0.036 0.309,0.07 0.465,0.105 v 3.778 c -1.58,-0.458 -1.68,-0.411 -1.451,0.681 -0.83,0.309 -1.684,0.625 -2.678,0.995 v -3.08 c 0.277,-0.072 0.818,-0.158 0.815,-0.221 -0.114,-1.624 1.865,-1.543 2.849,-2.258 m -1.68,30.183 c 0.756,2.583 2.922,4.292 6.297,4.911 1.112,0.204 1.635,0.571 2.069,1.391 1.584,2.996 4.521,4.782 8.664,5.371 0.193,0.028 0.373,0.121 0.56,0.185 h 2.563 c 0.193,-0.059 0.381,-0.149 0.582,-0.171 2.586,-0.291 4.779,-1.185 6.535,-2.66 0.551,-0.461 0.984,-0.519 1.742,-0.353 2.383,0.523 4.682,0.043 5.858,-1.537 1.087,-1.463 2.457,-2.153 4.359,-2.802 3.607,-1.229 5.35,-4.431 4.441,-7.363 C 22.059,4.312 18.631,2.223 14.604,2.2 12.693,2.189 10.785,2.198 8.789,2.198 8.926,1.028 8.041,0.506 6.975,0.069 6.07,-0.3 5.242,-0.817 4.291,-1.07 2.207,-1.625 1.697,-2.74 2.063,-4.263 2.078,-4.322 2.133,-4.376 2.236,-4.54 h 1.307 c 4.523,0 9.049,0.011 13.574,-0.005 2.037,-0.008 3.106,-0.825 3.153,-2.343 0.015,-0.494 0.068,-0.992 0.005,-1.481 -0.078,-0.617 0.258,-0.952 0.948,-1.233 1.507,-0.613 2.964,-1.3 4.459,-1.933 0.957,-0.403 1.414,-0.974 1.388,-1.834 -0.047,-1.514 -0.047,-3.03 -0.008,-4.544 0.024,-0.853 -0.408,-1.425 -1.369,-1.842 -1.922,-0.834 -3.812,-1.712 -5.716,-2.572 h -1.026 c -1.992,0.887 -3.974,1.783 -5.978,2.654 -0.828,0.361 -1.221,0.86 -1.209,1.602 0.029,1.614 0.029,3.23 0,4.845 -0.012,0.738 0.349,1.252 1.193,1.604 1.162,0.486 2.25,1.099 3.463,1.489 1.641,0.53 2.293,1.314 2.086,2.717 -0.194,1.304 -0.238,1.478 -1.934,1.477 -4.443,-0.001 -8.886,-0.005 -13.328,-0.014 -0.371,0 -0.74,-0.038 -1.207,-0.064 0,-0.868 0.039,-1.656 -0.016,-2.44 -0.035,-0.527 0.18,-0.828 0.809,-1.083 1.584,-0.644 3.111,-1.372 4.68,-2.042 0.879,-0.375 1.261,-0.897 1.238,-1.685 -0.049,-1.548 -0.049,-3.099 0.012,-4.648 0.033,-0.856 -0.356,-1.427 -1.34,-1.839 -1.986,-0.831 -3.936,-1.712 -5.9,-2.573 H 0.75 c -1.963,0.858 -3.914,1.731 -5.891,2.57 -0.91,0.386 -1.373,0.903 -1.345,1.735 0.049,1.546 0.066,3.096 -0.008,4.641 -0.043,0.918 0.455,1.475 1.453,1.893 1.535,0.642 3.049,1.317 4.549,2.008 0.289,0.132 0.654,0.393 0.672,0.611 0.074,0.939 0.031,1.884 0.031,2.93 H -1.434 -13.08 c -3.172,0.001 -3.133,0 -3.147,-2.408 -0.003,-0.658 0.284,-1.014 1,-1.31 1.502,-0.619 2.957,-1.309 4.456,-1.933 0.882,-0.367 1.298,-0.874 1.279,-1.66 -0.039,-1.579 -0.043,-3.161 0.004,-4.74 0.023,-0.823 -0.405,-1.358 -1.325,-1.75 -1.972,-0.841 -3.916,-1.722 -5.871,-2.587 h -1.025 c -1.83,0.827 -3.635,1.691 -5.502,2.47 -1.103,0.461 -1.627,1.08 -1.598,2.049 0.047,1.483 0.051,2.967 0.008,4.45 -0.025,0.861 0.432,1.425 1.399,1.828 1.502,0.624 2.957,1.313 4.465,1.929 0.687,0.281 1.029,0.621 0.941,1.239 -0.068,0.456 -0.025,0.922 -0.018,1.383 0.026,1.587 1.098,2.431 3.18,2.437 4.953,0.015 9.906,0.005 15.057,0.005 0,0.756 0.058,1.469 -0.034,2.171 -0.029,0.218 -0.41,0.463 -0.707,0.598 -1.541,0.705 -3.097,1.392 -4.668,2.055 -0.919,0.389 -1.337,0.928 -1.312,1.755 0.049,1.581 0.035,3.164 -0.01,4.746 -0.023,0.747 0.354,1.258 1.176,1.617 1.781,0.781 3.514,1.638 5.355,2.321 0.623,0.23 1.633,0.221 2.256,-0.012 C 4.156,10.012 5.98,9.202 7.715,8.308 8.248,8.034 8.641,7.372 8.719,6.854 8.873,5.822 8.766,4.768 8.766,3.573 c 2.953,0.173 5.798,-0.384 8.496,0.482 3.611,1.157 5.127,4.58 3.297,7.217 -1.86,2.678 -6.254,3.582 -9.59,1.969 -0.18,-0.087 -0.334,-0.273 -0.512,-0.281 -0.455,-0.02 -0.914,0.035 -1.373,0.06 0.096,0.373 0.031,0.954 0.314,1.083 1.262,0.577 2.625,1.025 4.053,1.558 -0.49,1.029 -1.394,1.799 -2.988,2.025 C 8.918,17.904 7.709,17.463 6.725,16.583 6.504,16.386 6.416,16.064 6.154,15.938 5.812,15.771 5.248,15.582 4.982,15.692 c -0.265,0.111 -0.47,0.629 -0.363,0.881 0.207,0.485 0.656,0.906 1.006,1.354 -2.018,2.186 -5.957,3.26 -9.574,2.607 -3.35,-0.604 -6.371,-2.83 -6.846,-5.082 0.656,-0.182 1.336,-0.348 1.99,-0.559 0.635,-0.206 1.391,-0.447 1.004,-1.132 -0.387,-0.688 -1.082,-0.406 -1.738,-0.196 -3.744,1.199 -7.785,-0.119 -9.137,-2.966 -1.568,-3.303 1.621,-6.888 6.231,-6.991 0.982,-0.02 1.972,0.046 2.941,-0.042 0.352,-0.032 0.65,-0.397 0.973,-0.611 -0.28,-0.248 -0.547,-0.701 -0.842,-0.713 -2.998,-0.116 -5.988,-0.188 -8.475,1.505"
         style="fill:#eb9612;fill-opacity:0.80000001;fill-rule:evenodd;stroke:#000000;stroke-width:0.75000002;stroke-miterlimit:4;stroke-dasharray:none;stroke-opacity:1"
         id="path56"
         inkscape:connector-curvature="0" /></g><g
       id="g58"
       transform="translate(328.2305,168.7642)"><path
         d="M 0,0 H 44.031"
         style="fill:none;stroke:#231f20;stroke-width:2;stroke-linecap:butt;stroke-linejoin:miter;stroke-miterlimit:10;stroke-dasharray:none;stroke-opacity:1"
         id="path60"
         inkscape:connector-curvature="0" /></g><g
       id="g62"
       transform="translate(366.3516,165.5835)"><path
         d="M 0,0 -0.342,0.94 5.812,3.181 -0.342,5.421 0,6.36 8.736,3.181 Z"
         style="fill:#231f20;fill-opacity:1;fill-rule:nonzero;stroke:none"
         id="path64"
         inkscape:connector-curvature="0" /></g></g></g>



<g
   id="g78"><g
     id="g80"
     clip-path="url(#clipPath84)"><g
       id="g86"
       transform="translate(67.333,113.4995)"><path
         d="M 0,0 H 99.137"
         style="fill:none;stroke:#231f20;stroke-width:3;stroke-linecap:round;stroke-linejoin:miter;stroke-miterlimit:10;stroke-dasharray:none;stroke-opacity:1"
         id="path88"
         inkscape:connector-curvature="0" /></g><g
       id="g90"
       transform="translate(158.5176,103.6851)"><path
         d="M 0,0 -1.637,1.758 7.031,9.813 -1.637,17.871 0,19.629 10.555,9.813 Z"
         style="fill:#231f20;fill-opacity:1;fill-rule:nonzero;stroke:none"
         id="path92"
         inkscape:connector-curvature="0" /></g><g
       id="g98"
       transform="translate(193.1543,96.6157)"><path
         d="m 0,0 c -1.805,0.011 -3.305,-1.473 -3.328,-3.292 -0.022,-1.821 1.478,-3.339 3.31,-3.349 1.844,-0.007 3.356,1.469 3.372,3.292 C 3.367,-1.506 1.871,-0.012 0,0 m 0.227,-8.604 c -2.766,-0.181 -5.327,2.096 -5.498,4.888 -0.188,3.025 2.003,5.527 5.07,5.676 2.924,0.143 5.267,-2.054 5.486,-4.846 0.236,-3.05 -1.971,-5.517 -5.058,-5.718"
         style="fill:#231f20;fill-opacity:1;fill-rule:evenodd;stroke:none"
         id="path100"
         inkscape:connector-curvature="0" /></g><g
       id="g102"
       transform="translate(193.0156,81.7466)"><path
         d="m 0,0 v 0.002 h 1.051 c 0.791,0 1.228,0.42 1.236,1.207 0.008,0.699 0.018,1.4 -0.002,2.1 C 2.27,3.777 2.438,4.125 2.857,4.326 3.238,4.508 3.676,4.395 4.027,4.045 4.535,3.543 5.033,3.033 5.543,2.535 6.08,2.012 6.684,2.014 7.211,2.535 7.729,3.046 8.24,3.562 8.752,4.076 9.322,4.649 9.324,5.209 8.75,5.796 8.26,6.296 7.766,6.791 7.268,7.281 6.926,7.617 6.793,8.005 6.988,8.451 c 0.188,0.43 0.545,0.596 1.01,0.588 0.713,-0.012 1.426,-0.008 2.139,0.002 0.752,0.01 1.177,0.436 1.183,1.178 0.006,0.7 0.008,1.399 0.002,2.098 -0.004,0.904 -0.4,1.288 -1.316,1.292 -0.711,0.004 -1.426,-0.008 -2.139,0.01 -0.441,0.012 -0.762,0.231 -0.91,0.666 -0.145,0.42 -0.012,0.76 0.289,1.059 0.488,0.483 0.973,0.968 1.457,1.456 0.635,0.635 0.633,1.197 -0.008,1.842 C 8.221,19.12 7.742,19.594 7.268,20.07 6.682,20.657 6.115,20.669 5.514,20.085 4.992,19.579 4.488,19.056 3.969,18.547 3.643,18.226 3.242,18.146 2.859,18.326 2.471,18.51 2.281,18.821 2.287,19.259 c 0.008,0.713 0.008,1.427 0.002,2.14 -0.008,0.818 -0.432,1.247 -1.246,1.253 -0.727,0.007 -1.453,0.002 -2.18,-0.006 -0.748,-0.009 -1.166,-0.442 -1.166,-1.191 0,-0.7 -0.01,-1.399 0.002,-2.099 0.008,-0.474 -0.14,-0.851 -0.603,-1.037 -0.451,-0.181 -0.834,-0.042 -1.168,0.297 -0.471,0.481 -0.951,0.951 -1.426,1.429 -0.621,0.625 -1.176,0.632 -1.811,0.011 -0.49,-0.481 -0.974,-0.967 -1.457,-1.457 -0.58,-0.588 -0.578,-1.172 0.002,-1.758 0.512,-0.517 1.028,-1.028 1.541,-1.544 0.293,-0.295 0.375,-0.643 0.235,-1.035 -0.145,-0.393 -0.43,-0.615 -0.85,-0.625 -0.781,-0.02 -1.56,-0.024 -2.34,-0.034 -0.738,-0.011 -1.168,-0.445 -1.17,-1.189 -0.002,-0.714 -0.002,-1.427 -0.004,-2.14 0,-0.782 0.438,-1.231 1.215,-1.237 0.701,-0.006 1.401,-0.007 2.1,0.004 0.476,0.008 0.838,-0.168 1.039,-0.611 0.182,-0.402 0.076,-0.784 -0.305,-1.162 -0.504,-0.503 -1.015,-1.001 -1.513,-1.511 -0.512,-0.528 -0.51,-1.12 0.002,-1.638 0.529,-0.537 1.062,-1.07 1.599,-1.599 0.514,-0.506 1.121,-0.506 1.637,0 0.51,0.499 1.021,0.997 1.512,1.515 C -3.73,4.391 -3.34,4.511 -2.9,4.334 -2.471,4.162 -2.293,3.797 -2.301,3.332 -2.311,2.619 -2.307,1.904 -2.303,1.191 -2.299,0.457 -1.855,0.006 -1.131,0 -0.754,-0.002 -0.377,0 0,0 m 22.271,12.777 c 0,0.571 0.028,1.096 -0.005,1.618 -0.135,2.159 -0.235,4.321 -0.452,6.471 -0.168,1.677 -0.638,3.289 -1.488,4.77 -1.051,1.831 -2.611,3.121 -4.412,4.149 -2.547,1.454 -5.303,2.384 -8.109,3.185 C 7.672,33.007 7.475,32.925 7.342,32.842 5.41,31.646 3.311,30.94 1.051,30.782 c -3.037,-0.213 -5.869,0.465 -8.461,2.089 -0.115,0.073 -0.311,0.108 -0.436,0.067 -2.476,-0.81 -4.927,-1.683 -7.242,-2.894 -1.615,-0.845 -3.131,-1.834 -4.342,-3.229 -1.632,-1.88 -2.252,-4.162 -2.494,-6.558 -0.191,-1.897 -0.263,-3.807 -0.371,-5.711 -0.033,-0.585 -0.006,-1.171 -0.006,-1.762 h 9 c 0.102,0.78 0.403,1.435 0.961,1.971 0.557,0.532 1.24,0.751 2.014,0.847 -0.059,0.081 -0.09,0.123 -0.121,0.164 -1.03,1.321 -0.932,2.981 0.246,4.161 0.551,0.552 1.099,1.107 1.654,1.657 1.078,1.07 2.762,1.183 3.979,0.27 0.091,-0.069 0.189,-0.131 0.298,-0.208 0.151,1.658 1.125,2.758 2.733,2.932 1.01,0.109 2.047,0.085 3.062,0.009 1.108,-0.085 1.946,-0.679 2.413,-1.707 0.169,-0.377 0.248,-0.795 0.371,-1.201 0.043,0.031 0.097,0.068 0.15,0.107 1.293,0.998 2.949,0.902 4.1,-0.24 0.582,-0.579 1.193,-1.133 1.73,-1.752 0.307,-0.356 0.57,-0.793 0.709,-1.238 0.338,-1.078 0.053,-2.062 -0.684,-2.946 1.713,-0.215 2.706,-1.161 2.987,-2.833 z M 13.268,10.8 C 13.33,9.855 13.229,8.988 12.637,8.248 12.049,7.514 11.289,7.122 10.309,7.082 10.371,6.983 10.412,6.904 10.465,6.834 11.406,5.584 11.373,4.035 10.33,2.883 9.727,2.216 9.086,1.574 8.414,0.977 7.225,-0.079 5.684,-0.094 4.434,0.885 4.383,0.924 4.334,0.963 4.254,1.023 4.152,-0.199 3.621,-1.117 2.537,-1.639 2.184,-1.808 1.771,-1.914 1.383,-1.932 0.441,-1.975 -0.502,-1.963 -1.443,-1.943 -2.848,-1.916 -4.115,-0.684 -4.248,0.752 -4.254,0.829 -4.258,0.906 -4.266,1.037 -4.793,0.582 -5.352,0.297 -6.01,0.213 -6.936,0.097 -7.75,0.338 -8.426,0.967 c -0.658,0.615 -1.291,1.26 -1.914,1.911 -0.996,1.038 -1.086,2.691 -0.23,3.855 0.072,0.098 0.146,0.192 0.252,0.332 -0.969,0.069 -1.756,0.435 -2.342,1.179 -0.588,0.744 -0.701,1.609 -0.617,2.58 h -0.496 c -3.123,-10e-4 -6.245,-0.002 -9.368,-10e-4 -0.88,0 -1.205,0.397 -1.166,1.287 0.063,1.478 0.055,2.958 0.121,4.436 0.108,2.336 0.28,4.665 0.874,6.943 0.863,3.315 2.929,5.682 5.792,7.431 2.315,1.415 4.821,2.409 7.366,3.312 0.72,0.255 1.447,0.49 2.172,0.735 0.431,0.145 0.82,0.113 1.216,-0.161 2.223,-1.533 4.696,-2.227 7.385,-2.092 2.221,0.111 4.264,0.801 6.096,2.076 0.389,0.271 0.765,0.319 1.213,0.191 2.935,-0.835 5.824,-1.791 8.517,-3.252 2.168,-1.177 4.069,-2.664 5.393,-4.794 1.017,-1.637 1.541,-3.443 1.849,-5.325 0.375,-2.273 0.467,-4.569 0.528,-6.867 0.023,-0.914 0.049,-1.828 0.08,-2.742 0.025,-0.797 -0.334,-1.178 -1.119,-1.178 -3.162,0 -6.326,-0.002 -9.488,-0.004 -0.12,0 -0.239,-0.009 -0.42,-0.019"
         style="fill:#231f20;fill-opacity:1;fill-rule:evenodd;stroke:none"
         id="path104"
         inkscape:connector-curvature="0" /></g><g
       id="g106"
       transform="translate(193.0078,139.813)"><path
         d="m 0,0 c -6.078,-0.03 -10.971,-4.944 -10.947,-10.998 0.021,-5.978 4.994,-10.925 10.941,-10.888 6.135,0.037 11.008,4.948 10.934,11.122 C 10.855,-4.783 5.982,-0.023 0,0 M 0.016,1.949 C 7.064,2.007 12.844,-3.76 12.887,-10.919 12.93,-17.913 7.344,-23.56 0.545,-23.825 -6.979,-24.12 -12.867,-18.122 -12.9,-11.007 -12.934,-3.821 -7.08,1.994 0.016,1.949"
         style="fill:#231f20;fill-opacity:1;fill-rule:evenodd;stroke:none"
         id="path108"
         inkscape:connector-curvature="0" /></g><path
       style="fill:#92cddc;fill-opacity:1;stroke:#000000;stroke-width:1.13385832;stroke-miterlimit:4;stroke-dasharray:none;stroke-opacity:1"
       d="m 54.092919,141.79514 c 0.68511,-2.1109 0.729303,-3.8804 0.137565,-5.73083 -0.395085,-1.23375 -0.951928,-2.17976 -1.928313,-3.27555 -0.518769,-0.5822 -1.633566,-1.53983 -2.127736,-1.82727 l -0.290183,-0.16837 v -5.20322 -5.2026 l 1.131753,-8.7023 c 0.73125,-5.62272 1.113131,-8.84588 1.078667,-9.10962 -0.10562,-0.80992 -0.783917,-1.57201 -1.575617,-1.77001 -1.066854,-0.26674 -2.285599,0.38231 -2.588826,1.37894 -0.05835,0.18992 -0.55059,3.79347 -1.095204,8.00788 -0.544336,4.21438 -1.014184,7.79748 -1.044202,7.9626 l -0.05421,0.30047 h -0.637579 -0.638415 l -0.0542,-0.34656 c -0.03063,-0.19049 -0.498894,-3.79616 -1.041981,-8.01286 -0.543223,-4.21665 -1.028639,-7.79253 -1.079638,-7.94631 -0.05002,-0.15364 -0.222211,-0.43594 -0.381882,-0.62654 -0.935527,-1.11767 -2.638855,-1.00843 -3.478495,0.2228 -0.140359,0.20608 -0.28045,0.54746 -0.3117,0.75949 -0.03761,0.25143 0.336594,3.41844 1.073662,9.0919 l 1.13078,8.70588 -0.01395,4.17931 v 4.1794 l -0.238458,-0.60037 c -0.286848,-0.72185 -0.622159,-2.27741 -0.787808,-3.65602 -0.07503,-0.62146 -0.123687,-2.19625 -0.126442,-4.10292 -0.01395,-3.40911 0,-3.34111 -0.603815,-3.71398 -0.63508,-0.38942 -1.547122,-0.16243 -1.928174,0.48016 -0.162734,0.27439 -0.196506,0.56426 -0.259319,2.2134 -0.299062,7.85109 1.34326,12.70579 4.578842,13.53569 0.43608,0.11169 1.207214,0.13947 3.884979,0.13947 h 3.340923 l 0.46165,0.29472 c 0.68664,0.43809 2.007389,1.79438 2.411508,2.47719 0.584496,0.98751 0.772379,1.71734 0.761261,2.95523 -0.01389,1.17545 -0.171072,1.92172 -0.715958,3.11075 z m -8.74982,-0.0899 c 1.986821,-0.10913 3.696958,-1.80759 3.696958,-3.89009 0,-1.04828 -0.346442,-1.87611 -1.116746,-2.66953 -0.507232,-0.52254 -0.856041,-0.74954 -1.531005,-0.9957 -0.396475,-0.14457 -0.681221,-0.17433 -1.432757,-0.15137 -0.827829,0.0255 -1.010574,0.0635 -1.55477,0.32162 -1.224582,0.58198 -2.11481,1.86063 -2.216118,3.1822 -0.156878,2.04936 1.209018,3.77124 3.290615,4.1489 0.290724,0.053 0.58005,0.0694 0.863823,0.0539 z"
       id="path10401-5-2-9"
       inkscape:connector-curvature="0" /><path
       style="fill:#92cddc;fill-opacity:1;stroke:#000000;stroke-width:1.13385832;stroke-miterlimit:4;stroke-dasharray:none;stroke-opacity:1"
       d="m 49.306595,142.23253 c -0.27002,0.52214 -0.676077,2.60308 -1.403433,7.14237 -0.628133,3.9189 -1.108823,7.33734 -1.069634,7.59589 0.06394,0.42205 0.450396,0.52979 3.78117,1.06296 2.040321,0.32661 3.908046,0.53683 4.149017,0.46698 0.241087,-0.07 0.490276,-0.2418 0.556426,-0.38194 0.373119,-0.7918 2.2699,-14.23307 2.059224,-14.59352 -0.190121,-0.32508 -1.061714,-0.54593 -3.920415,-0.99547 -2.021565,-0.31777 -3.842874,-0.51123 -4.045626,-0.42931 -0.03334,0.0142 -0.06808,0.0573 -0.107017,0.13181 z m 0.385099,2.56793 2.955984,0.45544 c 1.625361,0.24974 3.098697,0.49139 3.274214,0.53748 0.217758,0.057 0.0959,1.51081 -0.383705,4.57075 -0.927472,5.92294 -0.854931,5.60166 -1.246683,5.54364 -3.910545,-0.57918 -6.137085,-0.94836 -6.160017,-1.02215 -0.01511,-0.0507 0.329229,-2.3413 0.76641,-5.08901 z"
       id="path10401-6-9-8-1"
       inkscape:connector-curvature="0" /></g></g><text
   transform="matrix(1,0,0,-1,72.5635,117.7612)"
   style="font-variant:normal;font-weight:normal;font-stretch:normal;font-size:12px;font-family:'Myriad Pro';-inkscape-font-specification:MyriadPro-Regular;writing-mode:lr-tb;fill:#231f20;fill-opacity:1;fill-rule:nonzero;stroke:none"
   id="text118"><tspan
     x="0 5.9879999 12 16.224001 21.996 24.804001 30.1068 36.118801 38.6628 42.466801 48.478802 55.234798 61.846802 67.858803 72.610802"
     y="0"
     sodipodi:role="line"
     id="tspan110">Service request</tspan><tspan
     x="-43.296001 -39.612 -37.068001 -33.720001 -27.708 -20.940001 -14.928 -11.064 -5.3280001 -1.3559999 1.452 8.04 14.7 17.243999 22.548 29.136 33.888"
     y="71.652"
     sodipodi:role="line"
     id="tspan112">- federation cost</tspan><tspan
     x="-25.799999 -22.115999 -19.572001 -14.82 -8.8079996 -4.5851998 1.1868 3.9948001 9.2988005 15.3108 17.854799 24.6828 28.6548 31.462799 36.7668"
     y="95.664001"
     sodipodi:role="line"
     id="tspan114">- service price</tspan><tspan
     x="-43.296001 -39.612 -37.068001 -34.236 -27.648001 -22.271999 -16.488001 -13.656 -11.112 -8.3039999 -1.6440001 3.6612 10.2492 20.2572"
     y="52.728001"
     sodipodi:role="line"
     id="tspan116">- local income</tspan></text>






<g
   id="g120"><g
     id="g122"
     clip-path="url(#clipPath126)"><g
       id="g128"
       transform="translate(215.3027,93.3892)"><path
         d="M 0,0 C 17.271,3.439 34.54,-4.956 40.497,-14.55"
         style="fill:none;stroke:#231f20;stroke-width:2;stroke-linecap:butt;stroke-linejoin:miter;stroke-miterlimit:10;stroke-dasharray:none;stroke-opacity:1"
         id="path130"
         inkscape:connector-curvature="0" /></g><g
       id="g132"
       transform="translate(250.3276,78.396)"><path
         d="M 0,0 7.65,-6.396 9.366,3.427 Z"
         style="fill:#231f20;fill-opacity:1;fill-rule:nonzero;stroke:none"
         id="path134"
         inkscape:connector-curvature="0" /></g><g
       id="g136"
       style="stroke-width:0.52500001;stroke-miterlimit:4;stroke-dasharray:none;stroke:#231f20;stroke-opacity:1;fill:#71adbd;fill-opacity:1"><g
         id="g138"
         style="stroke-width:0.52500001;stroke-miterlimit:4;stroke-dasharray:none;stroke:#231f20;stroke-opacity:1;fill:#71adbd;fill-opacity:1" /><g
         id="g148"
         style="stroke-width:0.52500001;stroke-miterlimit:4;stroke-dasharray:none;stroke:#231f20;stroke-opacity:1;fill:#71adbd;fill-opacity:1"><g
           clip-path="url(#clipPath142)"
           id="g146"
           style="opacity:0.80000299;stroke-width:0.52500001;stroke-miterlimit:4;stroke-dasharray:none;stroke:#231f20;stroke-opacity:1;fill:#71adbd;fill-opacity:1"><path
             d="m 116.331,156 h -14.983 v 14.982 h 14.983 z"
             style="fill:#71adbd;fill-opacity:1;fill-rule:nonzero;stroke:#231f20;stroke-width:0.52500001;stroke-miterlimit:4;stroke-dasharray:none;stroke-opacity:1"
             id="path144"
             inkscape:connector-curvature="0" /></g></g></g><g
       id="g150"><g
         id="g152" /><g
         id="g162"><g
           clip-path="url(#clipPath156)"
           id="g160"
           style="opacity:0.80000299"><path
             d="m 135.06,156 h -14.982 v 14.982 h 14.982 z"
             style="fill:#eb9612;fill-opacity:1;fill-rule:nonzero;stroke:none"
             id="path158"
             inkscape:connector-curvature="0" /></g></g></g><g
       id="g164"><g
         id="g166" /><g
         id="g176"><g
           clip-path="url(#clipPath170)"
           id="g174"
           style="opacity:0.80000299"><path
             d="m 135.06,137.27 h -14.982 v 14.983 h 14.982 z"
             style="fill:#eb9612;fill-opacity:1;fill-rule:nonzero;stroke:none"
             id="path172"
             inkscape:connector-curvature="0" /></g></g></g><g
       id="g178"><g
         id="g180" /><g
         id="g190"><g
           clip-path="url(#clipPath184)"
           id="g188"
           style="opacity:0.80000299"><path
             d="m 116.331,137.27 h -14.983 v 14.983 h 14.983 z"
             style="fill:#eb9612;fill-opacity:1;fill-rule:nonzero;stroke:none"
             id="path186"
             inkscape:connector-curvature="0" /></g></g></g><g
       id="g192"><g
         id="g194" /><g
         id="g204"><g
           clip-path="url(#clipPath198)"
           id="g202"
           style="opacity:0.80000299"><path
             d="M 327.75,144.498 H 312.768 V 159.48 H 327.75 Z"
             style="fill:#eb9612;fill-opacity:1;fill-rule:nonzero;stroke:none"
             id="path200"
             inkscape:connector-curvature="0" /></g></g></g><g
       id="g206"><g
         id="g208" /><g
         id="g218"><g
           clip-path="url(#clipPath212)"
           id="g216"
           style="opacity:0.80000299"><path
             d="m 327.75,125.768 h -14.982 v 14.983 h 14.982 z"
             style="fill:#eb9612;fill-opacity:1;fill-rule:nonzero;stroke:none"
             id="path214"
             inkscape:connector-curvature="0" /></g></g></g><g
       id="g220"><g
         id="g222" /><g
         id="g232"><g
           clip-path="url(#clipPath226)"
           id="g230"
           style="opacity:0.80000299"><path
             d="m 309.021,125.768 h -14.983 v 14.983 h 14.983 z"
             style="fill:#eb9612;fill-opacity:1;fill-rule:nonzero;stroke:none"
             id="path228"
             inkscape:connector-curvature="0" /></g></g></g><path
       d="m 25.503,65.036 h -6.855 v 6.855 h 6.855 z"
       style="fill:#ed1c24;fill-opacity:1;fill-rule:nonzero;stroke:none"
       id="path234"
       inkscape:connector-curvature="0" /><g
       id="g236"><g
         id="g238" /><g
         id="g248"><g
           clip-path="url(#clipPath242)"
           id="g246"
           style="opacity:0.80000299"><path
             d="m 25.503,46.109 h -6.855 v 6.854 h 6.855 z"
             style="fill:#eb9612;fill-opacity:1;fill-rule:nonzero;stroke:none"
             id="path244"
             inkscape:connector-curvature="0" /></g></g></g></g></g><text
   transform="matrix(0.99748967,0,0,-1,24.3027,146.7588)"
   style="font-variant:normal;font-weight:bold;font-stretch:normal;font-size:12.03030014px;font-family:'Segoe UI';-inkscape-font-specification:SegoeUI-Bold;writing-mode:lr-tb;fill:#231f20;fill-opacity:1;fill-rule:nonzero;stroke:none"
   id="text258"><tspan
     sodipodi:role="line"
     id="tspan250"
     x="0"
     y="10.643996" /><tspan
     x="145.91551 152.65849 159.05861 166.9144 174.93861 178.75221 186.25912"
     y="81.721825"
     sodipodi:role="line"
     id="tspan252">SERVICE</tspan><tspan
     x="139.68381 147.07042 154.8071 163.92607 171.95029 175.76389 184.63022 191.03033"
     y="96.158188"
     sodipodi:role="line"
     id="tspan254">PROVIDER</tspan><tspan
     x="149.36821 157.71002 166.26357 172.66368 182.16762"
     y="110.59455"
     sodipodi:role="line"
     id="tspan256">AGENT</tspan></text>






<g
   id="g260"><g
     id="g262"
     clip-path="url(#clipPath266)"><g
       id="g268"
       transform="translate(223.7871,44.9185)"><path
         d="M 0,0 H 104"
         style="fill:none;stroke:#231f20;stroke-width:4;stroke-linecap:butt;stroke-linejoin:miter;stroke-miterlimit:10;stroke-dasharray:none;stroke-opacity:1"
         id="path270"
         inkscape:connector-curvature="0" /></g><g
       id="g272"
       transform="translate(323.3145,16.3579)"><path
         d="m 0,0 c 0,-3.131 -3.131,-5.668 -6.994,-5.668 h -83.072 c -3.864,0 -6.995,2.537 -6.995,5.668 v 11.072 c 0,3.131 3.131,5.67 6.995,5.67 H -6.994 C -3.131,16.742 0,14.203 0,11.072 Z"
         style="fill:#231f20;fill-opacity:1;fill-rule:nonzero;stroke:none"
         id="path274"
         inkscape:connector-curvature="0" /></g><path
       d="m 319.408,14.266 h -88.826 v 15.666 h 88.826 z"
       style="fill:#ffffff;fill-opacity:1;fill-rule:nonzero;stroke:#231f20;stroke-width:1;stroke-linecap:butt;stroke-linejoin:miter;stroke-miterlimit:10;stroke-dasharray:none;stroke-opacity:1"
       id="path276"
       inkscape:connector-curvature="0" /></g></g><text
   transform="matrix(1,0,0,-1,234.7729,18.3979)"
   style="font-variant:normal;font-weight:bold;font-stretch:normal;font-size:12px;font-family:'Myriad Pro';-inkscape-font-specification:MyriadPro-Bold;writing-mode:lr-tb;fill:#231f20;fill-opacity:1;fill-rule:nonzero;stroke:none"
   id="text280"><tspan
     x="0 6.816 12.996 19.332001 23.76 30.096001 33.396 36.695999 39.119999 42.408001 49.439999 54.721199 61.645199 71.965202"
     y="0"
     sodipodi:role="line"
     id="tspan278">overall income</tspan></text>






<g
   id="g282"><g
     id="g284"
     clip-path="url(#clipPath288)"><g
       id="g290"
       transform="translate(268.9512,34.9399)"><path
         d="M 0,0 H 9.5"
         style="fill:none;stroke:#231f20;stroke-width:2;stroke-linecap:butt;stroke-linejoin:miter;stroke-miterlimit:10;stroke-dasharray:none;stroke-opacity:1"
         id="path292"
         inkscape:connector-curvature="0" /></g><g
       id="g294"
       transform="translate(268.9512,38.2329)"><path
         d="M 0,0 H 9.5"
         style="fill:none;stroke:#231f20;stroke-width:2;stroke-linecap:butt;stroke-linejoin:miter;stroke-miterlimit:10;stroke-dasharray:none;stroke-opacity:1"
         id="path296"
         inkscape:connector-curvature="0" /></g><g
       id="g298"
       transform="translate(268.9512,41.1489)"><path
         d="M 0,0 H 9.5"
         style="fill:none;stroke:#231f20;stroke-width:2;stroke-linecap:butt;stroke-linejoin:miter;stroke-miterlimit:10;stroke-dasharray:none;stroke-opacity:1"
         id="path300"
         inkscape:connector-curvature="0" /></g><g
       id="g302"
       transform="translate(139.9199,136.7593)"><path
         d="M 0,0 C 0,-2.249 -1.47,-4.071 -3.282,-4.071 H -40.15 c -1.813,0 -3.284,1.822 -3.284,4.071 v 34.734 c 0,2.248 1.471,4.072 3.284,4.072 H -3.282 C -1.47,38.806 0,36.982 0,34.734 Z"
         style="fill:none;stroke:#231f20;stroke-width:1;stroke-linecap:butt;stroke-linejoin:miter;stroke-miterlimit:10;stroke-dasharray:2;stroke-dashoffset:0;stroke-opacity:1"
         id="path304"
         inkscape:connector-curvature="0" /></g><path
       d="M 39.506,15.091 H 18.987 v 20.518 h 20.519 z"
       style="fill:#00adee;fill-opacity:0.60000002;fill-rule:nonzero;stroke:none"
       id="path306"
       inkscape:connector-curvature="0" /><g
       id="g308"><g
         id="g310" /><g
         id="g320"
         style="fill:#71adbd;fill-opacity:1;stroke-width:0.37500001;stroke-miterlimit:4;stroke-dasharray:none;stroke:#231f20;stroke-opacity:1"><g
           clip-path="url(#clipPath314)"
           id="g318"
           style="opacity:0.80000299;fill:#71adbd;fill-opacity:1;stroke-width:0.37500001;stroke-miterlimit:4;stroke-dasharray:none;stroke:#231f20;stroke-opacity:1"><path
             d="m 28.206,26.439 h -8.327 v 8.327 h 8.327 z"
             style="fill:#71adbd;fill-opacity:1;fill-rule:nonzero;stroke:#231f20;stroke-width:0.37500001;stroke-miterlimit:4;stroke-dasharray:none;stroke-opacity:1"
             id="path316"
             inkscape:connector-curvature="0" /></g></g></g><g
       id="g322"><g
         id="g324" /><g
         id="g334"><g
           clip-path="url(#clipPath328)"
           id="g332"
           style="opacity:0.80000299"><path
             d="m 38.615,26.439 h -8.327 v 8.327 h 8.327 z"
             style="fill:#eb9612;fill-opacity:1;fill-rule:nonzero;stroke:none"
             id="path330"
             inkscape:connector-curvature="0" /></g></g></g><g
       id="g336"><g
         id="g338" /><g
         id="g348"><g
           clip-path="url(#clipPath342)"
           id="g346"
           style="opacity:0.80000299"><path
             d="m 38.615,16.03 h -8.327 v 8.327 h 8.327 z"
             style="fill:#eb9612;fill-opacity:1;fill-rule:nonzero;stroke:none"
             id="path344"
             inkscape:connector-curvature="0" /></g></g></g><g
       id="g350"><g
         id="g352" /><g
         id="g362"><g
           clip-path="url(#clipPath356)"
           id="g360"
           style="opacity:0.80000299"><path
             d="m 28.206,16.03 h -8.327 v 8.327 h 8.327 z"
             style="fill:#eb9612;fill-opacity:1;fill-rule:nonzero;stroke:none"
             id="path358"
             inkscape:connector-curvature="0" /></g></g></g><g
       id="g364"
       transform="translate(41.3159,15.7456)"><path
         d="m 0,0 c 0,-1.25 -0.817,-2.262 -1.824,-2.262 h -20.49 c -1.008,0 -1.825,1.012 -1.825,2.262 v 19.304 c 0,1.25 0.817,2.263 1.825,2.263 h 20.49 C -0.817,21.567 0,20.554 0,19.304 Z"
         style="fill:none;stroke:#231f20;stroke-width:1;stroke-linecap:butt;stroke-linejoin:miter;stroke-miterlimit:10;stroke-dasharray:2;stroke-dashoffset:0;stroke-opacity:1"
         id="path366"
         inkscape:connector-curvature="0" /></g><path
       d="m 281.849,52.805 h -16.297 v 16.296 h 16.297 z"
       style="fill:#71adbd;fill-opacity:1;fill-rule:nonzero;stroke:none"
       id="path368"
       inkscape:connector-curvature="0" /><path
       d="M 124.811,4.912 H 9 v 76.089 h 115.811 z"
       style="fill:none;stroke:#231f20;stroke-width:1;stroke-linecap:butt;stroke-linejoin:miter;stroke-miterlimit:10;stroke-dasharray:none;stroke-opacity:1"
       id="path370"
       inkscape:connector-curvature="0" /><path
       style="fill:#000000;stroke-width:2.83464575"
       d="m 273.01504,54.820099 c -1.5689,0.437531 -2.59525,1.554454 -3.04991,3.318985 l -0.10306,0.400003 h -0.51667 c -0.55761,0 -0.55438,-0.0041 -0.45596,0.588266 0.056,0.336981 0.0753,0.352953 0.42467,0.352953 h 0.36605 v 0.470603 0.470601 h -0.42572 c -0.38121,0 -0.42474,0.02214 -0.41629,0.211769 0.0246,0.551984 0.12246,0.680409 0.55631,0.72945 0.40739,0.04605 0.41871,0.05661 0.53179,0.499652 0.42285,1.656252 1.79395,2.931313 3.51413,3.268005 0.86699,0.169696 2.22746,0.08066 2.83845,-0.18587 0.27317,-0.119089 0.49668,-0.250529 0.49668,-0.291975 0,-0.18231 -0.22769,-1.085762 -0.29238,-1.160144 -0.0394,-0.04517 -0.1918,-5.18e-4 -0.33892,0.0987 -0.42824,0.289628 -0.77031,0.408083 -1.35356,0.468724 -1.3932,0.144893 -2.6677,-0.588515 -3.27397,-1.883934 -0.40683,-0.869295 -0.55462,-0.813171 2.14117,-0.813171 h 2.36939 l -0.059,-0.352959 c -0.0325,-0.194126 -0.0757,-0.405895 -0.0959,-0.470596 -0.0283,-0.09004 -0.59438,-0.117616 -2.41023,-0.117616 h -2.37326 l 0.0288,-0.447067 0.0288,-0.447077 2.254,-0.02525 2.25399,-0.02525 -0.0615,-0.30418 c -0.1399,-0.691725 0.0649,-0.633579 -2.23146,-0.633579 h -2.07672 l 0.0596,-0.258849 c 0.21727,-0.944458 0.84918,-1.73338 1.73515,-2.166261 0.45586,-0.222725 0.6417,-0.257348 1.38133,-0.257348 0.7641,0 0.91692,0.03063 1.44272,0.289834 l 0.58812,0.289865 v -0.694679 -0.694663 l -0.35478,-0.152297 c -0.50065,-0.214925 -2.45151,-0.261545 -3.12186,-0.07464 z"
       id="path3232"
       inkscape:connector-curvature="0" /><path
       style="fill:#000000;stroke-width:2.83464575"
       d="m 108.6508,158.24125 c -1.5689,0.43753 -2.59525,1.55445 -3.04991,3.31898 l -0.10306,0.40001 h -0.51667 c -0.55761,0 -0.55438,-0.004 -0.45596,0.58826 0.056,0.33698 0.0753,0.35296 0.42467,0.35296 h 0.36605 v 0.4706 0.4706 h -0.42572 c -0.38121,0 -0.42474,0.0221 -0.41629,0.21177 0.0246,0.55198 0.12246,0.68041 0.55631,0.72945 0.40739,0.0461 0.41871,0.0566 0.53179,0.49965 0.42285,1.65625 1.79395,2.93131 3.51413,3.26801 0.86699,0.16969 2.22746,0.0807 2.83845,-0.18587 0.27317,-0.11909 0.49668,-0.25053 0.49668,-0.29198 0,-0.18231 -0.22769,-1.08576 -0.29238,-1.16014 -0.0394,-0.0452 -0.1918,-5.2e-4 -0.33892,0.0987 -0.42824,0.28963 -0.77031,0.40808 -1.35356,0.46872 -1.3932,0.14489 -2.6677,-0.58851 -3.27397,-1.88393 -0.40683,-0.8693 -0.55462,-0.81317 2.14117,-0.81317 h 2.36939 l -0.059,-0.35296 c -0.0325,-0.19413 -0.0757,-0.4059 -0.0959,-0.4706 -0.0283,-0.09 -0.59438,-0.11761 -2.41023,-0.11761 h -2.37326 l 0.0288,-0.44707 0.0288,-0.44708 2.254,-0.0252 2.25399,-0.0252 -0.0615,-0.30418 c -0.1399,-0.69172 0.0649,-0.63358 -2.23146,-0.63358 h -2.07672 l 0.0596,-0.25885 c 0.21727,-0.94445 0.84918,-1.73338 1.73515,-2.16626 0.45586,-0.22272 0.6417,-0.25735 1.38133,-0.25735 0.7641,0 0.91692,0.0306 1.44272,0.28984 l 0.58812,0.28986 v -0.69467 -0.69467 l -0.35478,-0.1523 c -0.50065,-0.21492 -2.45151,-0.26154 -3.12186,-0.0746 z"
       id="path3232-7"
       inkscape:connector-curvature="0" /><path
       style="fill:#000000;stroke-width:2.83464575"
       d="m 126.6048,158.24125 c -1.5689,0.43753 -2.59525,1.55445 -3.04991,3.31898 l -0.10306,0.40001 h -0.51667 c -0.55761,0 -0.55438,-0.004 -0.45596,0.58826 0.056,0.33698 0.0753,0.35296 0.42467,0.35296 h 0.36605 v 0.4706 0.4706 h -0.42572 c -0.38121,0 -0.42474,0.0221 -0.41629,0.21177 0.0246,0.55198 0.12246,0.68041 0.55631,0.72945 0.40739,0.0461 0.41871,0.0566 0.53179,0.49965 0.42285,1.65625 1.79395,2.93131 3.51413,3.26801 0.86699,0.16969 2.22746,0.0807 2.83845,-0.18587 0.27317,-0.11909 0.49668,-0.25053 0.49668,-0.29198 0,-0.18231 -0.22769,-1.08576 -0.29238,-1.16014 -0.0394,-0.0452 -0.1918,-5.2e-4 -0.33892,0.0987 -0.42824,0.28963 -0.77031,0.40808 -1.35356,0.46872 -1.3932,0.14489 -2.6677,-0.58851 -3.27397,-1.88393 -0.40683,-0.8693 -0.55462,-0.81317 2.14117,-0.81317 h 2.36939 l -0.059,-0.35296 c -0.0325,-0.19413 -0.0757,-0.4059 -0.0959,-0.4706 -0.0283,-0.09 -0.59438,-0.11761 -2.41023,-0.11761 h -2.37326 l 0.0288,-0.44707 0.0288,-0.44708 2.254,-0.0252 2.25399,-0.0252 -0.0615,-0.30418 c -0.1399,-0.69172 0.0649,-0.63358 -2.23146,-0.63358 h -2.07672 l 0.0596,-0.25885 c 0.21727,-0.94445 0.84918,-1.73338 1.73515,-2.16626 0.45586,-0.22272 0.6417,-0.25735 1.38133,-0.25735 0.7641,0 0.91692,0.0306 1.44272,0.28984 l 0.58812,0.28986 v -0.69467 -0.69467 l -0.35478,-0.1523 c -0.50065,-0.21492 -2.45151,-0.26154 -3.12186,-0.0746 z"
       id="path3232-5"
       inkscape:connector-curvature="0" /><path
       style="fill:#000000;stroke-width:2.83464575"
       d="m 109.36896,139.21001 c -1.5689,0.43753 -2.59525,1.55445 -3.04991,3.31898 l -0.10306,0.40001 h -0.51667 c -0.55761,0 -0.55438,-0.004 -0.45596,0.58826 0.056,0.33698 0.0753,0.35296 0.42467,0.35296 h 0.36605 v 0.4706 0.4706 h -0.42572 c -0.38121,0 -0.42474,0.0221 -0.41629,0.21177 0.0246,0.55198 0.12246,0.68041 0.55631,0.72945 0.40739,0.0461 0.41871,0.0566 0.53179,0.49965 0.42285,1.65625 1.79395,2.93131 3.51413,3.26801 0.86699,0.16969 2.22746,0.0807 2.83845,-0.18587 0.27317,-0.11909 0.49668,-0.25053 0.49668,-0.29198 0,-0.18231 -0.22769,-1.08576 -0.29238,-1.16014 -0.0394,-0.0452 -0.1918,-5.2e-4 -0.33892,0.0987 -0.42824,0.28963 -0.77031,0.40808 -1.35356,0.46872 -1.3932,0.14489 -2.6677,-0.58851 -3.27397,-1.88393 -0.40683,-0.8693 -0.55462,-0.81317 2.14117,-0.81317 h 2.36939 l -0.059,-0.35296 c -0.0325,-0.19413 -0.0757,-0.4059 -0.0959,-0.4706 -0.0283,-0.09 -0.59438,-0.11761 -2.41023,-0.11761 h -2.37326 l 0.0288,-0.44707 0.0288,-0.44708 2.254,-0.0252 2.25399,-0.0252 -0.0615,-0.30418 c -0.1399,-0.69172 0.0649,-0.63358 -2.23146,-0.63358 h -2.07672 l 0.0596,-0.25885 c 0.21727,-0.94445 0.84918,-1.73338 1.73515,-2.16626 0.45586,-0.22272 0.6417,-0.25735 1.38133,-0.25735 0.7641,0 0.91692,0.0306 1.44272,0.28984 l 0.58812,0.28986 v -0.69467 -0.69467 l -0.35478,-0.1523 c -0.50065,-0.21492 -2.45151,-0.26154 -3.12186,-0.0746 z"
       id="path3232-3"
       inkscape:connector-curvature="0" /><path
       style="fill:#000000;stroke-width:2.83464575"
       d="m 128.40019,139.56909 c -1.5689,0.43753 -2.59525,1.55445 -3.04991,3.31898 l -0.10306,0.40001 h -0.51667 c -0.55761,0 -0.55438,-0.004 -0.45596,0.58826 0.056,0.33698 0.0753,0.35296 0.42467,0.35296 h 0.36605 v 0.4706 0.4706 h -0.42572 c -0.38121,0 -0.42474,0.0221 -0.41629,0.21177 0.0246,0.55198 0.12246,0.68041 0.55631,0.72945 0.40739,0.0461 0.41871,0.0566 0.53179,0.49965 0.42285,1.65625 1.79395,2.93131 3.51413,3.26801 0.86699,0.16969 2.22746,0.0807 2.83845,-0.18587 0.27317,-0.11909 0.49669,-0.25053 0.49669,-0.29198 0,-0.18231 -0.2277,-1.08576 -0.29238,-1.16014 -0.0394,-0.0452 -0.19181,-5.2e-4 -0.33893,0.0987 -0.42824,0.28963 -0.77031,0.40808 -1.35356,0.46872 -1.3932,0.14489 -2.6677,-0.58851 -3.27397,-1.88393 -0.40683,-0.8693 -0.55462,-0.81317 2.14117,-0.81317 h 2.36939 l -0.059,-0.35296 c -0.0325,-0.19413 -0.0757,-0.4059 -0.0959,-0.4706 -0.0283,-0.09 -0.59438,-0.11761 -2.41023,-0.11761 H 126.474 l 0.0288,-0.44707 0.0288,-0.44708 2.254,-0.0252 2.25399,-0.0252 -0.0615,-0.30418 c -0.1399,-0.69172 0.0649,-0.63358 -2.23146,-0.63358 h -2.07672 l 0.0596,-0.25885 c 0.21727,-0.94445 0.84918,-1.73338 1.73515,-2.16626 0.45586,-0.22272 0.6417,-0.25735 1.38133,-0.25735 0.7641,0 0.91692,0.0306 1.44272,0.28984 l 0.58812,0.28986 v -0.69467 -0.69467 l -0.35478,-0.1523 c -0.50065,-0.21492 -2.45151,-0.26154 -3.12186,-0.0746 z"
       id="path3232-56"
       inkscape:connector-curvature="0" /><path
       style="fill:#000000;stroke-width:2.83464575"
       d="m 301.47671,128.07854 c -1.5689,0.43753 -2.59525,1.55445 -3.04991,3.31898 l -0.10306,0.40001 h -0.51667 c -0.55761,0 -0.55438,-0.004 -0.45596,0.58826 0.056,0.33698 0.0753,0.35296 0.42467,0.35296 h 0.36605 v 0.4706 0.4706 h -0.42572 c -0.38121,0 -0.42474,0.0221 -0.41629,0.21177 0.0246,0.55198 0.12246,0.68041 0.55631,0.72945 0.40739,0.0461 0.41871,0.0566 0.53179,0.49965 0.42285,1.65625 1.79395,2.93131 3.51413,3.26801 0.86699,0.16969 2.22746,0.0807 2.83845,-0.18587 0.27317,-0.11909 0.49668,-0.25053 0.49668,-0.29198 0,-0.18231 -0.22769,-1.08576 -0.29238,-1.16014 -0.0394,-0.0452 -0.1918,-5.2e-4 -0.33892,0.0987 -0.42824,0.28963 -0.77031,0.40808 -1.35356,0.46872 -1.3932,0.14489 -2.6677,-0.58851 -3.27397,-1.88393 -0.40683,-0.8693 -0.55462,-0.81317 2.14117,-0.81317 h 2.36939 l -0.059,-0.35296 c -0.0325,-0.19413 -0.0757,-0.4059 -0.0959,-0.4706 -0.0283,-0.09 -0.59438,-0.11761 -2.41023,-0.11761 h -2.37326 l 0.0288,-0.44707 0.0288,-0.44708 2.254,-0.0252 2.25399,-0.0252 -0.0615,-0.30418 c -0.1399,-0.69172 0.0649,-0.63358 -2.23146,-0.63358 h -2.07672 l 0.0596,-0.25885 c 0.21727,-0.94445 0.84918,-1.73338 1.73515,-2.16626 0.45586,-0.22272 0.6417,-0.25735 1.38133,-0.25735 0.7641,0 0.91692,0.0306 1.44272,0.28984 l 0.58812,0.28986 v -0.69467 -0.69467 l -0.35478,-0.1523 c -0.50065,-0.21492 -2.45151,-0.26154 -3.12186,-0.0746 z"
       id="path3232-2"
       inkscape:connector-curvature="0"
       inkscape:transform-center-x="4.3089589"
       inkscape:transform-center-y="4.7877321" /><path
       style="fill:#000000;stroke-width:2.83464575"
       d="m 319.43071,128.07854 c -1.5689,0.43753 -2.59525,1.55445 -3.04991,3.31898 l -0.10306,0.40001 h -0.51667 c -0.55761,0 -0.55438,-0.004 -0.45596,0.58826 0.056,0.33698 0.0753,0.35296 0.42467,0.35296 h 0.36605 v 0.4706 0.4706 h -0.42572 c -0.38121,0 -0.42474,0.0221 -0.41629,0.21177 0.0246,0.55198 0.12246,0.68041 0.55631,0.72945 0.40739,0.0461 0.41871,0.0566 0.53179,0.49965 0.42285,1.65625 1.79395,2.93131 3.51413,3.26801 0.86699,0.16969 2.22746,0.0807 2.83845,-0.18587 0.27317,-0.11909 0.49668,-0.25053 0.49668,-0.29198 0,-0.18231 -0.22769,-1.08576 -0.29238,-1.16014 -0.0394,-0.0452 -0.1918,-5.2e-4 -0.33892,0.0987 -0.42824,0.28963 -0.77031,0.40808 -1.35356,0.46872 -1.3932,0.14489 -2.6677,-0.58851 -3.27397,-1.88393 -0.40683,-0.8693 -0.55462,-0.81317 2.14117,-0.81317 h 2.36939 l -0.059,-0.35296 c -0.0325,-0.19413 -0.0757,-0.4059 -0.0959,-0.4706 -0.0283,-0.09 -0.59438,-0.11761 -2.41023,-0.11761 h -2.37326 l 0.0288,-0.44707 0.0288,-0.44708 2.254,-0.0252 2.25399,-0.0252 -0.0615,-0.30418 c -0.1399,-0.69172 0.0649,-0.63358 -2.23146,-0.63358 h -2.07672 l 0.0596,-0.25885 c 0.21727,-0.94445 0.84918,-1.73338 1.73515,-2.16626 0.45586,-0.22272 0.6417,-0.25735 1.38133,-0.25735 0.7641,0 0.91692,0.0306 1.44272,0.28984 l 0.58812,0.28986 v -0.69467 -0.69467 l -0.35478,-0.1523 c -0.50065,-0.21492 -2.45151,-0.26154 -3.12186,-0.0746 z"
       id="path3232-9"
       inkscape:connector-curvature="0" /><path
       style="fill:#000000;stroke-width:2.83464575"
       d="m 318.58519,146.75069 c -1.5689,0.43753 -2.59525,1.55445 -3.04991,3.31898 l -0.10306,0.40001 h -0.51667 c -0.55761,0 -0.55438,-0.004 -0.45596,0.58826 0.056,0.33698 0.0753,0.35296 0.42467,0.35296 h 0.36605 v 0.4706 0.4706 h -0.42572 c -0.38121,0 -0.42474,0.0221 -0.41629,0.21177 0.0246,0.55198 0.12246,0.68041 0.55631,0.72945 0.40739,0.0461 0.41871,0.0566 0.53179,0.49965 0.42285,1.65625 1.79395,2.93131 3.51413,3.26801 0.86699,0.16969 2.22746,0.0807 2.83845,-0.18587 0.27317,-0.11909 0.49668,-0.25053 0.49668,-0.29198 0,-0.18231 -0.22769,-1.08576 -0.29238,-1.16014 -0.0394,-0.0452 -0.1918,-5.2e-4 -0.33892,0.0987 -0.42824,0.28963 -0.77031,0.40808 -1.35356,0.46872 -1.3932,0.14489 -2.6677,-0.58851 -3.27397,-1.88393 -0.40683,-0.8693 -0.55462,-0.81317 2.14117,-0.81317 h 2.36939 l -0.059,-0.35296 c -0.0325,-0.19413 -0.0757,-0.4059 -0.0959,-0.4706 -0.0283,-0.09 -0.59438,-0.11761 -2.41023,-0.11761 H 316.659 l 0.0288,-0.44707 0.0288,-0.44708 2.254,-0.0252 2.25399,-0.0252 -0.0615,-0.30418 c -0.1399,-0.69172 0.0649,-0.63358 -2.23146,-0.63358 h -2.07672 l 0.0596,-0.25885 c 0.21727,-0.94445 0.84918,-1.73338 1.73515,-2.16626 0.45586,-0.22272 0.6417,-0.25735 1.38133,-0.25735 0.7641,0 0.91692,0.0306 1.44272,0.28984 l 0.58812,0.28986 v -0.69467 -0.69467 l -0.35478,-0.1523 c -0.50065,-0.21492 -2.45151,-0.26154 -3.12186,-0.0746 z"
       id="path3232-1"
       inkscape:connector-curvature="0" /><path
       style="fill:#000000;stroke-width:2.83464575"
       d="m 21.987632,65.955205 c -0.766741,0.213818 -1.268332,0.759679 -1.49053,1.622027 l -0.05036,0.195476 h -0.252508 c -0.272505,0 -0.270939,-0.002 -0.222845,0.287481 0.02728,0.164682 0.03681,0.17249 0.207549,0.17249 h 0.178904 v 0.229985 0.229984 h -0.208044 c -0.186304,0 -0.207579,0.01071 -0.203457,0.103494 0.01193,0.269748 0.05984,0.332524 0.271867,0.356491 0.199102,0.02264 0.204618,0.02758 0.259879,0.244178 0.206649,0.809429 0.876726,1.432565 1.717399,1.597116 0.423708,0.08292 1.088587,0.03945 1.387184,-0.09085 0.133511,-0.05819 0.242726,-0.122453 0.242726,-0.14271 0,-0.0891 -0.111272,-0.530623 -0.142883,-0.566973 -0.01916,-0.02206 -0.09375,-2.55e-4 -0.165639,0.04824 -0.209292,0.141549 -0.376464,0.199422 -0.661504,0.229056 -0.680874,0.07079 -1.303737,-0.287626 -1.60003,-0.9207 -0.198814,-0.424838 -0.271054,-0.397407 1.046417,-0.397407 h 1.157951 l -0.02873,-0.17249 c -0.01596,-0.09488 -0.03698,-0.198377 -0.04687,-0.229983 -0.01393,-0.044 -0.290483,-0.05747 -1.177911,-0.05747 h -1.159846 l 0.01423,-0.218492 0.01422,-0.218492 1.101558,-0.0122 1.101553,-0.0122 -0.03007,-0.148661 c -0.06838,-0.338053 0.03173,-0.309638 -1.090543,-0.309638 h -1.014924 l 0.02914,-0.126518 c 0.106164,-0.461563 0.415004,-0.847125 0.847987,-1.058676 0.222787,-0.108833 0.313609,-0.12576 0.675075,-0.12576 0.373424,0 0.448108,0.0151 0.705074,0.141637 l 0.287423,0.141665 V 66.40581 66.066318 l -0.173388,-0.07441 c -0.244671,-0.105039 -1.198082,-0.12782 -1.525688,-0.03645 z"
       id="path3232-27"
       inkscape:connector-curvature="0" /><path
       style="fill:#000000;stroke-width:2.83464575"
       d="m 22.050746,47.085872 c -0.766741,0.21382 -1.268332,0.75968 -1.49053,1.62203 l -0.05036,0.19548 h -0.252508 c -0.272505,0 -0.270939,-0.002 -0.222845,0.28748 0.02728,0.16468 0.03681,0.17249 0.207549,0.17249 h 0.178904 v 0.22998 0.22999 h -0.208044 c -0.186304,0 -0.207579,0.0107 -0.203457,0.10349 0.01193,0.26975 0.05984,0.33253 0.271867,0.35649 0.199102,0.0226 0.204618,0.0276 0.259879,0.24418 0.206649,0.80943 0.876726,1.43257 1.717399,1.59712 0.423708,0.0829 1.088587,0.0394 1.387184,-0.0909 0.133511,-0.0582 0.242726,-0.12246 0.242726,-0.14271 0,-0.0891 -0.111272,-0.53063 -0.142883,-0.56698 -0.01916,-0.0221 -0.09375,-2.5e-4 -0.165639,0.0482 -0.209292,0.14155 -0.376464,0.19943 -0.661504,0.22906 -0.680874,0.0708 -1.303737,-0.28763 -1.60003,-0.9207 -0.198814,-0.42484 -0.271054,-0.39741 1.046417,-0.39741 h 1.157951 l -0.02873,-0.17249 c -0.01596,-0.0949 -0.03698,-0.19837 -0.04687,-0.22998 -0.01393,-0.044 -0.290483,-0.0575 -1.177911,-0.0575 h -1.159846 l 0.01423,-0.21849 0.01422,-0.21849 1.101558,-0.0122 1.101553,-0.0122 -0.03007,-0.14866 c -0.06838,-0.33805 0.03173,-0.30963 -1.090543,-0.30963 h -1.014924 l 0.02914,-0.12652 c 0.106164,-0.46156 0.415004,-0.84713 0.847987,-1.05868 0.222787,-0.10883 0.313609,-0.12576 0.675075,-0.12576 0.373424,0 0.448108,0.0151 0.705074,0.14164 l 0.287423,0.14166 v -0.33949 -0.33949 l -0.173388,-0.0744 c -0.244671,-0.10504 -1.198082,-0.12782 -1.525688,-0.0365 z"
       id="path3232-27-9"
       inkscape:connector-curvature="0" /><path
       style="fill:#000000;stroke-width:2.83464575"
       d="m 23.846145,27.740442 c -0.766741,0.21382 -1.268332,0.75968 -1.49053,1.62203 l -0.05036,0.19548 h -0.252508 c -0.272505,0 -0.270939,-0.002 -0.222845,0.28748 0.02728,0.16468 0.03681,0.17249 0.207549,0.17249 h 0.178904 v 0.22998 0.22999 h -0.208044 c -0.186304,0 -0.207579,0.0107 -0.203457,0.10349 0.01193,0.26975 0.05984,0.33253 0.271867,0.35649 0.199102,0.0226 0.204618,0.0276 0.259879,0.24418 0.206649,0.80943 0.876726,1.43257 1.717399,1.59712 0.423708,0.0829 1.088587,0.0394 1.387184,-0.0909 0.133511,-0.0582 0.242726,-0.12246 0.242726,-0.14271 0,-0.0891 -0.111272,-0.53063 -0.142883,-0.56698 -0.01916,-0.0221 -0.09375,-2.5e-4 -0.165639,0.0482 -0.209292,0.14155 -0.376464,0.19943 -0.661504,0.22906 -0.680874,0.0708 -1.303737,-0.28763 -1.60003,-0.9207 -0.198814,-0.42484 -0.271054,-0.39741 1.046417,-0.39741 h 1.157951 l -0.02873,-0.17249 c -0.01596,-0.0949 -0.03698,-0.19837 -0.04687,-0.22998 -0.01393,-0.044 -0.290483,-0.0575 -1.177911,-0.0575 h -1.159846 l 0.01423,-0.21849 0.01422,-0.21849 1.101558,-0.0122 1.101553,-0.0122 -0.03007,-0.14866 c -0.06838,-0.33805 0.03173,-0.30963 -1.090543,-0.30963 h -1.014924 l 0.02914,-0.12652 c 0.106164,-0.46156 0.415004,-0.84713 0.847987,-1.05868 0.222787,-0.10883 0.313609,-0.12576 0.675075,-0.12576 0.373424,0 0.448108,0.0151 0.705074,0.14164 l 0.287423,0.14166 v -0.33949 -0.33949 l -0.173388,-0.0744 c -0.244671,-0.10504 -1.198082,-0.12782 -1.525688,-0.0365 z"
       id="path3232-27-3"
       inkscape:connector-curvature="0" /><path
       style="fill:#000000;stroke-width:2.83464575"
       d="m 34.573657,27.426247 c -0.766741,0.21382 -1.268332,0.75968 -1.49053,1.62203 l -0.05036,0.19548 h -0.252508 c -0.272505,0 -0.270939,-0.002 -0.222845,0.28748 0.02728,0.16468 0.03681,0.17249 0.207549,0.17249 h 0.178904 v 0.22998 0.22999 h -0.208044 c -0.186304,0 -0.207579,0.0107 -0.203457,0.10349 0.01193,0.26975 0.05984,0.33253 0.271867,0.35649 0.199102,0.0226 0.204618,0.0276 0.259879,0.24418 0.206649,0.80943 0.876726,1.43257 1.717399,1.59712 0.423708,0.0829 1.088587,0.0394 1.387184,-0.0909 0.133511,-0.0582 0.242726,-0.12246 0.242726,-0.14271 0,-0.0891 -0.111272,-0.53063 -0.142883,-0.56698 -0.01916,-0.0221 -0.09375,-2.5e-4 -0.165639,0.0482 -0.209292,0.14155 -0.376464,0.19943 -0.661504,0.22906 -0.680874,0.0708 -1.303737,-0.28763 -1.60003,-0.9207 -0.198814,-0.42484 -0.271054,-0.39741 1.046417,-0.39741 h 1.157951 l -0.02873,-0.17249 c -0.01596,-0.0949 -0.03698,-0.19837 -0.04687,-0.22998 -0.01393,-0.044 -0.290483,-0.0575 -1.177911,-0.0575 h -1.159846 l 0.01423,-0.21849 0.01422,-0.21849 1.101558,-0.0122 1.101553,-0.0122 -0.03007,-0.14866 c -0.06838,-0.33805 0.03173,-0.30963 -1.090543,-0.30963 H 33.7284 l 0.02914,-0.12652 c 0.106164,-0.46156 0.415004,-0.84713 0.847987,-1.05868 0.222787,-0.10883 0.313609,-0.12576 0.675075,-0.12576 0.373424,0 0.448108,0.0151 0.705074,0.14164 l 0.287424,0.14166 v -0.33949 -0.33949 l -0.173388,-0.0744 c -0.244671,-0.10504 -1.198082,-0.12782 -1.525688,-0.0365 z"
       id="path3232-27-6"
       inkscape:connector-curvature="0" /><path
       style="fill:#000000;stroke-width:2.83464575"
       d="m 34.304348,17.865745 c -0.766741,0.21382 -1.268333,0.75968 -1.490531,1.62203 l -0.05036,0.19548 h -0.252508 c -0.272505,0 -0.270939,-0.002 -0.222845,0.28748 0.02728,0.16468 0.03681,0.17249 0.207549,0.17249 h 0.178904 v 0.22998 0.22999 h -0.208044 c -0.186304,0 -0.207579,0.0107 -0.203457,0.10349 0.01193,0.26975 0.05984,0.33253 0.271867,0.35649 0.199102,0.0226 0.204618,0.0276 0.259879,0.24418 0.206649,0.80943 0.876727,1.43257 1.7174,1.59712 0.423708,0.0829 1.088587,0.0394 1.387184,-0.0909 0.133511,-0.0582 0.242726,-0.12246 0.242726,-0.14271 0,-0.0891 -0.111272,-0.53063 -0.142883,-0.56698 -0.01916,-0.0221 -0.09375,-2.5e-4 -0.165639,0.0482 -0.209292,0.14155 -0.376464,0.19943 -0.661504,0.22906 -0.680874,0.0708 -1.303737,-0.28763 -1.60003,-0.9207 -0.198814,-0.42484 -0.271054,-0.39741 1.046417,-0.39741 h 1.157951 l -0.02873,-0.17249 c -0.01596,-0.0949 -0.03698,-0.19837 -0.04687,-0.22998 -0.01393,-0.044 -0.290483,-0.0575 -1.177911,-0.0575 h -1.159846 l 0.01423,-0.21849 0.01422,-0.21849 1.101558,-0.0122 1.101553,-0.0122 -0.03007,-0.14866 c -0.06838,-0.33805 0.03173,-0.30963 -1.090543,-0.30963 h -1.014924 l 0.02914,-0.12652 c 0.106164,-0.46156 0.415004,-0.84713 0.847987,-1.05868 0.222786,-0.10883 0.313608,-0.12576 0.675075,-0.12576 0.373423,0 0.448108,0.0151 0.705073,0.14164 l 0.287424,0.14166 v -0.33949 -0.33949 l -0.173388,-0.0744 c -0.244671,-0.10504 -1.198082,-0.12782 -1.525688,-0.0365 z"
       id="path3232-27-0"
       inkscape:connector-curvature="0" /><path
       style="fill:#000000;stroke-width:2.83464575"
       d="m 23.9808,17.73109 c -0.766741,0.21382 -1.268332,0.75968 -1.49053,1.62203 l -0.05036,0.19548 h -0.252508 c -0.272505,0 -0.270939,-0.002 -0.222845,0.28748 0.02728,0.16468 0.03681,0.17249 0.207549,0.17249 h 0.178904 v 0.22998 0.22999 h -0.208044 c -0.186304,0 -0.207579,0.0107 -0.203457,0.10349 0.01193,0.26975 0.05984,0.33253 0.271867,0.35649 0.199102,0.0226 0.204618,0.0276 0.259879,0.24418 0.206649,0.80943 0.876726,1.43257 1.717399,1.59712 0.423708,0.0829 1.088587,0.0394 1.387184,-0.0909 0.133511,-0.0582 0.242726,-0.12246 0.242726,-0.14271 0,-0.0891 -0.111272,-0.53063 -0.142883,-0.56698 -0.01916,-0.0221 -0.09375,-2.5e-4 -0.165639,0.0482 -0.209292,0.14155 -0.376464,0.19943 -0.661504,0.22906 -0.680874,0.0708 -1.303737,-0.28763 -1.60003,-0.9207 -0.198814,-0.42484 -0.271054,-0.39741 1.046417,-0.39741 h 1.157951 l -0.02873,-0.17249 c -0.01596,-0.0949 -0.03698,-0.19837 -0.04687,-0.22998 -0.01393,-0.044 -0.290483,-0.0575 -1.177911,-0.0575 h -1.159846 l 0.01423,-0.21849 0.01422,-0.21849 1.101558,-0.0122 1.101553,-0.0122 -0.03007,-0.14866 c -0.06838,-0.33805 0.03173,-0.30963 -1.090543,-0.30963 h -1.014924 l 0.02914,-0.12652 c 0.106164,-0.46156 0.415004,-0.84713 0.847987,-1.05868 0.222787,-0.10883 0.313609,-0.12576 0.675075,-0.12576 0.373424,0 0.448108,0.0151 0.705074,0.14164 l 0.287423,0.14166 V 18.18159 17.8421 l -0.173388,-0.0744 c -0.244671,-0.10504 -1.198082,-0.12782 -1.525688,-0.0365 z"
       id="path3232-27-62"
       inkscape:connector-curvature="0" /></g></g><path
   d="m 275.0874,125.5132 h -60.458 v 27.873 h 60.458 z"
   style="fill:#ffffff;fill-opacity:1;fill-rule:nonzero;stroke:none"
   id="path372"
   inkscape:connector-curvature="0" /><text
   transform="matrix(1,0,0,-1,214.2539,139.0181)"
   style="font-variant:normal;font-weight:normal;font-stretch:normal;font-size:12px;font-family:'Myriad Pro';-inkscape-font-specification:MyriadPro-Regular;writing-mode:lr-tb;fill:#231f20;fill-opacity:1;fill-rule:nonzero;stroke:none"
   id="text378"><tspan
     x="0 4.7519999 10.764 14.9868 20.758801 23.566799 28.8708 34.882801"
     y="0"
     sodipodi:role="line"
     id="tspan374">service </tspan><tspan
     x="0 3.348 9.3599997 16.128 22.139999 26.0028 31.7388 35.7108 38.518799 45.1068"
     y="14.4"
     sodipodi:role="line"
     id="tspan376">federation</tspan></text>






<path
   style="opacity:1;fill:#71adbd;fill-opacity:1;fill-rule:evenodd;stroke:#231f20;stroke-width:0.60000002;stroke-linecap:square;stroke-linejoin:round;stroke-miterlimit:4;stroke-dasharray:none;stroke-dashoffset:0;stroke-opacity:1;paint-order:stroke fill markers"
   d="m 253.59006,161.72276 c -4.94841,-1.44403 -9.02145,-5.59325 -10.2967,-10.48927 -0.45836,-1.75976 -0.45588,-5.07997 0.005,-6.90133 1.26477,-4.99665 5.20711,-9.03733 10.29155,-10.54826 2.12906,-0.63269 5.49902,-0.58242 7.78007,0.11606 4.64796,1.42325 8.26976,4.94391 9.71793,9.44653 0.77795,2.41882 0.87076,5.65486 0.23109,8.05713 -1.31977,4.95624 -5.24145,8.91438 -10.1836,10.27825 -2.25224,0.62155 -5.49548,0.63912 -7.54549,0.0409 z"
   id="path2816"
   inkscape:connector-curvature="0"
   transform="matrix(0.75000002,0,0,-0.75000002,0,239.689)" /><path
   style="opacity:1;fill:#71adbd;fill-opacity:1;fill-rule:evenodd;stroke:#231f20;stroke-width:0.60000002;stroke-linecap:square;stroke-linejoin:round;stroke-miterlimit:4;stroke-dasharray:none;stroke-dashoffset:0;stroke-opacity:1;paint-order:stroke fill markers"
   d="m 227.72375,190.96225 c 0.3473,-5.83375 0.64928,-8.75075 1.08046,-10.43665 1.54397,-6.03687 5.6683,-9.40577 15.88476,-12.97522 l 2.35008,-0.82107 2.19826,1.05626 c 3.10543,1.49215 5.22555,1.90393 8.99089,1.74625 3.39473,-0.14217 4.70415,-0.46973 7.57115,-1.89395 l 1.91566,-0.95163 3.24561,1.06802 c 3.46785,1.14115 7.53777,3.0478 9.35933,4.38461 2.77557,2.03693 4.85482,5.12885 5.5777,8.29424 0.37201,1.62896 0.73143,5.28741 0.9878,10.05462 l 0.16437,3.05643 -5.92002,-0.0641 -5.92001,-0.0641 -0.3163,-0.92039 c -0.41927,-1.22008 -1.16275,-1.97433 -2.41905,-2.45411 -1.00823,-0.38505 -1.02478,-0.40887 -0.71092,-1.02342 1.04702,-2.0501 0.6351,-3.57724 -1.59936,-5.92955 -0.8959,-0.94314 -1.99159,-1.88691 -2.43486,-2.09726 -1.11087,-0.52715 -2.94768,-0.49028 -3.87941,0.0779 l -0.75196,0.45852 -0.14773,-0.73866 c -0.20859,-1.04296 -1.25691,-2.32407 -2.23678,-2.73349 -0.55606,-0.23234 -1.7017,-0.34804 -3.44603,-0.34804 -2.28344,0 -2.73844,0.0697 -3.60715,0.55298 -0.87227,0.48521 -1.75404,1.65468 -2.15534,2.8586 -0.0626,0.18769 -0.32313,0.15088 -0.84598,-0.1195 -1.21649,-0.62907 -2.89712,-0.50857 -4.14374,0.29709 -1.21022,0.78214 -2.52435,2.11166 -3.4348,3.47502 -0.73353,1.09843 -0.84105,2.85794 -0.24506,4.01045 0.2072,0.40069 0.34185,0.75494 0.29923,0.78723 -0.0426,0.0323 -0.59071,0.30194 -1.21797,0.59922 -1.14349,0.54193 -2.33063,2.05436 -2.33063,2.96925 0,0.36037 -0.56665,0.3979 -6.00771,0.3979 h -6.0077 z"
   id="path2818"
   inkscape:connector-curvature="0"
   transform="matrix(0.75000002,0,0,-0.75000002,0,239.689)" /><text
   xml:space="preserve"
   style="font-style:normal;font-variant:normal;font-weight:bold;font-stretch:normal;font-size:11.40097427px;line-height:1.25;font-family:'Deja Vu Sans';-inkscape-font-specification:'Deja Vu Sans Bold';font-variant-ligatures:normal;font-variant-position:normal;font-variant-caps:normal;font-variant-numeric:normal;font-variant-alternates:normal;font-feature-settings:normal;text-indent:0;text-align:start;text-decoration:none;text-decoration-line:none;text-decoration-style:solid;text-decoration-color:#000000;letter-spacing:0px;word-spacing:0px;text-transform:none;writing-mode:lr-tb;direction:ltr;text-orientation:mixed;dominant-baseline:auto;baseline-shift:baseline;text-anchor:start;white-space:normal;shape-padding:0;opacity:1;vector-effect:none;fill:#000000;fill-opacity:1;stroke:none;stroke-width:0.75;stroke-linecap:butt;stroke-linejoin:miter;stroke-miterlimit:4;stroke-dasharray:none;stroke-dashoffset:0;stroke-opacity:1"
   x="27.142031"
   y="-88.549789"
   id="text11560"
   transform="scale(1,-1)"><tspan
     sodipodi:role="line"
     id="tspan11558"
     x="27.142031"
     y="-88.549789"
     style="stroke-width:0.75">USER</tspan></text>



<text
   xml:space="preserve"
   style="font-style:normal;font-variant:normal;font-weight:bold;font-stretch:normal;font-size:14px;line-height:0.80000001;font-family:'Deja Vu Sans';-inkscape-font-specification:'Deja Vu Sans Bold';font-variant-ligatures:normal;font-variant-position:normal;font-variant-caps:normal;font-variant-numeric:normal;font-variant-alternates:normal;font-feature-settings:normal;text-indent:0;text-align:end;text-decoration:none;text-decoration-line:none;text-decoration-style:solid;text-decoration-color:#000000;letter-spacing:0px;word-spacing:0px;text-transform:none;writing-mode:lr-tb;direction:ltr;text-orientation:mixed;dominant-baseline:auto;baseline-shift:baseline;text-anchor:end;white-space:normal;shape-padding:0;opacity:1;vector-effect:none;fill:#000000;fill-opacity:1;stroke:none;stroke-width:0.75;stroke-linecap:butt;stroke-linejoin:miter;stroke-miterlimit:4;stroke-dasharray:none;stroke-dashoffset:0;stroke-opacity:1"
   x="328.64041"
   y="-217.392"
   id="text39141"
   transform="scale(1,-1)"><tspan
     sodipodi:role="line"
     id="tspan39139"
     x="328.64041"
     y="-217.392"
     style="font-size:12px;line-height:0.80000001;text-align:end;text-anchor:end;stroke-width:0.75">Federated operator</tspan><tspan
     sodipodi:role="line"
     x="328.64041"
     y="-206.192"
     style="font-size:12px;line-height:0.80000001;text-align:end;text-anchor:end;stroke-width:0.75"
     id="tspan39143">serv. prov. agents</tspan></text>


<text
   xml:space="preserve"
   style="font-style:normal;font-variant:normal;font-weight:bold;font-stretch:normal;font-size:14px;line-height:0.80000001;font-family:'Deja Vu Sans';-inkscape-font-specification:'Deja Vu Sans Bold';font-variant-ligatures:normal;font-variant-position:normal;font-variant-caps:normal;font-variant-numeric:normal;font-variant-alternates:normal;font-feature-settings:normal;text-indent:0;text-align:center;text-decoration:none;text-decoration-line:none;text-decoration-style:solid;text-decoration-color:#000000;letter-spacing:0px;word-spacing:0px;text-transform:none;writing-mode:lr-tb;direction:ltr;text-orientation:mixed;dominant-baseline:auto;baseline-shift:baseline;text-anchor:middle;white-space:normal;shape-padding:0;opacity:1;vector-effect:none;fill:#000000;fill-opacity:1;stroke:none;stroke-width:0.75;stroke-linecap:butt;stroke-linejoin:miter;stroke-miterlimit:4;stroke-dasharray:none;stroke-dashoffset:0;stroke-opacity:1"
   x="389.9263"
   y="-225.02956"
   id="text39141-7"
   transform="scale(1,-1)"><tspan
     sodipodi:role="line"
     id="tspan39139-3"
     x="389.9263"
     y="-225.02956"
     style="font-size:12px;line-height:0.80000001;text-align:center;text-anchor:middle;stroke-width:0.75">Federated</tspan><tspan
     sodipodi:role="line"
     x="389.9263"
     y="-213.82956"
     style="font-size:12px;line-height:0.80000001;text-align:center;text-anchor:middle;stroke-width:0.75"
     id="tspan39174">operator</tspan><tspan
     sodipodi:role="line"
     x="389.9263"
     y="-202.62956"
     style="font-size:12px;line-height:0.80000001;text-align:center;text-anchor:middle;stroke-width:0.75"
     id="tspan39143-6">infrastructure</tspan></text>


</g></svg>