<?xml version="1.0" encoding="UTF-8" standalone="no"?>
<!-- Created with Inkscape (http://www.inkscape.org/) -->

<svg
   xmlns:dc="http://purl.org/dc/elements/1.1/"
   xmlns:cc="http://creativecommons.org/ns#"
   xmlns:rdf="http://www.w3.org/1999/02/22-rdf-syntax-ns#"
   xmlns:svg="http://www.w3.org/2000/svg"
   xmlns="http://www.w3.org/2000/svg"
   xmlns:sodipodi="http://sodipodi.sourceforge.net/DTD/sodipodi-0.dtd"
   xmlns:inkscape="http://www.inkscape.org/namespaces/inkscape"
   version="1.1"
   id="svg30166"
   xml:space="preserve"
   width="888.44"
   height="265.33334"
   viewBox="0 0 888.44 265.33334"
   sodipodi:docname="infrastructure-mec-pop-m2.svg"
   inkscape:version="0.92.4 (unknown)"><metadata
     id="metadata30172"><rdf:RDF><cc:Work
         rdf:about=""><dc:format>image/svg+xml</dc:format><dc:type
           rdf:resource="http://purl.org/dc/dcmitype/StillImage" /><dc:title></dc:title></cc:Work></rdf:RDF></metadata><defs
     id="defs30170"><clipPath
       clipPathUnits="userSpaceOnUse"
       id="clipPath30182"><path
         d="M -4.2143e-5,199 H 666.33 V -1.5259e-5 L -6.794e-6,0"
         id="path30180"
         inkscape:connector-curvature="0"
         style="clip-rule:evenodd" /></clipPath><clipPath
       clipPathUnits="userSpaceOnUse"
       id="clipPath30192"><path
         d="M -6.4778e-5,199 H 666.33 V -1.5259e-5 L -4.9591e-5,1.5259e-5"
         id="path30190"
         inkscape:connector-curvature="0"
         style="clip-rule:evenodd" /></clipPath><clipPath
       clipPathUnits="userSpaceOnUse"
       id="clipPath30296"><path
         d="M -1.166e-6,199 H 666.33 V 4.5776e-5 L -4.925e-6,3.0518e-5"
         id="path30294"
         inkscape:connector-curvature="0"
         style="clip-rule:evenodd" /></clipPath><clipPath
       clipPathUnits="userSpaceOnUse"
       id="clipPath30306"><path
         d="M 4.58e-7,199 H 666.33 V 6.1035e-5 L -8.944e-6,1.5259e-5"
         id="path30304"
         inkscape:connector-curvature="0"
         style="clip-rule:evenodd" /></clipPath><clipPath
       clipPathUnits="userSpaceOnUse"
       id="clipPath30316"><path
         d="M -9.494e-6,199 H 666.33 V -4.5776e-5 L 1.5e-6,0"
         id="path30314"
         inkscape:connector-curvature="0"
         style="clip-rule:evenodd" /></clipPath><clipPath
       clipPathUnits="userSpaceOnUse"
       id="clipPath30342"><path
         d="M 9.929e-6,1.5259e-5 H 666.33001 V 199.00002 H 9.929e-6 Z"
         id="path30340"
         inkscape:connector-curvature="0"
         style="clip-rule:evenodd" /></clipPath><clipPath
       clipPathUnits="userSpaceOnUse"
       id="clipPath30354"><path
         d="M 9.929e-6,1.5259e-5 H 666.33001 V 199.00002 H 9.929e-6 Z"
         id="path30352"
         inkscape:connector-curvature="0"
         style="clip-rule:evenodd" /></clipPath><clipPath
       clipPathUnits="userSpaceOnUse"
       id="clipPath30366"><path
         d="M 9.929e-6,1.5259e-5 H 666.33001 V 199.00002 H 9.929e-6 Z"
         id="path30364"
         inkscape:connector-curvature="0"
         style="clip-rule:evenodd" /></clipPath><clipPath
       clipPathUnits="userSpaceOnUse"
       id="clipPath30378"><path
         d="M 9.929e-6,1.5259e-5 H 666.33001 V 199.00002 H 9.929e-6 Z"
         id="path30376"
         inkscape:connector-curvature="0"
         style="clip-rule:evenodd" /></clipPath><clipPath
       clipPathUnits="userSpaceOnUse"
       id="clipPath30390"><path
         d="M -2.119e-6,199 H 666.33 V -4.5776e-5 L 1.0662e-5,-1.5259e-5"
         id="path30388"
         inkscape:connector-curvature="0"
         style="clip-rule:evenodd" /></clipPath><clipPath
       clipPathUnits="userSpaceOnUse"
       id="clipPath30400"><path
         d="M -5.317e-6,199 H 666.33 V -6.1035e-5 L 1.739e-6,0"
         id="path30398"
         inkscape:connector-curvature="0"
         style="clip-rule:evenodd" /></clipPath><clipPath
       clipPathUnits="userSpaceOnUse"
       id="clipPath30410"><path
         d="M 3.946e-6,199 H 666.33 V 0 H 3.946e-6"
         id="path30408"
         inkscape:connector-curvature="0"
         style="clip-rule:evenodd" /></clipPath><clipPath
       clipPathUnits="userSpaceOnUse"
       id="clipPath30420"><path
         d="M -1.4395e-5,199 H 666.33 V 3.0518e-5 L -2.8315e-5,1.5259e-5"
         id="path30418"
         inkscape:connector-curvature="0"
         style="clip-rule:evenodd" /></clipPath><clipPath
       clipPathUnits="userSpaceOnUse"
       id="clipPath30430"><path
         d="M 9.929e-6,1.5259e-5 H 666.33001 V 199.00002 H 9.929e-6 Z"
         id="path30428"
         inkscape:connector-curvature="0"
         style="clip-rule:evenodd" /></clipPath><clipPath
       clipPathUnits="userSpaceOnUse"
       id="clipPath30442"><path
         d="M 9.929e-6,1.5259e-5 H 666.33001 V 199.00002 H 9.929e-6 Z"
         id="path30440"
         inkscape:connector-curvature="0"
         style="clip-rule:evenodd" /></clipPath><clipPath
       clipPathUnits="userSpaceOnUse"
       id="clipPath30454"><path
         d="M 9.929e-6,1.5259e-5 H 666.33001 V 199.00002 H 9.929e-6 Z"
         id="path30452"
         inkscape:connector-curvature="0"
         style="clip-rule:evenodd" /></clipPath><clipPath
       clipPathUnits="userSpaceOnUse"
       id="clipPath30466"><path
         d="M 9.929e-6,1.5259e-5 H 666.33001 V 199.00002 H 9.929e-6 Z"
         id="path30464"
         inkscape:connector-curvature="0"
         style="clip-rule:evenodd" /></clipPath><clipPath
       clipPathUnits="userSpaceOnUse"
       id="clipPath30478"><path
         d="M 9.929e-6,1.5259e-5 H 666.33001 V 199.00002 H 9.929e-6 Z"
         id="path30476"
         inkscape:connector-curvature="0"
         style="clip-rule:evenodd" /></clipPath><clipPath
       clipPathUnits="userSpaceOnUse"
       id="clipPath30490"><path
         d="M 9.929e-6,1.5259e-5 H 666.33001 V 199.00002 H 9.929e-6 Z"
         id="path30488"
         inkscape:connector-curvature="0"
         style="clip-rule:evenodd" /></clipPath><clipPath
       clipPathUnits="userSpaceOnUse"
       id="clipPath30502"><path
         d="M 9.929e-6,1.5259e-5 H 666.33001 V 199.00002 H 9.929e-6 Z"
         id="path30500"
         inkscape:connector-curvature="0"
         style="clip-rule:evenodd" /></clipPath><clipPath
       clipPathUnits="userSpaceOnUse"
       id="clipPath30514"><path
         d="M 9.929e-6,1.5259e-5 H 666.33001 V 199.00002 H 9.929e-6 Z"
         id="path30512"
         inkscape:connector-curvature="0"
         style="clip-rule:evenodd" /></clipPath><clipPath
       clipPathUnits="userSpaceOnUse"
       id="clipPath30526"><path
         d="M 9.929e-6,1.5259e-5 H 666.33001 V 199.00002 H 9.929e-6 Z"
         id="path30524"
         inkscape:connector-curvature="0"
         style="clip-rule:evenodd" /></clipPath><clipPath
       clipPathUnits="userSpaceOnUse"
       id="clipPath30538"><path
         d="M 9.929e-6,1.5259e-5 H 666.33001 V 199.00002 H 9.929e-6 Z"
         id="path30536"
         inkscape:connector-curvature="0"
         style="clip-rule:evenodd" /></clipPath><clipPath
       clipPathUnits="userSpaceOnUse"
       id="clipPath30550"><path
         d="M 9.929e-6,1.5259e-5 H 666.33001 V 199.00002 H 9.929e-6 Z"
         id="path30548"
         inkscape:connector-curvature="0"
         style="clip-rule:evenodd" /></clipPath><clipPath
       clipPathUnits="userSpaceOnUse"
       id="clipPath30562"><path
         d="M 9.929e-6,1.5259e-5 H 666.33001 V 199.00002 H 9.929e-6 Z"
         id="path30560"
         inkscape:connector-curvature="0"
         style="clip-rule:evenodd" /></clipPath><clipPath
       clipPathUnits="userSpaceOnUse"
       id="clipPath30574"><path
         d="M 9.929e-6,1.5259e-5 H 666.33001 V 199.00002 H 9.929e-6 Z"
         id="path30572"
         inkscape:connector-curvature="0"
         style="clip-rule:evenodd" /></clipPath><clipPath
       clipPathUnits="userSpaceOnUse"
       id="clipPath30586"><path
         d="M 9.929e-6,1.5259e-5 H 666.33001 V 199.00002 H 9.929e-6 Z"
         id="path30584"
         inkscape:connector-curvature="0"
         style="clip-rule:evenodd" /></clipPath><clipPath
       clipPathUnits="userSpaceOnUse"
       id="clipPath30598"><path
         d="M 9.929e-6,1.5259e-5 H 666.33001 V 199.00002 H 9.929e-6 Z"
         id="path30596"
         inkscape:connector-curvature="0"
         style="clip-rule:evenodd" /></clipPath><clipPath
       clipPathUnits="userSpaceOnUse"
       id="clipPath30610"><path
         d="M 9.929e-6,1.5259e-5 H 666.33001 V 199.00002 H 9.929e-6 Z"
         id="path30608"
         inkscape:connector-curvature="0"
         style="clip-rule:evenodd" /></clipPath><clipPath
       clipPathUnits="userSpaceOnUse"
       id="clipPath30618"><path
         d="M 9.929e-6,1.5259e-5 H 666.33001 V 199.00002 H 9.929e-6 Z"
         id="path30616"
         inkscape:connector-curvature="0"
         style="clip-rule:evenodd" /></clipPath><clipPath
       clipPathUnits="userSpaceOnUse"
       id="clipPath30630"><path
         d="M 9.929e-6,1.5259e-5 H 666.33001 V 199.00002 H 9.929e-6 Z"
         id="path30628"
         inkscape:connector-curvature="0"
         style="clip-rule:evenodd" /></clipPath><clipPath
       clipPathUnits="userSpaceOnUse"
       id="clipPath30642"><path
         d="M 4.689e-6,199 H 666.33 V 6.1035e-5 H -2.2988e-5"
         id="path30640"
         inkscape:connector-curvature="0"
         style="clip-rule:evenodd" /></clipPath><clipPath
       clipPathUnits="userSpaceOnUse"
       id="clipPath30652"><path
         d="M -7.8084e-5,199 H 666.33 V 0 L -1.3791e-4,-1.5259e-5"
         id="path30650"
         inkscape:connector-curvature="0"
         style="clip-rule:evenodd" /></clipPath><clipPath
       clipPathUnits="userSpaceOnUse"
       id="clipPath30662"><path
         d="M -2.41e-7,199 H 666.33 V 3.0518e-5 H -2.41e-7"
         id="path30660"
         inkscape:connector-curvature="0"
         style="clip-rule:evenodd" /></clipPath><clipPath
       clipPathUnits="userSpaceOnUse"
       id="clipPath30674"><path
         d="M -2.4015e-5,199 H 666.33 V 3.0518e-5 H -2.4015e-5"
         id="path30672"
         inkscape:connector-curvature="0"
         style="clip-rule:evenodd" /></clipPath><clipPath
       clipPathUnits="userSpaceOnUse"
       id="clipPath30686"><path
         d="M -5.689e-5,199 H 666.33 V 3.0518e-5 H -5.689e-5"
         id="path30684"
         inkscape:connector-curvature="0"
         style="clip-rule:evenodd" /></clipPath><clipPath
       clipPathUnits="userSpaceOnUse"
       id="clipPath30698"><path
         d="M -6.5781e-5,199 H 666.33 V 3.0518e-5 H -6.5781e-5"
         id="path30696"
         inkscape:connector-curvature="0"
         style="clip-rule:evenodd" /></clipPath><clipPath
       clipPathUnits="userSpaceOnUse"
       id="clipPath30712"><path
         d="M 9.929e-6,1.5259e-5 H 666.33001 V 199.00002 H 9.929e-6 Z"
         id="path30710"
         inkscape:connector-curvature="0"
         style="clip-rule:evenodd" /></clipPath><clipPath
       clipPathUnits="userSpaceOnUse"
       id="clipPath30724"><path
         d="M 9.929e-6,1.5259e-5 H 666.33001 V 199.00002 H 9.929e-6 Z"
         id="path30722"
         inkscape:connector-curvature="0"
         style="clip-rule:evenodd" /></clipPath><clipPath
       clipPathUnits="userSpaceOnUse"
       id="clipPath30736"><path
         d="M 9.929e-6,1.5259e-5 H 666.33001 V 199.00002 H 9.929e-6 Z"
         id="path30734"
         inkscape:connector-curvature="0"
         style="clip-rule:evenodd" /></clipPath><clipPath
       clipPathUnits="userSpaceOnUse"
       id="clipPath30748"><path
         d="M 9.929e-6,1.5259e-5 H 666.33001 V 199.00002 H 9.929e-6 Z"
         id="path30746"
         inkscape:connector-curvature="0"
         style="clip-rule:evenodd" /></clipPath><clipPath
       clipPathUnits="userSpaceOnUse"
       id="clipPath30760"><path
         d="M 9.929e-6,1.5259e-5 H 666.33001 V 199.00002 H 9.929e-6 Z"
         id="path30758"
         inkscape:connector-curvature="0"
         style="clip-rule:evenodd" /></clipPath></defs><sodipodi:namedview
     pagecolor="#ffffff"
     bordercolor="#666666"
     borderopacity="1"
     objecttolerance="10"
     gridtolerance="10"
     guidetolerance="10"
     inkscape:pageopacity="0"
     inkscape:pageshadow="2"
     inkscape:window-width="1368"
     inkscape:window-height="704"
     id="namedview30168"
     showgrid="false"
     inkscape:zoom="1.1053082"
     inkscape:cx="341.77875"
     inkscape:cy="123.85935"
     inkscape:window-x="0"
     inkscape:window-y="27"
     inkscape:window-maximized="1"
     inkscape:current-layer="g30174" /><g
     id="g30174"
     inkscape:groupmode="layer"
     inkscape:label="infrastructure"
     transform="matrix(1.3333333,0,0,-1.3333333,0,265.33333)"><g
       id="g30176"><g
         id="g30178"
         clip-path="url(#clipPath30182)"><path
           d="m 451.2,52.02 c 5.68,9.839 14.61,15.318 19.94,12.238 5.34,-3.081 5.06,-13.555 -0.62,-23.394 -5.68,-9.839 -14.61,-15.318 -19.95,-12.238 -5.34,3.081 -5.06,13.554 0.63,23.394 z"
           style="fill:none;stroke:#000000;stroke-width:0.75;stroke-linecap:round;stroke-linejoin:round;stroke-miterlimit:10;stroke-dasharray:5.25, 3.75;stroke-dashoffset:0;stroke-opacity:1"
           id="path30184"
           inkscape:connector-curvature="0" /></g></g><g
       id="g30186"><g
         id="g30188"
         clip-path="url(#clipPath30192)"><path
           d="m 260.15,74.557 c 6.28,10.869 15.42,17.341 20.41,14.455 5,-2.885 3.96,-14.035 -2.31,-24.904 -6.28,-10.869 -15.41,-17.341 -20.41,-14.455 -5,2.885 -3.96,14.035 2.31,24.904 z"
           style="fill:none;stroke:#000000;stroke-width:0.75;stroke-linecap:round;stroke-linejoin:round;stroke-miterlimit:10;stroke-dasharray:5.25, 3.75;stroke-dashoffset:0;stroke-opacity:1"
           id="path30194"
           inkscape:connector-curvature="0" /></g></g><path
       d="m 280.63,99.412 c 0,15.658 -34.9,28.348 -77.95,28.348 -43.05,0 -77.96,-12.69 -77.96,-28.348 0,-15.655 34.91,-28.346 77.96,-28.346 43.05,0 77.95,12.691 77.95,28.346 z"
       style="fill:none;stroke:#000000;stroke-width:0.75;stroke-linecap:round;stroke-linejoin:round;stroke-miterlimit:10;stroke-dasharray:none;stroke-opacity:1"
       id="path30196"
       inkscape:connector-curvature="0" /><path
       d="m 479.06,99.412 c 0,23.488 -44.42,42.518 -99.22,42.518 -54.79,0 -99.21,-19.03 -99.21,-42.518 0,-23.483 44.42,-42.519 99.21,-42.519 54.8,0 99.22,19.036 99.22,42.519 z"
       style="fill:none;stroke:#000000;stroke-width:0.75;stroke-linecap:round;stroke-linejoin:round;stroke-miterlimit:10;stroke-dasharray:none;stroke-opacity:1"
       id="path30198"
       inkscape:connector-curvature="0" /><path
       d="m 555.59,99.412 c 0,23.488 -22.21,42.518 -49.61,42.518 -27.39,0 -49.6,-19.03 -49.6,-42.518 0,-23.483 22.21,-42.519 49.6,-42.519 27.4,0 49.61,19.036 49.61,42.519 z"
       style="fill:none;stroke:#000000;stroke-width:0.75;stroke-linecap:round;stroke-linejoin:round;stroke-miterlimit:10;stroke-dasharray:none;stroke-opacity:1"
       id="path30200"
       inkscape:connector-curvature="0" /><path
       d="m 291.26,116.84 h -21.19 l -7.16,-13.91 V 81.99 h 35.44 v 20.94 z"
       style="fill:#92cddc;fill-opacity:1;fill-rule:evenodd;stroke:none"
       id="path30202"
       inkscape:connector-curvature="0" /><path
       d="m 262.91,102.93 h 35.44 m -7.09,13.91 h -21.19 l -7.16,-13.91 V 81.99 h 35.44 v 20.94 z"
       style="fill:none;stroke:#000000;stroke-width:0.75;stroke-linecap:round;stroke-linejoin:round;stroke-miterlimit:10;stroke-dasharray:none;stroke-opacity:1"
       id="path30204"
       inkscape:connector-curvature="0" /><path
       d="m 282.22,92.367 6.88,4.148 4.43,0.007 -2.3,-2.276 h 2.67 l 2.98,3.233 -2.97,3.231 h -2.69 l 2.28,-2.256 h -4.72 l -8.32,-5.022 -7.74,4.667 H 268 l 2.28,2.261 h -2.69 l -2.97,-3.236 2.98,-3.232 h 2.67 l -2.29,2.275 4.42,-0.007 6.29,-3.793 -6.28,-3.793 -4.43,-0.008 2.29,2.276 h -2.67 l -2.98,-3.233 2.97,-3.231 h 2.69 L 268,86.635 h 4.72 l 7.74,4.667 8.32,-5.022 h 4.72 l -2.28,-2.256 h 2.69 l 2.97,3.23 -2.98,3.233 h -2.67 l 2.3,-2.275 -4.43,0.008 z"
       style="fill:#92cddc;fill-opacity:1;fill-rule:evenodd;stroke:none"
       id="path30206"
       inkscape:connector-curvature="0" /><path
       d="m 282.22,92.367 6.88,4.148 4.43,0.007 -2.3,-2.276 h 2.67 l 2.98,3.233 -2.97,3.231 h -2.69 l 2.28,-2.256 h -4.72 l -8.32,-5.022 -7.74,4.667 H 268 l 2.28,2.261 h -2.69 l -2.97,-3.236 2.98,-3.232 h 2.67 l -2.29,2.275 4.42,-0.007 6.29,-3.793 -6.28,-3.793 -4.43,-0.008 2.29,2.276 h -2.67 l -2.98,-3.233 2.97,-3.231 h 2.69 L 268,86.635 h 4.72 l 7.74,4.667 8.32,-5.022 h 4.72 l -2.28,-2.256 h 2.69 l 2.97,3.23 -2.98,3.233 h -2.67 l 2.3,-2.275 -4.43,0.008 z"
       style="fill:none;stroke:#000000;stroke-width:0.75;stroke-linecap:round;stroke-linejoin:round;stroke-miterlimit:10;stroke-dasharray:none;stroke-opacity:1"
       id="path30208"
       inkscape:connector-curvature="0" /><path
       d="M 213.31,92.032 H 192.12 L 184.96,78.123 V 57.187 h 35.43 v 20.936 z"
       style="fill:#92cddc;fill-opacity:1;fill-rule:evenodd;stroke:none"
       id="path30210"
       inkscape:connector-curvature="0" /><path
       d="m 184.96,78.123 h 35.43 m -7.08,13.909 H 192.12 L 184.96,78.123 V 57.187 h 35.43 v 20.936 z"
       style="fill:none;stroke:#000000;stroke-width:0.75;stroke-linecap:round;stroke-linejoin:round;stroke-miterlimit:10;stroke-dasharray:none;stroke-opacity:1"
       id="path30212"
       inkscape:connector-curvature="0" /><path
       d="m 204.27,67.564 6.87,4.147 4.43,0.008 -2.29,-2.276 h 2.67 l 2.97,3.233 -2.96,3.231 h -2.69 l 2.28,-2.257 h -4.72 l -8.33,-5.021 -7.73,4.667 h -4.72 l 2.28,2.257 h -2.69 l -2.97,-3.232 2.98,-3.232 h 2.67 l -2.3,2.275 4.43,-0.007 6.29,-3.793 -6.29,-3.793 -4.43,-0.008 2.3,2.276 h -2.67 l -2.98,-3.233 2.97,-3.231 h 2.69 l -2.28,2.257 h 4.72 l 7.73,4.667 8.33,-5.022 h 4.72 l -2.28,-2.256 h 2.69 l 2.96,3.23 -2.97,3.233 h -2.67 l 2.29,-2.275 -4.43,0.007 z"
       style="fill:#92cddc;fill-opacity:1;fill-rule:evenodd;stroke:none"
       id="path30214"
       inkscape:connector-curvature="0" /><path
       d="m 204.27,67.564 6.87,4.147 4.43,0.008 -2.29,-2.276 h 2.67 l 2.97,3.233 -2.96,3.231 h -2.69 l 2.28,-2.257 h -4.72 l -8.33,-5.021 -7.73,4.667 h -4.72 l 2.28,2.257 h -2.69 l -2.97,-3.232 2.98,-3.232 h 2.67 l -2.3,2.275 4.43,-0.007 6.29,-3.793 -6.29,-3.793 -4.43,-0.008 2.3,2.276 h -2.67 l -2.98,-3.233 2.97,-3.231 h 2.69 l -2.28,2.257 h 4.72 l 7.73,4.667 8.33,-5.022 h 4.72 l -2.28,-2.256 h 2.69 l 2.96,3.23 -2.97,3.233 h -2.67 l 2.29,-2.275 -4.43,0.007 z"
       style="fill:none;stroke:#000000;stroke-width:0.75;stroke-linecap:round;stroke-linejoin:round;stroke-miterlimit:10;stroke-dasharray:none;stroke-opacity:1"
       id="path30216"
       inkscape:connector-curvature="0" /><path
       d="m 213.31,148.72 h -21.19 l -7.16,-13.9 v -20.94 h 35.43 v 20.94 z"
       style="fill:#92cddc;fill-opacity:1;fill-rule:evenodd;stroke:none"
       id="path30218"
       inkscape:connector-curvature="0" /><path
       d="m 184.96,134.82 h 35.43 m -7.08,13.9 h -21.19 l -7.16,-13.9 v -20.94 h 35.43 v 20.94 z"
       style="fill:none;stroke:#000000;stroke-width:0.75;stroke-linecap:round;stroke-linejoin:round;stroke-miterlimit:10;stroke-dasharray:none;stroke-opacity:1"
       id="path30220"
       inkscape:connector-curvature="0" /><path
       d="m 204.27,124.26 6.87,4.14 4.43,0.01 -2.29,-2.27 h 2.67 l 2.97,3.23 -2.96,3.23 h -2.69 l 2.28,-2.26 h -4.72 l -8.33,-5.02 -7.73,4.67 h -4.72 l 2.28,2.26 h -2.69 l -2.97,-3.24 2.98,-3.23 h 2.67 l -2.3,2.28 4.43,-0.01 6.29,-3.79 -6.29,-3.8 h -4.43 l 2.3,2.27 h -2.67 l -2.98,-3.23 2.97,-3.23 h 2.69 l -2.28,2.25 h 4.72 l 7.73,4.67 8.33,-5.02 h 4.72 l -2.28,-2.26 h 2.69 l 2.96,3.23 -2.97,3.24 h -2.67 l 2.29,-2.28 -4.43,0.01 z"
       style="fill:#92cddc;fill-opacity:1;fill-rule:evenodd;stroke:none"
       id="path30222"
       inkscape:connector-curvature="0" /><path
       d="m 204.27,124.26 6.87,4.14 4.43,0.01 -2.29,-2.27 h 2.67 l 2.97,3.23 -2.96,3.23 h -2.69 l 2.28,-2.26 h -4.72 l -8.33,-5.02 -7.73,4.67 h -4.72 l 2.28,2.26 h -2.69 l -2.97,-3.24 2.98,-3.23 h 2.67 l -2.3,2.28 4.43,-0.01 6.29,-3.79 -6.29,-3.8 h -4.43 l 2.3,2.27 h -2.67 l -2.98,-3.23 2.97,-3.23 h 2.69 l -2.28,2.25 h 4.72 l 7.73,4.67 8.33,-5.02 h 4.72 l -2.28,-2.26 h 2.69 l 2.96,3.23 -2.97,3.24 h -2.67 l 2.29,-2.28 -4.43,0.01 z"
       style="fill:none;stroke:#000000;stroke-width:0.75;stroke-linecap:round;stroke-linejoin:round;stroke-miterlimit:10;stroke-dasharray:none;stroke-opacity:1"
       id="path30224"
       inkscape:connector-curvature="0" /><path
       d="m 135.35,120.38 h -21.18 l -7.16,-13.91 V 85.533 h 35.43 v 20.937 z"
       style="fill:#92cddc;fill-opacity:1;fill-rule:evenodd;stroke:none"
       id="path30226"
       inkscape:connector-curvature="0" /><path
       d="m 107.01,106.47 h 35.43 m -7.09,13.91 h -21.18 l -7.16,-13.91 V 85.533 h 35.43 v 20.937 z"
       style="fill:none;stroke:#000000;stroke-width:0.75;stroke-linecap:round;stroke-linejoin:round;stroke-miterlimit:10;stroke-dasharray:none;stroke-opacity:1"
       id="path30228"
       inkscape:connector-curvature="0" /><path
       d="m 126.32,95.91 6.87,4.15 h 4.43 l -2.3,-2.271 h 2.67 l 2.98,3.231 -2.96,3.23 h -2.7 L 137.6,102 h -4.73 l -8.32,-5.024 -7.73,4.664 h -4.73 l 2.29,2.26 h -2.7 l -2.96,-3.23 2.98,-3.234 h 2.67 l -2.3,2.275 4.43,-0.008 6.29,-3.793 -6.29,-3.792 -4.43,-0.008 2.3,2.275 h -2.67 l -2.98,-3.233 2.96,-3.231 h 2.7 l -2.29,2.257 h 4.73 l 7.73,4.667 8.32,-5.021 h 4.73 l -2.29,-2.257 h 2.7 l 2.96,3.23 -2.98,3.234 h -2.67 l 2.3,-2.276 -4.43,0.008 z"
       style="fill:#92cddc;fill-opacity:1;fill-rule:evenodd;stroke:none"
       id="path30230"
       inkscape:connector-curvature="0" /><path
       d="m 126.32,95.91 6.87,4.15 h 4.43 l -2.3,-2.271 h 2.67 l 2.98,3.231 -2.96,3.23 h -2.7 L 137.6,102 h -4.73 l -8.32,-5.024 -7.73,4.664 h -4.73 l 2.29,2.26 h -2.7 l -2.96,-3.23 2.98,-3.234 h 2.67 l -2.3,2.275 4.43,-0.008 6.29,-3.793 -6.29,-3.792 -4.43,-0.008 2.3,2.275 h -2.67 l -2.98,-3.233 2.96,-3.231 h 2.7 l -2.29,2.257 h 4.73 l 7.73,4.667 8.32,-5.021 h 4.73 l -2.29,-2.257 h 2.7 l 2.96,3.23 -2.98,3.234 h -2.67 l 2.3,-2.276 -4.43,0.008 z"
       style="fill:none;stroke:#000000;stroke-width:0.75;stroke-linecap:round;stroke-linejoin:round;stroke-miterlimit:10;stroke-dasharray:none;stroke-opacity:1"
       id="path30232"
       inkscape:connector-curvature="0" /><path
       d="m 379.84,162.9 h -21.19 l -7.15,-13.91 v -20.94 h 35.43 v 20.94 z"
       style="fill:#92cddc;fill-opacity:1;fill-rule:evenodd;stroke:none"
       id="path30234"
       inkscape:connector-curvature="0" /><path
       d="m 351.5,148.99 h 35.43 m -7.09,13.91 h -21.19 l -7.15,-13.91 v -20.94 h 35.43 v 20.94 z"
       style="fill:none;stroke:#000000;stroke-width:0.75;stroke-linecap:round;stroke-linejoin:round;stroke-miterlimit:10;stroke-dasharray:none;stroke-opacity:1"
       id="path30236"
       inkscape:connector-curvature="0" /><path
       d="m 370.81,138.43 6.87,4.15 h 4.43 l -2.3,-2.27 h 2.67 l 2.98,3.23 -2.97,3.23 h -2.69 l 2.28,-2.25 h -4.72 l -8.32,-5.02 -7.74,4.66 h -4.72 l 2.29,2.26 h -2.7 l -2.96,-3.23 2.98,-3.23 h 2.67 l -2.3,2.27 4.43,-0.01 6.28,-3.79 -6.28,-3.79 -4.43,-0.01 2.3,2.27 h -2.67 l -2.98,-3.23 2.96,-3.23 h 2.7 l -2.29,2.26 h 4.72 l 7.74,4.66 8.32,-5.02 h 4.72 l -2.28,-2.25 h 2.69 l 2.97,3.23 -2.98,3.23 h -2.67 l 2.3,-2.28 -4.43,0.01 z"
       style="fill:#92cddc;fill-opacity:1;fill-rule:evenodd;stroke:none"
       id="path30238"
       inkscape:connector-curvature="0" /><path
       d="m 370.81,138.43 6.87,4.15 h 4.43 l -2.3,-2.27 h 2.67 l 2.98,3.23 -2.97,3.23 h -2.69 l 2.28,-2.25 h -4.72 l -8.32,-5.02 -7.74,4.66 h -4.72 l 2.29,2.26 h -2.7 l -2.96,-3.23 2.98,-3.23 h 2.67 l -2.3,2.27 4.43,-0.01 6.28,-3.79 -6.28,-3.79 -4.43,-0.01 2.3,2.27 h -2.67 l -2.98,-3.23 2.96,-3.23 h 2.7 l -2.29,2.26 h 4.72 l 7.74,4.66 8.32,-5.02 h 4.72 l -2.28,-2.25 h 2.69 l 2.97,3.23 -2.98,3.23 h -2.67 l 2.3,-2.28 -4.43,0.01 z"
       style="fill:none;stroke:#000000;stroke-width:0.75;stroke-linecap:round;stroke-linejoin:round;stroke-miterlimit:10;stroke-dasharray:none;stroke-opacity:1"
       id="path30240"
       inkscape:connector-curvature="0" /><path
       d="M 379.84,77.859 H 358.65 L 351.5,63.95 V 43.013 h 35.43 V 63.95 Z"
       style="fill:#92cddc;fill-opacity:1;fill-rule:evenodd;stroke:none"
       id="path30242"
       inkscape:connector-curvature="0" /><path
       d="m 351.5,63.95 h 35.43 m -7.09,13.909 H 358.65 L 351.5,63.95 V 43.013 h 35.43 V 63.95 Z"
       style="fill:none;stroke:#000000;stroke-width:0.75;stroke-linecap:round;stroke-linejoin:round;stroke-miterlimit:10;stroke-dasharray:none;stroke-opacity:1"
       id="path30244"
       inkscape:connector-curvature="0" /><path
       d="m 370.81,53.391 6.87,4.147 4.43,0.007 -2.3,-2.275 h 2.67 l 2.98,3.232 -2.97,3.232 h -2.69 l 2.28,-2.257 h -4.72 l -8.32,-5.021 -7.74,4.667 h -4.72 l 2.29,2.256 h -2.7 l -2.96,-3.231 2.98,-3.232 h 2.67 l -2.3,2.275 4.43,-0.007 6.28,-3.793 -6.28,-3.793 -4.43,-0.008 2.3,2.275 h -2.67 l -2.98,-3.233 2.96,-3.231 h 2.7 l -2.29,2.257 h 4.72 l 7.74,4.667 8.32,-5.021 h 4.72 l -2.28,-2.256 h 2.69 l 2.97,3.23 -2.98,3.233 h -2.67 l 2.3,-2.276 -4.43,0.008 z"
       style="fill:#92cddc;fill-opacity:1;fill-rule:evenodd;stroke:none"
       id="path30246"
       inkscape:connector-curvature="0" /><path
       d="m 370.81,53.391 6.87,4.147 4.43,0.007 -2.3,-2.275 h 2.67 l 2.98,3.232 -2.97,3.232 h -2.69 l 2.28,-2.257 h -4.72 l -8.32,-5.021 -7.74,4.667 h -4.72 l 2.29,2.256 h -2.7 l -2.96,-3.231 2.98,-3.232 h 2.67 l -2.3,2.275 4.43,-0.007 6.28,-3.793 -6.28,-3.793 -4.43,-0.008 2.3,2.275 h -2.67 l -2.98,-3.233 2.96,-3.231 h 2.7 l -2.29,2.257 h 4.72 l 7.74,4.667 8.32,-5.021 h 4.72 l -2.28,-2.256 h 2.69 l 2.97,3.23 -2.98,3.233 h -2.67 l 2.3,-2.276 -4.43,0.008 z"
       style="fill:none;stroke:#000000;stroke-width:0.75;stroke-linecap:round;stroke-linejoin:round;stroke-miterlimit:10;stroke-dasharray:none;stroke-opacity:1"
       id="path30248"
       inkscape:connector-curvature="0" /><path
       d="m 475.51,148.72 h -21.19 l -7.15,-13.9 v -20.94 h 35.43 v 20.94 z"
       style="fill:#92cddc;fill-opacity:1;fill-rule:evenodd;stroke:none"
       id="path30250"
       inkscape:connector-curvature="0" /><path
       d="m 447.17,134.82 h 35.43 m -7.09,13.9 h -21.19 l -7.15,-13.9 v -20.94 h 35.43 v 20.94 z"
       style="fill:none;stroke:#000000;stroke-width:0.75;stroke-linecap:round;stroke-linejoin:round;stroke-miterlimit:10;stroke-dasharray:none;stroke-opacity:1"
       id="path30252"
       inkscape:connector-curvature="0" /><path
       d="m 466.47,124.26 6.88,4.14 4.43,0.01 -2.3,-2.27 h 2.67 l 2.98,3.23 -2.97,3.23 h -2.69 l 2.28,-2.26 h -4.72 l -8.32,-5.02 -7.74,4.67 h -4.72 l 2.29,2.26 h -2.7 l -2.96,-3.24 2.97,-3.23 h 2.67 l -2.29,2.28 4.43,-0.01 6.28,-3.79 -6.28,-3.8 h -4.43 l 2.29,2.27 h -2.67 l -2.97,-3.23 2.96,-3.23 h 2.7 l -2.29,2.25 h 4.72 l 7.74,4.67 8.32,-5.02 h 4.72 l -2.28,-2.26 h 2.69 l 2.97,3.23 -2.98,3.24 h -2.67 l 2.3,-2.28 -4.43,0.01 z"
       style="fill:#92cddc;fill-opacity:1;fill-rule:evenodd;stroke:none"
       id="path30254"
       inkscape:connector-curvature="0" /><path
       d="m 466.47,124.26 6.88,4.14 4.43,0.01 -2.3,-2.27 h 2.67 l 2.98,3.23 -2.97,3.23 h -2.69 l 2.28,-2.26 h -4.72 l -8.32,-5.02 -7.74,4.67 h -4.72 l 2.29,2.26 h -2.7 l -2.96,-3.24 2.97,-3.23 h 2.67 l -2.29,2.28 4.43,-0.01 6.28,-3.79 -6.28,-3.8 h -4.43 l 2.29,2.27 h -2.67 l -2.97,-3.23 2.96,-3.23 h 2.7 l -2.29,2.25 h 4.72 l 7.74,4.67 8.32,-5.02 h 4.72 l -2.28,-2.26 h 2.69 l 2.97,3.23 -2.98,3.24 h -2.67 l 2.3,-2.28 -4.43,0.01 z"
       style="fill:none;stroke:#000000;stroke-width:0.75;stroke-linecap:round;stroke-linejoin:round;stroke-miterlimit:10;stroke-dasharray:none;stroke-opacity:1"
       id="path30256"
       inkscape:connector-curvature="0" /><path
       d="M 475.51,92.032 H 454.32 L 447.17,78.123 V 57.187 h 35.43 v 20.936 z"
       style="fill:#92cddc;fill-opacity:1;fill-rule:evenodd;stroke:none"
       id="path30258"
       inkscape:connector-curvature="0" /><path
       d="m 447.17,78.123 h 35.43 m -7.09,13.909 H 454.32 L 447.17,78.123 V 57.187 h 35.43 v 20.936 z"
       style="fill:none;stroke:#000000;stroke-width:0.75;stroke-linecap:round;stroke-linejoin:round;stroke-miterlimit:10;stroke-dasharray:none;stroke-opacity:1"
       id="path30260"
       inkscape:connector-curvature="0" /><path
       d="m 466.47,67.564 6.88,4.148 4.43,0.007 -2.3,-2.276 h 2.67 l 2.98,3.233 -2.97,3.231 h -2.69 l 2.28,-2.257 h -4.72 l -8.32,-5.021 -7.74,4.667 h -4.72 l 2.29,2.257 h -2.7 l -2.96,-3.232 2.97,-3.232 h 2.67 l -2.29,2.275 4.43,-0.007 6.28,-3.793 -6.28,-3.793 -4.43,-0.008 2.29,2.276 h -2.67 l -2.97,-3.233 2.96,-3.231 h 2.7 l -2.29,2.257 h 4.72 l 7.74,4.667 8.32,-5.022 h 4.72 l -2.28,-2.256 h 2.69 l 2.97,3.23 -2.98,3.233 h -2.67 l 2.3,-2.275 -4.43,0.007 z"
       style="fill:#92cddc;fill-opacity:1;fill-rule:evenodd;stroke:none"
       id="path30262"
       inkscape:connector-curvature="0" /><path
       d="m 466.47,67.564 6.88,4.148 4.43,0.007 -2.3,-2.276 h 2.67 l 2.98,3.233 -2.97,3.231 h -2.69 l 2.28,-2.257 h -4.72 l -8.32,-5.021 -7.74,4.667 h -4.72 l 2.29,2.257 h -2.7 l -2.96,-3.232 2.97,-3.232 h 2.67 l -2.29,2.275 4.43,-0.007 6.28,-3.793 -6.28,-3.793 -4.43,-0.008 2.29,2.276 h -2.67 l -2.97,-3.233 2.96,-3.231 h 2.7 l -2.29,2.257 h 4.72 l 7.74,4.667 8.32,-5.022 h 4.72 l -2.28,-2.256 h 2.69 l 2.97,3.23 -2.98,3.233 h -2.67 l 2.3,-2.275 -4.43,0.007 z"
       style="fill:none;stroke:#000000;stroke-width:0.75;stroke-linecap:round;stroke-linejoin:round;stroke-miterlimit:10;stroke-dasharray:none;stroke-opacity:1"
       id="path30264"
       inkscape:connector-curvature="0" /><path
       d="M 58.502,42.719 46.705,74.293 35.042,42.746 l 1.791,-0.01 0.576,1.552 9.297,5.241 9.187,-4.954 0.682,-1.839 z m -11.816,16.683 5.317,-4.908 -5.307,-2.993 -5.255,2.893 z m -4.311,-1.734 1.579,4.257 1.464,-1.351 z m 5.561,2.927 1.487,1.419 1.575,-4.246 z m 0.833,3.178 -2.102,-2.007 -2.065,1.906 2.103,5.665 z M 38.337,46.79 l 2.264,6.099 4.329,-2.382 z m 10.135,3.734 4.312,2.431 2.24,-6.037 z"
       style="fill:#4bacc6;fill-opacity:1;fill-rule:evenodd;stroke:none"
       id="path30266"
       inkscape:connector-curvature="0" /><path
       d="M 58.502,42.719 46.705,74.293 35.042,42.746 l 1.791,-0.01 0.576,1.552 9.297,5.241 9.187,-4.954 0.682,-1.839 z m -11.816,16.683 5.317,-4.908 -5.307,-2.993 -5.255,2.893 z m -4.311,-1.734 1.579,4.257 1.464,-1.351 z m 5.561,2.927 1.487,1.419 1.575,-4.246 z m 0.833,3.178 -2.102,-2.007 -2.065,1.906 2.103,5.665 z M 38.337,46.79 l 2.264,6.099 4.329,-2.382 z m 10.135,3.734 4.312,2.431 2.24,-6.037 z"
       style="fill:none;stroke:#000000;stroke-width:0.75;stroke-linecap:round;stroke-linejoin:round;stroke-miterlimit:10;stroke-dasharray:none;stroke-opacity:1"
       id="path30268"
       inkscape:connector-curvature="0" /><path
       d="m 54.215,77.523 c 0,-2.666 -1.377,-5.013 -3.454,-6.379 l 0.619,-1.276 c 2.547,1.601 4.25,4.43 4.25,7.656 0,0.01 -0.002,0.02 -0.002,0.03 0,0.01 0.002,0.02 0.002,0.03 0,3.225 -1.703,6.054 -4.25,7.655 l -0.619,-1.276 c 2.077,-1.364 3.454,-3.712 3.454,-6.378 0,-0.01 0,-0.019 -0.001,-0.028 v 0 c 0,0 0,-0.002 0,-0.003 0,-0.001 0,-0.002 0,-0.004 v 0 c 0.001,-0.008 0.001,-0.018 0.001,-0.027 z m -4.791,2.92 c 0.79,-0.731 1.288,-1.772 1.291,-2.929 -0.003,-1.157 -0.501,-2.198 -1.291,-2.928 l 0.617,-1.329 c 1.256,0.983 2.069,2.504 2.086,4.215 h 10e-4 c 0,0.011 0.002,0.022 0.002,0.033 0,0.003 -0.001,0.007 -0.001,0.009 0,0.003 0.001,0.006 0.001,0.009 0,0.011 -0.002,0.023 -0.002,0.034 h -10e-4 c -0.017,1.711 -0.83,3.232 -2.086,4.214 z M 38.6,77.523 c 0,0.009 10e-4,0.019 10e-4,0.027 v 0.007 c 0,0.009 -10e-4,0.018 -10e-4,0.028 0,2.666 1.377,5.014 3.454,6.378 l -0.617,1.276 c -2.548,-1.601 -4.25,-4.43 -4.25,-7.655 0,-0.01 0.001,-0.02 0.001,-0.03 0,-0.01 -0.001,-0.02 -0.001,-0.03 0,-3.226 1.702,-6.055 4.25,-7.656 l 0.617,1.276 C 39.977,72.51 38.6,74.857 38.6,77.523 Z m 4.918,2.92 -0.617,1.328 c -1.256,-0.982 -2.069,-2.503 -2.086,-4.214 h -10e-4 c 0,-0.011 -0.002,-0.023 -0.002,-0.034 0,-0.003 0.001,-0.006 0.001,-0.009 0,-0.002 -0.001,-0.006 -0.001,-0.009 0,-0.011 0.002,-0.022 0.002,-0.033 h 10e-4 c 0.017,-1.711 0.83,-3.232 2.086,-4.215 l 0.617,1.329 c -0.79,0.73 -1.288,1.771 -1.291,2.928 0.002,1.157 0.501,2.198 1.291,2.929 z m 4.42,-2.944 c 0,0.794 -0.643,1.437 -1.437,1.437 -0.793,0 -1.437,-0.643 -1.437,-1.437 0,-0.793 0.644,-1.436 1.437,-1.436 0.794,0 1.437,0.643 1.437,1.436 z"
       style="fill:#4bacc6;fill-opacity:1;fill-rule:evenodd;stroke:none"
       id="path30270"
       inkscape:connector-curvature="0" /><path
       d="m 54.215,77.523 c 0,-2.666 -1.377,-5.013 -3.454,-6.379 l 0.619,-1.276 c 2.547,1.601 4.25,4.43 4.25,7.656 0,0.01 -0.002,0.02 -0.002,0.03 0,0.01 0.002,0.02 0.002,0.03 0,3.225 -1.703,6.054 -4.25,7.655 l -0.619,-1.276 c 2.077,-1.364 3.454,-3.712 3.454,-6.378 0,-0.01 0,-0.019 -0.001,-0.028 v 0 c 0,0 0,-0.002 0,-0.003 0,-0.001 0,-0.002 0,-0.004 v 0 c 0.001,-0.008 0.001,-0.018 0.001,-0.027 z m -4.791,2.92 c 0.79,-0.731 1.288,-1.772 1.291,-2.929 -0.003,-1.157 -0.501,-2.198 -1.291,-2.928 l 0.617,-1.329 c 1.256,0.983 2.069,2.504 2.086,4.215 h 10e-4 c 0,0.011 0.002,0.022 0.002,0.033 0,0.003 -0.001,0.007 -0.001,0.009 0,0.003 0.001,0.006 0.001,0.009 0,0.011 -0.002,0.023 -0.002,0.034 h -10e-4 c -0.017,1.711 -0.83,3.232 -2.086,4.214 z M 38.6,77.523 c 0,0.009 10e-4,0.019 10e-4,0.027 v 0.007 c 0,0.009 -10e-4,0.018 -10e-4,0.028 0,2.666 1.377,5.014 3.454,6.378 l -0.617,1.276 c -2.548,-1.601 -4.25,-4.43 -4.25,-7.655 0,-0.01 0.001,-0.02 0.001,-0.03 0,-0.01 -0.001,-0.02 -0.001,-0.03 0,-3.226 1.702,-6.055 4.25,-7.656 l 0.617,1.276 C 39.977,72.51 38.6,74.857 38.6,77.523 Z m 4.918,2.92 -0.617,1.328 c -1.256,-0.982 -2.069,-2.503 -2.086,-4.214 h -10e-4 c 0,-0.011 -0.002,-0.023 -0.002,-0.034 0,-0.003 0.001,-0.006 0.001,-0.009 0,-0.002 -0.001,-0.006 -0.001,-0.009 0,-0.011 0.002,-0.022 0.002,-0.033 h 10e-4 c 0.017,-1.711 0.83,-3.232 2.086,-4.215 l 0.617,1.329 c -0.79,0.73 -1.288,1.771 -1.291,2.928 0.002,1.157 0.501,2.198 1.291,2.929 z m 4.42,-2.944 c 0,0.794 -0.643,1.437 -1.437,1.437 -0.793,0 -1.437,-0.643 -1.437,-1.437 0,-0.793 0.644,-1.436 1.437,-1.436 0.794,0 1.437,0.643 1.437,1.436 z"
       style="fill:none;stroke:#000000;stroke-width:0.75;stroke-linecap:round;stroke-linejoin:round;stroke-miterlimit:10;stroke-dasharray:none;stroke-opacity:1"
       id="path30272"
       inkscape:connector-curvature="0" /><path
       d="m 58.502,113.59 -11.797,31.57 -11.663,-31.55 1.791,-0.01 0.576,1.55 9.297,5.25 9.187,-4.96 0.682,-1.84 z m -11.816,16.68 5.317,-4.91 -5.307,-2.99 -5.255,2.89 z m -4.311,-1.74 1.579,4.26 1.464,-1.35 z m 5.561,2.93 1.487,1.42 1.575,-4.25 z m 0.833,3.18 -2.102,-2.01 -2.065,1.91 2.103,5.66 z m -10.432,-16.98 2.264,6.1 4.329,-2.39 z m 10.135,3.73 4.312,2.43 2.24,-6.04 z"
       style="fill:#4bacc6;fill-opacity:1;fill-rule:evenodd;stroke:none"
       id="path30274"
       inkscape:connector-curvature="0" /><path
       d="m 58.502,113.59 -11.797,31.57 -11.663,-31.55 1.791,-0.01 0.576,1.55 9.297,5.25 9.187,-4.96 0.682,-1.84 z m -11.816,16.68 5.317,-4.91 -5.307,-2.99 -5.255,2.89 z m -4.311,-1.74 1.579,4.26 1.464,-1.35 z m 5.561,2.93 1.487,1.42 1.575,-4.25 z m 0.833,3.18 -2.102,-2.01 -2.065,1.91 2.103,5.66 z m -10.432,-16.98 2.264,6.1 4.329,-2.39 z m 10.135,3.73 4.312,2.43 2.24,-6.04 z"
       style="fill:none;stroke:#000000;stroke-width:0.75;stroke-linecap:round;stroke-linejoin:round;stroke-miterlimit:10;stroke-dasharray:none;stroke-opacity:1"
       id="path30276"
       inkscape:connector-curvature="0" /><path
       d="m 54.215,148.39 c 0,-2.67 -1.377,-5.01 -3.454,-6.38 l 0.619,-1.28 c 2.547,1.61 4.25,4.43 4.25,7.66 0,0.01 -0.002,0.02 -0.002,0.03 0,0.01 0.002,0.02 0.002,0.03 0,3.23 -1.703,6.05 -4.25,7.66 l -0.619,-1.28 c 2.077,-1.37 3.454,-3.71 3.454,-6.38 0,-0.01 0,-0.02 -0.001,-0.03 v 0 c 0,0 0,0 0,0 0,0 0,0 0,0 v 0 c 0.001,-0.01 0.001,-0.02 0.001,-0.03 z m -4.791,2.92 c 0.79,-0.73 1.288,-1.77 1.291,-2.93 -0.003,-1.16 -0.501,-2.2 -1.291,-2.93 l 0.617,-1.33 c 1.256,0.99 2.069,2.51 2.086,4.22 h 10e-4 c 0,0.01 0.002,0.02 0.002,0.03 0,0 -0.001,0.01 -0.001,0.01 0,0 0.001,0.01 0.001,0.01 0,0.01 -0.002,0.02 -0.002,0.03 h -10e-4 c -0.017,1.71 -0.83,3.23 -2.086,4.22 z M 38.6,148.39 c 0,0.01 10e-4,0.02 10e-4,0.03 v 0 c 0,0.01 -10e-4,0.02 -10e-4,0.03 0,2.67 1.377,5.01 3.454,6.38 l -0.617,1.28 c -2.548,-1.61 -4.25,-4.43 -4.25,-7.66 0,-0.01 0.001,-0.02 0.001,-0.03 0,-0.01 -0.001,-0.02 -0.001,-0.03 0,-3.23 1.702,-6.05 4.25,-7.66 l 0.617,1.28 c -2.077,1.37 -3.454,3.71 -3.454,6.38 z m 4.918,2.92 -0.617,1.33 c -1.256,-0.99 -2.069,-2.51 -2.086,-4.22 h -10e-4 c 0,-0.01 -0.002,-0.02 -0.002,-0.03 0,0 0.001,-0.01 0.001,-0.01 0,0 -0.001,-0.01 -0.001,-0.01 0,-0.01 0.002,-0.02 0.002,-0.03 h 10e-4 c 0.017,-1.71 0.83,-3.23 2.086,-4.22 l 0.617,1.33 c -0.79,0.73 -1.288,1.77 -1.291,2.93 0.002,1.16 0.501,2.2 1.291,2.93 z m 4.42,-2.94 c 0,0.79 -0.643,1.43 -1.437,1.43 -0.793,0 -1.437,-0.64 -1.437,-1.43 0,-0.8 0.644,-1.44 1.437,-1.44 0.794,0 1.437,0.64 1.437,1.44 z"
       style="fill:#4bacc6;fill-opacity:1;fill-rule:evenodd;stroke:none"
       id="path30278"
       inkscape:connector-curvature="0" /><path
       d="m 54.215,148.39 c 0,-2.67 -1.377,-5.01 -3.454,-6.38 l 0.619,-1.28 c 2.547,1.61 4.25,4.43 4.25,7.66 0,0.01 -0.002,0.02 -0.002,0.03 0,0.01 0.002,0.02 0.002,0.03 0,3.23 -1.703,6.05 -4.25,7.66 l -0.619,-1.28 c 2.077,-1.37 3.454,-3.71 3.454,-6.38 0,-0.01 0,-0.02 -0.001,-0.03 v 0 c 0,0 0,0 0,0 0,0 0,0 0,0 v 0 c 0.001,-0.01 0.001,-0.02 0.001,-0.03 z m -4.791,2.92 c 0.79,-0.73 1.288,-1.77 1.291,-2.93 -0.003,-1.16 -0.501,-2.2 -1.291,-2.93 l 0.617,-1.33 c 1.256,0.99 2.069,2.51 2.086,4.22 h 10e-4 c 0,0.01 0.002,0.02 0.002,0.03 0,0 -0.001,0.01 -0.001,0.01 0,0 0.001,0.01 0.001,0.01 0,0.01 -0.002,0.02 -0.002,0.03 h -10e-4 c -0.017,1.71 -0.83,3.23 -2.086,4.22 z M 38.6,148.39 c 0,0.01 10e-4,0.02 10e-4,0.03 v 0 c 0,0.01 -10e-4,0.02 -10e-4,0.03 0,2.67 1.377,5.01 3.454,6.38 l -0.617,1.28 c -2.548,-1.61 -4.25,-4.43 -4.25,-7.66 0,-0.01 0.001,-0.02 0.001,-0.03 0,-0.01 -0.001,-0.02 -0.001,-0.03 0,-3.23 1.702,-6.05 4.25,-7.66 l 0.617,1.28 c -2.077,1.37 -3.454,3.71 -3.454,6.38 z m 4.918,2.92 -0.617,1.33 c -1.256,-0.99 -2.069,-2.51 -2.086,-4.22 h -10e-4 c 0,-0.01 -0.002,-0.02 -0.002,-0.03 0,0 0.001,-0.01 0.001,-0.01 0,0 -0.001,-0.01 -0.001,-0.01 0,-0.01 0.002,-0.02 0.002,-0.03 h 10e-4 c 0.017,-1.71 0.83,-3.23 2.086,-4.22 l 0.617,1.33 c -0.79,0.73 -1.288,1.77 -1.291,2.93 0.002,1.16 0.501,2.2 1.291,2.93 z m 4.42,-2.94 c 0,0.79 -0.643,1.43 -1.437,1.43 -0.793,0 -1.437,-0.64 -1.437,-1.43 0,-0.8 0.644,-1.44 1.437,-1.44 0.794,0 1.437,0.64 1.437,1.44 z"
       style="fill:none;stroke:#000000;stroke-width:0.75;stroke-linecap:round;stroke-linejoin:round;stroke-miterlimit:10;stroke-dasharray:none;stroke-opacity:1"
       id="path30280"
       inkscape:connector-curvature="0" /><path
       d="M 30.155,78.153 18.358,109.73 6.6952,78.179 l 1.7914,-0.01 0.5758,1.552 9.2966,5.241 9.188,-4.954 0.682,-1.839 z m -11.816,16.682 5.318,-4.908 -5.308,-2.992 -5.255,2.892 z m -4.311,-1.734 1.58,4.257 1.463,-1.351 z m 5.562,2.927 1.486,1.419 1.576,-4.246 z m 0.833,3.178 -2.102,-2.007 -2.065,1.906 2.102,5.665 z M 9.991,82.223 l 2.263,6.099 4.329,-2.382 z m 10.135,3.735 4.311,2.43 2.24,-6.037 z"
       style="fill:#4bacc6;fill-opacity:1;fill-rule:evenodd;stroke:none"
       id="path30282"
       inkscape:connector-curvature="0" /><path
       d="M 30.155,78.153 18.358,109.73 6.6952,78.179 l 1.7914,-0.01 0.5758,1.552 9.2966,5.241 9.188,-4.954 0.682,-1.839 z m -11.816,16.682 5.318,-4.908 -5.308,-2.992 -5.255,2.892 z m -4.311,-1.734 1.58,4.257 1.463,-1.351 z m 5.562,2.927 1.486,1.419 1.576,-4.246 z m 0.833,3.178 -2.102,-2.007 -2.065,1.906 2.102,5.665 z M 9.991,82.223 l 2.263,6.099 4.329,-2.382 z m 10.135,3.735 4.311,2.43 2.24,-6.037 z"
       style="fill:none;stroke:#000000;stroke-width:0.75;stroke-linecap:round;stroke-linejoin:round;stroke-miterlimit:10;stroke-dasharray:none;stroke-opacity:1"
       id="path30284"
       inkscape:connector-curvature="0" /><path
       d="m 25.869,112.96 c 0,-2.67 -1.377,-5.02 -3.454,-6.38 l 0.618,-1.28 c 2.548,1.6 4.25,4.43 4.25,7.66 0,0.01 -0.001,0.02 -0.002,0.03 0.001,0.01 0.002,0.02 0.002,0.03 0,3.22 -1.702,6.05 -4.25,7.65 l -0.618,-1.27 c 2.077,-1.37 3.454,-3.72 3.454,-6.38 0,-0.01 -0.001,-0.02 -0.001,-0.03 h -10e-4 c 0,0 0,0 10e-4,0 -10e-4,0 -10e-4,0 -10e-4,-0.01 h 10e-4 c 0,-0.01 0.001,-0.01 0.001,-0.02 z m -4.791,2.92 c 0.789,-0.73 1.288,-1.78 1.29,-2.93 -0.002,-1.16 -0.501,-2.2 -1.29,-2.93 l 0.616,-1.33 c 1.256,0.98 2.07,2.5 2.086,4.21 h 0.002 c 0,0.02 0.001,0.03 0.001,0.04 0,0 -0.001,0 -0.001,0.01 0,0 0.001,0 0.001,0.01 0,0.01 -0.001,0.02 -0.001,0.03 H 23.78 c -0.016,1.71 -0.83,3.23 -2.086,4.21 z m -10.824,-2.92 c 0,0.01 0.001,0.01 0.001,0.02 v 0.01 c 0,0.01 -0.001,0.02 -0.001,0.03 0,2.66 1.376,5.01 3.454,6.38 l -0.618,1.27 c -2.548,-1.6 -4.2498,-4.43 -4.2498,-7.65 0,-0.01 9e-4,-0.02 9e-4,-0.03 0,-0.01 -9e-4,-0.02 -9e-4,-0.03 0,-3.23 1.7018,-6.06 4.2498,-7.66 l 0.618,1.28 c -2.078,1.36 -3.454,3.71 -3.454,6.38 z m 4.917,2.92 -0.616,1.32 c -1.257,-0.98 -2.07,-2.5 -2.086,-4.21 h -0.002 c 0,-0.01 -0.002,-0.02 -0.002,-0.03 0,-0.01 10e-4,-0.01 10e-4,-0.01 0,-0.01 -10e-4,-0.01 -10e-4,-0.01 0,-0.01 0.002,-0.02 0.002,-0.04 h 0.002 c 0.016,-1.71 0.829,-3.23 2.086,-4.21 l 0.616,1.33 c -0.79,0.73 -1.288,1.77 -1.291,2.93 0.003,1.15 0.501,2.2 1.291,2.93 z m 4.421,-2.95 c 0,0.8 -0.644,1.44 -1.437,1.44 -0.794,0 -1.437,-0.64 -1.437,-1.44 0,-0.79 0.643,-1.43 1.437,-1.43 0.793,0 1.437,0.64 1.437,1.43 z"
       style="fill:#4bacc6;fill-opacity:1;fill-rule:evenodd;stroke:none"
       id="path30286"
       inkscape:connector-curvature="0" /><path
       d="m 25.869,112.96 c 0,-2.67 -1.377,-5.02 -3.454,-6.38 l 0.618,-1.28 c 2.548,1.6 4.25,4.43 4.25,7.66 0,0.01 -0.001,0.02 -0.002,0.03 0.001,0.01 0.002,0.02 0.002,0.03 0,3.22 -1.702,6.05 -4.25,7.65 l -0.618,-1.27 c 2.077,-1.37 3.454,-3.72 3.454,-6.38 0,-0.01 -0.001,-0.02 -0.001,-0.03 h -10e-4 c 0,0 0,0 10e-4,0 -10e-4,0 -10e-4,0 -10e-4,-0.01 h 10e-4 c 0,-0.01 0.001,-0.01 0.001,-0.02 z m -4.791,2.92 c 0.789,-0.73 1.288,-1.78 1.29,-2.93 -0.002,-1.16 -0.501,-2.2 -1.29,-2.93 l 0.616,-1.33 c 1.256,0.98 2.07,2.5 2.086,4.21 h 0.002 c 0,0.02 0.001,0.03 0.001,0.04 0,0 -0.001,0 -0.001,0.01 0,0 0.001,0 0.001,0.01 0,0.01 -0.001,0.02 -0.001,0.03 H 23.78 c -0.016,1.71 -0.83,3.23 -2.086,4.21 z m -10.824,-2.92 c 0,0.01 0.001,0.01 0.001,0.02 v 0.01 c 0,0.01 -0.001,0.02 -0.001,0.03 0,2.66 1.376,5.01 3.454,6.38 l -0.618,1.27 c -2.548,-1.6 -4.2498,-4.43 -4.2498,-7.65 0,-0.01 9e-4,-0.02 9e-4,-0.03 0,-0.01 -9e-4,-0.02 -9e-4,-0.03 0,-3.23 1.7018,-6.06 4.2498,-7.66 l 0.618,1.28 c -2.078,1.36 -3.454,3.71 -3.454,6.38 z m 4.917,2.92 -0.616,1.32 c -1.257,-0.98 -2.07,-2.5 -2.086,-4.21 h -0.002 c 0,-0.01 -0.002,-0.02 -0.002,-0.03 0,-0.01 10e-4,-0.01 10e-4,-0.01 0,-0.01 -10e-4,-0.01 -10e-4,-0.01 0,-0.01 0.002,-0.02 0.002,-0.04 h 0.002 c 0.016,-1.71 0.829,-3.23 2.086,-4.21 l 0.616,1.33 c -0.79,0.73 -1.288,1.77 -1.291,2.93 0.003,1.15 0.501,2.2 1.291,2.93 z m 4.421,-2.95 c 0,0.8 -0.644,1.44 -1.437,1.44 -0.794,0 -1.437,-0.64 -1.437,-1.44 0,-0.79 0.643,-1.43 1.437,-1.43 0.793,0 1.437,0.64 1.437,1.43 z"
       style="fill:none;stroke:#000000;stroke-width:0.75;stroke-linecap:round;stroke-linejoin:round;stroke-miterlimit:10;stroke-dasharray:none;stroke-opacity:1"
       id="path30288"
       inkscape:connector-curvature="0" /><g
       id="g30290"><g
         id="g30292"
         clip-path="url(#clipPath30296)"><path
           d="m 25.512,92.326 80.908,7.086"
           style="fill:none;stroke:#000000;stroke-width:0.75;stroke-linecap:round;stroke-linejoin:round;stroke-miterlimit:10;stroke-dasharray:none;stroke-opacity:1"
           id="path30298"
           inkscape:connector-curvature="0" /></g></g><g
       id="g30300"><g
         id="g30302"
         clip-path="url(#clipPath30306)"><path
           d="M 51.765,131.88 106.42,99.412"
           style="fill:none;stroke:#000000;stroke-width:0.75;stroke-linecap:round;stroke-linejoin:round;stroke-miterlimit:10;stroke-dasharray:none;stroke-opacity:1"
           id="path30308"
           inkscape:connector-curvature="0" /></g></g><g
       id="g30310"
       style="stroke-width:2.25000006;stroke-miterlimit:4;stroke-dasharray:none"><g
         id="g30312"
         clip-path="url(#clipPath30316)"
         style="stroke-width:2.25000006;stroke-miterlimit:4;stroke-dasharray:none"><path
           d="M 106.42,99.412 50.39,64.963"
           style="fill:none;stroke:#000000;stroke-width:2.25000006;stroke-linecap:round;stroke-linejoin:round;stroke-miterlimit:4;stroke-dasharray:none;stroke-opacity:1"
           id="path30318"
           inkscape:connector-curvature="0" /></g></g><path
       d="m 565.87,148.72 h -21.19 l -7.16,-13.9 v -20.94 h 35.43 v 20.94 z"
       style="fill:#92cddc;fill-opacity:1;fill-rule:evenodd;stroke:none"
       id="path30320"
       inkscape:connector-curvature="0" /><path
       d="m 537.52,134.82 h 35.43 m -7.08,13.9 h -21.19 l -7.16,-13.9 v -20.94 h 35.43 v 20.94 z"
       style="fill:none;stroke:#000000;stroke-width:0.75;stroke-linecap:round;stroke-linejoin:round;stroke-miterlimit:10;stroke-dasharray:none;stroke-opacity:1"
       id="path30322"
       inkscape:connector-curvature="0" /><path
       d="m 556.83,124.26 6.87,4.14 4.43,0.01 -2.29,-2.27 h 2.67 l 2.97,3.23 -2.96,3.23 h -2.7 l 2.29,-2.26 h -4.72 l -8.33,-5.02 -7.73,4.67 h -4.72 l 2.28,2.26 h -2.69 l -2.97,-3.24 2.98,-3.23 h 2.67 l -2.3,2.28 4.43,-0.01 6.29,-3.79 -6.29,-3.8 h -4.43 l 2.3,2.27 h -2.67 l -2.98,-3.23 2.97,-3.23 h 2.69 l -2.28,2.25 h 4.72 l 7.73,4.67 8.33,-5.02 h 4.72 l -2.29,-2.26 h 2.7 l 2.96,3.23 -2.97,3.24 h -2.67 l 2.29,-2.28 -4.43,0.01 z"
       style="fill:#92cddc;fill-opacity:1;fill-rule:evenodd;stroke:none"
       id="path30324"
       inkscape:connector-curvature="0" /><path
       d="m 556.83,124.26 6.87,4.14 4.43,0.01 -2.29,-2.27 h 2.67 l 2.97,3.23 -2.96,3.23 h -2.7 l 2.29,-2.26 h -4.72 l -8.33,-5.02 -7.73,4.67 h -4.72 l 2.28,2.26 h -2.69 l -2.97,-3.24 2.98,-3.23 h 2.67 l -2.3,2.28 4.43,-0.01 6.29,-3.79 -6.29,-3.8 h -4.43 l 2.3,2.27 h -2.67 l -2.98,-3.23 2.97,-3.23 h 2.69 l -2.28,2.25 h 4.72 l 7.73,4.67 8.33,-5.02 h 4.72 l -2.29,-2.26 h 2.7 l 2.96,3.23 -2.97,3.24 h -2.67 l 2.29,-2.28 -4.43,0.01 z"
       style="fill:none;stroke:#000000;stroke-width:0.75;stroke-linecap:round;stroke-linejoin:round;stroke-miterlimit:10;stroke-dasharray:none;stroke-opacity:1"
       id="path30326"
       inkscape:connector-curvature="0" /><path
       d="M 565.87,92.032 H 544.68 L 537.52,78.123 V 57.187 h 35.43 v 20.936 z"
       style="fill:#92cddc;fill-opacity:1;fill-rule:evenodd;stroke:none"
       id="path30328"
       inkscape:connector-curvature="0" /><path
       d="m 537.52,78.123 h 35.43 m -7.08,13.909 H 544.68 L 537.52,78.123 V 57.187 h 35.43 v 20.936 z"
       style="fill:none;stroke:#000000;stroke-width:0.75;stroke-linecap:round;stroke-linejoin:round;stroke-miterlimit:10;stroke-dasharray:none;stroke-opacity:1"
       id="path30330"
       inkscape:connector-curvature="0" /><path
       d="m 556.83,67.564 6.87,4.148 4.43,0.007 -2.29,-2.276 h 2.67 l 2.97,3.233 -2.96,3.231 h -2.7 l 2.29,-2.257 h -4.72 l -8.33,-5.021 -7.73,4.667 h -4.72 l 2.28,2.257 h -2.69 l -2.97,-3.232 2.98,-3.232 h 2.67 l -2.3,2.275 4.43,-0.007 6.29,-3.793 -6.29,-3.793 -4.43,-0.008 2.3,2.276 h -2.67 l -2.98,-3.233 2.97,-3.231 h 2.69 l -2.28,2.257 h 4.72 l 7.73,4.667 8.33,-5.022 h 4.72 l -2.29,-2.256 h 2.7 l 2.96,3.23 -2.97,3.233 h -2.67 l 2.29,-2.275 -4.43,0.007 z"
       style="fill:#92cddc;fill-opacity:1;fill-rule:evenodd;stroke:none"
       id="path30332"
       inkscape:connector-curvature="0" /><path
       d="m 556.83,67.564 6.87,4.148 4.43,0.007 -2.29,-2.276 h 2.67 l 2.97,3.233 -2.96,3.231 h -2.7 l 2.29,-2.257 h -4.72 l -8.33,-5.021 -7.73,4.667 h -4.72 l 2.28,2.257 h -2.69 l -2.97,-3.232 2.98,-3.232 h 2.67 l -2.3,2.275 4.43,-0.007 6.29,-3.793 -6.29,-3.793 -4.43,-0.008 2.3,2.276 h -2.67 l -2.98,-3.233 2.97,-3.231 h 2.69 l -2.28,2.257 h 4.72 l 7.73,4.667 8.33,-5.022 h 4.72 l -2.29,-2.256 h 2.7 l 2.96,3.23 -2.97,3.233 h -2.67 l 2.29,-2.275 -4.43,0.007 z"
       style="fill:none;stroke:#000000;stroke-width:0.75;stroke-linecap:round;stroke-linejoin:round;stroke-miterlimit:10;stroke-dasharray:none;stroke-opacity:1"
       id="path30334"
       inkscape:connector-curvature="0" /><g
       id="g30336"><g
         id="g30338"
         clip-path="url(#clipPath30342)"><text
   transform="matrix(1,0,0,-1,116.5,124.02)"
   style="font-variant:normal;font-weight:bold;font-size:12.02400017px;font-family:Calibri;-inkscape-font-specification:Calibri-Bold;writing-mode:lr-tb;fill:#000000;fill-opacity:1;fill-rule:nonzero;stroke:none"
   id="text30346"><tspan
     x="0 10.333976"
     y="0"
     sodipodi:role="line"
     id="tspan30344">M1</tspan></text>


</g></g><g
       id="g30348"><g
         id="g30350"
         clip-path="url(#clipPath30354)"><text
   transform="matrix(1,0,0,-1,15.81,31.357)"
   style="font-variant:normal;font-weight:bold;font-size:12.02400017px;font-family:Calibri;-inkscape-font-specification:Calibri-Bold;writing-mode:lr-tb;fill:#000000;fill-opacity:1;fill-rule:nonzero;stroke:none"
   id="text30358"><tspan
     x="0 6.6612959 12.649248 17.31456 23.314535 26.308512 31.995865 35.975807 41.96376 45.967751 48.961727 55.611"
     y="0"
     sodipodi:role="line"
     id="tspan30356">Base Station</tspan></text>


</g></g><g
       id="g30360"><g
         id="g30362"
         clip-path="url(#clipPath30366)"><text
   transform="matrix(1,0,0,-1,4.4286,178.9)"
   style="font-variant:normal;font-weight:normal;font-size:12.02400017px;font-family:Calibri;-inkscape-font-specification:Calibri;writing-mode:lr-tb;fill:#000000;fill-opacity:1;fill-rule:nonzero;stroke:none"
   id="text30370"><tspan
     x="0 5.9999762 11.326608 13.995936 20.645208 26.308512 31.009895 36.997849 39.643127 44.981785 49.298401 54.961704 58.989742 61.623001 67.959648 74.272247 78.973633"
     y="0"
     sodipodi:role="line"
     id="tspan30368">6x Base Stations </tspan></text>


</g></g><g
       id="g30372"><g
         id="g30374"
         clip-path="url(#clipPath30378)"><text
   transform="matrix(1,0,0,-1,12.381,166.88)"
   style="font-variant:normal;font-weight:normal;font-size:12px;font-family:Calibri;-inkscape-font-specification:Calibri;writing-mode:lr-tb;fill:#000000;fill-opacity:1;fill-rule:nonzero;stroke:none"
   id="text30382"><tspan
     x="0 6.3000002 12.324 16.32 19.308001 29.304001 35.627998 38.292 44.591999 50.952 56.952"
     y="0"
     sodipodi:role="line"
     id="tspan30380">per M1 node</tspan></text>


</g></g><g
       id="g30384"><g
         id="g30386"
         clip-path="url(#clipPath30390)"><path
           d="M 106.42,99.412 82.205,134.85"
           style="fill:none;stroke:#000000;stroke-width:0.75;stroke-linecap:round;stroke-linejoin:round;stroke-miterlimit:10;stroke-dasharray:5.25, 3.75;stroke-dashoffset:0;stroke-opacity:1"
           id="path30392"
           inkscape:connector-curvature="0" /></g></g><g
       id="g30394"><g
         id="g30396"
         clip-path="url(#clipPath30400)"><path
           d="M 226.77,34.216 202.83,56.893"
           style="fill:none;stroke:#000000;stroke-width:0.75;stroke-linecap:round;stroke-linejoin:round;stroke-miterlimit:10;stroke-dasharray:5.25, 3.75;stroke-dashoffset:0;stroke-opacity:1"
           id="path30402"
           inkscape:connector-curvature="0" /></g></g><g
       id="g30404"><g
         id="g30406"
         clip-path="url(#clipPath30410)"><path
           d="M 202.83,34.216 V 56.893"
           style="fill:none;stroke:#000000;stroke-width:0.75;stroke-linecap:round;stroke-linejoin:round;stroke-miterlimit:10;stroke-dasharray:5.25, 3.75;stroke-dashoffset:0;stroke-opacity:1"
           id="path30412"
           inkscape:connector-curvature="0" /></g></g><g
       id="g30414"><g
         id="g30416"
         clip-path="url(#clipPath30420)"><path
           d="m 180.7,34.755 22.13,22.138"
           style="fill:none;stroke:#000000;stroke-width:0.75;stroke-linecap:round;stroke-linejoin:round;stroke-miterlimit:10;stroke-dasharray:5.25, 3.75;stroke-dashoffset:0;stroke-opacity:1"
           id="path30422"
           inkscape:connector-curvature="0" /></g></g><g
       id="g30424"><g
         id="g30426"
         clip-path="url(#clipPath30430)"><text
   transform="matrix(1,0,0,-1,96.286,159.02)"
   style="font-variant:normal;font-weight:normal;font-size:12px;font-family:Calibri;-inkscape-font-specification:Calibri;writing-mode:lr-tb;fill:#000000;fill-opacity:1;fill-rule:nonzero;stroke:none"
   id="text30434"><tspan
     x="0 6 11.316 13.98 24.299999 30.299999 32.964001 39.264 45.624001 51.924 57.948002 62.639999"
     y="0"
     sodipodi:role="line"
     id="tspan30432">6x M1 nodes </tspan></text>


</g></g><g
       id="g30436"><g
         id="g30438"
         clip-path="url(#clipPath30442)"><text
   transform="matrix(1,0,0,-1,91.595,147.02)"
   style="font-variant:normal;font-weight:normal;font-size:12.02400017px;font-family:Calibri;-inkscape-font-specification:Calibri;writing-mode:lr-tb;fill:#000000;fill-opacity:1;fill-rule:nonzero;stroke:none"
   id="text30446"><tspan
     x="0 6.3126001 12.300552 16.328592 19.322569 24.985872 29.987856 34.989841 40.977791 45.679176 50.320438 52.989769 57.306385 59.975712 66.288315"
     y="0"
     sodipodi:role="line"
     id="tspan30444">per access ring</tspan></text>


</g></g><g
       id="g30448"><g
         id="g30450"
         clip-path="url(#clipPath30454)"><text
   transform="matrix(1,0,0,-1,270.36,119.76)"
   style="font-variant:normal;font-weight:bold;font-size:12.02400017px;font-family:Calibri;-inkscape-font-specification:Calibri-Bold;writing-mode:lr-tb;fill:#000000;fill-opacity:1;fill-rule:nonzero;stroke:none"
   id="text30458"><tspan
     x="0 10.333976"
     y="0"
     sodipodi:role="line"
     id="tspan30456">M2</tspan></text>


</g></g><g
       id="g30460"><g
         id="g30462"
         clip-path="url(#clipPath30466)"><text
   transform="matrix(1,0,0,-1,242.14,159.02)"
   style="font-variant:normal;font-weight:normal;font-size:12px;font-family:Calibri;-inkscape-font-specification:Calibri;writing-mode:lr-tb;fill:#000000;fill-opacity:1;fill-rule:nonzero;stroke:none"
   id="text30470"><tspan
     x="0"
     y="0"
     id="tspan30468">4</tspan></text>


</g></g><g
       id="g30472"><g
         id="g30474"
         clip-path="url(#clipPath30478)"><text
   transform="matrix(1,0,0,-1,248.21,159.02)"
   style="font-variant:normal;font-weight:normal;font-size:12px;font-family:Calibri;-inkscape-font-specification:Calibri;writing-mode:lr-tb;fill:#000000;fill-opacity:1;fill-rule:nonzero;stroke:none"
   id="text30482"><tspan
     x="0 5.3400002 8.0039997 13.692 18.719999 23.747999 29.76 34.452 39.144001 42.132 46.152 48.816002 55.164001 60.84 65.531998"
     y="0"
     sodipodi:role="line"
     id="tspan30480">x access rings </tspan></text>


</g></g><g
       id="g30484"><g
         id="g30486"
         clip-path="url(#clipPath30490)"><text
   transform="matrix(1,0,0,-1,246.36,147.02)"
   style="font-variant:normal;font-weight:normal;font-size:12.02400017px;font-family:Calibri;-inkscape-font-specification:Calibri;writing-mode:lr-tb;fill:#000000;fill-opacity:1;fill-rule:nonzero;stroke:none"
   id="text30494"><tspan
     x="0 6.3126001 12.300552 16.328592 19.322569 29.326536 35.651161 38.320488 44.633087 50.969734 56.981735"
     y="0"
     sodipodi:role="line"
     id="tspan30492">per M2 node</tspan></text>


</g></g><g
       id="g30496"><g
         id="g30498"
         clip-path="url(#clipPath30502)"><text
   transform="matrix(1,0,0,-1,175.81,96.238)"
   style="font-style:italic;font-variant:normal;font-weight:normal;font-size:12.02400017px;font-family:Calibri;-inkscape-font-specification:Calibri-Italic;writing-mode:lr-tb;fill:#000000;fill-opacity:1;fill-rule:nonzero;stroke:none"
   id="text30506"><tspan
     x="0 6.9859438 11.987928 16.989912 22.653215 27.330551 32.007889 34.653168 38.657162 41.651134 47.651112"
     y="0"
     sodipodi:role="line"
     id="tspan30504">Access ring</tspan></text>


</g></g><g
       id="g30508"><g
         id="g30510"
         clip-path="url(#clipPath30514)"><text
   transform="matrix(1,0,0,-1,328.83,96.238)"
   style="font-style:italic;font-variant:normal;font-weight:normal;font-size:12.02400017px;font-family:Calibri;-inkscape-font-specification:Calibri-Italic;writing-mode:lr-tb;fill:#000000;fill-opacity:1;fill-rule:nonzero;stroke:none"
   id="text30518"><tspan
     x="0 6.9859438 12.98592 19.310543 23.314535 28.97784 35.302464 41.302441 45.330479 48.288383 54.288361 60.612984 63.28231 67.286301 69.955635 76.280258"
     y="0"
     sodipodi:role="line"
     id="tspan30516">Aggregation ring</tspan></text>


</g></g><g
       id="g30520"><g
         id="g30522"
         clip-path="url(#clipPath30526)"><text
   transform="matrix(1,0,0,-1,456.81,152.43)"
   style="font-variant:normal;font-weight:bold;font-size:12.02400017px;font-family:Calibri;-inkscape-font-specification:Calibri-Bold;writing-mode:lr-tb;fill:#000000;fill-opacity:1;fill-rule:nonzero;stroke:none"
   id="text30530"><tspan
     x="0 10.333976"
     y="0"
     sodipodi:role="line"
     id="tspan30528">M3</tspan></text>


</g></g><g
       id="g30532"><g
         id="g30534"
         clip-path="url(#clipPath30538)"><text
   transform="matrix(1,0,0,-1,324.21,187.43)"
   style="font-variant:normal;font-weight:normal;font-size:12.02400017px;font-family:Calibri;-inkscape-font-specification:Calibri;writing-mode:lr-tb;fill:#000000;fill-opacity:1;fill-rule:nonzero;stroke:none"
   id="text30542"><tspan
     x="0 5.9999762 11.326608 13.995936 24.312529 30.312504 32.981831 39.294434 45.631081 51.967728 57.955681 62.657063 65.302345 71.614944 77.602898 81.630936"
     y="0"
     sodipodi:role="line"
     id="tspan30540">6x M2 nodes per </tspan></text>


</g></g><g
       id="g30544"><g
         id="g30546"
         clip-path="url(#clipPath30550)"><text
   transform="matrix(1,0,0,-1,325.31,175.4)"
   style="font-variant:normal;font-weight:normal;font-size:12.02400017px;font-family:Calibri;-inkscape-font-specification:Calibri;writing-mode:lr-tb;fill:#000000;fill-opacity:1;fill-rule:nonzero;stroke:none"
   id="text30554"><tspan
     x="0 5.6633039 11.326608 16.989912 21.318552 27.306503 32.969807 38.657162 42.6852 45.318455 51.655106 57.967705 60.685127 64.977699 67.647026 73.959625"
     y="0"
     sodipodi:role="line"
     id="tspan30552">aggregation ring</tspan></text>


</g></g><g
       id="g30556"><g
         id="g30558"
         clip-path="url(#clipPath30562)"><text
   transform="matrix(1,0,0,-1,429.1,187.43)"
   style="font-variant:normal;font-weight:normal;font-size:12.02400017px;font-family:Calibri;-inkscape-font-specification:Calibri;writing-mode:lr-tb;fill:#000000;fill-opacity:1;fill-rule:nonzero;stroke:none"
   id="text30566"><tspan
     x="0"
     y="0"
     id="tspan30564">2</tspan></text>


</g></g><g
       id="g30568"><g
         id="g30570"
         clip-path="url(#clipPath30574)"><text
   transform="matrix(1,0,0,-1,435.17,187.43)"
   style="font-variant:normal;font-weight:normal;font-size:12.02400017px;font-family:Calibri;-inkscape-font-specification:Calibri;writing-mode:lr-tb;fill:#000000;fill-opacity:1;fill-rule:nonzero;stroke:none"
   id="text30578"><tspan
     x="0 5.326632 7.9959602 13.659264 19.322569 24.985872 28.989864 34.977818 40.641121 46.641094 50.669136 53.302391 59.639042 65.999733"
     y="0"
     sodipodi:role="line"
     id="tspan30576">x aggregation </tspan></text>


</g></g><g
       id="g30580"><g
         id="g30582"
         clip-path="url(#clipPath30586)"><text
   transform="matrix(1,0,0,-1,420.36,175.4)"
   style="font-variant:normal;font-weight:normal;font-size:12.02400017px;font-family:Calibri;-inkscape-font-specification:Calibri;writing-mode:lr-tb;fill:#000000;fill-opacity:1;fill-rule:nonzero;stroke:none"
   id="text30590"><tspan
     x="0 4.3406639 7.0099921 13.358664 19.021969 23.723352 26.440777 32.753376 38.777401 42.805439 45.47477"
     y="0"
     sodipodi:role="line"
     id="tspan30588">rings per M</tspan></text>


</g></g><g
       id="g30592"><g
         id="g30594"
         clip-path="url(#clipPath30598)"><text
   transform="matrix(1,0,0,-1,476.12,175.4)"
   style="font-variant:normal;font-weight:normal;font-size:12.02400017px;font-family:Calibri;-inkscape-font-specification:Calibri;writing-mode:lr-tb;fill:#000000;fill-opacity:1;fill-rule:nonzero;stroke:none"
   id="text30602"><tspan
     x="0"
     y="0"
     id="tspan30600">3</tspan></text>


</g></g><g
       id="g30604"><g
         id="g30606"
         clip-path="url(#clipPath30610)" /></g><g
       id="g30612"><g
         id="g30614"
         clip-path="url(#clipPath30618)"><text
   transform="matrix(1,0,0,-1,484.93,175.4)"
   style="font-variant:normal;font-weight:normal;font-size:12.02400017px;font-family:Calibri;-inkscape-font-specification:Calibri;writing-mode:lr-tb;fill:#000000;fill-opacity:1;fill-rule:nonzero;stroke:none"
   id="text30622"><tspan
     x="0 6.3126001 12.649248 18.985895"
     y="0"
     sodipodi:role="line"
     id="tspan30620">node</tspan></text>


</g></g><g
       id="g30624"><g
         id="g30626"
         clip-path="url(#clipPath30630)"><text
   transform="matrix(1,0,0,-1,547.21,152.43)"
   style="font-variant:normal;font-weight:bold;font-size:12.02400017px;font-family:Calibri;-inkscape-font-specification:Calibri-Bold;writing-mode:lr-tb;fill:#000000;fill-opacity:1;fill-rule:nonzero;stroke:none"
   id="text30634"><tspan
     x="0 10.333976"
     y="0"
     sodipodi:role="line"
     id="tspan30632">M4</tspan></text>


</g></g><g
       id="g30636"><g
         id="g30638"
         clip-path="url(#clipPath30642)"><path
           d="m 572.95,120.77 26.58,-12.94"
           style="fill:none;stroke:#000000;stroke-width:0.75;stroke-linecap:round;stroke-linejoin:round;stroke-miterlimit:10;stroke-dasharray:none;stroke-opacity:1"
           id="path30644"
           inkscape:connector-curvature="0" /></g></g><g
       id="g30646"><g
         id="g30648"
         clip-path="url(#clipPath30652)"><path
           d="M 572.95,71.066 601.56,93.87"
           style="fill:none;stroke:#000000;stroke-width:0.75;stroke-linecap:round;stroke-linejoin:round;stroke-miterlimit:10;stroke-dasharray:none;stroke-opacity:1"
           id="path30654"
           inkscape:connector-curvature="0" /></g></g><g
       id="g30656"><g
         id="g30658"
         clip-path="url(#clipPath30662)"><path
           d="M 2.8346,15.082 V 0.90845"
           style="fill:none;stroke:#000000;stroke-width:0.75;stroke-linecap:round;stroke-linejoin:round;stroke-miterlimit:10;stroke-dasharray:none;stroke-opacity:1"
           id="path30664"
           inkscape:connector-curvature="0" /></g></g><path
       d="M 2.8346,5.8691 H 280.63"
       style="fill:none;stroke:#000000;stroke-width:0.75;stroke-linecap:round;stroke-linejoin:round;stroke-miterlimit:10;stroke-dasharray:none;stroke-opacity:1"
       id="path30666"
       inkscape:connector-curvature="0" /><g
       id="g30668"><g
         id="g30670"
         clip-path="url(#clipPath30674)"><path
           d="M 280.63,14.373 V 0.1998"
           style="fill:none;stroke:#000000;stroke-width:0.75;stroke-linecap:round;stroke-linejoin:round;stroke-miterlimit:10;stroke-dasharray:none;stroke-opacity:1"
           id="path30676"
           inkscape:connector-curvature="0" /></g></g><path
       d="M 280.63,5.8691 H 464.88"
       style="fill:none;stroke:#000000;stroke-width:0.75;stroke-linecap:round;stroke-linejoin:round;stroke-miterlimit:10;stroke-dasharray:none;stroke-opacity:1"
       id="path30678"
       inkscape:connector-curvature="0" /><g
       id="g30680"><g
         id="g30682"
         clip-path="url(#clipPath30686)"><path
           d="M 464.88,15.082 V 0.90845"
           style="fill:none;stroke:#000000;stroke-width:0.75;stroke-linecap:round;stroke-linejoin:round;stroke-miterlimit:10;stroke-dasharray:none;stroke-opacity:1"
           id="path30688"
           inkscape:connector-curvature="0" /></g></g><path
       d="M 464.88,5.8691 H 620.79"
       style="fill:none;stroke:#000000;stroke-width:0.75;stroke-linecap:round;stroke-linejoin:round;stroke-miterlimit:10;stroke-dasharray:none;stroke-opacity:1"
       id="path30690"
       inkscape:connector-curvature="0" /><g
       id="g30692"><g
         id="g30694"
         clip-path="url(#clipPath30698)"><path
           d="M 620.79,14.373 V 0.1998"
           style="fill:none;stroke:#000000;stroke-width:0.75;stroke-linecap:round;stroke-linejoin:round;stroke-miterlimit:10;stroke-dasharray:none;stroke-opacity:1"
           id="path30700"
           inkscape:connector-curvature="0" /></g></g><path
       d="m 602.67,102.64 c -2.58,1.18 -3.82,4.48 -2.77,7.37 0.85,2.32 2.96,3.74 5.18,3.48 0.52,6.3 5.48,10.95 11.1,10.37 1.3,-0.13 2.56,-0.54 3.73,-1.21 3.49,3.45 8.48,4.25 12.69,2.04 2.56,3.54 7.19,4.09 10.35,1.22 0.19,-0.17 0.37,-0.35 0.54,-0.54 3.45,3.46 8.74,3.12 11.82,-0.74 0.63,-0.79 1.13,-1.68 1.49,-2.65 3.29,-0.38 5.69,-3.67 5.36,-7.36 -0.07,-0.74 -0.24,-1.47 -0.52,-2.14 2.58,-3.56 2.11,-8.8 -1.06,-11.71 -1.41,-1.279 -3.18,-1.943 -4.99,-1.861 -1.27,-5.618 -6.36,-9.019 -11.37,-7.597 -0.67,0.191 -1.32,0.464 -1.93,0.815 -2.71,-6.124 -9.32,-8.633 -14.78,-5.602 -1.28,0.709 -2.42,1.689 -3.37,2.885 -5.24,-2.854 -11.5,-1.772 -15.73,2.717 -2.72,-1.538 -6.04,-0.312 -7.41,2.739 -1.21,2.7 -0.51,5.984 1.67,7.774 z"
       style="fill:#ffffff;fill-opacity:1;fill-rule:evenodd;stroke:none"
       id="path30702"
       inkscape:connector-curvature="0" /><path
       d="m 602.67,102.64 c -2.58,1.18 -3.82,4.48 -2.77,7.37 0.85,2.32 2.96,3.74 5.18,3.48 0.52,6.3 5.48,10.95 11.1,10.37 1.3,-0.13 2.56,-0.54 3.73,-1.21 3.49,3.45 8.48,4.25 12.69,2.04 2.56,3.54 7.19,4.09 10.35,1.22 0.19,-0.17 0.37,-0.35 0.54,-0.54 3.45,3.46 8.74,3.12 11.82,-0.74 0.63,-0.79 1.13,-1.68 1.49,-2.65 3.29,-0.38 5.69,-3.67 5.36,-7.36 -0.07,-0.74 -0.24,-1.47 -0.52,-2.14 2.58,-3.56 2.11,-8.8 -1.06,-11.71 -1.41,-1.279 -3.18,-1.943 -4.99,-1.861 -1.27,-5.618 -6.36,-9.019 -11.37,-7.597 -0.67,0.191 -1.32,0.464 -1.93,0.815 -2.71,-6.124 -9.32,-8.633 -14.78,-5.602 -1.28,0.709 -2.42,1.689 -3.37,2.885 -5.24,-2.854 -11.5,-1.772 -15.73,2.717 -2.72,-1.538 -6.04,-0.312 -7.41,2.739 -1.21,2.7 -0.51,5.984 1.67,7.774 z m 3.32,-0.34 c -1.11,-0.31 -2.28,-0.19 -3.32,0.34 m 20.56,-11.533 c 0.21,-0.621 0.52,-1.196 0.91,-1.697 m 18.6,4.75 c -0.01,-0.708 -0.17,-1.404 -0.45,-2.033 m 9.67,12.213 c 2.34,-0.37 3.96,-2.8 3.63,-5.42 0,-0.003 0,-0.007 0,-0.011 m 4.23,11.531 c 0.8,0.43 1.43,1.15 1.82,2.04 m -39.92,8.82 c -0.53,0.57 -1.14,1.03 -1.81,1.35"
       style="fill:none;stroke:#000000;stroke-width:0.23999999;stroke-linecap:round;stroke-linejoin:round;stroke-miterlimit:10;stroke-dasharray:none;stroke-opacity:1"
       id="path30704"
       inkscape:connector-curvature="0" /><g
       id="g30706"><g
         id="g30708"
         clip-path="url(#clipPath30712)"><text
   transform="matrix(1,0,0,-1,531.95,9.2381)"
   style="font-style:italic;font-variant:normal;font-weight:normal;font-size:12.02400017px;font-family:Calibri;-inkscape-font-specification:Calibri-Italic;writing-mode:lr-tb;fill:#000000;fill-opacity:1;fill-rule:nonzero;stroke:none"
   id="text30716"><tspan
     x="0 6.3246241 12.3246 16.641216"
     y="0"
     sodipodi:role="line"
     id="tspan30714">Core</tspan></text>


</g></g><g
       id="g30718"><g
         id="g30720"
         clip-path="url(#clipPath30724)"><text
   transform="matrix(1,0,0,-1,122.95,9.2381)"
   style="font-style:italic;font-variant:normal;font-weight:normal;font-size:12.02400017px;font-family:Calibri;-inkscape-font-specification:Calibri-Italic;writing-mode:lr-tb;fill:#000000;fill-opacity:1;fill-rule:nonzero;stroke:none"
   id="text30728"><tspan
     x="0 6.9859438 11.987928 16.989912 22.653215 27.330551"
     y="0"
     sodipodi:role="line"
     id="tspan30726">Access</tspan></text>


</g></g><g
       id="g30730"><g
         id="g30732"
         clip-path="url(#clipPath30736)"><text
   transform="matrix(1,0,0,-1,342.64,9.2381)"
   style="font-style:italic;font-variant:normal;font-weight:normal;font-size:12.02400017px;font-family:Calibri;-inkscape-font-specification:Calibri-Italic;writing-mode:lr-tb;fill:#000000;fill-opacity:1;fill-rule:nonzero;stroke:none"
   id="text30740"><tspan
     x="0 6.9859438 12.98592 19.310543 23.314535 28.97784 35.302464 41.302441 45.330479 48.288383 54.288361"
     y="0"
     sodipodi:role="line"
     id="tspan30738">Aggregation</tspan></text>


</g></g><g
       id="g30742"><g
         id="g30744"
         clip-path="url(#clipPath30748)"><text
   transform="matrix(1,0,0,-1,613.12,103.33)"
   style="font-style:italic;font-variant:normal;font-weight:normal;font-size:12.02400017px;font-family:Calibri;-inkscape-font-specification:Calibri-Italic;writing-mode:lr-tb;fill:#000000;fill-opacity:1;fill-rule:nonzero;stroke:none"
   id="text30752"><tspan
     x="0 3.0300479 9.3185997 13.34664 18.985895 22.989887 29.314512 34.977818"
     y="0"
     sodipodi:role="line"
     id="tspan30750">Internet</tspan></text>


</g></g><g
       id="g30754"><g
         id="g30756"
         clip-path="url(#clipPath30760)"><text
   transform="matrix(1,0,0,-1,488.74,96.238)"
   style="font-style:italic;font-variant:normal;font-weight:normal;font-size:12.02400017px;font-family:Calibri;-inkscape-font-specification:Calibri-Italic;writing-mode:lr-tb;fill:#000000;fill-opacity:1;fill-rule:nonzero;stroke:none"
   id="text30764"><tspan
     x="0 6.3246241 12.3246 16.641216 22.30452 24.973848 28.97784 31.971815 37.97179"
     y="0"
     sodipodi:role="line"
     id="tspan30762">Core ring</tspan></text>


</g></g><path
       d="m 287.47939,40.199803 c -0.33568,0.14414 -0.54252,0.40778 -0.64416,0.80727 -0.0473,0.21156 -0.0709,4.08002 -0.0592,13.37214 l 0.0236,13.0731 0.17383,0.27896 c 0.0945,0.14882 0.47396,0.6347 0.84274,1.0744 0.71389,0.84747 1.09922,1.14532 1.63122,1.2745 0.21866,0.0473 2.42385,0.0709 7.49755,0.0473 l 7.19059,-0.0236 0.33213,-0.15723 c 0.25531,-0.12168 0.50352,-0.35695 1.08741,-1.03067 0.4184,-0.4787 0.83919,-1.00821 0.94085,-1.17251 l 0.18672,-0.29785 0.0236,-13.07701 c 0.0117,-9.29249 0,-13.16033 -0.059,-13.36824 -0.10644,-0.40305 -0.3085,-0.6619 -0.64419,-0.80728 -0.27184,-0.12285 -0.65242,-0.12519 -9.25841,-0.12519 -8.60955,0 -8.99073,0.004 -9.26258,0.12519 z m 17.97719,13.99467 -0.0117,12.92429 h -17.40596 l -0.0117,-12.92429 -0.0236,-12.92429 h 17.47439 z m -9.05904,-9.85272 c -0.35695,0.0945 -0.59217,0.28957 -0.75528,0.60752 -0.23875,0.48342 -0.17012,0.96448 0.18672,1.33372 0.27184,0.27542 0.51533,0.37706 0.90774,0.37706 0.93612,0 1.50867,-0.88294 1.10277,-1.69813 -0.16192,-0.31795 -0.42077,-0.52244 -0.79783,-0.62408 -0.31322,-0.0828 -0.32857,-0.0828 -0.64416,0.004 z m -0.24821,4.30281 c -1.10751,0.6548 -0.69381,2.23107 0.58743,2.23107 0.79901,0 1.3589,-0.67372 1.20845,-1.45476 -0.0473,-0.26594 -0.37233,-0.65835 -0.66545,-0.80491 -0.2754,-0.13711 -0.87466,-0.12168 -1.12996,0.0356 z m -5.60901,6.62029 c -0.19023,0.0945 -0.36405,0.25531 -0.45742,0.41606 -0.15489,0.25766 -0.15723,0.28248 -0.13008,2.22327 0.0117,1.07913 0.0236,2.02045 0.0236,2.09456 0,0.0709 -0.008,1.00821 -0.008,2.07575 0,1.8584 0,1.94895 0.1418,2.12554 0.20448,0.26357 0.44678,0.42431 0.75528,0.49406 0.35696,0.0828 11.39908,0.0828 11.75639,0 0.3085,-0.0709 0.55081,-0.23049 0.75528,-0.49406 0.13711,-0.17618 0.1418,-0.26714 0.1418,-2.12554 0,-1.06731 -0.008,-2.00046 -0.008,-2.07575 0,-0.0709 0,-1.0153 0.0236,-2.09456 0.0236,-1.94079 0.0236,-1.96513 -0.13008,-2.22327 -0.0945,-0.16192 -0.26713,-0.32268 -0.45743,-0.41606 l -0.30377,-0.15723 h -11.78971 z m 11.76858,2.53863 v 1.49791 h -11.14402 v -2.9924 h 11.14402 z m 0,4.22823 v 1.52946 h -11.14402 v -3.06387 h 11.14402 z m 2.06394,6.37704 c 0,0.0356 -0.12168,0.16895 -0.27541,0.29904 l -0.27657,0.24231 h -14.17742 l -0.32502,-0.29785 -0.32032,-0.29786 h 7.68428 c 4.40826,-0.004 7.68892,0.0236 7.68892,0.0592 z"
       style="fill:#000000;fill-opacity:1;fill-rule:nonzero;stroke:none;stroke-width:0.10000006"
       id="path888-5-1-6-1-5-3-5-2"
       inkscape:connector-curvature="0" /><path
       d="m 288.08774,50.931063 c 0.0945,5.21247 0.15723,10.95906 0.15723,12.75954 v 3.27558 h 17.11837 v -25.52356 h -17.42982 z m 9.53491,-6.36652 c 1.2238,1.18491 -0.52362,2.9152 -1.8097,1.78867 -0.53071,-0.46569 -0.55081,-0.96448 -0.0592,-1.63892 0.43377,-0.59688 1.33431,-0.66663 1.87423,-0.15 z m -0.15957,4.13416 c 0.58388,0.39596 0.71864,1.43999 0.24347,1.89882 -0.46332,0.44679 -1.8013,0.33686 -2.0806,-0.17265 -0.36522,-0.65953 -0.30375,-1.10986 0.22577,-1.62388 0.57205,-0.55317 0.91247,-0.57208 1.6103,-0.10645 z m 5.7993,6.69168 c 0.3936,0.34158 0.4385,0.80018 0.4385,4.4833 0,3.79765 -0.0356,4.13818 -0.47869,4.56179 -0.45032,0.43614 -0.7919,0.46333 -6.36297,0.46333 -4.94699,0 -5.97814,-0.0592 -6.41925,-0.36049 -0.51534,-0.34514 -0.52715,-0.47044 -0.52715,-4.69891 0,-3.89539 0.0473,-4.36924 0.41369,-4.58104 0.25176,-0.14179 2.79913,-0.2364 6.46048,-0.23994 5.29603,-0.008 6.09528,0.0356 6.47645,0.37231 z"
       style="fill:#4472c4;fill-opacity:1;fill-rule:evenodd;stroke:#92cddc;stroke-width:0.10000006;stroke-opacity:1"
       id="path890-6-8-5-1-6-1-6-7"
       inkscape:connector-curvature="0" /><path
       d="m 291.33638,57.768133 v 1.38066 h 10.93705 v -2.75741 h -10.93705 z"
       style="fill:#4472c4;fill-opacity:1;fill-rule:evenodd;stroke:#92cddc;stroke-width:0.10000006;stroke-opacity:1"
       id="path892-2-7-6-5-1-9-2-0"
       inkscape:connector-curvature="0" /><path
       d="m 291.33638,62.023563 v 1.49399 h 10.93705 v -2.9881 h -10.93705 z"
       style="fill:#4472c4;fill-opacity:1;fill-rule:evenodd;stroke:#92cddc;stroke-width:0.10000006;stroke-opacity:1"
       id="path894-9-9-9-9-1-4-9-9"
       inkscape:connector-curvature="0" /><path
       d="m 289.37738,68.641023 0.28367,0.28248 h 14.14114 l 0.22694,-0.23049 0.22811,-0.22811 -4.47703,-0.0592 c -2.46145,-0.0353 -5.87602,-0.0592 -7.58384,-0.0592 h -3.10608 z"
       style="fill:#4472c4;fill-opacity:1;fill-rule:evenodd;stroke:#92cddc;stroke-width:0.10000006;stroke-opacity:1"
       id="path896-1-2-3-7-5-7-1-3"
       inkscape:connector-curvature="0" /><path
       style="fill:none;stroke:#000000;stroke-width:2.25000006;stroke-linecap:butt;stroke-linejoin:miter;stroke-opacity:1;stroke-miterlimit:4;stroke-dasharray:none"
       d="M 282.90482,82.139942 297.29891,70.265718"
       id="path32811-0"
       inkscape:connector-curvature="0" /><path
       style="fill:none;stroke:#000000;stroke-width:2.25000006;stroke-linecap:butt;stroke-linejoin:miter;stroke-opacity:1;stroke-miterlimit:4;stroke-dasharray:none"
       d="M 135.36949,85.072417 C 159.4578,73.197899 184.56391,71.755994 184.56391,71.755994"
       id="path34858"
       inkscape:connector-curvature="0" /><path
       style="fill:none;stroke:#000000;stroke-width:2.25000006;stroke-linecap:butt;stroke-linejoin:miter;stroke-opacity:1;stroke-miterlimit:4;stroke-dasharray:none"
       d="m 220.8293,71.490622 c 26.02931,2.518965 43.30221,9.955912 43.30221,9.955912"
       id="path34875"
       inkscape:connector-curvature="0" /><rect
       style="opacity:0.25;fill:#d9dc92;fill-opacity:1;fill-rule:evenodd;stroke:#92cddc;stroke-width:0.39825001;stroke-linecap:square;stroke-linejoin:round;stroke-miterlimit:10;stroke-dasharray:none;stroke-dashoffset:0;stroke-opacity:1;paint-order:stroke fill markers"
       id="rect32809-6"
       width="59.226196"
       height="102.68953"
       x="251.55142"
       y="-136.0881"
       transform="scale(1,-1)" /></g></svg>