<?xml version="1.0" encoding="UTF-8" standalone="no"?>
<!-- Created with Inkscape (http://www.inkscape.org/) -->

<svg
   xmlns:dc="http://purl.org/dc/elements/1.1/"
   xmlns:cc="http://creativecommons.org/ns#"
   xmlns:rdf="http://www.w3.org/1999/02/22-rdf-syntax-ns#"
   xmlns:svg="http://www.w3.org/2000/svg"
   xmlns="http://www.w3.org/2000/svg"
   xmlns:sodipodi="http://sodipodi.sourceforge.net/DTD/sodipodi-0.dtd"
   xmlns:inkscape="http://www.inkscape.org/namespaces/inkscape"
   width="201.22997mm"
   height="143.88788mm"
   viewBox="0 0 201.22997 143.88788"
   version="1.1"
   id="svg46440"
   inkscape:version="0.92.4 (unknown)"
   sodipodi:docname="infra-before.svg">
  <defs
     id="defs46434" />
  <sodipodi:namedview
     id="base"
     pagecolor="#ffffff"
     bordercolor="#666666"
     borderopacity="1.0"
     inkscape:pageopacity="0.0"
     inkscape:pageshadow="2"
     inkscape:zoom="0.49497475"
     inkscape:cx="449.1753"
     inkscape:cy="330.43638"
     inkscape:document-units="mm"
     inkscape:current-layer="layer1"
     showgrid="false"
     inkscape:window-width="1368"
     inkscape:window-height="704"
     inkscape:window-x="0"
     inkscape:window-y="27"
     inkscape:window-maximized="1"
     fit-margin-top="0"
     fit-margin-left="0"
     fit-margin-right="0"
     fit-margin-bottom="0" />
  <metadata
     id="metadata46437">
    <rdf:RDF>
      <cc:Work
         rdf:about="">
        <dc:format>image/svg+xml</dc:format>
        <dc:type
           rdf:resource="http://purl.org/dc/dcmitype/StillImage" />
        <dc:title></dc:title>
      </cc:Work>
    </rdf:RDF>
  </metadata>
  <g
     inkscape:label="Capa 1"
     inkscape:groupmode="layer"
     id="layer1"
     transform="translate(-3.3345699,-65.512736)">
    <path
       d="m 158.5083,137.7254 c 0,-8.6475 -24.32716,-15.66496 -54.33532,-15.66496 -30.008183,0 -54.335351,7.01746 -54.335351,15.66496 0,8.65302 24.327168,15.66329 54.335351,15.66329 30.00816,0 54.33532,-7.01027 54.33532,-15.66329 z"
       style="fill:none;stroke:#000000;stroke-width:0.2648479;stroke-linecap:round;stroke-linejoin:round;stroke-miterlimit:10;stroke-dasharray:none;stroke-opacity:1"
       id="path852"
       inkscape:connector-curvature="0" />
    <path
       d="m 108.8424,153.50236 h -7.47536 l -2.525881,4.90714 v 7.38716 h 12.498911 v -7.38716 z"
       style="fill:#92cddc;fill-opacity:1;fill-rule:evenodd;stroke:none;stroke-width:0.35277775"
       id="path882"
       inkscape:connector-curvature="0" />
    <path
       d="m 98.841159,158.4095 h 12.498911 m -2.49767,-4.90714 h -7.47536 l -2.525881,4.90714 v 7.38716 h 12.498911 v -7.38716 z"
       style="fill:none;stroke:#000000;stroke-width:0.2648479;stroke-linecap:round;stroke-linejoin:round;stroke-miterlimit:10;stroke-dasharray:none;stroke-opacity:1"
       id="path884"
       inkscape:connector-curvature="0" />
    <path
       d="m 105.65329,162.13483 2.42358,-1.4605 1.56281,-0.004 -0.80786,0.80081 h 0.94191 l 1.04775,-1.13948 -1.04422,-1.13947 h -0.94897 l 0.80433,0.79728 h -1.66511 l -2.93864,1.77094 -2.72697,-1.64747 h -1.66511 l 0.80433,-0.79728 h -0.94897 l -1.047744,1.143 1.051274,1.13948 h 0.94191 l -0.81138,-0.80434 1.5628,0.004 2.21897,1.33703 -2.21897,1.34056 h -1.5628 l 0.81138,-0.80081 h -0.94191 l -1.051274,1.13947 1.047744,1.13947 h 0.94897 l -0.80433,-0.79375 h 1.66511 l 2.72697,-1.64747 2.93864,1.77095 h 1.66511 l -0.80433,0.79727 h 0.94897 l 1.04422,-1.13947 -1.04775,-1.143 h -0.94191 l 0.80786,0.80434 -1.56281,-0.003 z"
       style="fill:#92cddc;fill-opacity:1;fill-rule:evenodd;stroke:none;stroke-width:0.35277775"
       id="path886"
       inkscape:connector-curvature="0" />
    <path
       d="m 105.65329,162.13483 2.42358,-1.4605 1.56281,-0.004 -0.80786,0.80081 h 0.94191 l 1.04775,-1.13948 -1.04422,-1.13947 h -0.94897 l 0.80433,0.79728 h -1.66511 l -2.93864,1.77094 -2.72697,-1.64747 h -1.66511 l 0.80433,-0.79728 h -0.94897 l -1.047744,1.143 1.051274,1.13948 h 0.94191 l -0.81138,-0.80434 1.5628,0.004 2.21897,1.33703 -2.21897,1.34056 h -1.5628 l 0.81138,-0.80081 h -0.94191 l -1.051274,1.13947 1.047744,1.13947 h 0.94897 l -0.80433,-0.79375 h 1.66511 l 2.72697,-1.64747 2.93864,1.77095 h 1.66511 l -0.80433,0.79727 h 0.94897 l 1.04422,-1.13947 -1.04775,-1.143 h -0.94191 l 0.80786,0.80434 -1.56281,-0.003 z"
       style="fill:none;stroke:#000000;stroke-width:0.2648479;stroke-linecap:round;stroke-linejoin:round;stroke-miterlimit:10;stroke-dasharray:none;stroke-opacity:1"
       id="path888"
       inkscape:connector-curvature="0" />
    <path
       d="m 17.779704,167.01746 -4.15925,-11.13825 -4.1169167,11.12872 0.6349997,0.004 0.201084,-0.54751 3.280833,-1.84891 3.242027,1.74767 0.23989,0.64875 z m -4.166306,-5.88539 1.876779,1.73143 -1.87325,1.05587 -1.855613,-1.02059 z m -1.520471,0.61171 0.557387,-1.50177 0.515057,0.4766 z m 1.961444,-1.03222 0.525639,-0.50095 0.553861,1.4979 z m 0.292806,-1.12148 -0.740833,0.70802 -0.726723,-0.67239 0.740833,-1.99849 z m -3.679473,5.99122 0.797277,-2.15159 1.527529,0.84032 z m 3.577167,-1.31727 1.520473,-0.8576 0.79022,2.12972 z"
       style="fill:#4bacc6;fill-opacity:1;fill-rule:evenodd;stroke:none;stroke-width:0.35277775"
       id="path922"
       inkscape:connector-curvature="0" />
    <path
       d="m 17.779704,167.01746 -4.15925,-11.13825 -4.1169167,11.12872 0.6349997,0.004 0.201084,-0.54751 3.280833,-1.84891 3.242027,1.74767 0.23989,0.64875 z m -4.166306,-5.88539 1.876779,1.73143 -1.87325,1.05587 -1.855613,-1.02059 z m -1.520471,0.61171 0.557387,-1.50177 0.515057,0.4766 z m 1.961444,-1.03222 0.525639,-0.50095 0.553861,1.4979 z m 0.292806,-1.12148 -0.740833,0.70802 -0.726723,-0.67239 0.740833,-1.99849 z m -3.679473,5.99122 0.797277,-2.15159 1.527529,0.84032 z m 3.577167,-1.31727 1.520473,-0.8576 0.79022,2.12972 z"
       style="fill:none;stroke:#000000;stroke-width:0.2648479;stroke-linecap:round;stroke-linejoin:round;stroke-miterlimit:10;stroke-dasharray:none;stroke-opacity:1"
       id="path924"
       inkscape:connector-curvature="0" />
    <path
       d="m 16.269814,154.73938 c 0,0.94051 -0.486833,1.76848 -1.22061,2.25037 l 0.218723,0.45015 c 0.899584,-0.5648 1.499304,-1.56281 1.499304,-2.70052 0,-0.004 0,-0.007 0,-0.0109 0,-0.004 0,-0.007 0,-0.0106 0,-1.13771 -0.59972,-2.13395 -1.499304,-2.70192 l -0.218723,0.45155 c 0.733777,0.48154 1.22061,1.30951 1.22061,2.25037 0,0.003 0,0.006 0,0.01 v 0 c 0,2.7e-4 0,7.9e-4 0,0.001 0,2.6e-4 0,7.9e-4 0,0.001 v 0 c 0,0.003 0,0.006 0,0.01 z m -1.689804,-1.03011 c 0.278694,0.25788 0.455084,0.62512 0.455084,1.03329 0,0.40816 -0.17639,0.7754 -0.455084,1.03293 l 0.215194,0.46919 c 0.4445,-0.34677 0.73025,-0.8837 0.737306,-1.48731 v 0 c 0,-0.004 0,-0.008 0,-0.0116 0,-0.001 0,-0.002 0,-0.003 0,-0.001 0,-0.002 0,-0.003 0,-0.004 0,-0.008 0,-0.012 v 0 c -0.0071,-0.60325 -0.292806,-1.13982 -0.737306,-1.4866 z m -3.820583,1.03011 c 0,-0.003 0,-0.007 0,-0.01 v -0.002 c 0,-0.003 0,-0.006 0,-0.01 0,-0.94086 0.486833,-1.76883 1.22061,-2.25037 l -0.218723,-0.45155 c -0.899583,0.56797 -1.499304,1.56421 -1.499304,2.70192 0,0.004 0,0.007 0,0.0106 0,0.004 0,0.007 0,0.0109 0,1.13771 0.599721,2.13572 1.499304,2.70052 l 0.218723,-0.45015 c -0.733777,-0.48189 -1.22061,-1.30986 -1.22061,-2.25037 z m 1.735667,-1.03011 -0.218723,-0.46849 c -0.440973,0.34678 -0.726723,0.88336 -0.733777,1.48661 v 0 c 0,0.004 0,0.008 0,0.012 0,0.001 0,0.002 0,0.003 0,0.001 0,0.002 0,0.003 0,0.004 0,0.008 0,0.0116 v 0 c 0.0071,0.6036 0.292804,1.14053 0.733777,1.48731 l 0.218723,-0.46919 c -0.278696,-0.25753 -0.455084,-0.62477 -0.455084,-1.03294 0,-0.40816 0.176388,-0.7754 0.455084,-1.03328 z m 1.559277,1.03858 c 0,-0.28011 -0.225777,-0.50694 -0.508,-0.50694 -0.278694,0 -0.504473,0.22683 -0.504473,0.50694 0,0.27975 0.225779,0.50694 0.504473,0.50694 0.282223,0 0.508,-0.22719 0.508,-0.50694 z"
       style="fill:#4bacc6;fill-opacity:1;fill-rule:evenodd;stroke:none;stroke-width:0.35277775"
       id="path926"
       inkscape:connector-curvature="0" />
    <path
       d="m 16.269814,154.73938 c 0,0.94051 -0.486833,1.76848 -1.22061,2.25037 l 0.218723,0.45015 c 0.899584,-0.5648 1.499304,-1.56281 1.499304,-2.70052 0,-0.004 0,-0.007 0,-0.0109 0,-0.004 0,-0.007 0,-0.0106 0,-1.13771 -0.59972,-2.13395 -1.499304,-2.70192 l -0.218723,0.45155 c 0.733777,0.48154 1.22061,1.30951 1.22061,2.25037 0,0.003 0,0.006 0,0.01 v 0 c 0,2.7e-4 0,7.9e-4 0,0.001 0,2.6e-4 0,7.9e-4 0,0.001 v 0 c 0,0.003 0,0.006 0,0.01 z m -1.689804,-1.03011 c 0.278694,0.25788 0.455084,0.62512 0.455084,1.03329 0,0.40816 -0.17639,0.7754 -0.455084,1.03293 l 0.215194,0.46919 c 0.4445,-0.34677 0.73025,-0.8837 0.737306,-1.48731 v 0 c 0,-0.004 0,-0.008 0,-0.0116 0,-0.001 0,-0.002 0,-0.003 0,-0.001 0,-0.002 0,-0.003 0,-0.004 0,-0.008 0,-0.012 v 0 c -0.0071,-0.60325 -0.292806,-1.13982 -0.737306,-1.4866 z m -3.820583,1.03011 c 0,-0.003 0,-0.007 0,-0.01 v -0.002 c 0,-0.003 0,-0.006 0,-0.01 0,-0.94086 0.486833,-1.76883 1.22061,-2.25037 l -0.218723,-0.45155 c -0.899583,0.56797 -1.499304,1.56421 -1.499304,2.70192 0,0.004 0,0.007 0,0.0106 0,0.004 0,0.007 0,0.0109 0,1.13771 0.599721,2.13572 1.499304,2.70052 l 0.218723,-0.45015 c -0.733777,-0.48189 -1.22061,-1.30986 -1.22061,-2.25037 z m 1.735667,-1.03011 -0.218723,-0.46849 c -0.440973,0.34678 -0.726723,0.88336 -0.733777,1.48661 v 0 c 0,0.004 0,0.008 0,0.012 0,0.001 0,0.002 0,0.003 0,0.001 0,0.002 0,0.003 0,0.004 0,0.008 0,0.0116 v 0 c 0.0071,0.6036 0.292804,1.14053 0.733777,1.48731 l 0.218723,-0.46919 c -0.278696,-0.25753 -0.455084,-0.62477 -0.455084,-1.03294 0,-0.40816 0.176388,-0.7754 0.455084,-1.03328 z m 1.559277,1.03858 c 0,-0.28011 -0.225777,-0.50694 -0.508,-0.50694 -0.278694,0 -0.504473,0.22683 -0.504473,0.50694 0,0.27975 0.225779,0.50694 0.504473,0.50694 0.282223,0 0.508,-0.22719 0.508,-0.50694 z"
       style="fill:none;stroke:#000000;stroke-width:0.2648479;stroke-linecap:round;stroke-linejoin:round;stroke-miterlimit:10;stroke-dasharray:none;stroke-opacity:1"
       id="path928"
       inkscape:connector-curvature="0" />
    <path
       d="m 84.944627,89.438863 c -2.01535,-0.93095 -2.97617,-3.52658 -2.15595,-5.80663 0.65616,-1.83823 2.30438,-2.95855 4.04635,-2.75341 0.39838,-4.97036 4.2807,-8.63108 8.67077,-8.18138 1.00768,0.10265 1.999748,0.43392 2.905875,0.95462 2.733998,-2.71397 6.624128,-3.34514 9.920578,-1.60944 1.99193,-2.792887 5.60864,-3.226812 8.07709,-0.96252 0.14835,0.13419 0.28903,0.27613 0.42181,0.42603 2.69499,-2.721879 6.83508,-2.461518 9.24101,0.59171 0.48432,0.61538 0.87488,1.32544 1.15609,2.0907 2.56999,0.29192 4.44476,2.88756 4.18697,5.79877 -0.0547,0.58381 -0.18755,1.15974 -0.40618,1.69623 2.02316,2.80865 1.64822,6.9427 -0.82804,9.23065 -1.09359,1.00987 -2.48405,1.53846 -3.89794,1.46746 -0.99203,4.43388 -4.9603,7.11628 -8.87385,5.99598 -0.52336,-0.14984 -1.03113,-0.36292 -1.51543,-0.63903 -2.10909,4.828347 -7.28032,6.808597 -11.5454,4.418087 -0.99986,-0.56016 -1.89037,-1.33332 -2.63246,-2.280057 -4.085405,2.256397 -8.983223,1.404317 -12.279663,-2.13803 -2.13255,1.207083 -4.71815,0.24456 -5.78833,-2.16172 -0.95301,-2.13015 -0.40619,-4.7258 1.2967,-6.13802 z"
       style="fill:#ffffff;fill-opacity:1;fill-rule:evenodd;stroke:#000000;stroke-width:0.35277775;stroke-opacity:1"
       id="path1146"
       inkscape:connector-curvature="0" />
    <text
       y="140.97083"
       x="95.180794"
       style="font-style:italic;font-variant:normal;font-weight:normal;font-size:8.42583084px;font-family:Calibri;-inkscape-font-specification:'Calibri Italic';writing-mode:lr-tb;fill:#000000;fill-opacity:1;fill-rule:nonzero;stroke:none;stroke-width:0.35277775"
       id="text1156">
      <tspan
         style="stroke-width:0.35277775"
         x="95.180794 99.907646 103.58135 107.25504 110.93713"
         y="140.97083"
         sodipodi:role="line"
         id="tspan1154">Acces</tspan>
    </text>
    <text
       y="140.97083"
       x="114.34476"
       style="font-style:italic;font-variant:normal;font-weight:normal;font-size:8.42583084px;font-family:Calibri;-inkscape-font-specification:'Calibri Italic';writing-mode:lr-tb;fill:#000000;fill-opacity:1;fill-rule:nonzero;stroke:none;stroke-width:0.35277775"
       id="text1160">
      <tspan
         style="stroke-width:0.35277775"
         x="114.34476"
         y="140.97083"
         id="tspan1158">s</tspan>
    </text>
    <text
       y="77.620277"
       x="100.06867"
       style="font-style:italic;font-variant:normal;font-weight:normal;font-size:4.24215269px;font-family:Calibri;-inkscape-font-specification:'Calibri Italic';writing-mode:lr-tb;fill:#000000;fill-opacity:1;fill-rule:nonzero;stroke:none;stroke-width:0.35277775"
       id="text1230">
      <tspan
         style="stroke-width:0.35277775"
         x="100.06867 101.13764 103.24174 104.82411 106.6779 108.26025 110.37704 112.48966"
         y="77.620277"
         sodipodi:role="line"
         id="tspan1228">Internet</tspan>
    </text>
    <path
       d="m 165.0488,123.20942 h -7.47536 l -2.52589,4.90714 v 7.38716 h 12.49892 v -7.38716 z"
       style="fill:#92cddc;fill-opacity:1;fill-rule:evenodd;stroke:none;stroke-width:0.35277775"
       id="path882-3"
       inkscape:connector-curvature="0" />
    <path
       d="m 155.04755,128.11656 h 12.49892 m -2.49767,-4.90714 h -7.47536 l -2.52589,4.90714 v 7.38716 h 12.49892 v -7.38716 z"
       style="fill:none;stroke:#000000;stroke-width:0.2648479;stroke-linecap:round;stroke-linejoin:round;stroke-miterlimit:10;stroke-dasharray:none;stroke-opacity:1"
       id="path884-6"
       inkscape:connector-curvature="0" />
    <path
       d="m 161.85969,131.84189 2.42358,-1.4605 1.56281,-0.004 -0.80786,0.80081 h 0.94191 l 1.04775,-1.13948 -1.04422,-1.13947 h -0.94897 l 0.80433,0.79728 h -1.66511 l -2.93864,1.77094 -2.72697,-1.64747 h -1.66511 l 0.80433,-0.79728 h -0.94897 l -1.04775,1.143 1.05128,1.13948 h 0.94191 l -0.81138,-0.80434 1.5628,0.004 2.21897,1.33703 -2.21897,1.34056 h -1.5628 l 0.81138,-0.80081 h -0.94191 l -1.05128,1.13947 1.04775,1.13947 h 0.94897 l -0.80433,-0.79375 h 1.66511 l 2.72697,-1.64747 2.93864,1.77095 h 1.66511 l -0.80433,0.79727 h 0.94897 l 1.04422,-1.13947 -1.04775,-1.143 h -0.94191 l 0.80786,0.80434 -1.56281,-0.003 z"
       style="fill:#92cddc;fill-opacity:1;fill-rule:evenodd;stroke:none;stroke-width:0.35277775"
       id="path886-0"
       inkscape:connector-curvature="0" />
    <path
       d="m 161.85969,131.84189 2.42358,-1.4605 1.56281,-0.004 -0.80786,0.80081 h 0.94191 l 1.04775,-1.13948 -1.04422,-1.13947 h -0.94897 l 0.80433,0.79728 h -1.66511 l -2.93864,1.77094 -2.72697,-1.64747 h -1.66511 l 0.80433,-0.79728 h -0.94897 l -1.04775,1.143 1.05128,1.13948 h 0.94191 l -0.81138,-0.80434 1.5628,0.004 2.21897,1.33703 -2.21897,1.34056 h -1.5628 l 0.81138,-0.80081 h -0.94191 l -1.05128,1.13947 1.04775,1.13947 h 0.94897 l -0.80433,-0.79375 h 1.66511 l 2.72697,-1.64747 2.93864,1.77095 h 1.66511 l -0.80433,0.79727 h 0.94897 l 1.04422,-1.13947 -1.04775,-1.143 h -0.94191 l 0.80786,0.80434 -1.56281,-0.003 z"
       style="fill:none;stroke:#000000;stroke-width:0.2648479;stroke-linecap:round;stroke-linejoin:round;stroke-miterlimit:10;stroke-dasharray:none;stroke-opacity:1"
       id="path888-6"
       inkscape:connector-curvature="0" />
    <path
       d="m 48.396187,123.88805 h -7.47536 l -2.52589,4.90714 v 7.38716 h 12.498919 v -7.38716 z"
       style="fill:#92cddc;fill-opacity:1;fill-rule:evenodd;stroke:none;stroke-width:0.35277775"
       id="path882-3-2"
       inkscape:connector-curvature="0" />
    <path
       d="m 38.394937,128.79519 h 12.498919 m -2.497669,-4.90714 h -7.47536 l -2.52589,4.90714 v 7.38716 h 12.498919 v -7.38716 z"
       style="fill:none;stroke:#000000;stroke-width:0.2648479;stroke-linecap:round;stroke-linejoin:round;stroke-miterlimit:10;stroke-dasharray:none;stroke-opacity:1"
       id="path884-6-6"
       inkscape:connector-curvature="0" />
    <path
       d="m 45.207077,132.52052 2.42358,-1.4605 1.562809,-0.004 -0.80786,0.80081 h 0.941912 l 1.04775,-1.13948 -1.044221,-1.13947 h -0.94897 l 0.80433,0.79728 h -1.66511 l -2.93864,1.77094 -2.72697,-1.64747 h -1.66511 l 0.80433,-0.79728 h -0.94897 l -1.04775,1.143 1.051279,1.13948 h 0.941912 l -0.811382,-0.80434 1.562801,0.004 2.218971,1.33703 -2.218971,1.34057 h -1.562801 l 0.811382,-0.80082 h -0.941912 l -1.051279,1.13947 1.04775,1.13947 h 0.94897 l -0.80433,-0.79375 h 1.66511 l 2.72697,-1.64747 2.93864,1.77095 h 1.66511 l -0.80433,0.79727 h 0.94897 l 1.044221,-1.13947 -1.04775,-1.143 h -0.941912 l 0.80786,0.80434 -1.562809,-0.003 z"
       style="fill:#92cddc;fill-opacity:1;fill-rule:evenodd;stroke:none;stroke-width:0.35277775"
       id="path886-0-1"
       inkscape:connector-curvature="0" />
    <path
       d="m 45.207077,132.52052 2.42358,-1.4605 1.562809,-0.004 -0.80786,0.80081 h 0.941912 l 1.04775,-1.13948 -1.044221,-1.13947 h -0.94897 l 0.80433,0.79728 h -1.66511 l -2.93864,1.77094 -2.72697,-1.64747 h -1.66511 l 0.80433,-0.79728 h -0.94897 l -1.04775,1.143 1.051279,1.13948 h 0.941912 l -0.811382,-0.80434 1.562801,0.004 2.218971,1.33703 -2.218971,1.34057 h -1.562801 l 0.811382,-0.80082 h -0.941912 l -1.051279,1.13947 1.04775,1.13947 h 0.94897 l -0.80433,-0.79375 h 1.66511 l 2.72697,-1.64747 2.93864,1.77095 h 1.66511 l -0.80433,0.79727 h 0.94897 l 1.044221,-1.13947 -1.04775,-1.143 h -0.941912 l 0.80786,0.80434 -1.562809,-0.003 z"
       style="fill:none;stroke:#000000;stroke-width:0.2648479;stroke-linecap:round;stroke-linejoin:round;stroke-miterlimit:10;stroke-dasharray:none;stroke-opacity:1"
       id="path888-6-8"
       inkscape:connector-curvature="0" />
    <path
       d="m 109.32869,191.98726 -4.15925,-11.13825 -4.11692,11.12872 0.635,0.004 0.20109,-0.54751 3.28083,-1.84891 3.24203,1.74767 0.23989,0.64875 z m -4.16631,-5.88539 1.87678,1.73143 -1.87325,1.05587 -1.85561,-1.02059 z m -1.52047,0.61171 0.55739,-1.50177 0.51506,0.4766 z m 1.96145,-1.03222 0.52564,-0.50095 0.55386,1.4979 z m 0.2928,-1.12148 -0.74083,0.70802 -0.72672,-0.67239 0.74083,-1.99849 z m -3.67947,5.99122 0.79728,-2.15159 1.52753,0.84032 z m 3.57717,-1.31727 1.52047,-0.8576 0.79022,2.12972 z"
       style="fill:#4bacc6;fill-opacity:1;fill-rule:evenodd;stroke:none;stroke-width:0.35277775"
       id="path922-2"
       inkscape:connector-curvature="0" />
    <path
       d="m 109.32869,191.98726 -4.15925,-11.13825 -4.11692,11.12872 0.635,0.004 0.20109,-0.54751 3.28083,-1.84891 3.24203,1.74767 0.23989,0.64875 z m -4.16631,-5.88539 1.87678,1.73143 -1.87325,1.05587 -1.85561,-1.02059 z m -1.52047,0.61171 0.55739,-1.50177 0.51506,0.4766 z m 1.96145,-1.03222 0.52564,-0.50095 0.55386,1.4979 z m 0.2928,-1.12148 -0.74083,0.70802 -0.72672,-0.67239 0.74083,-1.99849 z m -3.67947,5.99122 0.79728,-2.15159 1.52753,0.84032 z m 3.57717,-1.31727 1.52047,-0.8576 0.79022,2.12972 z"
       style="fill:none;stroke:#000000;stroke-width:0.2648479;stroke-linecap:round;stroke-linejoin:round;stroke-miterlimit:10;stroke-dasharray:none;stroke-opacity:1"
       id="path924-3"
       inkscape:connector-curvature="0" />
    <path
       d="m 107.8188,179.70918 c 0,0.94051 -0.48683,1.76848 -1.22061,2.25037 l 0.21872,0.45015 c 0.89959,-0.5648 1.49931,-1.56281 1.49931,-2.70052 0,-0.004 0,-0.007 0,-0.0109 0,-0.004 0,-0.007 0,-0.0106 0,-1.13771 -0.59972,-2.13395 -1.49931,-2.70192 l -0.21872,0.45155 c 0.73378,0.48154 1.22061,1.30951 1.22061,2.25037 0,0.003 0,0.006 0,0.01 v 0 c 0,2.6e-4 0,7.9e-4 0,0.001 0,2.6e-4 0,7.9e-4 0,0.001 v 0 c 0,0.003 0,0.006 0,0.01 z m -1.6898,-1.03011 c 0.27869,0.25788 0.45508,0.62512 0.45508,1.03329 0,0.40816 -0.17639,0.7754 -0.45508,1.03293 l 0.21519,0.46919 c 0.4445,-0.34677 0.73025,-0.8837 0.73731,-1.48731 v 0 c 0,-0.004 0,-0.008 0,-0.0116 0,-0.001 0,-0.002 0,-0.003 0,-0.001 0,-0.002 0,-0.003 0,-0.004 0,-0.008 0,-0.012 v 0 c -0.007,-0.60325 -0.29281,-1.13982 -0.73731,-1.4866 z m -3.82059,1.03011 c 0,-0.003 0,-0.007 0,-0.01 v -0.002 c 0,-0.003 0,-0.006 0,-0.01 0,-0.94086 0.48684,-1.76883 1.22061,-2.25037 l -0.21872,-0.45154 c -0.89958,0.56797 -1.4993,1.56421 -1.4993,2.70192 0,0.004 0,0.007 0,0.0106 0,0.004 0,0.007 0,0.0109 0,1.13771 0.59972,2.13572 1.4993,2.70052 l 0.21872,-0.45015 c -0.73377,-0.48189 -1.22061,-1.30986 -1.22061,-2.25037 z m 1.73567,-1.03011 -0.21872,-0.46849 c -0.44098,0.34678 -0.72673,0.88336 -0.73378,1.48661 v 0 c 0,0.004 0,0.008 0,0.012 0,0.001 0,0.002 0,0.003 0,0.001 0,0.002 0,0.003 0,0.004 0,0.008 0,0.0116 v 0 c 0.007,0.60359 0.2928,1.14053 0.73378,1.48731 l 0.21872,-0.46918 c -0.2787,-0.25753 -0.45508,-0.62477 -0.45508,-1.03294 0,-0.40817 0.17638,-0.7754 0.45508,-1.03328 z m 1.55928,1.03858 c 0,-0.28011 -0.22578,-0.50694 -0.508,-0.50694 -0.2787,0 -0.50448,0.22683 -0.50448,0.50694 0,0.27975 0.22578,0.50694 0.50448,0.50694 0.28222,0 0.508,-0.22719 0.508,-0.50694 z"
       style="fill:#4bacc6;fill-opacity:1;fill-rule:evenodd;stroke:none;stroke-width:0.35277775"
       id="path926-7"
       inkscape:connector-curvature="0" />
    <path
       d="m 107.8188,179.70918 c 0,0.94051 -0.48683,1.76848 -1.22061,2.25037 l 0.21872,0.45015 c 0.89959,-0.5648 1.49931,-1.56281 1.49931,-2.70052 0,-0.004 0,-0.007 0,-0.0109 0,-0.004 0,-0.007 0,-0.0106 0,-1.13771 -0.59972,-2.13395 -1.49931,-2.70192 l -0.21872,0.45155 c 0.73378,0.48154 1.22061,1.30951 1.22061,2.25037 0,0.003 0,0.006 0,0.01 v 0 c 0,2.6e-4 0,7.9e-4 0,0.001 0,2.6e-4 0,7.9e-4 0,0.001 v 0 c 0,0.003 0,0.006 0,0.01 z m -1.6898,-1.03011 c 0.27869,0.25788 0.45508,0.62512 0.45508,1.03329 0,0.40816 -0.17639,0.7754 -0.45508,1.03293 l 0.21519,0.46919 c 0.4445,-0.34677 0.73025,-0.8837 0.73731,-1.48731 v 0 c 0,-0.004 0,-0.008 0,-0.0116 0,-0.001 0,-0.002 0,-0.003 0,-0.001 0,-0.002 0,-0.003 0,-0.004 0,-0.008 0,-0.012 v 0 c -0.007,-0.60325 -0.29281,-1.13982 -0.73731,-1.4866 z m -3.82059,1.03011 c 0,-0.003 0,-0.007 0,-0.01 v -0.002 c 0,-0.003 0,-0.006 0,-0.01 0,-0.94086 0.48684,-1.76883 1.22061,-2.25037 l -0.21872,-0.45154 c -0.89958,0.56797 -1.4993,1.56421 -1.4993,2.70192 0,0.004 0,0.007 0,0.0106 0,0.004 0,0.007 0,0.0109 0,1.13771 0.59972,2.13572 1.4993,2.70052 l 0.21872,-0.45015 c -0.73377,-0.48189 -1.22061,-1.30986 -1.22061,-2.25037 z m 1.73567,-1.03011 -0.21872,-0.46849 c -0.44098,0.34678 -0.72673,0.88336 -0.73378,1.48661 v 0 c 0,0.004 0,0.008 0,0.012 0,0.001 0,0.002 0,0.003 0,0.001 0,0.002 0,0.003 0,0.004 0,0.008 0,0.0116 v 0 c 0.007,0.60359 0.2928,1.14053 0.73378,1.48731 l 0.21872,-0.46918 c -0.2787,-0.25753 -0.45508,-0.62477 -0.45508,-1.03294 0,-0.40817 0.17638,-0.7754 0.45508,-1.03328 z m 1.55928,1.03858 c 0,-0.28011 -0.22578,-0.50694 -0.508,-0.50694 -0.2787,0 -0.50448,0.22683 -0.50448,0.50694 0,0.27975 0.22578,0.50694 0.50448,0.50694 0.28222,0 0.508,-0.22719 0.508,-0.50694 z"
       style="fill:none;stroke:#000000;stroke-width:0.2648479;stroke-linecap:round;stroke-linejoin:round;stroke-miterlimit:10;stroke-dasharray:none;stroke-opacity:1"
       id="path928-5"
       inkscape:connector-curvature="0" />
    <path
       d="m 197.56157,166.52528 -4.15925,-11.13825 -4.11691,11.12872 0.635,0.004 0.20108,-0.54751 3.28083,-1.84891 3.24203,1.74767 0.23989,0.64875 z m -4.1663,-5.88539 1.87678,1.73143 -1.87325,1.05587 -1.85562,-1.02059 z m -1.52047,0.61171 0.55738,-1.50177 0.51506,0.4766 z m 1.96144,-1.03222 0.52564,-0.50095 0.55386,1.4979 z m 0.29281,-1.12148 -0.74084,0.70802 -0.72672,-0.67239 0.74083,-1.99849 z m -3.67948,5.99122 0.79728,-2.15159 1.52753,0.84032 z m 3.57717,-1.31727 1.52047,-0.8576 0.79022,2.12972 z"
       style="fill:#4bacc6;fill-opacity:1;fill-rule:evenodd;stroke:none;stroke-width:0.35277775"
       id="path922-9"
       inkscape:connector-curvature="0" />
    <path
       d="m 197.56157,166.52528 -4.15925,-11.13825 -4.11691,11.12872 0.635,0.004 0.20108,-0.54751 3.28083,-1.84891 3.24203,1.74767 0.23989,0.64875 z m -4.1663,-5.88539 1.87678,1.73143 -1.87325,1.05587 -1.85562,-1.02059 z m -1.52047,0.61171 0.55738,-1.50177 0.51506,0.4766 z m 1.96144,-1.03222 0.52564,-0.50095 0.55386,1.4979 z m 0.29281,-1.12148 -0.74084,0.70802 -0.72672,-0.67239 0.74083,-1.99849 z m -3.67948,5.99122 0.79728,-2.15159 1.52753,0.84032 z m 3.57717,-1.31727 1.52047,-0.8576 0.79022,2.12972 z"
       style="fill:none;stroke:#000000;stroke-width:0.2648479;stroke-linecap:round;stroke-linejoin:round;stroke-miterlimit:10;stroke-dasharray:none;stroke-opacity:1"
       id="path924-2"
       inkscape:connector-curvature="0" />
    <path
       d="m 196.05168,154.2472 c 0,0.94051 -0.48683,1.76848 -1.22061,2.25037 l 0.21873,0.45015 c 0.89958,-0.5648 1.4993,-1.56281 1.4993,-2.70052 0,-0.004 0,-0.007 0,-0.0109 0,-0.004 0,-0.007 0,-0.0106 0,-1.13771 -0.59972,-2.13395 -1.4993,-2.70192 l -0.21873,0.45155 c 0.73378,0.48154 1.22061,1.30951 1.22061,2.25037 0,0.003 0,0.006 0,0.01 v 0 c 0,2.6e-4 0,8e-4 0,0.001 0,2.6e-4 0,8e-4 0,10e-4 v 0 c 0,0.003 0,0.006 0,0.01 z m -1.6898,-1.03011 c 0.27869,0.25788 0.45508,0.62512 0.45508,1.03329 0,0.40816 -0.17639,0.7754 -0.45508,1.03293 l 0.21519,0.46919 c 0.4445,-0.34677 0.73025,-0.8837 0.73731,-1.48731 v 0 c 0,-0.004 0,-0.008 0,-0.0116 0,-0.001 0,-0.002 0,-0.003 0,-10e-4 0,-0.002 0,-0.003 0,-0.004 0,-0.008 0,-0.012 v 0 c -0.007,-0.60325 -0.29281,-1.13982 -0.73731,-1.4866 z m -3.82058,1.03011 c 0,-0.003 0,-0.007 0,-0.01 v -0.002 c 0,-0.003 0,-0.006 0,-0.01 0,-0.94086 0.48683,-1.76883 1.22061,-2.25037 l -0.21873,-0.45154 c -0.89958,0.56797 -1.4993,1.56421 -1.4993,2.70192 0,0.004 0,0.007 0,0.0106 0,0.004 0,0.007 0,0.0109 0,1.13771 0.59972,2.13572 1.4993,2.70052 l 0.21873,-0.45015 c -0.73378,-0.48189 -1.22061,-1.30986 -1.22061,-2.25037 z m 1.73566,-1.03011 -0.21872,-0.46849 c -0.44097,0.34678 -0.72672,0.88336 -0.73378,1.48661 v 0 c 0,0.004 0,0.008 0,0.012 0,0.001 0,0.002 0,0.003 0,10e-4 0,0.002 0,0.003 0,0.004 0,0.008 0,0.0116 v 0 c 0.007,0.6036 0.29281,1.14053 0.73378,1.48731 l 0.21872,-0.46919 c -0.27869,-0.25753 -0.45508,-0.62477 -0.45508,-1.03294 0,-0.40816 0.17639,-0.7754 0.45508,-1.03328 z m 1.55928,1.03858 c 0,-0.28011 -0.22578,-0.50694 -0.508,-0.50694 -0.27869,0 -0.50447,0.22683 -0.50447,0.50694 0,0.27975 0.22578,0.50694 0.50447,0.50694 0.28222,0 0.508,-0.22719 0.508,-0.50694 z"
       style="fill:#4bacc6;fill-opacity:1;fill-rule:evenodd;stroke:none;stroke-width:0.35277775"
       id="path926-2"
       inkscape:connector-curvature="0" />
    <path
       d="m 196.05168,154.2472 c 0,0.94051 -0.48683,1.76848 -1.22061,2.25037 l 0.21873,0.45015 c 0.89958,-0.5648 1.4993,-1.56281 1.4993,-2.70052 0,-0.004 0,-0.007 0,-0.0109 0,-0.004 0,-0.007 0,-0.0106 0,-1.13771 -0.59972,-2.13395 -1.4993,-2.70192 l -0.21873,0.45155 c 0.73378,0.48154 1.22061,1.30951 1.22061,2.25037 0,0.003 0,0.006 0,0.01 v 0 c 0,2.6e-4 0,8e-4 0,0.001 0,2.6e-4 0,8e-4 0,10e-4 v 0 c 0,0.003 0,0.006 0,0.01 z m -1.6898,-1.03011 c 0.27869,0.25788 0.45508,0.62512 0.45508,1.03329 0,0.40816 -0.17639,0.7754 -0.45508,1.03293 l 0.21519,0.46919 c 0.4445,-0.34677 0.73025,-0.8837 0.73731,-1.48731 v 0 c 0,-0.004 0,-0.008 0,-0.0116 0,-0.001 0,-0.002 0,-0.003 0,-10e-4 0,-0.002 0,-0.003 0,-0.004 0,-0.008 0,-0.012 v 0 c -0.007,-0.60325 -0.29281,-1.13982 -0.73731,-1.4866 z m -3.82058,1.03011 c 0,-0.003 0,-0.007 0,-0.01 v -0.002 c 0,-0.003 0,-0.006 0,-0.01 0,-0.94086 0.48683,-1.76883 1.22061,-2.25037 l -0.21873,-0.45154 c -0.89958,0.56797 -1.4993,1.56421 -1.4993,2.70192 0,0.004 0,0.007 0,0.0106 0,0.004 0,0.007 0,0.0109 0,1.13771 0.59972,2.13572 1.4993,2.70052 l 0.21873,-0.45015 c -0.73378,-0.48189 -1.22061,-1.30986 -1.22061,-2.25037 z m 1.73566,-1.03011 -0.21872,-0.46849 c -0.44097,0.34678 -0.72672,0.88336 -0.73378,1.48661 v 0 c 0,0.004 0,0.008 0,0.012 0,0.001 0,0.002 0,0.003 0,10e-4 0,0.002 0,0.003 0,0.004 0,0.008 0,0.0116 v 0 c 0.007,0.6036 0.29281,1.14053 0.73378,1.48731 l 0.21872,-0.46919 c -0.27869,-0.25753 -0.45508,-0.62477 -0.45508,-1.03294 0,-0.40816 0.17639,-0.7754 0.45508,-1.03328 z m 1.55928,1.03858 c 0,-0.28011 -0.22578,-0.50694 -0.508,-0.50694 -0.27869,0 -0.50447,0.22683 -0.50447,0.50694 0,0.27975 0.22578,0.50694 0.50447,0.50694 0.28222,0 0.508,-0.22719 0.508,-0.50694 z"
       style="fill:none;stroke:#000000;stroke-width:0.2648479;stroke-linecap:round;stroke-linejoin:round;stroke-miterlimit:10;stroke-dasharray:none;stroke-opacity:1"
       id="path928-8"
       inkscape:connector-curvature="0" />
    <path
       d="m 15.858749,182.21312 h -0.831147 v -0.83079 h -3.09245 l 0.364067,-1.45521 0.883356,-3.53201 h 1.845027 v 2.70086 h 0.831147 v -3.53307 h -3.323874 l -1.663348,6.65022 H 9.6258723 c -0.4589647,0 -0.8311464,0.37218 -0.8311464,0.83114 v 1.24707 h 0.8311464 c 0,-1.66335 2.4927267,-1.66335 2.4927267,0 h 1.247068 c 0,-1.66335 2.493082,-1.66335 2.493082,0 h 0.832201 v -2.07821 z"
       style="fill:#92cddc;fill-opacity:1;fill-rule:nonzero;stroke:none;stroke-width:0.35277775"
       id="path5319-2-9"
       inkscape:connector-curvature="0" />
    <path
       d="m 15.027602,184.29133 c 0,0.2286 -0.185912,0.41487 -0.414864,0.41487 -0.230013,0 -0.415927,-0.18627 -0.415927,-0.41487 0,-0.23036 0.185914,-0.41628 0.415927,-0.41628 0.228952,0 0.414864,0.18592 0.414864,0.41628 z"
       style="fill:#92cddc;fill-opacity:1;fill-rule:nonzero;stroke:none;stroke-width:0.35277775"
       id="path5321-9-7"
       inkscape:connector-curvature="0" />
    <path
       d="m 11.287807,184.29133 c 0,0.2286 -0.186267,0.41487 -0.41628,0.41487 -0.228952,0 -0.414864,-0.18627 -0.414864,-0.41487 0,-0.23036 0.185912,-0.41628 0.414864,-0.41628 0.230013,0 0.41628,0.18592 0.41628,0.41628 z"
       style="fill:#92cddc;fill-opacity:1;fill-rule:nonzero;stroke:none;stroke-width:0.35277775"
       id="path5323-1-3"
       inkscape:connector-curvature="0" />
    <path
       d="m 5.4694438,177.2259 v 2.49308 c 0,0.23001 0.186267,0.41486 0.414867,0.41628 h 2.4941394 c 0.2289507,-10e-4 0.4148657,-0.18627 0.4162757,-0.41628 v -2.49308 c -0.0013,-0.23001 -0.187325,-0.41452 -0.4162757,-0.41593 0.2289507,0 0.4148657,-0.18626 0.4162757,-0.41486 v -2.49414 c -0.0013,-0.22896 -0.187325,-0.41487 -0.4162757,-0.41487 H 7.5476585 v 1.66194 l -0.4162767,-0.41628 -0.414515,0.41628 v -1.66194 h -0.832556 c -0.2286,0 -0.414867,0.18591 -0.414867,0.41487 v 2.49414 c 0,0.2286 0.186267,0.41486 0.414867,0.41486 -0.2286,0.001 -0.414867,0.18592 -0.414867,0.41593 z m 2.0782147,-0.41593 v 1.66335 l -0.4162767,-0.41628 -0.414515,0.41628 v -1.66335 z"
       style="fill:#92cddc;fill-opacity:1;fill-rule:nonzero;stroke:none;stroke-width:0.35277775"
       id="path5325-2-6"
       inkscape:connector-curvature="0" />
    <path
       d="m 16.69095,182.00498 h -0.208137 v -2.90901 c 0,-0.1143 -0.09349,-0.20814 -0.208139,-0.20814 h -0.20814 v -3.32493 c 0,-0.11465 -0.09208,-0.20672 -0.207785,-0.20672 h -3.323874 c -0.09525,0 -0.17921,0.0645 -0.202493,0.15698 l -1.252715,5.01192 v -7.03898 c 0,-0.11571 -0.09243,-0.20814 -0.20814,-0.20814 h -0.831143 c -0.1142997,0 -0.2077847,0.0924 -0.2077847,0.20814 v 6.44102 H 8.9644136 c 0.02328,-0.0663 0.03704,-0.13653 0.03704,-0.20814 v -2.49308 c 0,-0.15417 -0.05786,-0.30163 -0.1612207,-0.41593 0.1033647,-0.11324 0.1612207,-0.26176 0.1612207,-0.41486 v -2.49414 c 0,-0.34467 -0.2783407,-0.62301 -0.6230054,-0.62301 H 5.8843088 c -0.3429,0 -0.622652,0.27834 -0.622652,0.62301 v 2.49414 c 0,0.1531 0.05786,0.30162 0.162277,0.41486 -0.10442,0.1143 -0.162277,0.26176 -0.162277,0.41593 v 2.49308 c 0.0011,0.0716 0.01376,0.14181 0.03845,0.20814 h -0.661458 c -0.115711,0 -0.208139,0.0935 -0.208139,0.20814 v 0.83079 c 0,0.1143 0.09243,0.20814 0.208139,0.20814 h 5.1939465 v 0.83079 h -0.206727 c -0.5746747,0.001 -1.0392824,0.46602 -1.0392824,1.03928 v 1.24707 c 0,0.1143 0.09243,0.20814 0.20673,0.20814 h 0.6409947 c 0.2381247,1.66052 2.6373664,1.66052 2.8758434,0 h 0.863951 c 0.23848,1.66052 2.637722,1.66052 2.876199,0 h 0.640646 c 0.1143,0 0.206727,-0.0938 0.206727,-0.20814 v -2.07821 c 0,-0.1143 -0.09243,-0.20814 -0.206727,-0.20814 z m -3.533423,-0.83079 v -0.83115 c -0.0013,-0.33196 -0.26035,-0.6036 -0.590902,-0.61983 l 0.778579,-3.12138 h 1.474261 v 2.286 h -0.206727 c -0.344313,0 -0.624064,0.27976 -0.624064,0.62442 v 1.66194 z m -0.694266,-1.03893 h 0.07161 c 0.1143,0 0.20814,0.0921 0.20814,0.20778 v 0.83115 h -0.541867 z m 1.941338,-0.62301 c 0,-0.11571 0.09243,-0.20814 0.208139,-0.20814 h 0.206727 v 1.87008 h -0.414866 z m 0.831143,-0.20814 h 0.830792 v 2.70087 h -0.830792 z m -2.538235,-3.53342 h 2.954515 v 3.11714 h -0.41628 v -2.49272 c 0,-0.11572 -0.09243,-0.20814 -0.20814,-0.20814 h -1.843616 c -0.09525,0 -0.179211,0.0649 -0.202846,0.15698 l -1.245658,4.98722 c -0.03316,0.13088 0.06632,0.25788 0.201083,0.25788 h 2.8829 v 0.41593 h -3.680531 z m -5.7742652,-2.07786 h 0.416277 v 0.95356 l -0.06068,-0.0607 c -0.08114,-0.0811 -0.213432,-0.0811 -0.293511,0 l -0.06209,0.0607 z m -1.245658,0.20814 c 0,-0.11466 0.09243,-0.20814 0.206727,-0.20814 h 0.624416 v 1.45521 c 0,0.1845 0.222957,0.27693 0.35419,0.14746 l 0.268465,-0.26882 0.2688167,0.26882 c 0.130878,0.12947 0.3556,0.037 0.3556,-0.14746 v -1.45521 h 0.6226517 c 0.1146507,0 0.2081387,0.0935 0.2081387,0.20814 v 2.49414 c 0,0.1143 -0.09349,0.20672 -0.2081387,0.20672 H 5.8843108 c -0.1143,0 -0.206727,-0.0924 -0.206727,-0.20672 z m 1.245658,3.11714 h 0.416277 v 0.95356 l -0.06068,-0.0621 c -0.08114,-0.0801 -0.213432,-0.0801 -0.293511,0 l -0.06209,0.0621 z m -1.245658,2.70087 v -2.49308 c 0,-0.1143 0.09243,-0.20779 0.206727,-0.20779 h 0.624416 v 1.45521 c 0,0.1845 0.222957,0.27693 0.35419,0.14605 l 0.268465,-0.26882 0.2688167,0.26882 c 0.130878,0.13088 0.3556,0.0385 0.3556,-0.14605 v -1.45521 h 0.6226517 c 0.1146507,0 0.2081387,0.0935 0.2081387,0.20779 v 2.49308 c 0,0.11571 -0.09349,0.20814 -0.2081387,0.20814 H 5.8843108 c -0.1143,0 -0.206727,-0.0924 -0.206727,-0.20814 z m -0.832204,1.03893 v -0.41487 h 4.9872195 v 0.41487 z m 5.4031442,-7.06508 H 10.6648 v 8.31215 h -0.416276 z m 0.623003,11.63743 c -0.9246277,0 -1.3892367,-1.11901 -0.73448,-1.77341 0.654402,-0.65476 1.773412,-0.19156 1.773412,0.73448 0,0.57326 -0.464257,1.03752 -1.038932,1.03893 z m 3.741211,0 c -0.926044,0 -1.388888,-1.11901 -0.734486,-1.77341 0.654757,-0.65476 1.77377,-0.19156 1.77377,0.73448 -0.0013,0.57326 -0.466022,1.03752 -1.039284,1.03893 z m 1.870075,-1.24707 h -0.432506 c -0.23848,-1.66193 -2.637721,-1.66193 -2.876198,0 h -0.863952 c -0.23848,-1.66193 -2.6377207,-1.66193 -2.8758454,0 h -0.432856 v -1.03893 c 0,-0.34466 0.279752,-0.623 0.6244167,-0.623 h 6.8569407 z"
       style="fill:#000000;fill-opacity:1;fill-rule:nonzero;stroke:none;stroke-width:0.35277775"
       id="path5327-7-1"
       inkscape:connector-curvature="0" />
    <path
       d="m 10.871527,183.66691 c -0.55527,0 -0.832202,0.6724 -0.43956,1.06539 0.392642,0.39264 1.063625,0.1143 1.063625,-0.44097 0,-0.34466 -0.279752,-0.62442 -0.624065,-0.62442 z m 0,0.83256 c -0.184853,0 -0.276928,-0.22472 -0.14605,-0.3556 0.130882,-0.13088 0.35419,-0.0388 0.35419,0.14746 0,0.1143 -0.09243,0.20814 -0.20814,0.20814 z"
       style="fill:#000000;fill-opacity:1;fill-rule:nonzero;stroke:none;stroke-width:0.35277775"
       id="path5329-0-2"
       inkscape:connector-curvature="0" />
    <path
       d="m 14.612738,183.66691 c -0.555273,0 -0.833614,0.6724 -0.440973,1.06539 0.392994,0.39264 1.063977,0.1143 1.063977,-0.44097 0,-0.34466 -0.278342,-0.62442 -0.623004,-0.62442 z m 0,0.83256 c -0.185914,0 -0.278344,-0.22472 -0.147463,-0.3556 0.130882,-0.13088 0.35419,-0.0388 0.35419,0.14746 0,0.1143 -0.09207,0.20814 -0.206727,0.20814 z"
       style="fill:#000000;fill-opacity:1;fill-rule:nonzero;stroke:none;stroke-width:0.35277775"
       id="path5331-9-9"
       inkscape:connector-curvature="0" />
    <path
       d="m 22.359266,136.81867 c -0.171871,-0.0738 -0.27777,-0.20878 -0.329811,-0.41332 -0.02421,-0.10832 -0.0363,-2.08895 -0.0303,-6.84648 l 0.01209,-6.69337 0.089,-0.14282 c 0.0484,-0.0762 0.24267,-0.32497 0.43148,-0.55009 0.365511,-0.4339 0.5628,-0.5864 0.835181,-0.65254 0.11195,-0.0242 1.240999,-0.0363 3.83871,-0.0242 l 3.68155,0.0121 0.17005,0.0805 c 0.13072,0.0623 0.2578,0.18276 0.55675,0.5277 0.21422,0.24509 0.429659,0.5162 0.481711,0.60032 l 0.0956,0.1525 0.01209,6.69537 c 0.006,4.75771 0,6.73803 -0.0302,6.84448 -0.0545,0.20636 -0.157951,0.33889 -0.329819,0.41332 -0.139182,0.0629 -0.334042,0.0641 -4.740273,0.0641 -4.40805,0 -4.60321,-0.002 -4.742399,-0.0641 z m 9.20424,-7.16521 -0.006,-6.61718 h -8.91177 l -0.006,6.61718 -0.01209,6.61718 h 8.946809 z m -4.638191,5.04455 c -0.18276,-0.0484 -0.303191,-0.14826 -0.386699,-0.31105 -0.12224,-0.24751 -0.0871,-0.49381 0.0956,-0.68286 0.139178,-0.14101 0.26385,-0.19305 0.464759,-0.19305 0.47929,0 0.77243,0.45206 0.56461,0.86943 -0.0829,0.16279 -0.215429,0.26749 -0.40848,0.31953 -0.160369,0.0424 -0.16823,0.0424 -0.329811,-0.002 z m -0.127079,-2.20302 c -0.567042,-0.33526 -0.355229,-1.1423 0.30076,-1.1423 0.409091,0 0.695748,0.34494 0.61872,0.74483 -0.02421,0.13616 -0.19063,0.33707 -0.340712,0.41211 -0.140999,0.0702 -0.447818,0.0623 -0.57853,-0.0182 z m -2.87179,-3.38956 c -0.0974,-0.0484 -0.186391,-0.13072 -0.234201,-0.21302 -0.0793,-0.13192 -0.0805,-0.14463 -0.0666,-1.13831 0.006,-0.55251 0.01209,-1.03446 0.01209,-1.0724 0,-0.0363 -0.004,-0.5162 -0.004,-1.06278 0,-0.95149 0,-0.99785 0.0726,-1.08826 0.10469,-0.13495 0.228751,-0.21725 0.386701,-0.25296 0.182759,-0.0424 5.83628,-0.0424 6.019221,0 0.157948,0.0363 0.282009,0.11801 0.386699,0.25296 0.0702,0.0902 0.0726,0.13677 0.0726,1.08826 0,0.54646 -0.004,1.02423 -0.004,1.06278 0,0.0363 0,0.51983 0.01209,1.0724 0.01209,0.99368 0.01209,1.00614 -0.0666,1.13831 -0.0484,0.0829 -0.136772,0.16521 -0.234202,0.21302 l -0.15553,0.0805 h -6.036278 z m 6.025459,-1.29977 v -0.76692 h -5.705689 v 1.53209 h 5.705689 z m 0,-2.16483 v -0.78308 h -5.705689 v 1.56869 h 5.705689 z m 1.05673,-3.26502 c 0,-0.0182 -0.0623,-0.0865 -0.141009,-0.15311 l -0.1416,-0.12406 h -7.25878 l -0.16641,0.1525 -0.164002,0.1525 h 3.934322 c 2.25701,0.002 3.936688,-0.0121 3.936688,-0.0303 z"
       style="fill:#000000;fill-opacity:1;fill-rule:nonzero;stroke:none;stroke-width:0.0352778"
       id="path888-5-1-6-1-5-3"
       inkscape:connector-curvature="0" />
    <path
       d="m 22.670736,131.32431 c 0.0484,-2.66876 0.0805,-5.61099 0.0805,-6.53283 v -1.67708 h 8.764529 v 13.06795 h -8.923989 z m 4.88183,3.25963 c 0.626578,-0.60667 -0.268092,-1.49257 -0.92656,-0.91579 -0.27172,0.23843 -0.282012,0.49381 -0.0303,0.83912 0.222092,0.3056 0.68316,0.34131 0.959599,0.0768 z m -0.0817,-2.11667 c 0.29895,-0.20273 0.36794,-0.73727 0.124661,-0.97219 -0.23722,-0.22875 -0.922261,-0.17247 -1.06526,0.0884 -0.186992,0.33767 -0.155519,0.56824 0.115589,0.83142 0.292891,0.28322 0.46718,0.2929 0.82447,0.0545 z m 2.96922,-3.42611 c 0.20152,-0.17489 0.22451,-0.40969 0.22451,-2.29543 0,-1.94438 -0.0182,-2.11873 -0.245089,-2.33562 -0.23056,-0.2233 -0.40545,-0.23722 -3.257812,-0.23722 -2.532838,0 -3.060779,0.0303 -3.286627,0.18457 -0.263851,0.17671 -0.269902,0.24086 -0.269902,2.40582 0,1.99442 0.02421,2.23703 0.21181,2.34547 0.128899,0.0726 1.433142,0.12104 3.307741,0.12285 2.71154,0.004 3.12075,-0.0182 3.315909,-0.19062 z"
       style="fill:#4472c4;fill-opacity:1;fill-rule:evenodd;stroke:none;stroke-width:0.0352778"
       id="path890-6-8-5-1-6-1"
       inkscape:connector-curvature="0" />
    <path
       d="m 24.334026,127.82376 v -0.70689 h 5.599718 v 1.41178 h -5.599718 z"
       style="fill:#4472c4;fill-opacity:1;fill-rule:evenodd;stroke:none;stroke-width:0.0352778"
       id="path892-2-7-6-5-1-9"
       inkscape:connector-curvature="0" />
    <path
       d="m 24.334026,125.645 v -0.76492 h 5.599718 v 1.5299 h -5.599718 z"
       style="fill:#4472c4;fill-opacity:1;fill-rule:evenodd;stroke:none;stroke-width:0.0352778"
       id="path894-9-9-9-9-1-4"
       inkscape:connector-curvature="0" />
    <path
       d="m 23.331025,122.25689 0.14524,-0.14463 h 7.240202 l 0.116189,0.11801 0.116789,0.11679 -2.29222,0.0303 c -1.26025,0.0181 -3.00849,0.0303 -3.88289,0.0303 h -1.590299 z"
       style="fill:#4472c4;fill-opacity:1;fill-rule:evenodd;stroke:none;stroke-width:0.0352778"
       id="path896-1-2-3-7-5-7"
       inkscape:connector-curvature="0" />
    <path
       d="m 17.707283,184.71468 c -0.08748,-0.0376 -0.141377,-0.10626 -0.167865,-0.21037 -0.01233,-0.0551 -0.01847,-1.0632 -0.01543,-3.48463 l 0.0062,-3.4067 0.0453,-0.0727 c 0.02463,-0.0388 0.12351,-0.1654 0.219609,-0.27998 0.186031,-0.22084 0.286446,-0.29846 0.42508,-0.33212 0.05698,-0.0123 0.631626,-0.0185 1.953776,-0.0123 l 1.873784,0.006 0.08655,0.041 c 0.06653,0.0317 0.131212,0.093 0.283366,0.26858 0.109032,0.12475 0.218683,0.26273 0.245176,0.30555 l 0.04866,0.0776 0.0062,3.40772 c 0.0031,2.42152 0,3.42944 -0.01537,3.48362 -0.02774,0.10503 -0.08039,0.17248 -0.167867,0.21036 -0.07084,0.032 -0.170016,0.0326 -2.41264,0.0326 -2.243553,0 -2.342883,-0.001 -2.413725,-0.0326 z m 4.684652,-3.64686 -0.0031,-3.36792 h -4.535794 l -0.0031,3.36792 -0.0062,3.36793 h 4.553627 z m -2.360687,2.56751 c -0.09302,-0.0246 -0.154313,-0.0755 -0.196815,-0.15831 -0.06222,-0.12598 -0.04433,-0.25133 0.04866,-0.34755 0.07084,-0.0718 0.134292,-0.0983 0.236548,-0.0983 0.243944,0 0.393142,0.23008 0.287367,0.44251 -0.04219,0.0828 -0.109646,0.13614 -0.207902,0.16263 -0.08162,0.0216 -0.08562,0.0216 -0.167862,-0.001 z m -0.06468,-1.12126 c -0.288605,-0.17064 -0.180797,-0.58139 0.153078,-0.58139 0.208213,0 0.354113,0.17556 0.314909,0.37909 -0.01233,0.0693 -0.09703,0.17156 -0.17341,0.20975 -0.07177,0.0357 -0.227925,0.0317 -0.294452,-0.009 z m -1.461645,-1.72518 c -0.04957,-0.0246 -0.09487,-0.0665 -0.1192,-0.10842 -0.04036,-0.0671 -0.04097,-0.0736 -0.0339,-0.57936 0.0031,-0.28121 0.0062,-0.5265 0.0062,-0.54581 0,-0.0185 -0.0021,-0.26273 -0.0021,-0.54092 0,-0.48428 0,-0.50788 0.03695,-0.55389 0.05328,-0.0687 0.116427,-0.11057 0.196818,-0.12875 0.09302,-0.0216 2.970472,-0.0216 3.063584,0 0.08039,0.0185 0.143534,0.0601 0.196816,0.12875 0.03573,0.0459 0.03695,0.0696 0.03695,0.55389 0,0.27813 -0.0021,0.5213 -0.0021,0.54092 0,0.0185 0,0.26457 0.0062,0.54581 0.0062,0.50575 0.0062,0.51209 -0.0339,0.57936 -0.02463,0.0422 -0.06961,0.0841 -0.1192,0.10842 l -0.07916,0.041 h -3.072265 z m 3.066759,-0.66153 v -0.39034 h -2.904006 v 0.77978 h 2.904006 z m 0,-1.10183 v -0.39856 h -2.904006 v 0.79841 h 2.904006 z m 0.537842,-1.66179 c 0,-0.009 -0.03171,-0.044 -0.07177,-0.0779 l -0.07207,-0.0631 h -3.694477 l -0.0847,0.0776 -0.08347,0.0776 h 2.002439 c 1.148744,0.001 2.003644,-0.006 2.003644,-0.0154 z"
       style="fill:#000000;fill-opacity:1;fill-rule:nonzero;stroke:none;stroke-width:0.0352778"
       id="path888-5-1-6-1-5-3-8"
       inkscape:connector-curvature="0" />
    <path
       d="m 17.865808,181.91823 c 0.02463,-1.35831 0.04097,-2.85581 0.04097,-3.32499 v -0.85358 h 4.460857 v 6.65115 h -4.542018 z m 2.484692,1.65904 c 0.318907,-0.30877 -0.136448,-0.75966 -0.471591,-0.4661 -0.138295,0.12135 -0.143531,0.25133 -0.01543,0.42708 0.113038,0.15554 0.347707,0.17372 0.488405,0.0391 z m -0.04158,-1.07731 c 0.152154,-0.10318 0.187266,-0.37525 0.06345,-0.49481 -0.120737,-0.11643 -0.4694,-0.0878 -0.542184,0.045 -0.09517,0.17186 -0.07916,0.28922 0.05883,0.42317 0.149074,0.14414 0.237781,0.14907 0.419629,0.0277 z m 1.511233,-1.74378 c 0.102566,-0.089 0.114269,-0.20852 0.114269,-1.16829 0,-0.98963 -0.0093,-1.07837 -0.124743,-1.18876 -0.117348,-0.11365 -0.206362,-0.12073 -1.658118,-0.12073 -1.289132,0 -1.557835,0.0154 -1.672785,0.0939 -0.13429,0.0899 -0.137369,0.12259 -0.137369,1.22448 0,1.01509 0.01233,1.13857 0.107804,1.19376 0.0656,0.037 0.729419,0.0616 1.683528,0.0625 1.380085,0.002 1.58836,-0.009 1.68769,-0.097 z"
       style="fill:#ed7d31;fill-opacity:1;fill-rule:evenodd;stroke:none;stroke-width:0.0352778"
       id="path890-6-8-5-1-6-1-4"
       inkscape:connector-curvature="0" />
    <path
       d="m 18.712369,180.13657 v -0.35979 h 2.850071 v 0.71855 h -2.850071 z"
       style="fill:#ed7d31;fill-opacity:1;fill-rule:evenodd;stroke:none;stroke-width:0.0352778"
       id="path892-2-7-6-5-1-9-5"
       inkscape:connector-curvature="0" />
    <path
       d="m 18.712369,179.02765 v -0.38932 h 2.850071 v 0.77867 h -2.850071 z"
       style="fill:#ed7d31;fill-opacity:1;fill-rule:evenodd;stroke:none;stroke-width:0.0352778"
       id="path894-9-9-9-9-1-4-0"
       inkscape:connector-curvature="0" />
    <path
       d="m 18.201874,177.30322 0.07392,-0.0736 h 3.685022 l 0.05914,0.0601 0.05944,0.0594 -1.166665,0.0154 c -0.641427,0.009 -1.53122,0.0154 -1.976263,0.0154 h -0.80941 z"
       style="fill:#ed7d31;fill-opacity:1;fill-rule:evenodd;stroke:none;stroke-width:0.0352778"
       id="path896-1-2-3-7-5-7-3"
       inkscape:connector-curvature="0" />
    <path
       d="m 174.90961,136.55377 c -0.17187,-0.0738 -0.27777,-0.20878 -0.32981,-0.41332 -0.0242,-0.10832 -0.0363,-2.08895 -0.0303,-6.84648 l 0.0121,-6.69337 0.089,-0.14282 c 0.0484,-0.0762 0.24267,-0.32497 0.43148,-0.55009 0.36551,-0.4339 0.5628,-0.5864 0.83518,-0.65254 0.11195,-0.0242 1.241,-0.0363 3.83871,-0.0242 l 3.68155,0.0121 0.17005,0.0805 c 0.13072,0.0623 0.2578,0.18276 0.55675,0.5277 0.21422,0.24509 0.42966,0.5162 0.48171,0.60032 l 0.0956,0.1525 0.0121,6.69537 c 0.006,4.75771 0,6.73803 -0.0302,6.84448 -0.0545,0.20636 -0.15795,0.33889 -0.32982,0.41332 -0.13918,0.0629 -0.33404,0.0641 -4.74027,0.0641 -4.40805,0 -4.60321,-0.002 -4.7424,-0.0641 z m 9.20424,-7.16521 -0.006,-6.61718 h -8.91177 l -0.006,6.61718 -0.0121,6.61718 h 8.94682 z m -4.63819,5.04455 c -0.18276,-0.0484 -0.30319,-0.14826 -0.3867,-0.31105 -0.12224,-0.24751 -0.0871,-0.49381 0.0956,-0.68286 0.13918,-0.14101 0.26385,-0.19305 0.46476,-0.19305 0.47929,0 0.77243,0.45206 0.56461,0.86943 -0.0829,0.16279 -0.21543,0.26749 -0.40848,0.31953 -0.16037,0.0424 -0.16823,0.0424 -0.32981,-0.002 z m -0.12708,-2.20302 c -0.56704,-0.33526 -0.35523,-1.1423 0.30076,-1.1423 0.40909,0 0.69575,0.34494 0.61872,0.74483 -0.0242,0.13616 -0.19063,0.33707 -0.34071,0.41211 -0.141,0.0702 -0.44782,0.0623 -0.57853,-0.0182 z m -2.87179,-3.38956 c -0.0974,-0.0484 -0.18639,-0.13072 -0.2342,-0.21302 -0.0793,-0.13192 -0.0805,-0.14463 -0.0666,-1.13831 0.006,-0.55251 0.0121,-1.03446 0.0121,-1.0724 0,-0.0363 -0.004,-0.5162 -0.004,-1.06278 0,-0.95149 0,-0.99785 0.0726,-1.08826 0.10469,-0.13495 0.22874,-0.21725 0.3867,-0.25296 0.18276,-0.0424 5.83627,-0.0424 6.01922,0 0.15795,0.0363 0.282,0.11801 0.38669,0.25296 0.0702,0.0902 0.0726,0.13677 0.0726,1.08826 0,0.54646 -0.004,1.02423 -0.004,1.06278 0,0.0363 0,0.51983 0.0121,1.0724 0.0121,0.99368 0.0121,1.00614 -0.0666,1.13831 -0.0484,0.0829 -0.13677,0.16521 -0.2342,0.21302 l -0.15553,0.0805 h -6.03628 z m 6.02546,-1.29977 v -0.76692 h -5.70569 v 1.53209 h 5.70569 z m 0,-2.16483 v -0.78308 h -5.70569 v 1.56869 h 5.70569 z m 1.05673,-3.26502 c 0,-0.0182 -0.0623,-0.0865 -0.14101,-0.15311 l -0.1416,-0.12406 h -7.25878 l -0.16641,0.1525 -0.164,0.1525 h 3.93432 c 2.25701,0.002 3.93669,-0.0121 3.93669,-0.0303 z"
       style="fill:#000000;fill-opacity:1;fill-rule:nonzero;stroke:none;stroke-width:0.0352778"
       id="path888-5-1-6-1-5-3-0"
       inkscape:connector-curvature="0" />
    <path
       d="m 175.22108,131.05941 c 0.0484,-2.66876 0.0805,-5.61099 0.0805,-6.53283 v -1.67708 h 8.76453 v 13.06795 h -8.92399 z m 4.88183,3.25963 c 0.62658,-0.60667 -0.26809,-1.49257 -0.92656,-0.91579 -0.27172,0.23843 -0.28201,0.49381 -0.0303,0.83912 0.22209,0.3056 0.68316,0.34131 0.9596,0.0768 z m -0.0817,-2.11667 c 0.29895,-0.20273 0.36794,-0.73727 0.12466,-0.97219 -0.23722,-0.22875 -0.92226,-0.17247 -1.06526,0.0884 -0.18699,0.33767 -0.15552,0.56824 0.11559,0.83142 0.29289,0.28322 0.46718,0.2929 0.82447,0.0545 z m 2.96922,-3.42611 c 0.20152,-0.17489 0.22451,-0.40969 0.22451,-2.29543 0,-1.94438 -0.0182,-2.11873 -0.24509,-2.33562 -0.23056,-0.2233 -0.40545,-0.23722 -3.25781,-0.23722 -2.53284,0 -3.06078,0.0303 -3.28663,0.18457 -0.26385,0.17671 -0.2699,0.24086 -0.2699,2.40582 0,1.99442 0.0242,2.23703 0.21181,2.34547 0.1289,0.0726 1.43314,0.12104 3.30774,0.12285 2.71154,0.004 3.12075,-0.0182 3.31591,-0.19062 z"
       style="fill:#4472c4;fill-opacity:1;fill-rule:evenodd;stroke:none;stroke-width:0.0352778"
       id="path890-6-8-5-1-6-1-7"
       inkscape:connector-curvature="0" />
    <path
       d="m 176.88437,127.55886 v -0.70689 h 5.59972 v 1.41178 h -5.59972 z"
       style="fill:#4472c4;fill-opacity:1;fill-rule:evenodd;stroke:none;stroke-width:0.0352778"
       id="path892-2-7-6-5-1-9-8"
       inkscape:connector-curvature="0" />
    <path
       d="m 176.88437,125.3801 v -0.76492 h 5.59972 v 1.5299 h -5.59972 z"
       style="fill:#4472c4;fill-opacity:1;fill-rule:evenodd;stroke:none;stroke-width:0.0352778"
       id="path894-9-9-9-9-1-4-6"
       inkscape:connector-curvature="0" />
    <path
       d="m 175.88137,121.99199 0.14524,-0.14463 h 7.2402 l 0.11619,0.11801 0.11679,0.11679 -2.29222,0.0303 c -1.26025,0.0181 -3.00849,0.0303 -3.88289,0.0303 h -1.5903 z"
       style="fill:#4472c4;fill-opacity:1;fill-rule:evenodd;stroke:none;stroke-width:0.0352778"
       id="path896-1-2-3-7-5-7-8"
       inkscape:connector-curvature="0" />
    <path
       d="m 119.52936,170.40813 c -0.17187,-0.0738 -0.27777,-0.20878 -0.32981,-0.41332 -0.0242,-0.10832 -0.0363,-2.08895 -0.0303,-6.84648 l 0.0121,-6.69337 0.089,-0.14282 c 0.0484,-0.0762 0.24267,-0.32497 0.43148,-0.55009 0.36551,-0.4339 0.5628,-0.5864 0.83518,-0.65254 0.11195,-0.0242 1.241,-0.0363 3.83871,-0.0242 l 3.68155,0.0121 0.17005,0.0805 c 0.13072,0.0623 0.2578,0.18276 0.55675,0.5277 0.21422,0.24509 0.42966,0.5162 0.48171,0.60032 l 0.0956,0.1525 0.0121,6.69537 c 0.006,4.75771 0,6.73803 -0.0302,6.84448 -0.0545,0.20636 -0.15795,0.33889 -0.32982,0.41332 -0.13918,0.0629 -0.33404,0.0641 -4.74027,0.0641 -4.40805,0 -4.60321,-0.002 -4.7424,-0.0641 z m 9.20424,-7.16521 -0.006,-6.61718 h -8.91177 l -0.006,6.61718 -0.0121,6.61718 h 8.94682 z m -4.63819,5.04455 c -0.18276,-0.0484 -0.30319,-0.14826 -0.3867,-0.31105 -0.12224,-0.24751 -0.0871,-0.49381 0.0956,-0.68286 0.13918,-0.14101 0.26385,-0.19305 0.46476,-0.19305 0.47929,0 0.77243,0.45206 0.56461,0.86943 -0.0829,0.16279 -0.21543,0.26749 -0.40848,0.31953 -0.16037,0.0424 -0.16823,0.0424 -0.32981,-0.002 z m -0.12708,-2.20302 c -0.56704,-0.33526 -0.35523,-1.1423 0.30076,-1.1423 0.40909,0 0.69575,0.34494 0.61872,0.74483 -0.0242,0.13616 -0.19063,0.33707 -0.34071,0.41211 -0.141,0.0702 -0.44782,0.0623 -0.57853,-0.0182 z m -2.87179,-3.38956 c -0.0974,-0.0484 -0.18639,-0.13072 -0.2342,-0.21302 -0.0793,-0.13192 -0.0805,-0.14463 -0.0666,-1.13831 0.006,-0.55251 0.0121,-1.03446 0.0121,-1.0724 0,-0.0363 -0.004,-0.5162 -0.004,-1.06278 0,-0.95149 0,-0.99785 0.0726,-1.08826 0.10469,-0.13495 0.22875,-0.21725 0.38671,-0.25296 0.18275,-0.0424 5.83628,-0.0424 6.01922,0 0.15794,0.0363 0.282,0.11801 0.3867,0.25296 0.0702,0.0902 0.0726,0.13677 0.0726,1.08826 0,0.54646 -0.004,1.02423 -0.004,1.06278 0,0.0363 0,0.51983 0.0121,1.0724 0.0121,0.99368 0.0121,1.00614 -0.0666,1.13831 -0.0484,0.0829 -0.13677,0.16521 -0.2342,0.21302 l -0.15553,0.0805 h -6.03628 z m 6.02546,-1.29977 v -0.76692 h -5.70569 v 1.53209 h 5.70569 z m 0,-2.16483 v -0.78308 h -5.70569 v 1.56869 h 5.70569 z m 1.05673,-3.26502 c 0,-0.0182 -0.0623,-0.0865 -0.14101,-0.15311 l -0.1416,-0.12406 h -7.25878 l -0.16641,0.1525 -0.164,0.1525 h 3.93432 c 2.25701,0.002 3.93669,-0.0121 3.93669,-0.0303 z"
       style="fill:#000000;fill-opacity:1;fill-rule:nonzero;stroke:none;stroke-width:0.0352778"
       id="path888-5-1-6-1-5-3-84"
       inkscape:connector-curvature="0" />
    <path
       d="m 119.84083,164.91377 c 0.0484,-2.66876 0.0805,-5.61099 0.0805,-6.53283 v -1.67708 h 8.76453 v 13.06795 h -8.92399 z m 4.88183,3.25963 c 0.62658,-0.60667 -0.26809,-1.49257 -0.92656,-0.91579 -0.27172,0.23843 -0.28201,0.49381 -0.0303,0.83912 0.22209,0.3056 0.68316,0.34131 0.9596,0.0768 z m -0.0817,-2.11667 c 0.29895,-0.20273 0.36794,-0.73727 0.12466,-0.97219 -0.23722,-0.22875 -0.92226,-0.17247 -1.06526,0.0884 -0.18699,0.33767 -0.15552,0.56824 0.11559,0.83142 0.29289,0.28322 0.46718,0.2929 0.82447,0.0545 z m 2.96922,-3.42611 c 0.20152,-0.17489 0.22451,-0.40969 0.22451,-2.29543 0,-1.94438 -0.0182,-2.11873 -0.24509,-2.33562 -0.23056,-0.2233 -0.40545,-0.23722 -3.25781,-0.23722 -2.53284,0 -3.06078,0.0303 -3.28663,0.18457 -0.26385,0.17671 -0.2699,0.24086 -0.2699,2.40582 0,1.99442 0.0242,2.23703 0.21181,2.34547 0.1289,0.0726 1.43314,0.12104 3.30774,0.12285 2.71154,0.004 3.12075,-0.0182 3.31591,-0.19062 z"
       style="fill:#4472c4;fill-opacity:1;fill-rule:evenodd;stroke:none;stroke-width:0.0352778"
       id="path890-6-8-5-1-6-1-3"
       inkscape:connector-curvature="0" />
    <path
       d="m 121.50412,161.41322 v -0.70689 h 5.59972 v 1.41178 h -5.59972 z"
       style="fill:#4472c4;fill-opacity:1;fill-rule:evenodd;stroke:none;stroke-width:0.0352778"
       id="path892-2-7-6-5-1-9-1"
       inkscape:connector-curvature="0" />
    <path
       d="m 121.50412,159.23446 v -0.76492 h 5.59972 v 1.5299 h -5.59972 z"
       style="fill:#4472c4;fill-opacity:1;fill-rule:evenodd;stroke:none;stroke-width:0.0352778"
       id="path894-9-9-9-9-1-4-4"
       inkscape:connector-curvature="0" />
    <path
       d="m 120.50112,155.84635 0.14524,-0.14463 h 7.2402 l 0.11619,0.11801 0.11679,0.11679 -2.29222,0.0303 c -1.26025,0.0181 -3.00849,0.0303 -3.88289,0.0303 h -1.5903 z"
       style="fill:#4472c4;fill-opacity:1;fill-rule:evenodd;stroke:none;stroke-width:0.0352778"
       id="path896-1-2-3-7-5-7-9"
       inkscape:connector-curvature="0" />
    <path
       style="fill:none;stroke:#000000;stroke-width:0.26458332px;stroke-linecap:butt;stroke-linejoin:miter;stroke-opacity:1"
       d="M 17.689116,162.56364 44.430932,136.67227"
       id="path7663"
       inkscape:connector-curvature="0" />
    <path
       style="fill:none;stroke:#000000;stroke-width:0.26458332px;stroke-linecap:butt;stroke-linejoin:miter;stroke-opacity:1"
       d="M 105.02438,177.60654 V 166.38121"
       id="path7665"
       inkscape:connector-curvature="0" />
    <path
       style="fill:none;stroke:#000000;stroke-width:0.26458332px;stroke-linecap:butt;stroke-linejoin:miter;stroke-opacity:1"
       d="M 188.61292,162.17172 161.41825,136.17976"
       id="path7667"
       inkscape:connector-curvature="0" />
    <path
       style="fill:none;stroke:#000000;stroke-width:0.26458332px;stroke-linecap:butt;stroke-linejoin:miter;stroke-opacity:1"
       d="m 112.08867,162.18566 6.14211,1.6064"
       id="path7671"
       inkscape:connector-curvature="0" />
    <path
       style="fill:none;stroke:#000000;stroke-width:0.26458332px;stroke-linecap:butt;stroke-linejoin:miter;stroke-opacity:1"
       d="m 33.280634,131.66409 h 4.346725"
       id="path7673"
       inkscape:connector-curvature="0" />
    <path
       style="fill:none;stroke:#000000;stroke-width:0.26458332px;stroke-linecap:butt;stroke-linejoin:miter;stroke-opacity:1"
       d="m 173.13182,132.04206 h -4.81919"
       id="path7675"
       inkscape:connector-curvature="0" />
    <text
       xml:space="preserve"
       style="font-style:normal;font-variant:normal;font-weight:normal;font-stretch:normal;font-size:12.21632004px;line-height:1.25;font-family:sans-serif;font-variant-ligatures:normal;font-variant-position:normal;font-variant-caps:normal;font-variant-numeric:normal;font-variant-alternates:normal;font-feature-settings:normal;text-indent:0;text-align:start;text-decoration:none;text-decoration-line:none;text-decoration-style:solid;text-decoration-color:#000000;letter-spacing:0px;word-spacing:0px;text-transform:none;writing-mode:lr-tb;direction:ltr;text-orientation:mixed;dominant-baseline:auto;baseline-shift:baseline;text-anchor:start;white-space:normal;shape-padding:0;opacity:1;vector-effect:none;fill:#000000;fill-opacity:1;stroke:none;stroke-width:0.26458338;stroke-linecap:butt;stroke-linejoin:miter;stroke-miterlimit:4;stroke-dasharray:none;stroke-dashoffset:0;stroke-opacity:1"
       x="108.82655"
       y="-104.10579"
       id="text7679"
       transform="rotate(90)"><tspan
         sodipodi:role="line"
         id="tspan7677"
         x="108.82655"
         y="-104.10579"
         style="stroke-width:0.26458338">...</tspan></text>
    <path
       d="m 102.24366,98.285653 c -0.17187,-0.0738 -0.27777,-0.20878 -0.32981,-0.41332 -0.0242,-0.10832 -0.0363,-2.08895 -0.0303,-6.84648 l 0.0121,-6.69338 0.089,-0.14282 c 0.0484,-0.0762 0.24267,-0.32497 0.43148,-0.55009 0.36551,-0.4339 0.5628,-0.5864 0.83518,-0.65254 0.11195,-0.0242 1.241,-0.0363 3.83871,-0.0242 l 3.68155,0.0121 0.17005,0.0805 c 0.13072,0.0623 0.2578,0.18276 0.55675,0.5277 0.21422,0.24509 0.42966,0.5162 0.48171,0.60032 l 0.0956,0.1525 0.0121,6.69538 c 0.006,4.75771 0,6.73803 -0.0302,6.84448 -0.0545,0.20636 -0.15795,0.33889 -0.32982,0.41332 -0.13918,0.0629 -0.33404,0.0641 -4.74027,0.0641 -4.40805,0 -4.60321,-0.002 -4.7424,-0.0641 z m 9.20424,-7.16521 -0.006,-6.61719 h -8.91176 l -0.006,6.61719 -0.0121,6.61718 h 8.94681 z m -4.63819,5.04455 c -0.18276,-0.0484 -0.30319,-0.14826 -0.3867,-0.31105 -0.12224,-0.24751 -0.0871,-0.49381 0.0956,-0.68286 0.13918,-0.14101 0.26385,-0.19305 0.46476,-0.19305 0.47929,0 0.77243,0.45206 0.56461,0.86943 -0.0829,0.16279 -0.21543,0.26749 -0.40848,0.31953 -0.16037,0.0424 -0.16823,0.0424 -0.32981,-0.002 z m -0.12708,-2.20302 c -0.56704,-0.33526 -0.35523,-1.1423 0.30076,-1.1423 0.40909,0 0.69575,0.34494 0.61872,0.74483 -0.0242,0.13616 -0.19063,0.33707 -0.34071,0.41211 -0.141,0.0702 -0.44782,0.0623 -0.57853,-0.0182 z m -2.87179,-3.38957 c -0.0974,-0.0484 -0.18639,-0.13072 -0.2342,-0.21302 -0.0793,-0.13192 -0.0805,-0.14463 -0.0666,-1.13832 0.006,-0.5525 0.0121,-1.03445 0.0121,-1.07239 0,-0.0363 -0.004,-0.5162 -0.004,-1.06278 0,-0.95149 0,-0.99785 0.0726,-1.08826 0.10469,-0.13495 0.22875,-0.21725 0.38671,-0.25296 0.18275,-0.0424 5.83628,-0.0424 6.01922,0 0.15794,0.0363 0.282,0.11801 0.3867,0.25296 0.0702,0.0902 0.0726,0.13677 0.0726,1.08826 0,0.54646 -0.004,1.02423 -0.004,1.06278 0,0.0363 0,0.51983 0.0121,1.07239 0.0121,0.99369 0.0121,1.00615 -0.0666,1.13832 -0.0484,0.0829 -0.13677,0.16521 -0.2342,0.21302 l -0.15553,0.0805 h -6.03628 z m 6.02546,-1.29978 v -0.76691 h -5.70569 v 1.53209 h 5.70569 z m 0,-2.16482 v -0.78308 h -5.70569 v 1.56869 h 5.70569 z m 1.05673,-3.26502 c 0,-0.0182 -0.0623,-0.0865 -0.14101,-0.15311 l -0.1416,-0.12406 h -7.25878 l -0.16641,0.1525 -0.164,0.1525 h 3.93432 c 2.25701,0.002 3.93669,-0.0121 3.93669,-0.0303 z"
       style="fill:#000000;fill-opacity:1;fill-rule:nonzero;stroke:none;stroke-width:0.0352778"
       id="path888-5-1-6-1-5-3-84-6"
       inkscape:connector-curvature="0" />
    <path
       d="m 102.55513,92.791293 c 0.0484,-2.66877 0.0805,-5.611 0.0805,-6.53284 v -1.67708 h 8.76453 v 13.06796 h -8.92399 z m 4.88183,3.25963 c 0.62658,-0.60667 -0.26809,-1.49257 -0.92656,-0.91579 -0.27172,0.23843 -0.28201,0.49381 -0.0303,0.83912 0.22209,0.3056 0.68316,0.34131 0.9596,0.0768 z m -0.0817,-2.11667 c 0.29895,-0.20273 0.36794,-0.73727 0.12466,-0.97219 -0.23722,-0.22875 -0.92226,-0.17247 -1.06526,0.0884 -0.18699,0.33767 -0.15552,0.56824 0.11559,0.83142 0.29289,0.28322 0.46718,0.2929 0.82447,0.0545 z m 2.96922,-3.42612 c 0.20152,-0.17489 0.22451,-0.40969 0.22451,-2.29543 0,-1.94438 -0.0182,-2.11873 -0.24509,-2.33562 -0.23056,-0.2233 -0.40545,-0.23722 -3.25781,-0.23722 -2.53284,0 -3.06078,0.0303 -3.28663,0.18457 -0.26385,0.17671 -0.2699,0.24086 -0.2699,2.40582 0,1.99442 0.0242,2.23703 0.21181,2.34547 0.1289,0.0726 1.43314,0.12104 3.30774,0.12285 2.71154,0.004 3.12075,-0.0182 3.31591,-0.19062 z"
       style="fill:#70ad47;fill-opacity:1;fill-rule:evenodd;stroke:none;stroke-width:0.0352778"
       id="path890-6-8-5-1-6-1-3-1"
       inkscape:connector-curvature="0" />
    <path
       d="m 104.21842,89.290723 v -0.70688 h 5.59972 v 1.41178 h -5.59972 z"
       style="fill:#70ad47;fill-opacity:1;fill-rule:evenodd;stroke:none;stroke-width:0.0352778"
       id="path892-2-7-6-5-1-9-1-5"
       inkscape:connector-curvature="0" />
    <path
       d="m 104.21842,87.111973 v -0.76492 h 5.59972 v 1.5299 h -5.59972 z"
       style="fill:#70ad47;fill-opacity:1;fill-rule:evenodd;stroke:none;stroke-width:0.0352778"
       id="path894-9-9-9-9-1-4-4-9"
       inkscape:connector-curvature="0" />
    <path
       d="m 103.21542,84.782193 0.14524,-0.14463 h 7.2402 l 0.11619,0.11801 0.11679,0.11679 -2.29222,0.0303 c -1.26025,0.0181 -3.00849,0.0303 -3.88289,0.0303 h -1.5903 z"
       style="fill:#70ad47;fill-opacity:1;fill-rule:evenodd;stroke:none;stroke-width:0.0352778"
       id="path896-1-2-3-7-5-7-9-4"
       inkscape:connector-curvature="0" />
    <path
       d="m 122.80412,168.03276 v -0.70689 h 5.59973 v 1.41178 h -5.59973 z"
       style="fill:#4472c4;fill-opacity:1;fill-rule:evenodd;stroke:none;stroke-width:0.0352778"
       id="path892-2-7-6-5-1-9-1-2"
       inkscape:connector-curvature="0" />
    <path
       d="m 122.80412,165.854 v -0.76492 h 5.59973 v 1.5299 h -5.59973 z"
       style="fill:#4472c4;fill-opacity:1;fill-rule:evenodd;stroke:none;stroke-width:0.0352778"
       id="path894-9-9-9-9-1-4-4-93"
       inkscape:connector-curvature="0" />
    <path
       d="m 107.39453,204.81055 h -0.83115 v -0.83079 h -3.09245 l 0.36407,-1.45521 0.88336,-3.53201 h 1.84502 v 2.70086 h 0.83115 v -3.53307 h -3.32387 l -1.66335,6.65022 h -1.24567 c -0.45896,0 -0.83114,0.37218 -0.83114,0.83114 v 1.24707 h 0.83114 c 0,-1.66335 2.49274,-1.66335 2.49274,0 h 1.24707 c 0,-1.66335 2.49308,-1.66335 2.49308,0 h 0.8322 v -2.07821 z"
       style="fill:#92cddc;fill-opacity:1;fill-rule:nonzero;stroke:none;stroke-width:0.35277775"
       id="path5319-2-9-2"
       inkscape:connector-curvature="0" />
    <path
       d="m 106.56338,206.88876 c 0,0.2286 -0.18591,0.41487 -0.41486,0.41487 -0.23001,0 -0.41593,-0.18627 -0.41593,-0.41487 0,-0.23036 0.18592,-0.41628 0.41593,-0.41628 0.22895,0 0.41486,0.18592 0.41486,0.41628 z"
       style="fill:#92cddc;fill-opacity:1;fill-rule:nonzero;stroke:none;stroke-width:0.35277775"
       id="path5321-9-7-2"
       inkscape:connector-curvature="0" />
    <path
       d="m 102.82359,206.88876 c 0,0.2286 -0.18627,0.41487 -0.41628,0.41487 -0.22896,0 -0.41488,-0.18627 -0.41488,-0.41487 0,-0.23036 0.18593,-0.41628 0.41488,-0.41628 0.23001,0 0.41628,0.18592 0.41628,0.41628 z"
       style="fill:#92cddc;fill-opacity:1;fill-rule:nonzero;stroke:none;stroke-width:0.35277775"
       id="path5323-1-3-8"
       inkscape:connector-curvature="0" />
    <path
       d="m 97.005231,199.82333 v 2.49308 c 0,0.23001 0.186267,0.41486 0.414864,0.41628 h 2.494128 c 0.228947,-0.001 0.414867,-0.18627 0.416277,-0.41628 v -2.49308 c -0.001,-0.23001 -0.18733,-0.41452 -0.416277,-0.41593 0.228947,0 0.414867,-0.18626 0.416277,-0.41486 v -2.49414 c -0.001,-0.22896 -0.18733,-0.41487 -0.416277,-0.41487 h -0.830787 v 1.66194 l -0.416277,-0.41628 -0.414507,0.41628 v -1.66194 h -0.832557 c -0.228597,0 -0.414864,0.18591 -0.414864,0.41487 v 2.49414 c 0,0.2286 0.186267,0.41486 0.414864,0.41486 -0.228597,0.001 -0.414864,0.18592 -0.414864,0.41593 z m 2.078205,-0.41593 v 1.66335 l -0.416277,-0.41628 -0.414507,0.41628 v -1.66335 z"
       style="fill:#92cddc;fill-opacity:1;fill-rule:nonzero;stroke:none;stroke-width:0.35277775"
       id="path5325-2-6-9"
       inkscape:connector-curvature="0" />
    <path
       d="m 108.22673,204.60241 h -0.20814 v -2.90901 c 0,-0.1143 -0.0935,-0.20814 -0.20814,-0.20814 h -0.20814 v -3.32493 c 0,-0.11465 -0.0921,-0.20672 -0.20778,-0.20672 h -3.32388 c -0.0952,0 -0.17921,0.0645 -0.20249,0.15698 l -1.25271,5.01192 v -7.03898 c 0,-0.11571 -0.0924,-0.20814 -0.20814,-0.20814 h -0.83116 c -0.1143,0 -0.20778,0.0924 -0.20778,0.20814 v 6.44102 h -0.86818 c 0.0233,-0.0663 0.037,-0.13653 0.037,-0.20814 v -2.49308 c 0,-0.15417 -0.0579,-0.30163 -0.16122,-0.41593 0.10336,-0.11324 0.16122,-0.26176 0.16122,-0.41486 v -2.49414 c 0,-0.34467 -0.27834,-0.62301 -0.623007,-0.62301 h -2.494128 c -0.342899,0 -0.622651,0.27834 -0.622651,0.62301 v 2.49414 c 0,0.1531 0.05786,0.30162 0.162277,0.41486 -0.10442,0.1143 -0.162277,0.26176 -0.162277,0.41593 v 2.49308 c 0.0011,0.0716 0.01376,0.14181 0.03845,0.20814 h -0.661458 c -0.115711,0 -0.208139,0.0935 -0.208139,0.20814 v 0.83079 c 0,0.1143 0.09243,0.20814 0.208139,0.20814 h 5.193934 v 0.83079 h -0.20673 c -0.57467,0.001 -1.03928,0.46602 -1.03928,1.03928 v 1.24707 c 0,0.1143 0.0924,0.20814 0.20673,0.20814 h 0.64099 c 0.23813,1.66052 2.63738,1.66052 2.87585,0 h 0.86395 c 0.23848,1.66052 2.63773,1.66052 2.8762,0 h 0.64065 c 0.1143,0 0.20673,-0.0938 0.20673,-0.20814 v -2.07821 c 0,-0.1143 -0.0924,-0.20814 -0.20673,-0.20814 z m -3.53342,-0.83079 v -0.83115 c -10e-4,-0.33196 -0.26035,-0.6036 -0.5909,-0.61983 l 0.77857,-3.12138 h 1.47426 v 2.286 h -0.20672 c -0.34432,0 -0.62407,0.27976 -0.62407,0.62442 v 1.66194 z m -0.69427,-1.03893 h 0.0716 c 0.1143,0 0.20814,0.0921 0.20814,0.20778 v 0.83115 h -0.54187 z m 1.94134,-0.62301 c 0,-0.11571 0.0924,-0.20814 0.20814,-0.20814 h 0.20673 v 1.87008 h -0.41487 z m 0.83114,-0.20814 h 0.83079 v 2.70087 h -0.83079 z m -2.53823,-3.53342 h 2.95451 v 3.11714 h -0.41628 v -2.49272 c 0,-0.11572 -0.0924,-0.20814 -0.20814,-0.20814 h -1.84361 c -0.0952,0 -0.17921,0.0649 -0.20285,0.15698 l -1.24566,4.98722 c -0.0332,0.13088 0.0663,0.25788 0.20109,0.25788 h 2.8829 v 0.41593 h -3.68054 z m -5.774271,-2.07786 h 0.41628 v 0.95356 l -0.0607,-0.0607 c -0.0811,-0.0811 -0.21343,-0.0811 -0.29351,0 l -0.0621,0.0607 z m -1.245648,0.20814 c 0,-0.11466 0.09243,-0.20814 0.206724,-0.20814 h 0.624417 v 1.45521 c 0,0.1845 0.22296,0.27693 0.35419,0.14746 l 0.268457,-0.26882 0.26882,0.26882 c 0.130877,0.12947 0.355597,0.037 0.355597,-0.14746 v -1.45521 h 0.622647 c 0.114647,0 0.208137,0.0935 0.208137,0.20814 v 2.49414 c 0,0.1143 -0.0935,0.20672 -0.208137,0.20672 h -2.494128 c -0.114297,0 -0.206724,-0.0924 -0.206724,-0.20672 z m 1.245648,3.11714 h 0.41628 v 0.95356 l -0.0607,-0.0621 c -0.0811,-0.0801 -0.21343,-0.0801 -0.29351,0 l -0.0621,0.0621 z m -1.245648,2.70087 v -2.49308 c 0,-0.1143 0.09243,-0.20779 0.206724,-0.20779 h 0.624417 v 1.45521 c 0,0.1845 0.22296,0.27693 0.35419,0.14605 l 0.268457,-0.26882 0.26882,0.26882 c 0.130877,0.13088 0.355597,0.0385 0.355597,-0.14605 v -1.45521 h 0.622647 c 0.114647,0 0.208137,0.0935 0.208137,0.20779 v 2.49308 c 0,0.11571 -0.0935,0.20814 -0.208137,0.20814 h -2.494128 c -0.114297,0 -0.206724,-0.0924 -0.206724,-0.20814 z m -0.832204,1.03893 v -0.41487 h 4.987203 v 0.41487 z m 5.403123,-7.06508 h 0.41629 v 8.31215 h -0.41629 z m 0.62302,11.63743 c -0.92464,0 -1.38925,-1.11901 -0.73449,-1.77341 0.65441,-0.65476 1.77342,-0.19156 1.77342,0.73448 0,0.57326 -0.46426,1.03752 -1.03893,1.03893 z m 3.74121,0 c -0.92605,0 -1.38889,-1.11901 -0.73449,-1.77341 0.65476,-0.65476 1.77377,-0.19156 1.77377,0.73448 -10e-4,0.57326 -0.46602,1.03752 -1.03928,1.03893 z m 1.87007,-1.24707 h -0.4325 c -0.23848,-1.66193 -2.63772,-1.66193 -2.8762,0 h -0.86395 c -0.23848,-1.66193 -2.63773,-1.66193 -2.87585,0 h -0.43286 v -1.03893 c 0,-0.34466 0.27975,-0.623 0.62441,-0.623 h 6.85695 z"
       style="fill:#000000;fill-opacity:1;fill-rule:nonzero;stroke:none;stroke-width:0.35277775"
       id="path5327-7-1-7"
       inkscape:connector-curvature="0" />
    <path
       d="m 102.40731,206.26434 c -0.55528,0 -0.83221,0.6724 -0.43957,1.06539 0.39265,0.39264 1.06363,0.1143 1.06363,-0.44097 0,-0.34466 -0.27975,-0.62442 -0.62406,-0.62442 z m 0,0.83256 c -0.18486,0 -0.27694,-0.22472 -0.14605,-0.3556 0.13088,-0.13088 0.35419,-0.0388 0.35419,0.14746 0,0.1143 -0.0924,0.20814 -0.20814,0.20814 z"
       style="fill:#000000;fill-opacity:1;fill-rule:nonzero;stroke:none;stroke-width:0.35277775"
       id="path5329-0-2-3"
       inkscape:connector-curvature="0" />
    <path
       d="m 106.14852,206.26434 c -0.55528,0 -0.83362,0.6724 -0.44098,1.06539 0.393,0.39264 1.06398,0.1143 1.06398,-0.44097 0,-0.34466 -0.27834,-0.62442 -0.623,-0.62442 z m 0,0.83256 c -0.18592,0 -0.27835,-0.22472 -0.14747,-0.3556 0.13089,-0.13088 0.35419,-0.0388 0.35419,0.14746 0,0.1143 -0.0921,0.20814 -0.20672,0.20814 z"
       style="fill:#000000;fill-opacity:1;fill-rule:nonzero;stroke:none;stroke-width:0.35277775"
       id="path5331-9-9-6"
       inkscape:connector-curvature="0" />
    <path
       d="m 109.24306,207.31211 c -0.0875,-0.0376 -0.14137,-0.10626 -0.16786,-0.21037 -0.0123,-0.0551 -0.0185,-1.0632 -0.0154,-3.48463 l 0.006,-3.4067 0.0453,-0.0727 c 0.0246,-0.0388 0.12351,-0.1654 0.21961,-0.27998 0.18603,-0.22084 0.28644,-0.29846 0.42508,-0.33212 0.057,-0.0123 0.63162,-0.0185 1.95377,-0.0123 l 1.87379,0.006 0.0865,0.041 c 0.0665,0.0317 0.13121,0.093 0.28336,0.26858 0.10903,0.12475 0.21869,0.26273 0.24518,0.30555 l 0.0487,0.0776 0.006,3.40772 c 0.003,2.42152 0,3.42944 -0.0154,3.48362 -0.0277,0.10503 -0.0804,0.17248 -0.16787,0.21036 -0.0708,0.032 -0.17001,0.0326 -2.41264,0.0326 -2.24355,0 -2.34288,-0.001 -2.41372,-0.0326 z m 4.68466,-3.64686 -0.003,-3.36792 h -4.5358 l -0.003,3.36792 -0.006,3.36793 h 4.55363 z m -2.36069,2.56751 c -0.093,-0.0246 -0.15431,-0.0755 -0.19682,-0.15831 -0.0622,-0.12598 -0.0443,-0.25133 0.0487,-0.34755 0.0708,-0.0718 0.1343,-0.0983 0.23655,-0.0983 0.24395,0 0.39314,0.23008 0.28737,0.44251 -0.0422,0.0828 -0.10965,0.13614 -0.2079,0.16263 -0.0816,0.0216 -0.0856,0.0216 -0.16787,-0.001 z m -0.0647,-1.12126 c -0.28861,-0.17064 -0.1808,-0.58139 0.15308,-0.58139 0.20821,0 0.35411,0.17556 0.31491,0.37909 -0.0123,0.0693 -0.097,0.17156 -0.17341,0.20975 -0.0718,0.0357 -0.22793,0.0317 -0.29446,-0.009 z m -1.46165,-1.72518 c -0.0496,-0.0246 -0.0949,-0.0665 -0.1192,-0.10842 -0.0404,-0.0671 -0.041,-0.0736 -0.0339,-0.57936 0.003,-0.28121 0.006,-0.5265 0.006,-0.54581 0,-0.0185 -0.002,-0.26273 -0.002,-0.54092 0,-0.48428 0,-0.50788 0.037,-0.55389 0.0533,-0.0687 0.11643,-0.11057 0.19682,-0.12875 0.093,-0.0216 2.97047,-0.0216 3.06359,0 0.0804,0.0185 0.14353,0.0601 0.19681,0.12875 0.0357,0.0459 0.037,0.0696 0.037,0.55389 0,0.27813 -0.002,0.5213 -0.002,0.54092 0,0.0185 0,0.26457 0.006,0.54581 0.006,0.50575 0.006,0.51209 -0.0339,0.57936 -0.0246,0.0422 -0.0696,0.0841 -0.1192,0.10842 l -0.0792,0.041 h -3.07226 z m 3.06676,-0.66153 v -0.39034 h -2.904 v 0.77978 h 2.904 z m 0,-1.10183 v -0.39856 h -2.904 v 0.79841 h 2.904 z m 0.53784,-1.66179 c 0,-0.009 -0.0317,-0.044 -0.0718,-0.0779 l -0.0721,-0.0631 h -3.69447 l -0.0847,0.0776 -0.0835,0.0776 h 2.00244 c 1.14874,0.001 2.00364,-0.006 2.00364,-0.0154 z"
       style="fill:#000000;fill-opacity:1;fill-rule:nonzero;stroke:none;stroke-width:0.0352778"
       id="path888-5-1-6-1-5-3-8-1"
       inkscape:connector-curvature="0" />
    <path
       d="m 109.40159,204.51566 c 0.0246,-1.35831 0.041,-2.85581 0.041,-3.32499 v -0.85358 h 4.46086 v 6.65115 h -4.54202 z m 2.48469,1.65904 c 0.31891,-0.30877 -0.13645,-0.75966 -0.47159,-0.4661 -0.1383,0.12135 -0.14353,0.25133 -0.0154,0.42708 0.11304,0.15554 0.34771,0.17372 0.4884,0.0391 z m -0.0416,-1.07731 c 0.15215,-0.10318 0.18727,-0.37525 0.0635,-0.49481 -0.12074,-0.11643 -0.4694,-0.0878 -0.54218,0.045 -0.0952,0.17186 -0.0792,0.28922 0.0588,0.42317 0.14907,0.14414 0.23778,0.14907 0.41963,0.0277 z m 1.51123,-1.74378 c 0.10257,-0.089 0.11427,-0.20852 0.11427,-1.16829 0,-0.98963 -0.009,-1.07837 -0.12474,-1.18876 -0.11735,-0.11365 -0.20636,-0.12073 -1.65812,-0.12073 -1.28913,0 -1.55783,0.0154 -1.67278,0.0939 -0.13429,0.0899 -0.13737,0.12259 -0.13737,1.22448 0,1.01509 0.0123,1.13857 0.1078,1.19376 0.0656,0.037 0.72942,0.0616 1.68353,0.0625 1.38008,0.002 1.58836,-0.009 1.68769,-0.097 z"
       style="fill:#ed7d31;fill-opacity:1;fill-rule:evenodd;stroke:none;stroke-width:0.0352778"
       id="path890-6-8-5-1-6-1-4-2"
       inkscape:connector-curvature="0" />
    <path
       d="m 110.24815,202.734 v -0.35979 h 2.85007 v 0.71855 h -2.85007 z"
       style="fill:#ed7d31;fill-opacity:1;fill-rule:evenodd;stroke:none;stroke-width:0.0352778"
       id="path892-2-7-6-5-1-9-5-9"
       inkscape:connector-curvature="0" />
    <path
       d="m 110.24815,201.62508 v -0.38932 h 2.85007 v 0.77867 h -2.85007 z"
       style="fill:#ed7d31;fill-opacity:1;fill-rule:evenodd;stroke:none;stroke-width:0.0352778"
       id="path894-9-9-9-9-1-4-0-3"
       inkscape:connector-curvature="0" />
    <path
       d="m 109.73765,199.90065 0.0739,-0.0736 h 3.68503 l 0.0591,0.0601 0.0594,0.0594 -1.16667,0.0154 c -0.64143,0.009 -1.53122,0.0154 -1.97626,0.0154 h -0.80941 z"
       style="fill:#ed7d31;fill-opacity:1;fill-rule:evenodd;stroke:none;stroke-width:0.0352778"
       id="path896-1-2-3-7-5-7-3-1"
       inkscape:connector-curvature="0" />
    <path
       d="m 195.80086,178.21106 h -0.83115 v -0.83079 h -3.09245 l 0.36407,-1.45521 0.88336,-3.53202 h 1.84502 v 2.70087 h 0.83115 v -3.53307 h -3.32387 l -1.66335,6.65022 h -1.24567 c -0.45896,0 -0.83114,0.37218 -0.83114,0.83114 v 1.24707 h 0.83114 c 0,-1.66335 2.49274,-1.66335 2.49274,0 h 1.24707 c 0,-1.66335 2.49308,-1.66335 2.49308,0 h 0.8322 v -2.07821 z"
       style="fill:#92cddc;fill-opacity:1;fill-rule:nonzero;stroke:none;stroke-width:0.35277775"
       id="path5319-2-9-2-9"
       inkscape:connector-curvature="0" />
    <path
       d="m 194.96971,180.28927 c 0,0.2286 -0.18591,0.41487 -0.41486,0.41487 -0.23001,0 -0.41593,-0.18627 -0.41593,-0.41487 0,-0.23036 0.18592,-0.41628 0.41593,-0.41628 0.22895,0 0.41486,0.18592 0.41486,0.41628 z"
       style="fill:#92cddc;fill-opacity:1;fill-rule:nonzero;stroke:none;stroke-width:0.35277775"
       id="path5321-9-7-2-4"
       inkscape:connector-curvature="0" />
    <path
       d="m 191.22992,180.28927 c 0,0.2286 -0.18627,0.41487 -0.41628,0.41487 -0.22896,0 -0.41488,-0.18627 -0.41488,-0.41487 0,-0.23036 0.18593,-0.41628 0.41488,-0.41628 0.23001,0 0.41628,0.18592 0.41628,0.41628 z"
       style="fill:#92cddc;fill-opacity:1;fill-rule:nonzero;stroke:none;stroke-width:0.35277775"
       id="path5323-1-3-8-7"
       inkscape:connector-curvature="0" />
    <path
       d="m 185.41154,173.22384 v 2.49308 c 0,0.23001 0.18627,0.41486 0.41487,0.41628 h 2.49414 c 0.22895,-10e-4 0.41487,-0.18627 0.41628,-0.41628 v -2.49308 c -0.001,-0.23001 -0.18733,-0.41453 -0.41628,-0.41593 0.22895,0 0.41487,-0.18627 0.41628,-0.41487 v -2.49413 c -0.001,-0.22896 -0.18733,-0.41487 -0.41628,-0.41487 h -0.83079 v 1.66194 l -0.41628,-0.41628 -0.41451,0.41628 v -1.66194 h -0.83256 c -0.2286,0 -0.41487,0.18591 -0.41487,0.41487 v 2.49413 c 0,0.2286 0.18627,0.41487 0.41487,0.41487 -0.2286,0.001 -0.41487,0.18592 -0.41487,0.41593 z m 2.07822,-0.41593 v 1.66335 l -0.41628,-0.41628 -0.41451,0.41628 v -1.66335 z"
       style="fill:#92cddc;fill-opacity:1;fill-rule:nonzero;stroke:none;stroke-width:0.35277775"
       id="path5325-2-6-9-8"
       inkscape:connector-curvature="0" />
    <path
       d="m 196.63306,178.00292 h -0.20814 v -2.90901 c 0,-0.1143 -0.0935,-0.20815 -0.20814,-0.20815 h -0.20814 v -3.32492 c 0,-0.11465 -0.0921,-0.20672 -0.20778,-0.20672 h -3.32388 c -0.0952,0 -0.17921,0.0645 -0.20249,0.15698 l -1.25271,5.01192 v -7.03898 c 0,-0.11571 -0.0924,-0.20814 -0.20814,-0.20814 h -0.83116 c -0.1143,0 -0.20778,0.0924 -0.20778,0.20814 v 6.44102 h -0.86818 c 0.0233,-0.0663 0.037,-0.13653 0.037,-0.20814 v -2.49308 c 0,-0.15418 -0.0579,-0.30163 -0.16122,-0.41593 0.10336,-0.11324 0.16122,-0.26176 0.16122,-0.41487 v -2.49413 c 0,-0.34467 -0.27835,-0.62301 -0.62301,-0.62301 h -2.49414 c -0.3429,0 -0.62265,0.27834 -0.62265,0.62301 v 2.49413 c 0,0.15311 0.0579,0.30163 0.16227,0.41487 -0.10442,0.1143 -0.16227,0.26175 -0.16227,0.41593 v 2.49308 c 0.001,0.0716 0.0138,0.14181 0.0384,0.20814 h -0.66146 c -0.11571,0 -0.20814,0.0935 -0.20814,0.20814 v 0.83079 c 0,0.1143 0.0924,0.20814 0.20814,0.20814 h 5.19395 v 0.83079 h -0.20673 c -0.57467,0.001 -1.03928,0.46602 -1.03928,1.03928 v 1.24707 c 0,0.1143 0.0924,0.20814 0.20673,0.20814 h 0.64099 c 0.23813,1.66052 2.63738,1.66052 2.87585,0 h 0.86395 c 0.23848,1.66052 2.63773,1.66052 2.8762,0 h 0.64065 c 0.1143,0 0.20673,-0.0938 0.20673,-0.20814 v -2.07821 c 0,-0.1143 -0.0924,-0.20814 -0.20673,-0.20814 z m -3.53342,-0.83079 v -0.83115 c -0.001,-0.33196 -0.26035,-0.6036 -0.5909,-0.61983 l 0.77857,-3.12139 h 1.47426 v 2.286 h -0.20672 c -0.34432,0 -0.62407,0.27977 -0.62407,0.62443 v 1.66194 z m -0.69427,-1.03893 h 0.0716 c 0.1143,0 0.20814,0.0921 0.20814,0.20778 v 0.83115 h -0.54187 z m 1.94134,-0.62301 c 0,-0.11571 0.0924,-0.20814 0.20814,-0.20814 h 0.20673 v 1.87008 h -0.41487 z m 0.83114,-0.20814 h 0.83079 v 2.70087 h -0.83079 z m -2.53823,-3.53342 h 2.95451 v 3.11713 h -0.41628 v -2.49272 c 0,-0.11571 -0.0924,-0.20813 -0.20814,-0.20813 h -1.84361 c -0.0952,0 -0.17921,0.0649 -0.20285,0.15698 l -1.24566,4.98722 c -0.0332,0.13088 0.0663,0.25788 0.20109,0.25788 h 2.8829 v 0.41593 h -3.68054 z m -5.77428,-2.07786 h 0.41628 v 0.95356 l -0.0607,-0.0607 c -0.0811,-0.0811 -0.21343,-0.0811 -0.29351,0 l -0.0621,0.0607 z m -1.24566,0.20814 c 0,-0.11466 0.0924,-0.20814 0.20673,-0.20814 h 0.62442 v 1.45521 c 0,0.1845 0.22295,0.27693 0.35419,0.14746 l 0.26846,-0.26882 0.26882,0.26882 c 0.13088,0.12947 0.3556,0.037 0.3556,-0.14746 v -1.45521 h 0.62265 c 0.11465,0 0.20814,0.0935 0.20814,0.20814 v 2.49413 c 0,0.1143 -0.0935,0.20672 -0.20814,0.20672 h -2.49414 c -0.1143,0 -0.20673,-0.0924 -0.20673,-0.20672 z m 1.24566,3.11714 h 0.41628 v 0.95355 l -0.0607,-0.0621 c -0.0811,-0.0801 -0.21343,-0.0801 -0.29351,0 l -0.0621,0.0621 z m -1.24566,2.70087 v -2.49308 c 0,-0.1143 0.0924,-0.20779 0.20673,-0.20779 h 0.62442 v 1.45521 c 0,0.1845 0.22295,0.27693 0.35419,0.14605 l 0.26846,-0.26882 0.26882,0.26882 c 0.13088,0.13088 0.3556,0.0385 0.3556,-0.14605 v -1.45521 h 0.62265 c 0.11465,0 0.20814,0.0935 0.20814,0.20779 v 2.49308 c 0,0.11571 -0.0935,0.20814 -0.20814,0.20814 h -2.49414 c -0.1143,0 -0.20673,-0.0924 -0.20673,-0.20814 z m -0.8322,1.03893 v -0.41487 h 4.98722 v 0.41487 z m 5.40314,-7.06508 h 0.41629 v 8.31215 h -0.41629 z m 0.62302,11.63743 c -0.92464,0 -1.38925,-1.11901 -0.73449,-1.77341 0.65441,-0.65476 1.77342,-0.19156 1.77342,0.73448 0,0.57326 -0.46426,1.03752 -1.03893,1.03893 z m 3.74121,0 c -0.92605,0 -1.38889,-1.11901 -0.73449,-1.77341 0.65476,-0.65476 1.77377,-0.19156 1.77377,0.73448 -0.001,0.57326 -0.46602,1.03752 -1.03928,1.03893 z m 1.87007,-1.24707 h -0.4325 c -0.23848,-1.66193 -2.63772,-1.66193 -2.8762,0 h -0.86395 c -0.23848,-1.66193 -2.63773,-1.66193 -2.87586,0 h -0.43285 v -1.03893 c 0,-0.34466 0.27975,-0.623 0.62441,-0.623 h 6.85695 z"
       style="fill:#000000;fill-opacity:1;fill-rule:nonzero;stroke:none;stroke-width:0.35277775"
       id="path5327-7-1-7-4"
       inkscape:connector-curvature="0" />
    <path
       d="m 190.81364,179.66485 c -0.55528,0 -0.83221,0.6724 -0.43957,1.06539 0.39265,0.39264 1.06363,0.1143 1.06363,-0.44097 0,-0.34466 -0.27975,-0.62442 -0.62406,-0.62442 z m 0,0.83256 c -0.18486,0 -0.27694,-0.22472 -0.14605,-0.3556 0.13088,-0.13088 0.35419,-0.0388 0.35419,0.14746 0,0.1143 -0.0924,0.20814 -0.20814,0.20814 z"
       style="fill:#000000;fill-opacity:1;fill-rule:nonzero;stroke:none;stroke-width:0.35277775"
       id="path5329-0-2-3-5"
       inkscape:connector-curvature="0" />
    <path
       d="m 194.55485,179.66485 c -0.55528,0 -0.83362,0.6724 -0.44098,1.06539 0.393,0.39264 1.06398,0.1143 1.06398,-0.44097 0,-0.34466 -0.27834,-0.62442 -0.623,-0.62442 z m 0,0.83256 c -0.18592,0 -0.27835,-0.22472 -0.14747,-0.3556 0.13089,-0.13088 0.35419,-0.0388 0.35419,0.14746 0,0.1143 -0.0921,0.20814 -0.20672,0.20814 z"
       style="fill:#000000;fill-opacity:1;fill-rule:nonzero;stroke:none;stroke-width:0.35277775"
       id="path5331-9-9-6-0"
       inkscape:connector-curvature="0" />
    <path
       d="m 197.64939,180.71262 c -0.0875,-0.0376 -0.14137,-0.10626 -0.16786,-0.21037 -0.0123,-0.0551 -0.0185,-1.0632 -0.0154,-3.48463 l 0.006,-3.4067 0.0453,-0.0727 c 0.0246,-0.0388 0.12351,-0.1654 0.21961,-0.27998 0.18603,-0.22084 0.28644,-0.29846 0.42508,-0.33212 0.057,-0.0123 0.63162,-0.0185 1.95377,-0.0123 l 1.87379,0.006 0.0865,0.041 c 0.0665,0.0317 0.13121,0.093 0.28336,0.26858 0.10903,0.12475 0.21869,0.26273 0.24518,0.30555 l 0.0487,0.0776 0.006,3.40772 c 0.003,2.42152 0,3.42944 -0.0154,3.48362 -0.0277,0.10503 -0.0804,0.17248 -0.16787,0.21036 -0.0708,0.032 -0.17001,0.0326 -2.41264,0.0326 -2.24355,0 -2.34288,-0.001 -2.41372,-0.0326 z m 4.68466,-3.64686 -0.003,-3.36792 h -4.5358 l -0.003,3.36792 -0.006,3.36793 h 4.55363 z m -2.36069,2.56751 c -0.093,-0.0246 -0.15431,-0.0755 -0.19682,-0.15831 -0.0622,-0.12598 -0.0443,-0.25133 0.0487,-0.34755 0.0708,-0.0718 0.1343,-0.0983 0.23655,-0.0983 0.24395,0 0.39314,0.23008 0.28737,0.44251 -0.0422,0.0828 -0.10965,0.13614 -0.2079,0.16263 -0.0816,0.0216 -0.0856,0.0216 -0.16787,-0.001 z m -0.0647,-1.12126 c -0.28861,-0.17064 -0.1808,-0.58139 0.15308,-0.58139 0.20821,0 0.35411,0.17556 0.31491,0.37909 -0.0123,0.0693 -0.097,0.17156 -0.17341,0.20975 -0.0718,0.0357 -0.22793,0.0317 -0.29446,-0.009 z m -1.46165,-1.72518 c -0.0496,-0.0246 -0.0949,-0.0665 -0.1192,-0.10842 -0.0404,-0.0671 -0.041,-0.0736 -0.0339,-0.57936 0.003,-0.28121 0.006,-0.52651 0.006,-0.54581 0,-0.0185 -0.002,-0.26274 -0.002,-0.54092 0,-0.48428 0,-0.50788 0.037,-0.55389 0.0533,-0.0687 0.11643,-0.11057 0.19682,-0.12875 0.093,-0.0216 2.97047,-0.0216 3.06359,0 0.0804,0.0185 0.14353,0.0601 0.19681,0.12875 0.0357,0.0459 0.037,0.0696 0.037,0.55389 0,0.27813 -0.002,0.52129 -0.002,0.54092 0,0.0185 0,0.26457 0.006,0.54581 0.006,0.50575 0.006,0.51209 -0.0339,0.57936 -0.0246,0.0422 -0.0696,0.0841 -0.1192,0.10842 l -0.0792,0.041 h -3.07224 z m 3.06676,-0.66153 v -0.39034 h -2.904 v 0.77978 h 2.904 z m 0,-1.10184 v -0.39855 h -2.904 v 0.79841 h 2.904 z m 0.53784,-1.66178 c 0,-0.009 -0.0317,-0.044 -0.0718,-0.0779 l -0.0721,-0.0631 h -3.69447 l -0.0847,0.0776 -0.0835,0.0776 h 2.00244 c 1.14874,0.001 2.00364,-0.006 2.00364,-0.0154 z"
       style="fill:#000000;fill-opacity:1;fill-rule:nonzero;stroke:none;stroke-width:0.0352778"
       id="path888-5-1-6-1-5-3-8-1-3"
       inkscape:connector-curvature="0" />
    <path
       d="m 197.80792,177.91617 c 0.0246,-1.35831 0.041,-2.85581 0.041,-3.325 v -0.85357 h 4.46086 v 6.65115 h -4.54202 z m 2.48469,1.65904 c 0.31891,-0.30877 -0.13645,-0.75966 -0.47159,-0.4661 -0.1383,0.12135 -0.14353,0.25133 -0.0154,0.42708 0.11304,0.15554 0.34771,0.17372 0.4884,0.0391 z m -0.0416,-1.07731 c 0.15215,-0.10318 0.18727,-0.37525 0.0635,-0.49481 -0.12074,-0.11643 -0.4694,-0.0878 -0.54218,0.045 -0.0952,0.17186 -0.0792,0.28922 0.0588,0.42317 0.14907,0.14414 0.23778,0.14907 0.41963,0.0277 z m 1.51123,-1.74378 c 0.10257,-0.089 0.11427,-0.20852 0.11427,-1.16829 0,-0.98963 -0.009,-1.07838 -0.12474,-1.18876 -0.11735,-0.11365 -0.20636,-0.12073 -1.65812,-0.12073 -1.28913,0 -1.55783,0.0154 -1.67278,0.0939 -0.13429,0.0899 -0.13737,0.12259 -0.13737,1.22448 0,1.01508 0.0123,1.13856 0.1078,1.19375 0.0656,0.037 0.72942,0.0616 1.68353,0.0625 1.38008,0.002 1.58836,-0.009 1.68769,-0.097 z"
       style="fill:#ed7d31;fill-opacity:1;fill-rule:evenodd;stroke:none;stroke-width:0.0352778"
       id="path890-6-8-5-1-6-1-4-2-6"
       inkscape:connector-curvature="0" />
    <path
       d="m 198.65448,176.13451 v -0.35979 h 2.85007 v 0.71855 h -2.85007 z"
       style="fill:#ed7d31;fill-opacity:1;fill-rule:evenodd;stroke:none;stroke-width:0.0352778"
       id="path892-2-7-6-5-1-9-5-9-1"
       inkscape:connector-curvature="0" />
    <path
       d="m 198.65448,175.02559 v -0.38932 h 2.85007 v 0.77867 h -2.85007 z"
       style="fill:#ed7d31;fill-opacity:1;fill-rule:evenodd;stroke:none;stroke-width:0.0352778"
       id="path894-9-9-9-9-1-4-0-3-0"
       inkscape:connector-curvature="0" />
    <path
       d="m 198.14398,173.30116 0.0739,-0.0736 h 3.68503 l 0.0591,0.0601 0.0594,0.0594 -1.16667,0.0154 c -0.64143,0.009 -1.53122,0.0154 -1.97626,0.0154 h -0.80941 z"
       style="fill:#ed7d31;fill-opacity:1;fill-rule:evenodd;stroke:none;stroke-width:0.0352778"
       id="path896-1-2-3-7-5-7-3-1-6"
       inkscape:connector-curvature="0" />
  </g>
</svg>
