<?xml version="1.0" encoding="UTF-8" standalone="no"?>
<!-- Created with Inkscape (http://www.inkscape.org/) -->

<svg
   xmlns:dc="http://purl.org/dc/elements/1.1/"
   xmlns:cc="http://creativecommons.org/ns#"
   xmlns:rdf="http://www.w3.org/1999/02/22-rdf-syntax-ns#"
   xmlns:svg="http://www.w3.org/2000/svg"
   xmlns="http://www.w3.org/2000/svg"
   xmlns:sodipodi="http://sodipodi.sourceforge.net/DTD/sodipodi-0.dtd"
   xmlns:inkscape="http://www.inkscape.org/namespaces/inkscape"
   version="1.1"
   id="svg2"
   xml:space="preserve"
   width="586.66669"
   height="241.15334"
   viewBox="0 0 586.66669 241.15334"
   sodipodi:docname="local-deploy.svg"
   inkscape:version="0.92.4 (unknown)"><metadata
     id="metadata8"><rdf:RDF><cc:Work
         rdf:about=""><dc:format>image/svg+xml</dc:format><dc:type
           rdf:resource="http://purl.org/dc/dcmitype/StillImage" /><dc:title></dc:title></cc:Work></rdf:RDF></metadata><defs
     id="defs6"><clipPath
       clipPathUnits="userSpaceOnUse"
       id="clipPath26"><path
         d="M 0,180.865 H 440 V 0 H 0 Z"
         id="path24"
         inkscape:connector-curvature="0" /></clipPath><clipPath
       clipPathUnits="userSpaceOnUse"
       id="clipPath56"><path
         d="M 0,180.865 H 440 V 0 H 0 Z"
         id="path54"
         inkscape:connector-curvature="0" /></clipPath><clipPath
       clipPathUnits="userSpaceOnUse"
       id="clipPath88"><path
         d="M 19.6348,53.1724 H 38.9121 V 33.895 H 19.6348 Z"
         id="path86"
         inkscape:connector-curvature="0" /></clipPath><clipPath
       clipPathUnits="userSpaceOnUse"
       id="clipPath108"><path
         d="M 0,180.865 H 440 V 0 H 0 Z"
         id="path106"
         inkscape:connector-curvature="0" /></clipPath><clipPath
       clipPathUnits="userSpaceOnUse"
       id="clipPath130"><path
         d="M 0,180.865 H 440 V 0 H 0 Z"
         id="path128"
         inkscape:connector-curvature="0" /></clipPath><clipPath
       clipPathUnits="userSpaceOnUse"
       id="clipPath166"><path
         d="M 0,180.865 H 440 V 0 H 0 Z"
         id="path164"
         inkscape:connector-curvature="0" /></clipPath><clipPath
       clipPathUnits="userSpaceOnUse"
       id="clipPath176"><path
         d="M 0,180.865 H 440 V 0 H 0 Z"
         id="path174"
         inkscape:connector-curvature="0" /></clipPath></defs><sodipodi:namedview
     pagecolor="#ffffff"
     bordercolor="#666666"
     borderopacity="1"
     objecttolerance="10"
     gridtolerance="10"
     guidetolerance="10"
     inkscape:pageopacity="0"
     inkscape:pageshadow="2"
     inkscape:window-width="1368"
     inkscape:window-height="704"
     id="namedview4"
     showgrid="false"
     inkscape:zoom="0.5821578"
     inkscape:cx="173.00954"
     inkscape:cy="132.02862"
     inkscape:window-x="0"
     inkscape:window-y="27"
     inkscape:window-maximized="1"
     inkscape:current-layer="g52"
     showguides="false" /><g
     id="g10"
     inkscape:groupmode="layer"
     inkscape:label="scenario%20figure_5_1"
     transform="matrix(1.3333333,0,0,-1.3333333,0,241.15333)"><g
   id="g12"
   transform="translate(67.333,113.4443)"><path
     d="M 0,0 H 99.137"
     style="fill:none;stroke:#231f20;stroke-width:3;stroke-linecap:round;stroke-linejoin:miter;stroke-miterlimit:10;stroke-dasharray:none;stroke-opacity:1"
     id="path14"
     inkscape:connector-curvature="0" /></g><g
   id="g16"
   transform="translate(158.5176,103.6289)"><path
     d="M 0,0 -1.637,1.758 7.031,9.813 -1.637,17.871 0,19.629 10.555,9.813 Z"
     style="fill:#231f20;fill-opacity:1;fill-rule:nonzero;stroke:none"
     id="path18"
     inkscape:connector-curvature="0" /></g><g
   id="g20"><g
     id="g22"
     clip-path="url(#clipPath26)"><g
       id="g32"
       transform="translate(193.1543,96.5596)"><path
         d="m 0,0 c -1.805,0.011 -3.305,-1.472 -3.328,-3.291 -0.022,-1.822 1.478,-3.34 3.31,-3.349 1.844,-0.007 3.356,1.469 3.372,3.291 C 3.367,-1.505 1.871,-0.011 0,0 m 0.227,-8.604 c -2.766,-0.181 -5.327,2.096 -5.498,4.889 -0.188,3.024 2.003,5.526 5.07,5.675 2.924,0.143 5.267,-2.053 5.486,-4.846 0.236,-3.049 -1.971,-5.517 -5.058,-5.718"
         style="fill:#231f20;fill-opacity:1;fill-rule:evenodd;stroke:none"
         id="path34"
         inkscape:connector-curvature="0" /></g><g
       id="g36"
       transform="translate(193.0156,81.6909)"><path
         d="m 0,0 v 0.001 h 1.051 c 0.791,0.001 1.228,0.421 1.236,1.208 0.008,0.7 0.018,1.4 -0.002,2.099 C 2.27,3.777 2.438,4.125 2.857,4.326 3.238,4.508 3.676,4.395 4.027,4.045 4.535,3.543 5.033,3.033 5.543,2.535 6.08,2.011 6.684,2.013 7.211,2.535 7.729,3.046 8.24,3.562 8.752,4.077 9.322,4.649 9.324,5.209 8.75,5.795 8.26,6.295 7.766,6.791 7.268,7.282 6.926,7.617 6.793,8.005 6.988,8.451 c 0.188,0.43 0.545,0.595 1.01,0.588 0.713,-0.012 1.426,-0.007 2.139,0.002 0.752,0.01 1.177,0.436 1.183,1.178 0.006,0.699 0.008,1.399 0.002,2.099 -0.004,0.902 -0.4,1.288 -1.316,1.292 -0.711,0.003 -1.426,-0.009 -2.139,0.009 -0.441,0.012 -0.762,0.231 -0.91,0.666 -0.145,0.42 -0.012,0.76 0.289,1.059 0.488,0.483 0.973,0.969 1.457,1.455 0.635,0.636 0.633,1.198 -0.008,1.843 C 8.221,19.12 7.742,19.594 7.268,20.07 6.682,20.658 6.115,20.669 5.514,20.085 4.992,19.579 4.488,19.056 3.969,18.547 3.643,18.226 3.242,18.146 2.859,18.326 2.471,18.51 2.281,18.821 2.287,19.259 c 0.008,0.713 0.008,1.427 0.002,2.14 -0.008,0.818 -0.432,1.247 -1.246,1.253 -0.727,0.007 -1.453,0.002 -2.18,-0.006 -0.748,-0.009 -1.166,-0.441 -1.166,-1.191 0,-0.7 -0.01,-1.399 0.002,-2.099 0.008,-0.475 -0.14,-0.852 -0.603,-1.036 -0.451,-0.182 -0.834,-0.043 -1.168,0.296 -0.471,0.48 -0.951,0.952 -1.426,1.429 -0.621,0.625 -1.176,0.632 -1.811,0.01 -0.49,-0.48 -0.974,-0.967 -1.457,-1.456 -0.58,-0.588 -0.578,-1.172 0.002,-1.759 0.512,-0.516 1.028,-1.027 1.541,-1.543 0.293,-0.295 0.375,-0.643 0.235,-1.035 -0.145,-0.393 -0.43,-0.615 -0.85,-0.625 -0.781,-0.02 -1.56,-0.024 -2.34,-0.034 -0.738,-0.011 -1.168,-0.445 -1.17,-1.189 -0.002,-0.713 -0.002,-1.427 -0.004,-2.14 0,-0.782 0.438,-1.232 1.215,-1.237 0.701,-0.006 1.401,-0.007 2.1,0.004 0.476,0.007 0.838,-0.168 1.039,-0.612 C -6.816,8.028 -6.922,7.647 -7.303,7.268 -7.807,6.765 -8.318,6.267 -8.816,5.756 -9.328,5.23 -9.326,4.637 -8.814,4.119 c 0.529,-0.537 1.062,-1.07 1.599,-1.599 0.514,-0.506 1.121,-0.507 1.637,0 0.51,0.499 1.021,0.997 1.512,1.515 C -3.73,4.391 -3.34,4.51 -2.9,4.334 -2.471,4.162 -2.293,3.797 -2.301,3.332 -2.311,2.619 -2.307,1.905 -2.303,1.192 -2.299,0.457 -1.855,0.006 -1.131,0 -0.754,-0.002 -0.377,0 0,0 m 22.271,12.777 c 0,0.57 0.028,1.096 -0.005,1.618 -0.135,2.158 -0.235,4.32 -0.452,6.472 -0.168,1.676 -0.638,3.289 -1.488,4.769 -1.051,1.831 -2.611,3.121 -4.412,4.149 -2.547,1.454 -5.303,2.383 -8.109,3.184 C 7.672,33.007 7.475,32.925 7.342,32.842 5.41,31.645 3.311,30.94 1.051,30.782 c -3.037,-0.212 -5.869,0.465 -8.461,2.089 -0.115,0.073 -0.311,0.108 -0.436,0.067 -2.476,-0.81 -4.927,-1.684 -7.242,-2.894 -1.615,-0.845 -3.131,-1.835 -4.342,-3.229 -1.632,-1.88 -2.252,-4.162 -2.494,-6.558 -0.191,-1.897 -0.263,-3.807 -0.371,-5.711 -0.033,-0.585 -0.006,-1.171 -0.006,-1.761 h 9 c 0.102,0.779 0.403,1.434 0.961,1.97 0.557,0.532 1.24,0.751 2.014,0.847 -0.059,0.081 -0.09,0.123 -0.121,0.164 -1.03,1.32 -0.932,2.981 0.246,4.161 0.551,0.552 1.099,1.108 1.654,1.657 1.078,1.07 2.762,1.183 3.979,0.27 0.091,-0.069 0.189,-0.131 0.298,-0.208 0.151,1.658 1.125,2.758 2.733,2.932 1.01,0.109 2.047,0.086 3.062,0.008 1.108,-0.084 1.946,-0.678 2.413,-1.707 0.169,-0.376 0.248,-0.795 0.371,-1.2 0.043,0.03 0.097,0.068 0.15,0.108 1.293,0.998 2.949,0.901 4.1,-0.242 0.582,-0.578 1.193,-1.132 1.73,-1.751 0.307,-0.355 0.57,-0.793 0.709,-1.238 0.338,-1.079 0.053,-2.062 -0.684,-2.946 1.713,-0.215 2.706,-1.161 2.987,-2.833 z M 13.268,10.8 C 13.33,9.855 13.229,8.988 12.637,8.248 12.049,7.514 11.289,7.122 10.309,7.082 10.371,6.983 10.412,6.904 10.465,6.834 11.406,5.584 11.373,4.035 10.33,2.883 9.727,2.216 9.086,1.574 8.414,0.977 7.225,-0.079 5.684,-0.094 4.434,0.885 4.383,0.924 4.334,0.963 4.254,1.024 4.152,-0.2 3.621,-1.117 2.537,-1.638 2.184,-1.808 1.771,-1.915 1.383,-1.932 0.441,-1.975 -0.502,-1.963 -1.443,-1.944 c -1.405,0.028 -2.672,1.26 -2.805,2.696 -0.006,0.077 -0.01,0.155 -0.018,0.285 -0.527,-0.455 -1.086,-0.74 -1.744,-0.824 -0.926,-0.116 -1.74,0.125 -2.416,0.754 -0.658,0.615 -1.291,1.26 -1.914,1.911 -0.996,1.038 -1.086,2.692 -0.23,3.856 0.072,0.097 0.146,0.191 0.252,0.331 -0.969,0.069 -1.756,0.435 -2.342,1.18 -0.588,0.743 -0.701,1.608 -0.617,2.579 h -0.496 c -3.123,0 -6.245,-0.002 -9.368,-10e-4 -0.88,0 -1.205,0.397 -1.166,1.287 0.063,1.478 0.055,2.959 0.121,4.436 0.108,2.336 0.28,4.665 0.874,6.943 0.863,3.315 2.929,5.682 5.792,7.431 2.315,1.415 4.821,2.41 7.366,3.312 0.72,0.256 1.447,0.49 2.172,0.735 0.431,0.146 0.82,0.113 1.216,-0.161 2.223,-1.533 4.696,-2.227 7.385,-2.092 2.221,0.112 4.264,0.801 6.096,2.076 0.389,0.271 0.765,0.319 1.213,0.191 2.935,-0.836 5.824,-1.791 8.517,-3.252 2.168,-1.177 4.069,-2.664 5.393,-4.795 1.017,-1.637 1.541,-3.442 1.849,-5.323 0.375,-2.275 0.467,-4.57 0.528,-6.868 0.023,-0.914 0.049,-1.828 0.08,-2.742 0.025,-0.797 -0.334,-1.178 -1.119,-1.178 -3.162,0 -6.326,-0.002 -9.488,-0.004 -0.12,0 -0.239,-0.01 -0.42,-0.019"
         style="fill:#231f20;fill-opacity:1;fill-rule:evenodd;stroke:none"
         id="path38"
         inkscape:connector-curvature="0" /></g><g
       id="g40"
       transform="translate(193.0078,139.7568)"><path
         d="m 0,0 c -6.078,-0.03 -10.971,-4.944 -10.947,-10.998 0.021,-5.977 4.994,-10.924 10.941,-10.888 6.135,0.037 11.008,4.948 10.934,11.123 C 10.855,-4.783 5.982,-0.023 0,0 M 0.016,1.949 C 7.064,2.007 12.844,-3.759 12.887,-10.918 12.93,-17.913 7.344,-23.559 0.545,-23.825 -6.979,-24.12 -12.867,-18.122 -12.9,-11.006 -12.934,-3.821 -7.08,1.995 0.016,1.949"
         style="fill:#231f20;fill-opacity:1;fill-rule:evenodd;stroke:none"
         id="path42"
         inkscape:connector-curvature="0" /></g><path
       style="fill:#92cddc;fill-opacity:1;stroke:#000000;stroke-width:1.13385832;stroke-miterlimit:4;stroke-dasharray:none;stroke-opacity:1"
       d="m 51.870671,141.98095 c 0.685111,-2.1109 0.729303,-3.8804 0.137565,-5.73083 -0.395084,-1.23375 -0.951928,-2.17976 -1.928313,-3.27555 -0.518768,-0.5822 -1.633565,-1.53983 -2.127736,-1.82727 l -0.290182,-0.16837 v -5.20322 -5.2026 l 1.131753,-8.7023 c 0.731249,-5.62272 1.11313,-8.84588 1.078666,-9.10962 -0.105619,-0.80992 -0.783916,-1.57201 -1.575616,-1.77001 -1.066854,-0.26674 -2.2856,0.38231 -2.588826,1.37894 -0.05835,0.18992 -0.55059,3.79347 -1.095204,8.00788 -0.544337,4.21438 -1.014185,7.79748 -1.044203,7.9626 l -0.05421,0.30047 h -0.637578 -0.638416 l -0.0542,-0.34656 c -0.03063,-0.19049 -0.498894,-3.79616 -1.041981,-8.01286 -0.543223,-4.21665 -1.028639,-7.79253 -1.079638,-7.94631 -0.05002,-0.15364 -0.222211,-0.43594 -0.381882,-0.62654 -0.935527,-1.11767 -2.638855,-1.00843 -3.478495,0.2228 -0.140359,0.20608 -0.28045,0.54746 -0.3117,0.75949 -0.03761,0.25143 0.336594,3.41844 1.073662,9.0919 l 1.13078,8.70588 -0.01395,4.17931 v 4.1794 l -0.238458,-0.60037 c -0.286848,-0.72185 -0.622159,-2.27741 -0.787808,-3.65602 -0.07503,-0.62146 -0.123687,-2.19625 -0.126442,-4.10292 -0.01395,-3.40911 0,-3.34111 -0.603815,-3.71398 -0.635082,-0.38942 -1.547124,-0.16243 -1.928176,0.48016 -0.162734,0.27439 -0.196506,0.56426 -0.259319,2.2134 -0.299062,7.85109 1.34326,12.70579 4.578842,13.53569 0.43608,0.11169 1.207214,0.13947 3.884979,0.13947 h 3.340922 l 0.461651,0.29472 c 0.68664,0.43809 2.007388,1.79438 2.411507,2.47719 0.584496,0.98751 0.77238,1.71734 0.761262,2.95523 -0.01389,1.17545 -0.171071,1.92172 -0.715959,3.11075 z m -8.74982,-0.0899 c 1.986821,-0.10913 3.696958,-1.80759 3.696958,-3.89009 0,-1.04828 -0.346442,-1.87611 -1.116745,-2.66953 -0.507233,-0.52254 -0.856041,-0.74954 -1.531005,-0.9957 -0.396476,-0.14457 -0.681222,-0.17433 -1.432757,-0.15137 -0.82783,0.0255 -1.010574,0.0635 -1.55477,0.32162 -1.224582,0.58198 -2.11481,1.86063 -2.216118,3.1822 -0.156878,2.04936 1.209018,3.77124 3.290614,4.1489 0.290725,0.053 0.58005,0.0694 0.863823,0.0539 z"
       id="path10401-5-2-9"
       inkscape:connector-curvature="0" /><path
       style="fill:#92cddc;fill-opacity:1;stroke:#000000;stroke-width:1.13385832;stroke-miterlimit:4;stroke-dasharray:none;stroke-opacity:1"
       d="m 47.084347,142.41834 c -0.270019,0.52214 -0.676077,2.60308 -1.403433,7.14237 -0.628132,3.9189 -1.108822,7.33734 -1.069633,7.59589 0.06394,0.42205 0.450395,0.52979 3.78117,1.06296 2.040321,0.32661 3.908046,0.53683 4.149016,0.46698 0.241087,-0.07 0.490277,-0.2418 0.556427,-0.38194 0.373119,-0.7918 2.2699,-14.23307 2.059223,-14.59352 -0.19012,-0.32508 -1.061714,-0.54593 -3.920414,-0.99547 -2.021565,-0.31777 -3.842875,-0.51123 -4.045627,-0.42931 -0.03334,0.0142 -0.06808,0.0573 -0.107017,0.13181 z m 0.3851,2.56793 2.955983,0.45544 c 1.625362,0.24974 3.098698,0.49139 3.274214,0.53748 0.217758,0.057 0.0959,1.51081 -0.383704,4.57075 -0.927473,5.92294 -0.854931,5.60166 -1.246683,5.54364 -3.910546,-0.57918 -6.137086,-0.94836 -6.160017,-1.02215 -0.01511,-0.0507 0.329228,-2.3413 0.766409,-5.08901 z"
       id="path10401-6-9-8-1"
       inkscape:connector-curvature="0" /></g></g><text
   transform="matrix(1,0,0,-1,72.563,117.7056)"
   style="font-variant:normal;font-weight:normal;font-stretch:normal;font-size:12px;font-family:'Myriad Pro';-inkscape-font-specification:MyriadPro-Regular;writing-mode:lr-tb;fill:#231f20;fill-opacity:1;fill-rule:nonzero;stroke:none"
   id="text48"><tspan
     x="0 5.9879999 12 16.224001 21.996 24.804001 30.1068 36.118801 38.6628 42.466801 48.478802 55.234798 61.846802 67.858803 72.610802"
     y="0"
     sodipodi:role="line"
     id="tspan44">Service request</tspan><tspan
     x="163.67999 169.668 175.67999 179.90401 185.67599 188.48399 193.78799 199.8 202.34399 209.112 215.12399 221.952 224.784 231.28799 236.94 246.948 252.96001 259.5708"
     y="1.788"
     sodipodi:role="line"
     id="tspan46">Service deployment</tspan></text>

<g
   id="g50"><g
     id="g52"
     clip-path="url(#clipPath56)"><g
       id="g58"
       transform="translate(215.4932,93.7051)"><path
         d="M 0,0 C 11.343,0.466 22.685,-0.302 29.626,-1.451"
         style="fill:none;stroke:#231f20;stroke-width:2;stroke-linecap:butt;stroke-linejoin:miter;stroke-miterlimit:10;stroke-dasharray:none;stroke-opacity:1"
         id="path60"
         inkscape:connector-curvature="0" /></g><g
       id="g62"
       transform="translate(242.1807,87.7554)"><path
         d="M 0,0 9.729,2.184 2.975,9.519 Z"
         style="fill:#231f20;fill-opacity:1;fill-rule:nonzero;stroke:none"
         id="path64"
         inkscape:connector-curvature="0" /></g><g
       id="g66"
       transform="translate(377.5391,115.9922)"
       style="fill:#71adbd;fill-opacity:1;stroke:#000000;stroke-opacity:1;stroke-width:0.77475002;stroke-miterlimit:4;stroke-dasharray:none"><path
         d="M 0,0 C 0,1.205 -0.018,2.19 0.006,3.174 0.021,3.849 -0.422,4.183 -1.221,4.365 -1.865,4.513 -2.48,4.737 -3.109,4.932 -3.365,5.011 -3.615,5.102 -3.867,5.187 -3.889,4.956 -3.967,4.719 -3.924,4.495 -3.814,3.94 -3.506,3.455 -3.977,2.83 -4.199,2.536 -3.799,1.692 -3.35,1.423 -2.42,0.863 -1.271,0.519 0,0 m -0.248,-19.94 c -0.012,1.311 -0.951,2.389 -0.193,3.564 0.084,0.131 -0.164,0.508 -0.387,0.618 -0.887,0.438 -1.822,0.816 -2.725,1.208 -0.808,-0.546 -1.293,-2.942 -0.738,-3.539 0.119,-0.131 0.297,-0.239 0.475,-0.325 0.824,-0.403 1.65,-0.804 2.492,-1.183 0.312,-0.139 0.67,-0.216 1.076,-0.343 m 13.906,3.645 c 0.238,-2.059 0.385,-2.249 2.731,-2.939 0.824,-0.244 1.529,0.021 1.666,0.667 0.162,0.769 0.191,1.588 0.013,2.348 -0.06,0.265 -0.912,0.417 -1.394,0.63 -0.061,0.027 -0.059,0.144 -0.119,0.167 -0.742,0.276 -1.491,0.542 -2.237,0.812 -0.22,-0.562 -0.439,-1.123 -0.66,-1.685 m -32.664,-3.561 c 0.154,0.036 0.309,0.07 0.463,0.106 v 3.778 c -1.58,-0.458 -1.678,-0.411 -1.451,0.68 -0.83,0.309 -1.682,0.625 -2.678,0.995 v -3.079 c 0.277,-0.073 0.82,-0.159 0.815,-0.221 -0.112,-1.625 1.867,-1.543 2.851,-2.259 m -1.68,30.183 c 0.756,2.583 2.922,4.292 6.297,4.912 1.112,0.204 1.633,0.57 2.069,1.39 1.582,2.996 4.519,4.783 8.662,5.371 0.195,0.028 0.375,0.122 0.56,0.185 h 2.565 c 0.193,-0.059 0.381,-0.148 0.58,-0.171 2.588,-0.291 4.781,-1.185 6.537,-2.66 0.549,-0.461 0.984,-0.519 1.742,-0.353 2.383,0.523 4.682,0.043 5.858,-1.537 1.087,-1.463 2.455,-2.153 4.357,-2.802 3.609,-1.229 5.352,-4.431 4.441,-7.363 C 22.057,4.312 18.631,2.223 14.602,2.2 12.693,2.19 10.783,2.198 8.787,2.198 8.924,1.028 8.041,0.506 6.973,0.069 6.068,-0.3 5.24,-0.817 4.291,-1.07 2.205,-1.625 1.697,-2.74 2.063,-4.263 2.076,-4.322 2.131,-4.376 2.234,-4.54 c 0.389,0 0.848,0 1.307,0 4.525,0 9.051,0.011 13.574,-0.005 2.039,-0.007 3.108,-0.825 3.155,-2.343 0.015,-0.494 0.066,-0.992 0.005,-1.481 -0.078,-0.617 0.256,-0.952 0.948,-1.233 1.507,-0.612 2.963,-1.3 4.459,-1.933 0.955,-0.403 1.412,-0.974 1.386,-1.834 -0.047,-1.513 -0.047,-3.03 -0.006,-4.544 0.022,-0.852 -0.408,-1.424 -1.369,-1.842 -1.923,-0.834 -3.814,-1.711 -5.716,-2.572 h -1.026 c -1.992,0.887 -3.976,1.784 -5.978,2.654 -0.83,0.361 -1.223,0.86 -1.209,1.602 0.029,1.614 0.029,3.23 0,4.845 -0.014,0.738 0.347,1.252 1.193,1.604 1.162,0.486 2.25,1.099 3.461,1.49 1.641,0.529 2.293,1.313 2.086,2.716 -0.192,1.304 -0.236,1.478 -1.934,1.477 -4.441,-0.001 -8.884,-0.005 -13.328,-0.014 -0.369,0 -0.74,-0.038 -1.207,-0.064 0,-0.867 0.039,-1.655 -0.014,-2.44 -0.035,-0.527 0.18,-0.828 0.809,-1.083 1.584,-0.644 3.111,-1.372 4.68,-2.042 0.879,-0.375 1.261,-0.897 1.236,-1.685 -0.047,-1.548 -0.049,-3.099 0.012,-4.648 0.033,-0.856 -0.356,-1.427 -1.34,-1.839 -1.984,-0.831 -3.936,-1.712 -5.9,-2.573 h -0.77 c -1.961,0.859 -3.914,1.731 -5.889,2.571 -0.91,0.385 -1.375,0.902 -1.347,1.734 0.049,1.546 0.066,3.096 -0.006,4.641 -0.045,0.918 0.453,1.475 1.451,1.893 1.535,0.642 3.049,1.317 4.549,2.008 0.289,0.133 0.656,0.394 0.674,0.611 0.074,0.939 0.031,1.884 0.031,2.93 h -1.647 -11.646 c -3.17,0.001 -3.133,0 -3.147,-2.408 -0.003,-0.657 0.286,-1.014 1,-1.31 1.504,-0.619 2.958,-1.309 4.458,-1.933 0.882,-0.367 1.296,-0.874 1.277,-1.66 -0.039,-1.579 -0.041,-3.161 0.004,-4.74 0.023,-0.823 -0.403,-1.357 -1.324,-1.75 -1.971,-0.841 -3.915,-1.722 -5.87,-2.587 h -1.025 c -1.832,0.827 -3.637,1.691 -5.502,2.47 -1.105,0.461 -1.629,1.08 -1.6,2.05 0.047,1.482 0.051,2.967 0.008,4.449 -0.023,0.861 0.434,1.426 1.399,1.828 1.502,0.624 2.959,1.313 4.467,1.929 0.685,0.281 1.029,0.621 0.939,1.239 -0.066,0.456 -0.025,0.922 -0.018,1.384 0.028,1.587 1.098,2.43 3.182,2.436 4.951,0.015 9.904,0.005 15.057,0.005 0,0.756 0.056,1.469 -0.036,2.171 -0.027,0.218 -0.41,0.463 -0.705,0.598 -1.543,0.705 -3.097,1.393 -4.669,2.056 -0.92,0.388 -1.336,0.927 -1.311,1.754 0.049,1.582 0.033,3.165 -0.012,4.746 -0.021,0.747 0.356,1.258 1.178,1.618 1.781,0.78 3.514,1.637 5.355,2.32 0.622,0.23 1.631,0.221 2.256,-0.012 C 4.156,10.012 5.98,9.203 7.715,8.308 8.246,8.035 8.641,7.372 8.717,6.854 8.871,5.822 8.764,4.768 8.764,3.574 c 2.953,0.172 5.8,-0.384 8.498,0.481 3.611,1.157 5.127,4.58 3.297,7.217 -1.86,2.679 -6.254,3.582 -9.59,1.97 -0.182,-0.087 -0.336,-0.274 -0.512,-0.282 -0.455,-0.02 -0.916,0.035 -1.375,0.06 0.098,0.373 0.033,0.954 0.316,1.083 1.262,0.577 2.623,1.025 4.053,1.559 -0.492,1.028 -1.396,1.798 -2.988,2.024 C 8.916,17.904 7.709,17.463 6.723,16.583 6.502,16.386 6.414,16.064 6.154,15.938 5.811,15.771 5.248,15.582 4.98,15.692 c -0.263,0.111 -0.47,0.629 -0.363,0.882 0.209,0.484 0.656,0.905 1.006,1.353 -2.016,2.187 -5.957,3.26 -9.572,2.608 -3.352,-0.605 -6.371,-2.83 -6.846,-5.083 0.656,-0.182 1.334,-0.348 1.988,-0.559 0.635,-0.206 1.391,-0.446 1.006,-1.132 -0.387,-0.688 -1.084,-0.406 -1.74,-0.195 -3.744,1.198 -7.783,-0.12 -9.135,-2.967 -1.57,-3.303 1.621,-6.888 6.229,-6.99 0.982,-0.021 1.974,0.045 2.943,-0.043 0.35,-0.031 0.65,-0.397 0.973,-0.61 C -8.813,2.708 -9.078,2.254 -9.375,2.243 -12.371,2.126 -15.363,2.054 -17.85,3.747"
         style="fill:#71adbd;fill-opacity:1;fill-rule:evenodd;stroke:#000000;stroke-opacity:1;stroke-width:0.77475002;stroke-miterlimit:4;stroke-dasharray:none"
         id="path68"
         inkscape:connector-curvature="0" /></g><g
       id="g70"
       transform="translate(217.3115,109.8384)"><path
         d="M 0,0 H 139.386"
         style="fill:none;stroke:#231f20;stroke-width:2;stroke-linecap:butt;stroke-linejoin:miter;stroke-miterlimit:10;stroke-dasharray:none;stroke-opacity:1"
         id="path72"
         inkscape:connector-curvature="0" /></g><g
       id="g74"
       transform="translate(350.7871,106.6577)"><path
         d="M 0,0 -0.342,0.94 5.812,3.181 -0.342,5.421 0,6.36 8.736,3.181 Z"
         style="fill:#231f20;fill-opacity:1;fill-rule:nonzero;stroke:none"
         id="path76"
         inkscape:connector-curvature="0" /></g><path
       d="M 136.826,135.582 H 99.907 V 172.5 h 36.919 z"
       style="fill:#00adee;fill-opacity:0.60000002;fill-rule:nonzero;stroke:none"
       id="path78"
       inkscape:connector-curvature="0" /><path
       d="m 298.997,53.41 h -36.919 v 36.918 h 36.919 z"
       style="fill:#71adbd;fill-opacity:1;fill-rule:nonzero;stroke:none"
       id="path80"
       inkscape:connector-curvature="0" /><g
       id="g82"><g
         id="g84" /><g
         id="g94"><g
           clip-path="url(#clipPath88)"
           id="g92"
           style="opacity:0.60000598"><path
             d="M 38.912,33.895 H 19.635 v 19.277 h 19.277 z"
             style="fill:#00adef;fill-opacity:1;fill-rule:nonzero;stroke:none"
             id="path90"
             inkscape:connector-curvature="0" /></g></g></g><path
       style="fill:#000000;stroke-width:2.83464575"
       d="m 116.99549,144.01808 c -3.03245,0.84569 -5.01627,3.00455 -5.89504,6.41515 l -0.19928,0.77315 h -0.99864 c -1.07782,0 -1.07158,-0.008 -0.88132,1.13704 0.10828,0.65134 0.14541,0.68221 0.82083,0.68221 h 0.70752 v 0.90961 0.90961 h -0.82287 c -0.73683,0 -0.82097,0.0428 -0.80464,0.40932 0.0476,1.06691 0.23669,1.31514 1.07527,1.40993 0.78743,0.089 0.80932,0.10941 1.0279,0.96576 0.81731,3.20131 3.46745,5.66583 6.79235,6.31661 1.67575,0.328 4.30537,0.15591 5.48631,-0.35926 0.52801,-0.23017 0.96004,-0.48424 0.96004,-0.56435 0,-0.35238 -0.44011,-2.09863 -0.56514,-2.2424 -0.076,-0.0873 -0.37075,-0.001 -0.65509,0.19077 -0.82772,0.55981 -1.4889,0.78877 -2.61627,0.90598 -2.69285,0.28006 -5.15627,-1.13752 -6.32811,-3.64139 -0.78636,-1.68023 -1.07201,-1.57175 4.13858,-1.57175 h 4.57971 l -0.11395,-0.68222 c -0.0627,-0.37522 -0.14627,-0.78454 -0.18539,-0.9096 -0.0547,-0.17405 -1.14888,-0.22734 -4.65863,-0.22734 h -4.58722 l 0.0556,-0.86412 0.0556,-0.86414 4.35668,-0.0488 4.35665,-0.0488 -0.11877,-0.58794 c -0.27043,-1.33701 0.12557,-1.22462 -4.31311,-1.22462 h -4.01403 l 0.11509,-0.50032 c 0.41995,-1.82551 1.64134,-3.35039 3.35381,-4.18709 0.88109,-0.4305 1.24032,-0.49742 2.66992,-0.49742 1.47691,0 1.77228,0.0592 2.78858,0.56021 l 1.13675,0.56027 v -1.34272 -1.34269 l -0.68573,-0.29437 c -0.96769,-0.41542 -4.73845,-0.50553 -6.03416,-0.14429 z"
       id="path3232"
       inkscape:connector-curvature="0" /><path
       style="fill:#000000;stroke-width:2.83464575"
       d="m 280.61093,60.277887 c -3.03245,0.84569 -5.01627,3.00455 -5.89504,6.41515 l -0.19928,0.77315 h -0.99864 c -1.07782,0 -1.07158,-0.008 -0.88132,1.13704 0.10828,0.65134 0.14541,0.68221 0.82083,0.68221 h 0.70752 v 0.90961 0.90961 h -0.82287 c -0.73683,0 -0.82097,0.0428 -0.80464,0.40932 0.0476,1.06691 0.23669,1.31514 1.07527,1.40993 0.78743,0.089 0.80932,0.10941 1.0279,0.96576 0.81731,3.20131 3.46745,5.66583 6.79235,6.31661 1.67575,0.328 4.30537,0.15591 5.48631,-0.35926 0.52801,-0.23017 0.96004,-0.48424 0.96004,-0.56435 0,-0.35238 -0.44011,-2.09863 -0.56514,-2.2424 -0.076,-0.0873 -0.37075,-0.001 -0.65509,0.19077 -0.82772,0.55981 -1.4889,0.78877 -2.61627,0.90598 -2.69285,0.28006 -5.15627,-1.13752 -6.32811,-3.64139 -0.78636,-1.68023 -1.07201,-1.57175 4.13858,-1.57175 h 4.57971 l -0.11395,-0.68222 c -0.0627,-0.37522 -0.14627,-0.78454 -0.18539,-0.9096 -0.0547,-0.17405 -1.14888,-0.22734 -4.65863,-0.22734 h -4.58722 l 0.0556,-0.86412 0.0556,-0.86414 4.35668,-0.0488 4.35665,-0.0488 -0.11877,-0.58794 c -0.27043,-1.33701 0.12557,-1.22461 -4.31311,-1.22461 h -4.01403 l 0.11509,-0.50033 c 0.41995,-1.8255 1.64134,-3.35038 3.35381,-4.18708 0.88109,-0.4305 1.24032,-0.49742 2.66992,-0.49742 1.47691,0 1.77228,0.0592 2.78858,0.56021 l 1.13675,0.56027 v -1.34272 -1.34269 l -0.68573,-0.29437 c -0.96769,-0.41542 -4.73845,-0.50553 -6.03416,-0.14429 z"
       id="path3232-3"
       inkscape:connector-curvature="0" /><path
       style="fill:#000000;stroke-width:2.83464599"
       d="m 27.550818,36.372604 c -2.071214,0.57762 -3.426197,2.052158 -4.026411,4.381655 l -0.136112,0.528075 h -0.682088 c -0.736169,0 -0.731907,-0.0055 -0.601956,0.776617 0.07396,0.444876 0.09932,0.465961 0.56064,0.465961 h 0.483249 v 0.621279 0.621279 h -0.562035 c -0.503267,0 -0.560736,0.02923 -0.549582,0.279572 0.03251,0.728718 0.161663,0.898263 0.734427,0.963006 0.537828,0.06079 0.552779,0.07473 0.702073,0.65963 0.558237,2.186549 2.368327,3.869857 4.63929,4.314351 1.144565,0.22403 2.94064,0.106489 3.747241,-0.24538 0.36064,-0.15721 0.655724,-0.330745 0.655724,-0.385461 0,-0.240681 -0.300603,-1.4334 -0.386,-1.531597 -0.05191,-0.05963 -0.253229,-6.83e-4 -0.447438,0.130299 -0.565346,0.38236 -1.016943,0.538743 -1.786956,0.6188 -1.839262,0.191285 -3.521819,-0.776945 -4.322206,-2.487131 -0.537097,-1.147625 -0.7322,-1.073531 2.826721,-1.073531 h 3.128018 l -0.07783,-0.465968 c -0.04283,-0.256282 -0.0999,-0.535854 -0.126624,-0.621272 -0.03736,-0.118879 -0.784705,-0.155277 -3.181923,-0.155277 h -3.133148 l 0.03798,-0.590209 0.03798,-0.590222 2.975686,-0.03333 2.975665,-0.03333 -0.08112,-0.401573 c -0.184709,-0.913201 0.08577,-0.83643 -2.945926,-0.83643 h -2.74165 l 0.07861,-0.341733 c 0.286833,-1.246848 1.121063,-2.288366 2.290709,-2.859846 0.601799,-0.294039 0.847159,-0.339747 1.8236,-0.339747 1.008754,0 1.210497,0.04043 1.904647,0.382633 l 0.776419,0.382674 v -0.9171 -0.91708 l -0.468365,-0.20106 c -0.660948,-0.283739 -3.236441,-0.345285 -4.121432,-0.09855 z"
       id="path3232-6"
       inkscape:connector-curvature="0" /><path
       style="opacity:1;fill:#71adbd;fill-opacity:1;fill-rule:evenodd;stroke:#231f20;stroke-width:1.03299999;stroke-linecap:square;stroke-linejoin:round;stroke-miterlimit:4;stroke-dasharray:none;stroke-dashoffset:0;stroke-opacity:1;paint-order:stroke fill markers"
       d="m 227.64333,114.33889 c 0,-2.63845 0.52354,-9.48588 0.85452,-11.17627 1.2887,-6.581825 5.16631,-10.037993 15.42512,-13.748652 1.48825,-0.538308 2.86534,-0.978743 3.06019,-0.978743 0.19484,0 0.99691,0.338319 1.78236,0.751819 3.48712,1.83579 7.367,2.484694 11.33417,1.895626 2.15793,-0.320422 3.72211,-0.833945 5.80732,-1.90655 l 1.74884,-0.89958 2.5932,0.836244 c 6.51277,2.100214 10.545,4.353589 12.86422,7.189059 1.54788,1.89242 2.62897,4.314207 3.06267,6.860777 0.23374,1.37247 0.60592,6.05236 0.77579,9.75501 l 0.10274,2.23947 h -5.93022 -5.93022 l -0.27295,-0.87301 c -0.37797,-1.20898 -1.46905,-2.30005 -2.67802,-2.67803 -0.48016,-0.15012 -0.87302,-0.29214 -0.87302,-0.3156 0,-0.0235 0.18789,-0.3758 0.41753,-0.78297 0.34539,-0.61239 0.41747,-0.92396 0.41716,-1.80311 -6.1e-4,-1.5584 -0.38427,-2.23592 -2.41448,-4.26312 -1.34972,-1.34772 -1.83324,-1.73247 -2.43276,-1.93582 -1.1698,-0.39678 -2.31455,-0.33386 -3.3404,0.18358 l -0.86709,0.43738 -0.14119,-0.37134 c -0.0777,-0.20424 -0.14118,-0.43795 -0.14118,-0.51934 0,-0.63301 -1.15278,-1.9937 -2.12561,-2.50897 -0.77604,-0.411041 -5.05569,-0.49988 -6.33141,-0.131431 -1.19381,0.344791 -2.18752,1.352731 -2.56891,2.605661 -0.14829,0.48715 -0.28629,0.91026 -0.30668,0.94025 -0.0204,0.03 -0.2289,-0.0801 -0.46334,-0.24463 -1.03006,-0.72286 -2.86037,-0.84052 -4.07017,-0.26163 -0.73324,0.35086 -3.24377,2.73988 -3.8653,3.67822 -0.90526,1.36668 -0.93777,3.17069 -0.0806,4.46927 l 0.36954,0.5598 -0.80247,0.23328 c -0.44136,0.12831 -1.0373,0.39064 -1.32433,0.58296 -0.67997,0.45563 -1.48635,1.66637 -1.60532,2.41032 l -0.0941,0.58828 h -5.97783 -5.97784 z"
       id="path4149"
       inkscape:connector-curvature="0"
       transform="matrix(0.75000002,0,0,-0.75000002,0,180.865)" /><path
       style="opacity:1;fill:#71adbd;fill-opacity:1;fill-rule:evenodd;stroke:#231f20;stroke-width:1.03299999;stroke-linecap:square;stroke-linejoin:round;stroke-miterlimit:4;stroke-dasharray:none;stroke-dashoffset:0;stroke-opacity:1;paint-order:stroke fill markers"
       d="m 254.53419,83.655731 c -4.70824,-1.069468 -8.4435,-4.050053 -10.41034,-8.30704 -1.46924,-3.179978 -1.67656,-6.881652 -0.58084,-10.371023 2.12242,-6.758958 9.20863,-11.09017 16.15428,-9.873769 4.86095,0.851304 8.64092,3.717652 10.76655,8.164266 0.80049,1.674547 1.21614,3.343869 1.31832,5.2946 0.3599,6.871047 -3.86838,12.820122 -10.51418,14.793175 -1.71183,0.508223 -5.14357,0.661005 -6.73379,0.299791 z"
       id="path4151"
       inkscape:connector-curvature="0"
       transform="matrix(0.75000002,0,0,-0.75000002,0,180.865)" /></g></g><text
   transform="scale(0.99874406,-1.0012575)"
   style="font-variant:normal;font-weight:bold;font-stretch:normal;font-size:12.01519108px;font-family:'Segoe UI';-inkscape-font-specification:SegoeUI-Bold;writing-mode:lr-tb;fill:#231f20;fill-opacity:1;fill-rule:nonzero;stroke:none;stroke-width:0.99874407"
   id="text100"
   x="26.157001"
   y="-85.441742"><tspan
     sodipodi:role="line"
     id="tspan98"
     x="26.157001"
     y="-85.441742"
     style="stroke-width:0.99874407">USER</tspan></text>

<g
   id="g102"><g
     id="g104"
     clip-path="url(#clipPath108)"><g
       id="g110"
       transform="translate(230.623,45.1831)"><path
         d="M 0,0 H 104"
         style="fill:none;stroke:#231f20;stroke-width:4;stroke-linecap:butt;stroke-linejoin:miter;stroke-miterlimit:10;stroke-dasharray:none;stroke-opacity:1"
         id="path112"
         inkscape:connector-curvature="0" /></g><g
       id="g114"
       transform="translate(330.1504,16.6235)"><path
         d="m 0,0 c 0,-3.132 -3.131,-5.669 -6.994,-5.669 h -83.072 c -3.864,0 -6.995,2.537 -6.995,5.669 v 11.071 c 0,3.131 3.131,5.67 6.995,5.67 H -6.994 C -3.131,16.741 0,14.202 0,11.071 Z"
         style="fill:#231f20;fill-opacity:1;fill-rule:nonzero;stroke:none"
         id="path116"
         inkscape:connector-curvature="0" /></g><path
       d="m 326.244,14.531 h -88.826 v 15.667 h 88.826 z"
       style="fill:#ffffff;fill-opacity:1;fill-rule:nonzero;stroke:#231f20;stroke-width:1;stroke-linecap:butt;stroke-linejoin:miter;stroke-miterlimit:10;stroke-dasharray:none;stroke-opacity:1"
       id="path118"
       inkscape:connector-curvature="0" /></g></g><text
   transform="matrix(1,0,0,-1,241.6089,18.6631)"
   style="font-variant:normal;font-weight:bold;font-stretch:normal;font-size:12px;font-family:'Myriad Pro';-inkscape-font-specification:MyriadPro-Bold;writing-mode:lr-tb;fill:#231f20;fill-opacity:1;fill-rule:nonzero;stroke:none"
   id="text122"><tspan
     x="0 6.816 12.996 19.332001 23.76 30.096001 33.396 36.695999 39.119999 42.408001 49.439999 54.721199 61.645199 71.965202"
     y="0"
     sodipodi:role="line"
     id="tspan120">overall income</tspan></text>

<g
   id="g124"><g
     id="g126"
     clip-path="url(#clipPath130)"><g
       id="g132"
       transform="translate(275.7871,35.2046)"><path
         d="M 0,0 H 9.5"
         style="fill:none;stroke:#231f20;stroke-width:2;stroke-linecap:butt;stroke-linejoin:miter;stroke-miterlimit:10;stroke-dasharray:none;stroke-opacity:1"
         id="path134"
         inkscape:connector-curvature="0" /></g><g
       id="g136"
       transform="translate(275.7871,38.4976)"><path
         d="M 0,0 H 9.5"
         style="fill:none;stroke:#231f20;stroke-width:2;stroke-linecap:butt;stroke-linejoin:miter;stroke-miterlimit:10;stroke-dasharray:none;stroke-opacity:1"
         id="path138"
         inkscape:connector-curvature="0" /></g><g
       id="g140"
       transform="translate(275.7871,41.4136)"><path
         d="M 0,0 H 9.5"
         style="fill:none;stroke:#231f20;stroke-width:2;stroke-linecap:butt;stroke-linejoin:miter;stroke-miterlimit:10;stroke-dasharray:none;stroke-opacity:1"
         id="path142"
         inkscape:connector-curvature="0" /></g><g
       id="g144"
       transform="translate(139.9199,136.7036)"><path
         d="M 0,0 C 0,-2.249 -1.47,-4.072 -3.282,-4.072 H -40.15 c -1.813,0 -3.284,1.823 -3.284,4.072 v 34.734 c 0,2.248 1.471,4.072 3.284,4.072 H -3.282 C -1.47,38.806 0,36.982 0,34.734 Z"
         style="fill:none;stroke:#231f20;stroke-width:1;stroke-linecap:butt;stroke-linejoin:miter;stroke-miterlimit:10;stroke-dasharray:2;stroke-dashoffset:0;stroke-opacity:1"
         id="path146"
         inkscape:connector-curvature="0" /></g></g></g><text
   transform="matrix(0.99748967,0,0,-1,169.4409,66.272)"
   style="font-variant:normal;font-weight:bold;font-stretch:normal;font-size:12.03030014px;font-family:'Segoe UI';-inkscape-font-specification:SegoeUI-Bold;writing-mode:lr-tb;fill:#231f20;fill-opacity:1;fill-rule:nonzero;stroke:none"
   id="text154"><tspan
     x="0 6.7429833 13.143103 20.998888 29.023098 32.836704 40.343613"
     y="0"
     sodipodi:role="line"
     id="tspan148">SERVICE</tspan><tspan
     x="-6.2316952 1.1549088 8.8915949 18.010563 26.034773 29.848377 38.71471 45.114826"
     y="14.43636"
     sodipodi:role="line"
     id="tspan150">PROVIDER</tspan><tspan
     x="3.4526961 11.794506 20.348049 26.748169 36.252106"
     y="28.872721"
     sodipodi:role="line"
     id="tspan152">AGENT</tspan></text>

<text
   transform="matrix(1,0,0,-1,49.333,38.3618)"
   style="font-variant:normal;font-weight:normal;font-stretch:normal;font-size:12px;font-family:'Myriad Pro';-inkscape-font-specification:MyriadPro-Regular;writing-mode:lr-tb;fill:#231f20;fill-opacity:1;fill-rule:nonzero;stroke:none"
   id="text158"><tspan
     x="0 3.684 6.2280002 10.98 16.992001 21.2148 26.986799 29.7948 35.098801 41.110802 43.6548 50.4828 54.4548 57.262798 62.566799"
     y="0"
     sodipodi:role="line"
     id="tspan156">- service price</tspan></text>

<g
   id="g160"><g
     id="g162"
     clip-path="url(#clipPath166)"><path
       d="M 130.667,23.316 H 9 V 61.36 h 121.667 z"
       style="fill:none;stroke:#231f20;stroke-width:1;stroke-linecap:butt;stroke-linejoin:miter;stroke-miterlimit:10;stroke-dasharray:none;stroke-opacity:1"
       id="path168"
       inkscape:connector-curvature="0" /></g></g><g
   id="g170"><g
     id="g172"
     clip-path="url(#clipPath176)"><g
       id="g178"
       transform="translate(302.2539,54.5024)"><path
         d="M 0,0 C 0,-2.249 -1.471,-4.072 -3.282,-4.072 H -40.15 c -1.813,0 -3.284,1.823 -3.284,4.072 v 34.734 c 0,2.248 1.471,4.072 3.284,4.072 H -3.282 C -1.471,38.806 0,36.982 0,34.734 Z"
         style="fill:none;stroke:#231f20;stroke-width:1;stroke-linecap:butt;stroke-linejoin:miter;stroke-miterlimit:10;stroke-dasharray:2;stroke-dashoffset:0;stroke-opacity:1"
         id="path180"
         inkscape:connector-curvature="0" /></g><g
       id="g182"
       transform="translate(40.6128,34.4653)"><path
         d="m 0,0 c 0,-1.174 -0.768,-2.126 -1.714,-2.126 h -19.251 c -0.946,0 -1.714,0.952 -1.714,2.126 v 18.137 c 0,1.174 0.768,2.126 1.714,2.126 H -1.714 C -0.768,20.263 0,19.311 0,18.137 Z"
         style="fill:none;stroke:#231f20;stroke-width:1;stroke-linecap:butt;stroke-linejoin:miter;stroke-miterlimit:10;stroke-dasharray:2;stroke-dashoffset:0;stroke-opacity:1"
         id="path184"
         inkscape:connector-curvature="0" /></g></g></g><text
   y="-145.95558"
   x="37.776737"
   transform="scale(0.99874407,-1.0012575)"
   style="font-variant:normal;font-weight:bold;font-stretch:normal;font-size:12.01519108px;font-family:'Segoe UI';-inkscape-font-specification:SegoeUI-Bold;writing-mode:lr-tb;fill:#231f20;fill-opacity:1;fill-rule:nonzero;stroke:none;stroke-width:0.99874407"
   id="text100-8"><tspan
     style="stroke-width:0.99874407"
     sodipodi:role="line"
     id="tspan96-9"
     x="37.776737"
     y="-135.32495" /><tspan
     style="stroke-width:0.99874407"
     x="336.4744 342.61414 349.95544 355.72272 362.18689 365.59921"
     y="-146.17186"
     sodipodi:role="line"
     id="tspan98-7">Local operator</tspan></text>

</g></svg>