<?xml version="1.0" encoding="UTF-8" standalone="no"?>
<!-- Created with Inkscape (http://www.inkscape.org/) -->

<svg
   xmlns:dc="http://purl.org/dc/elements/1.1/"
   xmlns:cc="http://creativecommons.org/ns#"
   xmlns:rdf="http://www.w3.org/1999/02/22-rdf-syntax-ns#"
   xmlns:svg="http://www.w3.org/2000/svg"
   xmlns="http://www.w3.org/2000/svg"
   xmlns:sodipodi="http://sodipodi.sourceforge.net/DTD/sodipodi-0.dtd"
   xmlns:inkscape="http://www.inkscape.org/namespaces/inkscape"
   width="152.63879mm"
   height="91.350487mm"
   viewBox="0 0 152.63879 91.350487"
   version="1.1"
   id="svg10320"
   inkscape:version="0.92.4 (unknown)"
   sodipodi:docname="MMc-scaling.svg">
  <defs
     id="defs10314">
    <marker
       inkscape:isstock="true"
       style="overflow:visible"
       id="marker25551"
       refX="0"
       refY="0"
       orient="auto"
       inkscape:stockid="StopM">
      <path
         inkscape:connector-curvature="0"
         transform="scale(0.4)"
         style="fill:none;fill-opacity:0.75;fill-rule:evenodd;stroke:#000000;stroke-width:1.00000003pt;stroke-opacity:1"
         d="M 0,5.65 V -5.65"
         id="path25549" />
    </marker>
    <marker
       inkscape:stockid="Arrow2Lend"
       orient="auto"
       refY="0"
       refX="0"
       id="Arrow2Lend"
       style="overflow:visible"
       inkscape:isstock="true">
      <path
         id="path7111"
         style="fill:#000000;fill-opacity:1;fill-rule:evenodd;stroke:#000000;stroke-width:0.625;stroke-linejoin:round;stroke-opacity:1"
         d="M 8.7185878,4.0337352 -2.2072895,0.01601326 8.7185884,-4.0017078 c -1.7454984,2.3720609 -1.7354408,5.6174519 -6e-7,8.035443 z"
         transform="matrix(-1.1,0,0,-1.1,-1.1,0)"
         inkscape:connector-curvature="0" />
    </marker>
    <marker
       inkscape:stockid="Arrow1Lend"
       orient="auto"
       refY="0"
       refX="0"
       id="Arrow1Lend"
       style="overflow:visible"
       inkscape:isstock="true">
      <path
         id="path7093"
         d="M 0,0 5,-5 -12.5,0 5,5 Z"
         style="fill:#000000;fill-opacity:1;fill-rule:evenodd;stroke:#000000;stroke-width:1.00000003pt;stroke-opacity:1"
         transform="matrix(-0.8,0,0,-0.8,-10,0)"
         inkscape:connector-curvature="0" />
    </marker>
    <marker
       inkscape:stockid="Arrow2Mstart"
       orient="auto"
       refY="0"
       refX="0"
       id="marker8654-3-1-9-4-7"
       style="overflow:visible"
       inkscape:isstock="true">
      <path
         inkscape:connector-curvature="0"
         id="path8652-9-7-1-9-0"
         style="fill:#000000;fill-opacity:1;fill-rule:evenodd;stroke:#000000;stroke-width:0.625;stroke-linejoin:round;stroke-opacity:1"
         d="M 8.7185878,4.0337352 -2.2072895,0.01601326 8.7185884,-4.0017078 c -1.7454984,2.3720609 -1.7354408,5.6174519 -6e-7,8.035443 z"
         transform="scale(0.6)" />
    </marker>
    <marker
       inkscape:stockid="Arrow2Mstart"
       orient="auto"
       refY="0"
       refX="0"
       id="marker8654-3-1-2-8"
       style="overflow:visible"
       inkscape:isstock="true">
      <path
         inkscape:connector-curvature="0"
         id="path8652-9-7-5-1"
         style="fill:#000000;fill-opacity:1;fill-rule:evenodd;stroke:#000000;stroke-width:0.625;stroke-linejoin:round;stroke-opacity:1"
         d="M 8.7185878,4.0337352 -2.2072895,0.01601326 8.7185884,-4.0017078 c -1.7454984,2.3720609 -1.7354408,5.6174519 -6e-7,8.035443 z"
         transform="scale(0.6)" />
    </marker>
    <marker
       inkscape:stockid="Arrow2Mstart"
       orient="auto"
       refY="0"
       refX="0"
       id="marker8654-3-8-7-9"
       style="overflow:visible"
       inkscape:isstock="true">
      <path
         inkscape:connector-curvature="0"
         id="path8652-9-3-4-9"
         style="fill:#000000;fill-opacity:1;fill-rule:evenodd;stroke:#000000;stroke-width:0.625;stroke-linejoin:round;stroke-opacity:1"
         d="M 8.7185878,4.0337352 -2.2072895,0.01601326 8.7185884,-4.0017078 c -1.7454984,2.3720609 -1.7354408,5.6174519 -6e-7,8.035443 z"
         transform="scale(0.6)" />
    </marker>
    <marker
       inkscape:stockid="Arrow2Mstart"
       orient="auto"
       refY="0"
       refX="0"
       id="marker8654-3-9-7"
       style="overflow:visible"
       inkscape:isstock="true">
      <path
         inkscape:connector-curvature="0"
         id="path8652-9-9-8"
         style="fill:#000000;fill-opacity:1;fill-rule:evenodd;stroke:#000000;stroke-width:0.625;stroke-linejoin:round;stroke-opacity:1"
         d="M 8.7185878,4.0337352 -2.2072895,0.01601326 8.7185884,-4.0017078 c -1.7454984,2.3720609 -1.7354408,5.6174519 -6e-7,8.035443 z"
         transform="scale(0.6)" />
    </marker>
    <marker
       inkscape:stockid="StopM"
       orient="auto"
       refY="0"
       refX="0"
       id="StopM-1"
       style="overflow:visible"
       inkscape:isstock="true"
       inkscape:collect="always">
      <path
         id="path4848-7"
         d="M 0,5.65 V -5.65"
         style="fill:none;fill-opacity:0.75;fill-rule:evenodd;stroke:#000000;stroke-width:1.00000003pt;stroke-opacity:1"
         transform="scale(0.4)"
         inkscape:connector-curvature="0" />
    </marker>
    <marker
       inkscape:stockid="Arrow2Mend"
       orient="auto"
       refY="0"
       refX="0"
       id="marker11040-4"
       style="overflow:visible"
       inkscape:isstock="true"
       inkscape:collect="always">
      <path
         id="path11038-3"
         style="fill:#000000;fill-opacity:1;fill-rule:evenodd;stroke:#000000;stroke-width:0.625;stroke-linejoin:round;stroke-opacity:1"
         d="M 8.7185878,4.0337352 -2.2072895,0.01601326 8.7185884,-4.0017078 c -1.7454984,2.3720609 -1.7354408,5.6174519 -6e-7,8.035443 z"
         transform="scale(-0.6)"
         inkscape:connector-curvature="0" />
    </marker>
  </defs>
  <sodipodi:namedview
     id="base"
     pagecolor="#ffffff"
     bordercolor="#666666"
     borderopacity="1.0"
     inkscape:pageopacity="0.0"
     inkscape:pageshadow="2"
     inkscape:zoom="0.49497475"
     inkscape:cx="207.89304"
     inkscape:cy="4.674027"
     inkscape:document-units="mm"
     inkscape:current-layer="layer1"
     showgrid="false"
     fit-margin-top="0"
     fit-margin-left="0"
     fit-margin-right="0"
     fit-margin-bottom="0"
     inkscape:window-width="1368"
     inkscape:window-height="704"
     inkscape:window-x="0"
     inkscape:window-y="27"
     inkscape:window-maximized="1" />
  <metadata
     id="metadata10317">
    <rdf:RDF>
      <cc:Work
         rdf:about="">
        <dc:format>image/svg+xml</dc:format>
        <dc:type
           rdf:resource="http://purl.org/dc/dcmitype/StillImage" />
        <dc:title></dc:title>
      </cc:Work>
    </rdf:RDF>
  </metadata>
  <g
     inkscape:label="Capa 1"
     inkscape:groupmode="layer"
     id="layer1"
     transform="translate(-28.584339,-90.511432)">
    <path
       style="fill:#edfbff;fill-opacity:0.65709157;stroke:#000000;stroke-width:0.36500004;stroke-linecap:butt;stroke-linejoin:miter;stroke-miterlimit:4;stroke-dasharray:2.92000007, 0.36500001;stroke-dashoffset:0;stroke-opacity:1"
       d="m 62.531477,160.02139 c 0,15.79436 0,20.5997 0,20.5997 H 179.62814 V 95.576502 H 62.935261 V 124.1237"
       id="path12592"
       inkscape:connector-curvature="0"
       sodipodi:nodetypes="cccccc" />
    <text
       xml:space="preserve"
       style="font-style:italic;font-variant:normal;font-weight:normal;font-stretch:normal;font-size:4.93888903px;line-height:5px;font-family:Calibri;-inkscape-font-specification:'Calibri Italic';font-variant-ligatures:normal;font-variant-position:normal;font-variant-caps:normal;font-variant-numeric:normal;font-variant-alternates:normal;font-feature-settings:normal;text-indent:0;text-align:start;text-decoration:none;text-decoration-line:none;text-decoration-style:solid;text-decoration-color:#000000;letter-spacing:0px;word-spacing:0px;text-transform:none;writing-mode:lr-tb;direction:ltr;text-orientation:mixed;dominant-baseline:auto;baseline-shift:baseline;text-anchor:start;white-space:normal;shape-padding:0;opacity:1;vector-effect:none;fill:#000000;fill-opacity:1;stroke:none;stroke-width:0.26458332;stroke-linecap:butt;stroke-linejoin:miter;stroke-miterlimit:4;stroke-dasharray:none;stroke-dashoffset:0;stroke-opacity:1"
       x="62.376141"
       y="152.73288"
       id="text5208-4"><tspan
         sodipodi:role="line"
         x="62.376141"
         y="152.73288"
         style="font-style:italic;font-variant:normal;font-weight:normal;font-stretch:normal;font-size:4.93888903px;line-height:5px;font-family:Calibri;-inkscape-font-specification:'Calibri Italic';text-align:center;text-anchor:middle;stroke-width:0.26458332"
         id="tspan5218-7">Edge</tspan><tspan
         sodipodi:role="line"
         x="62.376141"
         y="157.73288"
         style="font-style:italic;font-variant:normal;font-weight:normal;font-stretch:normal;font-size:4.93888903px;line-height:5px;font-family:Calibri;-inkscape-font-specification:'Calibri Italic';text-align:center;text-anchor:middle;stroke-width:0.26458332"
         id="tspan5243">server</tspan></text>
    <rect
       ry="1.6546128"
       style="opacity:1;fill:#bce7f2;fill-opacity:1;fill-rule:evenodd;stroke:#040000;stroke-width:0.34999999;stroke-linecap:butt;stroke-linejoin:miter;stroke-miterlimit:4;stroke-dasharray:0.35000001, 0.35000001;stroke-dashoffset:0;stroke-opacity:1;paint-order:fill markers stroke"
       id="rect10423-0"
       width="20.337116"
       height="46.805206"
       x="136.74007"
       y="129.00063"
       rx="1.654613" />
    <rect
       ry="1.6546128"
       style="opacity:1;fill:#c9a4b0;fill-opacity:1;fill-rule:evenodd;stroke:#040000;stroke-width:0.34999999;stroke-linecap:butt;stroke-linejoin:miter;stroke-miterlimit:4;stroke-dasharray:0.35000001, 0.35000001;stroke-dashoffset:0;stroke-opacity:1;paint-order:fill markers stroke"
       id="rect10423-5-2"
       width="20.337112"
       height="22.588829"
       x="136.74007"
       y="103.76611"
       rx="1.6546128" />
    <path
       style="fill:#000000;stroke-width:1"
       d="m 141.17006,149.25788 v -0.98753 h -0.55703 -0.55704 l -0.019,-0.57605 -0.019,-0.57607 -0.9711,-0.0182 -0.97106,-0.0182 v -0.32566 -0.32566 l 0.97106,-0.0182 0.9711,-0.0182 0.0193,-0.51023 0.0193,-0.51022 h -0.9903 -0.99031 v -0.36209 -0.36208 h 0.99031 0.9903 l -0.0193,-0.51024 -0.0193,-0.51021 -0.9711,-0.0182 -0.97106,-0.0182 v -0.32566 -0.32565 l 0.97106,-0.0182 0.9711,-0.0182 0.0193,-0.51021 0.0193,-0.51022 h -0.9903 -0.99031 v -0.36209 -0.36211 h 0.99031 0.9903 l -0.0193,-0.51022 -0.0193,-0.51023 -0.9711,-0.0182 -0.97106,-0.0182 v -0.32566 -0.32566 l 0.97106,-0.0182 0.9711,-0.0182 0.0193,-0.51023 0.0193,-0.51022 h -0.9903 -0.99031 v -0.36209 -0.36209 h 0.99031 0.9903 l -0.0193,-0.51023 -0.0193,-0.51022 -0.9711,-0.0182 -0.97106,-0.0182 v -0.32566 -0.32564 l 0.97106,-0.0182 0.9711,-0.0182 0.019,-0.57605 0.019,-0.57607 h 0.55704 0.55703 v -0.98754 -0.98749 h 0.36212 0.36208 v 0.98749 0.98754 h 0.52669 0.52668 v -0.98754 -0.98749 h 0.32917 0.32919 v 0.98749 0.98754 h 0.52668 0.52667 v -0.98754 -0.98749 h 0.36211 0.36209 v 0.98749 0.98754 h 0.52669 0.52668 v -0.98754 -0.98749 h 0.32918 0.32918 v 0.98749 0.98754 h 0.52668 0.5267 v -0.98754 -0.98749 h 0.36208 0.36209 v 0.98749 0.98754 h 0.52669 0.52668 v -0.98754 -0.98749 h 0.32918 0.32918 v 0.98749 0.98754 h 0.52669 0.52669 v -0.98754 -0.98749 h 0.36208 0.36209 v 0.98749 0.98754 h 0.55703 0.55703 l 0.019,0.57607 0.019,0.57605 0.97106,0.0182 0.97108,0.0182 v 0.32564 0.32566 l -0.97108,0.0182 -0.97106,0.0182 -0.0193,0.51022 -0.0193,0.51023 h 0.99031 0.99029 v 0.36209 0.36208 h -0.99029 -0.99031 l 0.0193,0.51022 0.0193,0.51024 0.97106,0.0182 0.97108,0.0182 v 0.3274 0.32743 h -0.98752 -0.98753 v 0.52668 0.52668 h 0.98753 0.98752 v 0.36209 0.36209 h -0.98752 -0.98753 v 0.52668 0.52669 h 0.98753 0.98752 v 0.32917 0.32918 h -0.98752 -0.98753 v 0.52668 0.52667 h 0.98753 0.98752 v 0.36209 0.3621 h -0.99031 -0.99029 l 0.0193,0.51023 0.0193,0.51022 0.97107,0.0182 0.97106,0.0182 v 0.32742 0.3274 h -0.98752 -0.98754 v 0.59253 0.59251 h -0.55959 -0.5596 v 0.98753 0.98752 h -0.3621 -0.36209 v -0.98752 -0.98753 h -0.52666 -0.52668 v 0.98753 0.98752 h -0.32742 -0.3274 l -0.0182,-0.97106 -0.0182,-0.97108 -0.50847,-0.0193 -0.50843,-0.0193 -0.0182,0.97381 -0.0182,0.97379 -0.34563,0.02 -0.34564,0.02 v -0.99096 -0.99096 h -0.52667 -0.52669 v 0.98752 0.98752 h -0.32915 -0.32919 v -0.98752 -0.98752 h -0.5267 -0.52669 v 0.98752 0.98752 h -0.36209 -0.36208 v -0.98752 -0.98752 h -0.52669 -0.5267 v 0.98752 0.98752 h -0.32918 -0.32917 v -0.98752 -0.98752 h -0.52668 -0.52669 v 0.98752 0.98752 h -0.36211 -0.3621 z m 11.65288,-7.73563 v -6.02392 h -6.05685 -6.05688 v 6.02392 6.02392 h 6.05688 6.05685 z m -10.46782,5.3e-4 v -4.44437 h 4.41144 4.41145 l -0.017,4.42741 -0.017,4.4274 -4.39452,0.0169 -4.39452,0.0169 z m 8.09776,-5.3e-4 v -3.71968 h -3.68679 -3.68679 v 3.71968 3.71969 h 3.68679 3.68679 z"
       id="path4879"
       inkscape:connector-curvature="0" />
    <text
       y="143.04622"
       x="143.35121"
       style="font-style:italic;font-variant:normal;font-weight:normal;font-size:4.25097179px;font-family:Calibri;-inkscape-font-specification:'Calibri Italic';writing-mode:lr-tb;fill:#000000;fill-opacity:1;fill-rule:nonzero;stroke:none;stroke-width:0.35277775"
       id="text1066-1">
      <tspan
         style="font-style:italic;font-variant:normal;font-weight:bold;font-stretch:normal;font-size:3.88055563px;font-family:Calibri;-inkscape-font-specification:'Calibri Bold Italic';stroke-width:0.35277775"
         sodipodi:role="line"
         id="tspan1064-2"
         x="143.35121"
         y="143.04622">CPU</tspan>
    </text>
    <path
       style="opacity:1;fill:none;fill-opacity:1;fill-rule:evenodd;stroke:none;stroke-width:1.80000019;stroke-linecap:square;stroke-linejoin:miter;stroke-miterlimit:4;stroke-dasharray:none;stroke-dashoffset:0;stroke-opacity:0.37881512;paint-order:markers stroke fill"
       d="m 142.35717,141.44122 v -4.27632 h 4.44959 4.44958 l -0.17166,2.20498 c -0.0944,1.21273 -0.17237,3.13707 -0.17324,4.27631 l -0.002,2.07134 h -4.27608 -4.27635 z m 8.2854,0.13363 v -3.87541 h -3.87544 -3.87543 v 3.87541 3.87541 h 3.87543 3.87544 z"
       id="path4903"
       inkscape:connector-curvature="0" />
    <path
       style="opacity:1;fill:none;fill-opacity:1;fill-rule:evenodd;stroke:none;stroke-width:1.80000019;stroke-linecap:square;stroke-linejoin:miter;stroke-miterlimit:4;stroke-dasharray:none;stroke-dashoffset:0;stroke-opacity:0.37881512;paint-order:markers stroke fill"
       d="m 140.75254,141.51007 v -5.94675 h 6.01362 6.01358 v 5.94675 5.94675 h -6.01358 -6.01362 z m 10.42357,0 v -4.47677 h -4.40995 -4.40998 v 4.47677 4.47676 h 4.40998 4.40995 z"
       id="path4905"
       inkscape:connector-curvature="0" />
    <path
       style="opacity:1;fill:#000000;fill-opacity:1;fill-rule:evenodd;stroke:none;stroke-width:1.80000019;stroke-linecap:square;stroke-linejoin:miter;stroke-miterlimit:4;stroke-dasharray:none;stroke-dashoffset:0;stroke-opacity:0.37881512;paint-order:markers stroke fill"
       d="m 142.35618,141.51007 v -4.34313 h 4.43012 4.43013 l -0.0863,1.30294 c -0.0474,0.71661 -0.0866,2.67102 -0.087,4.34313 l -7.9e-4,3.04019 h -4.34315 -4.34315 z m 8.15177,0 v -3.80859 h -3.74179 -3.74182 v 3.80859 3.80859 h 3.74182 3.74179 z"
       id="path4907"
       inkscape:connector-curvature="0" />
    <path
       style="opacity:1;fill:#92cddc;fill-opacity:1;fill-rule:evenodd;stroke:none;stroke-width:1.80000019;stroke-linecap:square;stroke-linejoin:miter;stroke-miterlimit:4;stroke-dasharray:none;stroke-dashoffset:0;stroke-opacity:0.37881512;paint-order:markers stroke fill"
       d="m 140.75254,141.51007 v -5.94675 h 6.01362 6.01358 v 5.94675 5.94675 h -6.01358 -6.01362 z m 10.45014,0.10022 c 0.0221,-2.40709 0.0217,-4.42164 -10e-4,-4.47676 -0.0227,-0.0551 -2.02224,-0.10023 -4.44339,-0.10023 h -4.40202 v 4.47677 4.47676 h 4.40313 4.4031 z"
       id="path4911"
       inkscape:connector-curvature="0" />
    <path
       style="fill:#000000;stroke-width:1"
       d="m 141.17014,169.87904 v -0.98753 h -0.55703 -0.55704 l -0.019,-0.57605 -0.019,-0.57607 -0.97109,-0.0182 -0.97106,-0.0182 v -0.32566 -0.32565 l 0.97106,-0.0182 0.97109,-0.0182 0.0193,-0.51024 0.0193,-0.51021 h -0.99029 -0.99033 v -0.3621 -0.36209 h 0.99033 0.99028 l -0.0193,-0.51023 -0.0193,-0.51023 -0.97108,-0.0182 -0.97106,-0.0182 v -0.32566 -0.32566 l 0.97106,-0.0182 0.97108,-0.0182 0.0193,-0.51021 0.0193,-0.51022 h -0.99028 -0.99033 v -0.36209 -0.36211 h 0.99033 0.99028 l -0.0193,-0.51022 -0.0193,-0.51024 -0.97108,-0.0182 -0.97106,-0.0182 v -0.32566 -0.32566 l 0.97106,-0.0182 0.97108,-0.0182 0.0193,-0.51022 0.0193,-0.51022 h -0.99028 -0.99033 v -0.36209 -0.36209 h 0.99033 0.99028 l -0.0193,-0.51024 -0.0193,-0.51021 -0.97108,-0.0182 -0.97106,-0.0182 v -0.32566 -0.32565 l 0.97106,-0.0182 0.97108,-0.0182 0.019,-0.57606 0.019,-0.57606 h 0.55704 0.55704 v -0.98754 -0.98749 h 0.3621 0.36209 v 0.98749 0.98754 h 0.52668 0.52668 v -0.98754 -0.98749 h 0.32918 0.32918 v 0.98749 0.98754 h 0.52669 0.52668 v -0.98754 -0.98749 h 0.36209 0.3621 v 0.98749 0.98754 h 0.52668 0.52668 v -0.98754 -0.98749 h 0.3292 0.32916 v 0.98749 0.98754 h 0.52668 0.5267 v -0.98754 -0.98749 h 0.36208 0.3621 v 0.98749 0.98754 h 0.52668 0.52668 v -0.98754 -0.98749 h 0.3292 0.32916 v 0.98749 0.98754 h 0.52669 0.52669 v -0.98754 -0.98749 h 0.36208 0.36209 v 0.98749 0.98754 h 0.55704 0.55703 l 0.019,0.57606 0.019,0.57606 0.97106,0.0182 0.97108,0.0182 v 0.32565 0.32566 l -0.97108,0.0182 -0.97106,0.0182 -0.0193,0.51021 -0.0193,0.51024 h 0.99032 0.99028 v 0.36209 0.36209 h -0.99028 -0.99032 l 0.0193,0.51022 0.0193,0.51023 0.97106,0.0182 0.97108,0.0182 v 0.32741 0.32743 h -0.98752 -0.98752 v 0.52668 0.52668 h 0.98752 0.98752 v 0.36209 0.36209 h -0.98752 -0.98752 v 0.52668 0.52669 h 0.98752 0.98752 v 0.32917 0.32918 h -0.98752 -0.98752 v 0.52668 0.52668 h 0.98752 0.98752 v 0.36209 0.36209 h -0.99028 -0.99029 l 0.0193,0.51023 0.0193,0.51022 0.97106,0.0182 0.97106,0.0182 v 0.32742 0.3274 h -0.98752 -0.98753 v 0.59253 0.59251 h -0.5596 -0.55959 v 0.98753 0.98753 h -0.36211 -0.36209 v -0.98753 -0.98753 h -0.52669 -0.52668 v 0.98753 0.98753 h -0.32741 -0.3274 l -0.0182,-0.97107 -0.0182,-0.97107 -0.50848,-0.0193 -0.50843,-0.0193 -0.0182,0.97379 -0.0182,0.9738 -0.34563,0.02 -0.34564,0.02 v -0.99096 -0.99096 h -0.52673 -0.52668 v 0.98752 0.98753 h -0.32916 -0.32919 v -0.98753 -0.98752 h -0.52669 -0.52668 v 0.98752 0.98753 h -0.36209 -0.36209 v -0.98753 -0.98752 h -0.52669 -0.5267 v 0.98752 0.98753 h -0.32916 -0.32917 v -0.98753 -0.98752 h -0.52669 -0.52669 v 0.98752 0.98753 h -0.36208 -0.3621 z m 11.65288,-7.73563 v -6.02392 h -6.05685 -6.05687 v 6.02392 6.02392 h 6.05687 6.05685 z m -10.46783,5.3e-4 v -4.44437 h 4.41144 4.41146 l -0.017,4.42742 -0.017,4.4274 -4.39452,0.0169 -4.39452,0.0169 z m 8.09777,-5.3e-4 v -3.71968 h -3.68679 -3.6868 v 3.71968 3.71969 h 3.6868 3.68679 z"
       id="path4879-7"
       inkscape:connector-curvature="0" />
    <text
       y="163.66731"
       x="143.35126"
       style="font-style:italic;font-variant:normal;font-weight:normal;font-size:4.25097179px;font-family:Calibri;-inkscape-font-specification:'Calibri Italic';writing-mode:lr-tb;fill:#000000;fill-opacity:1;fill-rule:nonzero;stroke:none;stroke-width:0.35277775"
       id="text1066-1-0">
      <tspan
         style="font-style:italic;font-variant:normal;font-weight:bold;font-stretch:normal;font-size:3.88055563px;font-family:Calibri;-inkscape-font-specification:'Calibri Bold Italic';stroke-width:0.35277775"
         sodipodi:role="line"
         id="tspan1064-2-9"
         x="143.35126"
         y="163.66731">CPU</tspan>
    </text>
    <path
       style="opacity:1;fill:none;fill-opacity:1;fill-rule:evenodd;stroke:none;stroke-width:1.80000019;stroke-linecap:square;stroke-linejoin:miter;stroke-miterlimit:4;stroke-dasharray:none;stroke-dashoffset:0;stroke-opacity:0.37881512;paint-order:markers stroke fill"
       d="m 142.35724,162.06238 v -4.27632 h 4.4496 4.44958 l -0.17166,2.20498 c -0.0944,1.21273 -0.17236,3.13707 -0.17324,4.27631 l -0.002,2.07134 h -4.27608 -4.27635 z m 8.28541,0.13363 v -3.87541 h -3.87544 -3.87544 v 3.87541 3.87541 h 3.87544 3.87544 z"
       id="path4903-3"
       inkscape:connector-curvature="0" />
    <path
       style="opacity:1;fill:none;fill-opacity:1;fill-rule:evenodd;stroke:none;stroke-width:1.80000019;stroke-linecap:square;stroke-linejoin:miter;stroke-miterlimit:4;stroke-dasharray:none;stroke-dashoffset:0;stroke-opacity:0.37881512;paint-order:markers stroke fill"
       d="m 140.75262,162.13123 v -5.94675 h 6.01362 6.01357 v 5.94675 5.94675 h -6.01357 -6.01362 z m 10.42357,0 v -4.47677 h -4.40995 -4.40998 v 4.47677 4.47676 h 4.40998 4.40995 z"
       id="path4905-6"
       inkscape:connector-curvature="0" />
    <path
       style="opacity:1;fill:#000000;fill-opacity:1;fill-rule:evenodd;stroke:none;stroke-width:1.80000019;stroke-linecap:square;stroke-linejoin:miter;stroke-miterlimit:4;stroke-dasharray:none;stroke-dashoffset:0;stroke-opacity:0.37881512;paint-order:markers stroke fill"
       d="m 142.35626,162.13123 v -4.34313 h 4.43013 4.43012 l -0.0863,1.30294 c -0.0474,0.71661 -0.0866,2.67102 -0.087,4.34313 l -7.9e-4,3.04019 h -4.34314 -4.34316 z m 8.15177,0 v -3.80859 h -3.74179 -3.74181 v 3.80859 3.80859 h 3.74181 3.74179 z"
       id="path4907-0"
       inkscape:connector-curvature="0" />
    <path
       style="opacity:1;fill:#92cddc;fill-opacity:1;fill-rule:evenodd;stroke:none;stroke-width:1.80000019;stroke-linecap:square;stroke-linejoin:miter;stroke-miterlimit:4;stroke-dasharray:none;stroke-dashoffset:0;stroke-opacity:0.37881512;paint-order:markers stroke fill"
       d="m 140.75262,162.13123 v -5.94675 h 6.01362 6.01357 v 5.94675 5.94675 h -6.01357 -6.01362 z m 10.45014,0.10022 c 0.0221,-2.40709 0.0217,-4.42164 -0.001,-4.47676 -0.0227,-0.0551 -2.02224,-0.10023 -4.44338,-0.10023 h -4.40202 v 4.47677 4.47676 h 4.40312 4.40311 z"
       id="path4911-6"
       inkscape:connector-curvature="0" />
    <path
       style="fill:#000000;stroke-width:1"
       d="m 141.17036,122.89616 v -0.98753 h -0.55703 -0.55704 l -0.019,-0.57605 -0.019,-0.57607 -0.9711,-0.0182 -0.97107,-0.0182 v -0.32566 -0.32566 l 0.97107,-0.0182 0.9711,-0.0182 0.0193,-0.51022 0.0193,-0.51023 h -0.99031 -0.9903 v -0.36208 -0.36209 h 0.9903 0.99031 l -0.0193,-0.51024 -0.0193,-0.51021 -0.9711,-0.0182 -0.97107,-0.0182 v -0.32565 -0.32565 l 0.97107,-0.0182 0.9711,-0.0182 0.0193,-0.51021 0.0193,-0.51022 h -0.99032 -0.99031 v -0.36209 -0.36211 h 0.99031 0.9903 l -0.0193,-0.51022 -0.0193,-0.51023 -0.97108,-0.0182 -0.97107,-0.0182 v -0.32568 -0.32566 l 0.97107,-0.0182 0.97108,-0.0182 0.0193,-0.51023 0.0193,-0.51022 h -0.9903 -0.99031 v -0.3621 -0.36209 h 0.99031 0.9903 l -0.0193,-0.51023 -0.0193,-0.51022 -0.97108,-0.0182 -0.97107,-0.0182 v -0.32566 -0.32565 l 0.97107,-0.0182 0.97108,-0.0182 0.019,-0.57605 0.019,-0.57607 h 0.55706 0.55703 v -0.98755 -0.9875 h 0.36209 0.36209 v 0.9875 0.98753 h 0.52668 0.52669 v -0.98753 -0.9875 h 0.32917 0.32919 v 0.9875 0.98753 h 0.52668 0.52669 v -0.98753 -0.9875 h 0.36209 0.36209 v 0.9875 0.98753 h 0.52668 0.52669 v -0.98753 -0.9875 h 0.3292 0.32916 v 0.9875 0.98753 h 0.52668 0.52669 v -0.98753 -0.9875 h 0.36209 0.36209 v 0.9875 0.98753 h 0.52668 0.52669 v -0.98753 -0.9875 h 0.3292 0.32916 v 0.9875 0.98753 h 0.52668 0.52669 v -0.98753 -0.9875 h 0.36209 0.36208 v 0.9875 0.98753 h 0.55704 0.55703 l 0.019,0.57607 0.019,0.57605 0.97106,0.0182 0.97108,0.0182 v 0.32565 0.32566 l -0.97108,0.0182 -0.97106,0.0182 -0.0193,0.51022 -0.0193,0.51023 h 0.99031 0.99029 v 0.36209 0.36209 h -0.99029 -0.99031 l 0.0193,0.51022 0.0193,0.51023 0.97106,0.0182 0.97108,0.0182 v 0.32741 0.32742 h -0.98752 -0.98753 v 0.52668 0.52669 h 0.98753 0.98752 v 0.36209 0.36208 h -0.98752 -0.98753 v 0.52668 0.52669 h 0.98753 0.98752 v 0.32917 0.32919 h -0.98752 -0.98753 v 0.52667 0.52667 h 0.98753 0.98752 v 0.36209 0.3621 h -0.9903 -0.99029 l 0.0193,0.51024 0.0193,0.51021 0.97107,0.0182 0.97106,0.0182 v 0.32742 0.32741 h -0.98752 -0.98754 v 0.59253 0.59251 h -0.5596 -0.5596 v 0.98754 0.98751 h -0.3621 -0.36209 v -0.98749 -0.98754 h -0.52669 -0.52668 v 0.98754 0.98752 h -0.32742 -0.3274 l -0.0182,-0.97105 -0.0182,-0.97109 -0.50847,-0.0193 -0.50842,-0.0193 -0.0182,0.97381 -0.0182,0.97379 -0.34563,0.02 -0.34564,0.02 v -0.99096 -0.99096 h -0.52671 -0.52668 v 0.98752 0.98753 h -0.32916 -0.32919 v -0.98753 -0.98752 h -0.52668 -0.52668 v 0.98752 0.98753 h -0.36209 -0.36209 v -0.98753 -0.98752 h -0.52669 -0.5267 v 0.98752 0.98753 h -0.32916 -0.32917 v -0.98753 -0.98752 h -0.52669 -0.52669 v 0.98752 0.98753 h -0.36208 -0.3621 z m 11.65288,-7.73563 v -6.02392 h -6.05685 -6.05689 v 6.02392 6.02392 h 6.05689 6.05685 z m -10.46783,5.3e-4 v -4.44434 h 4.41143 4.41145 l -0.017,4.42741 -0.017,4.4274 -4.39452,0.0169 -4.39452,0.0169 z m 8.09775,-5.3e-4 v -3.71968 h -3.68677 -3.68681 v 3.71968 3.71969 h 3.68681 3.68677 z"
       id="path4879-7-2"
       inkscape:connector-curvature="0" />
    <text
       y="116.68449"
       x="143.35141"
       style="font-style:italic;font-variant:normal;font-weight:normal;font-size:4.25097179px;font-family:Calibri;-inkscape-font-specification:'Calibri Italic';writing-mode:lr-tb;fill:#000000;fill-opacity:1;fill-rule:nonzero;stroke:none;stroke-width:0.35277775"
       id="text1066-1-0-6">
      <tspan
         style="font-style:italic;font-variant:normal;font-weight:bold;font-stretch:normal;font-size:3.88055563px;font-family:Calibri;-inkscape-font-specification:'Calibri Bold Italic';stroke-width:0.35277775"
         sodipodi:role="line"
         id="tspan1064-2-9-1"
         x="143.35141"
         y="116.68449">CPU</tspan>
    </text>
    <path
       style="opacity:1;fill:none;fill-opacity:1;fill-rule:evenodd;stroke:none;stroke-width:1.80000019;stroke-linecap:square;stroke-linejoin:miter;stroke-miterlimit:4;stroke-dasharray:none;stroke-dashoffset:0;stroke-opacity:0.37881512;paint-order:markers stroke fill"
       d="m 142.35745,115.0795 v -4.27632 h 4.44959 4.44958 l -0.17164,2.20498 c -0.0944,1.21273 -0.17237,3.13707 -0.17326,4.27631 l -0.002,2.07134 h -4.27607 -4.27634 z m 8.2854,0.13363 v -3.87541 h -3.87542 -3.87545 v 3.87541 3.87541 h 3.87545 3.87542 z"
       id="path4903-3-8"
       inkscape:connector-curvature="0" />
    <path
       style="opacity:1;fill:none;fill-opacity:1;fill-rule:evenodd;stroke:none;stroke-width:1.80000019;stroke-linecap:square;stroke-linejoin:miter;stroke-miterlimit:4;stroke-dasharray:none;stroke-dashoffset:0;stroke-opacity:0.37881512;paint-order:markers stroke fill"
       d="m 140.75284,115.14835 v -5.94675 h 6.0136 6.01358 v 5.94675 5.94675 h -6.01358 -6.0136 z m 10.42357,0 v -4.47677 h -4.40997 -4.40998 v 4.47677 4.47676 h 4.40998 4.40997 z"
       id="path4905-6-7"
       inkscape:connector-curvature="0" />
    <path
       style="opacity:1;fill:#000000;fill-opacity:1;fill-rule:evenodd;stroke:none;stroke-width:1.80000019;stroke-linecap:square;stroke-linejoin:miter;stroke-miterlimit:4;stroke-dasharray:none;stroke-dashoffset:0;stroke-opacity:0.37881512;paint-order:markers stroke fill"
       d="m 142.35646,115.14835 v -4.34313 h 4.43013 4.43012 l -0.0863,1.30294 c -0.0474,0.71661 -0.0866,2.67102 -0.087,4.34313 l -7.9e-4,3.04019 h -4.34314 -4.34316 z m 8.15177,0 v -3.80859 h -3.74179 -3.7418 v 3.80859 3.80859 h 3.7418 3.74179 z"
       id="path4907-0-9"
       inkscape:connector-curvature="0" />
    <path
       style="opacity:1;fill:#a76d7f;fill-opacity:1;fill-rule:evenodd;stroke:none;stroke-width:1.80000019;stroke-linecap:square;stroke-linejoin:miter;stroke-miterlimit:4;stroke-dasharray:none;stroke-dashoffset:0;stroke-opacity:0.37881512;paint-order:markers stroke fill"
       d="m 140.75284,115.14835 v -5.94675 h 6.0136 6.01358 v 5.94675 5.94675 h -6.01358 -6.0136 z m 10.45012,0.10022 c 0.0221,-2.40709 0.0217,-4.42164 -10e-4,-4.47676 -0.0227,-0.0551 -2.02223,-0.10023 -4.44337,-0.10023 h -4.40202 v 4.47677 4.47676 h 4.40311 4.40311 z"
       id="path4911-6-2"
       inkscape:connector-curvature="0" />
    <path
       style="fill:none;stroke:#000000;stroke-width:0.56500006;stroke-linecap:butt;stroke-linejoin:miter;stroke-miterlimit:4;stroke-dasharray:none;stroke-opacity:1;marker-start:url(#StopM-1);marker-end:url(#marker11040-4)"
       d="M 161.59727,126.19577 V 107.09355"
       id="path11919-1"
       inkscape:connector-curvature="0" />
    <text
       xml:space="preserve"
       style="font-style:italic;font-variant:normal;font-weight:normal;font-stretch:normal;font-size:4.93888903px;line-height:5px;font-family:Calibri;-inkscape-font-specification:'Calibri Italic';font-variant-ligatures:normal;font-variant-position:normal;font-variant-caps:normal;font-variant-numeric:normal;font-variant-alternates:normal;font-feature-settings:normal;text-indent:0;text-align:start;text-decoration:none;text-decoration-line:none;text-decoration-style:solid;text-decoration-color:#000000;letter-spacing:0px;word-spacing:0px;text-transform:none;writing-mode:lr-tb;direction:ltr;text-orientation:mixed;dominant-baseline:auto;baseline-shift:baseline;text-anchor:start;white-space:normal;shape-padding:0;opacity:1;vector-effect:none;fill:#000000;fill-opacity:1;stroke:none;stroke-width:0.26458332;stroke-linecap:butt;stroke-linejoin:miter;stroke-miterlimit:4;stroke-dasharray:none;stroke-dashoffset:0;stroke-opacity:1"
       x="117.67336"
       y="-163.52913"
       id="text5208-46"
       transform="rotate(90)"><tspan
         sodipodi:role="line"
         x="117.67336"
         y="-163.52913"
         style="font-style:italic;font-variant:normal;font-weight:normal;font-stretch:normal;font-size:4.93888903px;line-height:5px;font-family:Calibri;-inkscape-font-specification:'Calibri Italic';text-align:center;text-anchor:middle;stroke-width:0.26458332"
         id="tspan8251">Scale</tspan></text>
    <rect
       style="opacity:1;fill:#4bacc6;fill-opacity:1;fill-rule:evenodd;stroke:#000000;stroke-width:0.26499999;stroke-linecap:butt;stroke-linejoin:miter;stroke-miterlimit:4;stroke-dasharray:none;stroke-dashoffset:0;stroke-opacity:1;paint-order:fill markers stroke"
       id="rect4593-5-6-2-1-0-8"
       width="2.2678568"
       height="2.2678568"
       x="161.77876"
       y="-133.68404"
       rx="0.097660154"
       ry="0.20249146"
       transform="rotate(90)" />
    <rect
       style="opacity:1;fill:#4bacc6;fill-opacity:1;fill-rule:evenodd;stroke:#000000;stroke-width:0.26499999;stroke-linecap:butt;stroke-linejoin:miter;stroke-miterlimit:4;stroke-dasharray:none;stroke-dashoffset:0;stroke-opacity:1;paint-order:fill markers stroke"
       id="rect4593-5-6-2-1-0-4-8"
       width="2.2678568"
       height="2.2678568"
       x="157.9234"
       y="-133.68404"
       rx="0.097660154"
       ry="0.20249146"
       transform="rotate(90)" />
    <rect
       style="opacity:1;fill:#4bacc6;fill-opacity:1;fill-rule:evenodd;stroke:#000000;stroke-width:0.26499999;stroke-linecap:butt;stroke-linejoin:miter;stroke-miterlimit:4;stroke-dasharray:none;stroke-dashoffset:0;stroke-opacity:1;paint-order:fill markers stroke"
       id="rect4593-5-6-2-1-0-2-9"
       width="2.2678568"
       height="2.2678568"
       x="144.1651"
       y="-133.68404"
       rx="0.097660154"
       ry="0.20249146"
       transform="rotate(90)" />
    <rect
       style="opacity:1;fill:#4bacc6;fill-opacity:1;fill-rule:evenodd;stroke:#000000;stroke-width:0.26499999;stroke-linecap:butt;stroke-linejoin:miter;stroke-miterlimit:4;stroke-dasharray:none;stroke-dashoffset:0;stroke-opacity:1;paint-order:fill markers stroke"
       id="rect4593-5-6-2-1-0-4-2-28"
       width="2.2678568"
       height="2.2678568"
       x="140.30975"
       y="-133.68404"
       rx="0.097660154"
       ry="0.20249146"
       transform="rotate(90)" />
    <rect
       style="opacity:1;fill:#4bacc6;fill-opacity:1;fill-rule:evenodd;stroke:#000000;stroke-width:0.26499999;stroke-linecap:butt;stroke-linejoin:miter;stroke-miterlimit:4;stroke-dasharray:none;stroke-dashoffset:0;stroke-opacity:1;paint-order:fill markers stroke"
       id="rect4593-5-6-2-1-0-4-2-2-8"
       width="2.2678568"
       height="2.2678568"
       x="136.98355"
       y="-133.68404"
       rx="0.097660154"
       ry="0.20249146"
       transform="rotate(90)" />
    <rect
       style="opacity:1;fill:#4bacc6;fill-opacity:1;fill-rule:evenodd;stroke:#000000;stroke-width:0.26499999;stroke-linecap:butt;stroke-linejoin:miter;stroke-miterlimit:4;stroke-dasharray:none;stroke-dashoffset:0;stroke-opacity:1;paint-order:fill markers stroke"
       id="rect4593-5-6-2-1-0-4-0-8"
       width="2.2678568"
       height="2.2678568"
       x="165.10497"
       y="-133.68404"
       rx="0.097660154"
       ry="0.20249146"
       transform="rotate(90)" />
    <rect
       style="opacity:1;fill:#a76d7f;fill-opacity:1;fill-rule:evenodd;stroke:#000000;stroke-width:0.26499999;stroke-linecap:butt;stroke-linejoin:miter;stroke-miterlimit:4;stroke-dasharray:none;stroke-dashoffset:0;stroke-opacity:1;paint-order:fill markers stroke"
       id="rect4593-5-6-2-1-0-5-6"
       width="2.2678568"
       height="2.2678568"
       x="114.98528"
       y="-133.68404"
       rx="0.097660154"
       ry="0.20249146"
       transform="rotate(90)" />
    <rect
       style="opacity:1;fill:#a76d7f;fill-opacity:1;fill-rule:evenodd;stroke:#000000;stroke-width:0.26499999;stroke-linecap:butt;stroke-linejoin:miter;stroke-miterlimit:4;stroke-dasharray:none;stroke-dashoffset:0;stroke-opacity:1;paint-order:fill markers stroke"
       id="rect4593-5-6-2-1-0-4-5-8"
       width="2.2678568"
       height="2.2678568"
       x="111.12988"
       y="-133.68404"
       rx="0.097660154"
       ry="0.20249146"
       transform="rotate(90)" />
    <rect
       style="opacity:1;fill:#a76d7f;fill-opacity:1;fill-rule:evenodd;stroke:#000000;stroke-width:0.26499999;stroke-linecap:butt;stroke-linejoin:miter;stroke-miterlimit:4;stroke-dasharray:none;stroke-dashoffset:0;stroke-opacity:1;paint-order:fill markers stroke"
       id="rect4593-5-6-2-1-0-4-0-2-3"
       width="2.2678568"
       height="2.2678568"
       x="118.31152"
       y="-133.68404"
       rx="0.097660154"
       ry="0.20249146"
       transform="rotate(90)" />
    <rect
       style="opacity:1;fill:#e9f3f6;fill-opacity:1;fill-rule:evenodd;stroke:#040000;stroke-width:0.40000001;stroke-linecap:square;stroke-linejoin:miter;stroke-miterlimit:4;stroke-dasharray:none;stroke-dashoffset:0;stroke-opacity:1;paint-order:markers stroke fill"
       id="rect10139"
       width="32.440498"
       height="8.3840494"
       x="82.04261"
       y="137.66393"
       rx="0"
       ry="0" />
    <rect
       style="opacity:1;fill:#4bacc6;fill-opacity:1;fill-rule:evenodd;stroke:#000000;stroke-width:0.26499999;stroke-linecap:butt;stroke-linejoin:miter;stroke-miterlimit:4;stroke-dasharray:none;stroke-dashoffset:0;stroke-opacity:1;paint-order:fill markers stroke"
       id="rect4593-5-6-2-1-0-4-0-9-5-7"
       width="1.508569"
       height="1.7316384"
       x="112.21783"
       y="141.1777"
       rx="0.097660154"
       ry="0.20249152" />
    <path
       style="fill:none;stroke:#000000;stroke-width:0.26458332px;stroke-linecap:butt;stroke-linejoin:miter;stroke-opacity:1"
       d="m 111.22659,137.60494 v 8.51459"
       id="path10184"
       inkscape:connector-curvature="0" />
    <rect
       style="opacity:1;fill:#4bacc6;fill-opacity:1;fill-rule:evenodd;stroke:#000000;stroke-width:0.26499999;stroke-linecap:butt;stroke-linejoin:miter;stroke-miterlimit:4;stroke-dasharray:none;stroke-dashoffset:0;stroke-opacity:1;paint-order:fill markers stroke"
       id="rect4593-5-6-2-1-0-4-0-9-5-7-5"
       width="1.508569"
       height="1.7316384"
       x="108.5926"
       y="141.1777"
       rx="0.097660154"
       ry="0.20249152" />
    <path
       style="fill:none;stroke:#000000;stroke-width:0.26458332px;stroke-linecap:butt;stroke-linejoin:miter;stroke-opacity:1"
       d="m 107.60133,137.60494 v 8.51459"
       id="path10184-8"
       inkscape:connector-curvature="0" />
    <rect
       style="opacity:1;fill:#4bacc6;fill-opacity:1;fill-rule:evenodd;stroke:#000000;stroke-width:0.26499999;stroke-linecap:butt;stroke-linejoin:miter;stroke-miterlimit:4;stroke-dasharray:none;stroke-dashoffset:0;stroke-opacity:1;paint-order:fill markers stroke"
       id="rect4593-5-6-2-1-0-4-0-9-5-7-7"
       width="1.508569"
       height="1.7316384"
       x="104.96741"
       y="141.1777"
       rx="0.097660154"
       ry="0.20249152" />
    <path
       style="fill:none;stroke:#000000;stroke-width:0.26458332px;stroke-linecap:butt;stroke-linejoin:miter;stroke-opacity:1"
       d="m 103.97613,137.60495 v 8.51459"
       id="path10184-9"
       inkscape:connector-curvature="0" />
    <rect
       style="opacity:1;fill:#4bacc6;fill-opacity:1;fill-rule:evenodd;stroke:#000000;stroke-width:0.26499999;stroke-linecap:butt;stroke-linejoin:miter;stroke-miterlimit:4;stroke-dasharray:none;stroke-dashoffset:0;stroke-opacity:1;paint-order:fill markers stroke"
       id="rect4593-5-6-2-1-0-4-0-9-5-7-6"
       width="1.508569"
       height="1.7316384"
       x="101.34217"
       y="141.1777"
       rx="0.097660154"
       ry="0.20249152" />
    <path
       style="fill:none;stroke:#000000;stroke-width:0.26458332px;stroke-linecap:butt;stroke-linejoin:miter;stroke-opacity:1"
       d="m 100.35088,137.60494 v 8.51459"
       id="path10184-0"
       inkscape:connector-curvature="0" />
    <rect
       style="opacity:1;fill:#4bacc6;fill-opacity:1;fill-rule:evenodd;stroke:#000000;stroke-width:0.26499999;stroke-linecap:butt;stroke-linejoin:miter;stroke-miterlimit:4;stroke-dasharray:none;stroke-dashoffset:0;stroke-opacity:1;paint-order:fill markers stroke"
       id="rect4593-5-6-2-1-0-4-0-9-5-7-4"
       width="1.508569"
       height="1.7316384"
       x="97.716972"
       y="141.1777"
       rx="0.097660154"
       ry="0.20249152" />
    <path
       style="fill:none;stroke:#000000;stroke-width:0.26458332px;stroke-linecap:butt;stroke-linejoin:miter;stroke-opacity:1"
       d="m 96.725684,137.60494 v 8.51459"
       id="path10184-1"
       inkscape:connector-curvature="0" />
    <rect
       style="opacity:1;fill:#4bacc6;fill-opacity:1;fill-rule:evenodd;stroke:#000000;stroke-width:0.26499999;stroke-linecap:butt;stroke-linejoin:miter;stroke-miterlimit:4;stroke-dasharray:none;stroke-dashoffset:0;stroke-opacity:1;paint-order:fill markers stroke"
       id="rect4593-5-6-2-1-0-4-0-9-5-7-0"
       width="1.508569"
       height="1.7316384"
       x="94.091759"
       y="141.1777"
       rx="0.097660154"
       ry="0.20249152" />
    <path
       style="fill:none;stroke:#000000;stroke-width:0.26458332px;stroke-linecap:butt;stroke-linejoin:miter;stroke-opacity:1"
       d="m 93.100454,137.60495 v 8.51459"
       id="path10184-4"
       inkscape:connector-curvature="0" />
    <rect
       style="opacity:1;fill:#a76d7f;fill-opacity:1;fill-rule:evenodd;stroke:#000000;stroke-width:0.26499999;stroke-linecap:butt;stroke-linejoin:miter;stroke-miterlimit:4;stroke-dasharray:none;stroke-dashoffset:0;stroke-opacity:1;paint-order:fill markers stroke"
       id="rect4593-5-6-2-1-0-4-0-9-5-7-6-8"
       width="1.508569"
       height="1.7316384"
       x="90.466545"
       y="141.1777"
       rx="0.097660154"
       ry="0.20249152" />
    <path
       style="fill:none;stroke:#000000;stroke-width:0.26458332px;stroke-linecap:butt;stroke-linejoin:miter;stroke-opacity:1"
       d="m 89.475214,137.60495 v 8.51459"
       id="path10184-0-7"
       inkscape:connector-curvature="0" />
    <rect
       style="opacity:1;fill:#a76d7f;fill-opacity:1;fill-rule:evenodd;stroke:#000000;stroke-width:0.26499999;stroke-linecap:butt;stroke-linejoin:miter;stroke-miterlimit:4;stroke-dasharray:none;stroke-dashoffset:0;stroke-opacity:1;paint-order:fill markers stroke"
       id="rect4593-5-6-2-1-0-4-0-9-5-7-4-0"
       width="1.508569"
       height="1.7316384"
       x="86.841331"
       y="141.1777"
       rx="0.097660154"
       ry="0.20249152" />
    <path
       style="fill:none;stroke:#000000;stroke-width:0.26458332px;stroke-linecap:butt;stroke-linejoin:miter;stroke-opacity:1"
       d="m 85.850004,137.60495 v 8.51459"
       id="path10184-1-8"
       inkscape:connector-curvature="0" />
    <rect
       style="opacity:1;fill:#a76d7f;fill-opacity:1;fill-rule:evenodd;stroke:#000000;stroke-width:0.26499999;stroke-linecap:butt;stroke-linejoin:miter;stroke-miterlimit:4;stroke-dasharray:none;stroke-dashoffset:0;stroke-opacity:1;paint-order:fill markers stroke"
       id="rect4593-5-6-2-1-0-4-0-9-5-7-0-6"
       width="1.508569"
       height="1.7316384"
       x="83.216118"
       y="141.1777"
       rx="0.097660154"
       ry="0.20249152" />
    <text
       xml:space="preserve"
       style="font-style:italic;font-variant:normal;font-weight:normal;font-stretch:normal;font-size:4.93888903px;line-height:5px;font-family:Calibri;-inkscape-font-specification:'Calibri Italic';font-variant-ligatures:normal;font-variant-position:normal;font-variant-caps:normal;font-variant-numeric:normal;font-variant-alternates:normal;font-feature-settings:normal;text-indent:0;text-align:start;text-decoration:none;text-decoration-line:none;text-decoration-style:solid;text-decoration-color:#000000;letter-spacing:0px;word-spacing:0px;text-transform:none;writing-mode:lr-tb;direction:ltr;text-orientation:mixed;dominant-baseline:auto;baseline-shift:baseline;text-anchor:start;white-space:normal;shape-padding:0;opacity:1;vector-effect:none;fill:#000000;fill-opacity:1;stroke:none;stroke-width:0.26458332;stroke-linecap:butt;stroke-linejoin:miter;stroke-miterlimit:4;stroke-dasharray:none;stroke-dashoffset:0;stroke-opacity:1"
       x="98.046799"
       y="152.28484"
       id="text5208-4-4"><tspan
         sodipodi:role="line"
         x="98.046799"
         y="152.28484"
         style="font-style:italic;font-variant:normal;font-weight:normal;font-stretch:normal;font-size:4.93888903px;line-height:5px;font-family:Calibri;-inkscape-font-specification:'Calibri Italic';text-align:center;text-anchor:middle;stroke-width:0.26458332"
         id="tspan5243-9">Queued</tspan><tspan
         sodipodi:role="line"
         x="98.046799"
         y="157.28484"
         style="font-style:italic;font-variant:normal;font-weight:normal;font-stretch:normal;font-size:4.93888903px;line-height:5px;font-family:Calibri;-inkscape-font-specification:'Calibri Italic';text-align:center;text-anchor:middle;stroke-width:0.26458332"
         id="tspan13236">V2N packets</tspan></text>
    <path
       style="fill:none;stroke:#000000;stroke-width:0.40000001;stroke-linecap:butt;stroke-linejoin:miter;stroke-miterlimit:4;stroke-dasharray:none;stroke-opacity:1;marker-start:url(#marker8654-3-9-7)"
       d="m 78.982875,141.70666 h -5.65396"
       id="path7353-3-2"
       inkscape:connector-curvature="0" />
    <path
       style="fill:none;stroke:#000000;stroke-width:0.40000001;stroke-linecap:butt;stroke-linejoin:miter;stroke-miterlimit:4;stroke-dasharray:none;stroke-opacity:1;marker-start:url(#marker8654-3-8-7-9)"
       d="m 124.3648,142.15872 h -5.65397"
       id="path7353-3-2-0"
       inkscape:connector-curvature="0" />
    <path
       style="fill:none;stroke:#000000;stroke-width:0.40000001;stroke-linecap:butt;stroke-linejoin:miter;stroke-miterlimit:4;stroke-dasharray:none;stroke-opacity:1;marker-start:url(#marker8654-3-1-2-8)"
       d="m 123.44664,129.37687 -3.99796,3.99795"
       id="path7353-3-2-8"
       inkscape:connector-curvature="0" />
    <path
       style="fill:none;stroke:#000000;stroke-width:0.40000001;stroke-linecap:butt;stroke-linejoin:miter;stroke-miterlimit:4;stroke-dasharray:none;stroke-opacity:1;marker-start:url(#marker8654-3-1-9-4-7)"
       d="m 123.44664,154.30609 -3.99796,-3.99795"
       id="path7353-3-2-8-5"
       inkscape:connector-curvature="0" />
    <path
       style="fill:#000000;stroke-width:0;stroke-miterlimit:4;stroke-dasharray:none"
       d="m 56.289504,146.75911 c -0.22354,-0.10161 -0.36146,-0.28049 -0.4299,-0.55785 -0.0357,-0.14437 -0.0463,-2.80968 -0.0371,-9.21357 l 0.0137,-9.01048 0.11456,-0.19046 c 0.063,-0.10475 0.31683,-0.43859 0.56395,-0.74179 0.47577,-0.58377 0.7316,-0.79031 1.08684,-0.87752 0.14574,-0.0357 1.61463,-0.0467 4.99822,-0.0375 l 4.791851,0.0137 0.22144,0.10906 c 0.17104,0.0841 0.3364,0.24618 0.72587,0.71077 0.27746,0.33093 0.55956,0.69457 0.6269,0.80808 l 0.1224,0.20634 0.0137,9.01047 c 0.01,6.4039 -10e-4,9.06924 -0.0371,9.2136 -0.0685,0.27734 -0.20636,0.45631 -0.4299,0.55784 -0.18027,0.082 -0.43423,0.0855 -6.17201,0.0855 -5.73785,0 -5.99188,-0.004 -6.17208,-0.0855 z m 11.984311,-9.64531 -0.0118,-8.90732 h -5.80074 -5.800711 l -0.0118,8.90732 -0.0118,8.90729 h 5.823859 5.823821 z m -6.039831,6.78999 c -0.238549,-0.0685 -0.39582,-0.19981 -0.502179,-0.4195 -0.160451,-0.33158 -0.115141,-0.66389 0.12515,-0.91785 0.180069,-0.19028 0.341409,-0.2596 0.604689,-0.2596 0.62304,0 1.005081,0.60864 0.733791,1.16903 -0.107101,0.22105 -0.28018,0.36165 -0.5313,0.43139 -0.20706,0.0575 -0.217931,0.0575 -0.43009,-0.004 z m -0.16418,-2.96631 c -0.7388,-0.45049 -0.461969,-1.53602 0.3917,-1.53602 0.53217,0 0.90635,0.46477 0.805781,1.00083 -0.0347,0.18478 -0.250361,0.45433 -0.443461,0.55418 -0.1838,0.0951 -0.583619,0.0849 -0.75402,-0.0196 z m -3.73954,-4.5608 c -0.12514,-0.0659 -0.24154,-0.17517 -0.30559,-0.2866 -0.10219,-0.17791 -0.10337,-0.19596 -0.0853,-1.5327 0.01,-0.744 0.0157,-1.39398 0.0137,-1.44442 -0.002,-0.0504 -0.006,-0.69378 -0.006,-1.42964 -10e-4,-1.28095 0.002,-1.34331 0.0932,-1.46454 0.13653,-0.18281 0.29983,-0.29293 0.50512,-0.34054 0.23572,-0.0547 7.598431,-0.0547 7.834151,0 0.20529,0.0475 0.36855,0.15771 0.50512,0.34054 0.0904,0.12123 0.0945,0.18361 0.0932,1.46454 -7.67e-4,0.73586 -0.004,1.37919 -0.006,1.42964 -0.002,0.0504 0.004,0.70042 0.0137,1.44442 0.0177,1.33674 0.0177,1.35484 -0.0853,1.5327 -0.0641,0.11142 -0.18047,0.22062 -0.3056,0.2866 l -0.20204,0.10651 h -3.929091 -3.92916 z m 7.845501,-1.75051 v -1.03174 h -3.714261 -3.71429 v 1.03174 1.03174 h 3.71429 3.714261 z m 0,-2.9118 v -1.05465 h -3.714261 -3.71429 v 1.05465 1.05465 h 3.71429 3.714261 z m 1.37564,-4.39671 c 0,-0.0222 -0.0826,-0.11514 -0.1836,-0.20636 l -0.1836,-0.16575 h -4.725581 -4.72565 l -0.21514,0.2053 -0.21515,0.20526 5.12434,8e-4 c 2.93656,5.3e-4 5.124291,-0.0157 5.124291,-0.0396 z"
       id="path3972-8-4-4"
       inkscape:connector-curvature="0"
       sodipodi:nodetypes="ccccccccccccccccsccccccccccccccscccccscccccccccccccccccccccccccccccccccccccccccccccccccc" />
    <path
       style="opacity:1;fill:#92cddc;fill-opacity:1;fill-rule:evenodd;stroke:#040000;stroke-width:0;stroke-linecap:butt;stroke-linejoin:miter;stroke-miterlimit:4;stroke-dasharray:none;stroke-dashoffset:0;stroke-opacity:1;paint-order:fill markers stroke"
       d="m 56.696354,139.36425 c 0.0577,-3.59504 0.10494,-7.55254 0.10494,-8.79446 l 2.1e-4,-2.25805 h 5.704571 5.70454 v 8.79446 8.79447 h -5.809551 -5.80958 z m 6.35307,4.38591 c 0.81751,-0.8175 -0.346449,-2.00811 -1.20428,-1.2318 -0.354689,0.32101 -0.367829,0.66501 -0.0431,1.12862 0.28772,0.41075 0.89,0.46055 1.24739,0.10318 z m -0.10318,-2.84993 c 0.38799,-0.27175 0.477201,-0.99106 0.16202,-1.30622 -0.30962,-0.30965 -1.20084,-0.235 -1.38887,0.11632 -0.24341,0.45485 -0.20096,0.76579 0.152801,1.11964 0.381429,0.3814 0.608539,0.39625 1.07398,0.0702 z m 3.865421,-4.61088 c 0.26012,-0.2354 0.28978,-0.55174 0.28978,-3.08994 0,-2.61642 -0.0237,-2.85138 -0.31691,-3.14461 -0.29986,-0.29987 -0.5282,-0.31691 -4.243161,-0.31691 -3.29708,0 -3.98268,0.0396 -4.27843,0.24666 -0.3428,0.24012 -0.35217,0.32639 -0.35217,3.24054 0,2.68411 0.0286,3.01056 0.2773,3.15536 0.16791,0.0979 1.86546,0.1634 4.30558,0.16634 3.530331,0.004 4.064051,-0.0277 4.318011,-0.25744 z"
       id="path3976-7-7-5"
       inkscape:connector-curvature="0" />
    <path
       style="opacity:1;fill:#92cddc;fill-opacity:1;fill-rule:evenodd;stroke:#040000;stroke-width:0;stroke-linecap:butt;stroke-linejoin:miter;stroke-miterlimit:4;stroke-dasharray:none;stroke-dashoffset:0;stroke-opacity:1;paint-order:fill markers stroke"
       d="m 58.861555,134.6501 v -0.95075 h 3.644599 3.644551 v 0.95075 0.95075 h -3.644551 -3.644599 z"
       id="path3978-9-8-9"
       inkscape:connector-curvature="0" />
    <path
       style="opacity:1;fill:#92cddc;fill-opacity:1;fill-rule:evenodd;stroke:#040000;stroke-width:0;stroke-linecap:butt;stroke-linejoin:miter;stroke-miterlimit:4;stroke-dasharray:none;stroke-dashoffset:0;stroke-opacity:1;paint-order:fill markers stroke"
       d="m 58.861555,131.71861 v -1.02997 h 3.644599 3.644551 v 1.02997 1.02998 h -3.644551 -3.644599 z"
       id="path3980-2-4-3"
       inkscape:connector-curvature="0" />
    <path
       style="opacity:1;fill:#92cddc;fill-opacity:1;fill-rule:evenodd;stroke:#040000;stroke-width:0;stroke-linecap:butt;stroke-linejoin:miter;stroke-miterlimit:4;stroke-dasharray:none;stroke-dashoffset:0;stroke-opacity:1;paint-order:fill markers stroke"
       d="m 57.553984,127.15956 0.19007,-0.19616 h 4.71255 4.712561 l 0.15221,0.15889 0.15222,0.15889 -2.98496,0.0371 c -1.64172,0.0204 -3.916401,0.0371 -5.054811,0.0371 l -2.0699,6e-5 z"
       id="path3984-0-5-5"
       inkscape:connector-curvature="0" />
    <path
       style="fill:#000000;stroke-width:1"
       d="m 41.220478,106.94455 c -0.44057,-0.0863 -0.80431,-0.3899 -0.94473,-0.78862 l -0.0369,-0.10464 -0.25702,-0.0103 c -0.20438,-0.008 -0.27527,-0.0186 -0.34614,-0.0508 -0.12728,-0.0577 -0.2388,-0.16595 -0.30075,-0.29187 l -0.0536,-0.10895 -0.006,-0.72713 c -0.004,-0.45134 0.002,-0.76862 0.0146,-0.83651 0.08,-0.43226 0.47748,-0.75555 0.92883,-0.75555 h 0.0937 l 0.25318,-0.50516 c 0.29235,-0.58332 0.3454,-0.67122 0.50623,-0.8389 0.20396,-0.21265 0.45024,-0.36456 0.72869,-0.44947 0.13953,-0.0426 0.15814,-0.0432 1.48135,-0.0498 0.93245,-0.005 1.38633,-4e-5 1.49219,0.0152 0.29713,0.0428 0.60274,0.18429 0.82157,0.38052 0.0583,0.0523 0.35748,0.39941 0.66479,0.77137 l 0.55873,0.67627 0.45353,5.3e-4 c 0.29208,5.2e-4 0.50501,0.01 0.59815,0.0265 0.32055,0.0573 0.60902,0.2147 0.84176,0.45928 0.16009,0.16821 0.25967,0.32606 0.33404,0.52949 0.0817,0.22333 0.10049,0.4008 0.0934,0.8798 -0.006,0.41815 -0.007,0.42478 -0.0599,0.53237 -0.0617,0.12546 -0.17282,0.23354 -0.30074,0.29258 -0.0828,0.0383 -0.1291,0.0418 -0.65461,0.0508 l -0.56549,0.01 -0.0369,0.10465 c -0.0583,0.16533 -0.15159,0.3069 -0.29948,0.45439 -0.16845,0.16801 -0.38046,0.27943 -0.62382,0.32783 -0.58221,0.1158 -1.1923,-0.22807 -1.38779,-0.78222 l -0.0369,-0.10465 h -1.27552 -1.27552 l -0.0369,0.10465 c -0.0979,0.27762 -0.33203,0.53984 -0.59836,0.67026 -0.24818,0.12153 -0.52994,0.16496 -0.76797,0.11836 z m 0.47107,-0.65421 c 0.12197,-0.0578 0.23809,-0.1731 0.29885,-0.29679 0.0681,-0.13862 0.0686,-0.38213 7.94e-4,-0.51914 -0.0602,-0.12211 -0.178051,-0.23975 -0.300371,-0.29985 -0.0789,-0.0387 -0.12489,-0.0471 -0.259789,-0.0471 -0.13491,0 -0.180861,0.008 -0.259801,0.0471 -0.34349,0.16873 -0.459159,0.5834 -0.25087,0.89934 0.072,0.10926 0.202641,0.2094 0.325491,0.24957 0.1169,0.0382 0.327979,0.0225 0.44547,-0.0331 z m 4.93601,0 c 0.12197,-0.0578 0.23809,-0.1731 0.29885,-0.29679 0.0681,-0.13862 0.0686,-0.38213 5.29e-4,-0.51914 -0.0602,-0.12211 -0.17805,-0.23975 -0.30037,-0.29985 -0.0789,-0.0387 -0.1249,-0.0471 -0.2598,-0.0471 -0.13491,0 -0.18085,0.008 -0.2598,0.0471 -0.34348,0.16873 -0.45915,0.5834 -0.25087,0.89934 0.072,0.10926 0.20263,0.2094 0.3255,0.24957 0.11689,0.0382 0.32797,0.0225 0.44547,-0.0331 z m -6.35182,-0.97883 c 0.0844,-0.2394 0.30167,-0.50228 0.52324,-0.63289 0.20617,-0.12154 0.363,-0.16306 0.62263,-0.16485 0.19279,-10e-4 0.25389,0.006 0.36635,0.0428 0.37567,0.12373 0.67647,0.40797 0.79886,0.75487 l 0.0369,0.10465 h 1.27553 1.27552 l 0.0369,-0.10465 c 0.0845,-0.23954 0.30177,-0.50229 0.52329,-0.63289 0.20617,-0.12154 0.36301,-0.16307 0.62264,-0.16484 0.19278,-0.001 0.25389,0.006 0.36635,0.0428 0.37567,0.12373 0.67651,0.40801 0.79885,0.75486 l 0.0369,0.10466 0.48352,0.005 0.48351,0.005 v -0.30828 -0.30827 h -0.33932 c -0.3824,0 -0.43432,-0.0129 -0.5246,-0.13111 -0.0742,-0.0971 -0.0742,-0.25657 0,-0.35365 0.0827,-0.1082 0.15313,-0.13112 0.40305,-0.13112 h 0.21779 l -0.0665,-0.0684 c -0.0811,-0.0836 -0.29052,-0.19081 -0.42773,-0.21909 -0.0715,-0.0147 -1.22329,-0.0194 -3.90329,-0.0158 l -3.8018,0.005 -0.0533,0.0397 c -0.0293,0.0218 -0.0711,0.0636 -0.093,0.0928 -0.0381,0.0509 -0.04,0.081 -0.0453,0.7261 l -0.006,0.67297 0.17576,-0.005 0.17578,-0.005 z m 2.1967,-2.65721 0.30862,-0.61588 h -0.34307 c -0.48927,0 -0.63851,0.0467 -0.88588,0.27686 -0.11236,0.10458 -0.13797,0.14556 -0.33383,0.53409 l -0.21213,0.42082 h 0.57884 0.57884 z m 3.51535,0.57259 c -0.0215,-0.0238 -0.20806,-0.24716 -0.41454,-0.49631 -0.39904,-0.48152 -0.48154,-0.55636 -0.70648,-0.641 -0.10243,-0.0385 -0.15084,-0.0416 -0.74995,-0.0473 l -0.64046,-0.006 -0.3092,0.61707 -0.30921,0.61705 h 1.58448 1.58449 z"
       id="path9402-5-1-4"
       inkscape:connector-curvature="0" />
    <path
       style="opacity:1;fill:#a76d7f;fill-opacity:1;fill-rule:evenodd;stroke:#040000;stroke-width:0.15000001;stroke-linecap:butt;stroke-linejoin:miter;stroke-miterlimit:4;stroke-dasharray:none;stroke-dashoffset:0;stroke-opacity:1;paint-order:fill markers stroke"
       d="m 39.897138,105.28567 c 0.01,-0.0818 0.018,-0.38593 0.0181,-0.67587 2.4e-4,-0.52686 2.6e-4,-0.52721 0.0716,-0.61175 l 0.0713,-0.0846 3.87447,2e-5 3.87446,2e-5 0.16528,0.0786 c 0.0909,0.0432 0.18769,0.10378 0.21512,0.13456 0.0497,0.0558 0.0489,0.056 -0.18819,0.0658 -0.22878,0.009 -0.24117,0.0132 -0.31841,0.0995 -0.0622,0.0694 -0.0804,0.11635 -0.0804,0.20697 0,0.24958 0.13282,0.32189 0.59132,0.32189 h 0.31765 v 0.30603 0.30604 l -0.10329,-0.017 c -0.0568,-0.009 -0.26565,-0.0172 -0.46407,-0.0173 l -0.36079,-2.6e-4 -0.10066,-0.2033 c -0.1191,-0.24054 -0.33772,-0.4578 -0.57865,-0.57508 -0.61173,-0.29776 -1.35816,-0.0325 -1.64929,0.58619 l -0.0899,0.19112 -1.27177,5.3e-4 -1.27174,5.3e-4 -0.0178,-0.0811 c -0.0266,-0.12083 -0.208931,-0.38746 -0.347041,-0.50744 -0.0668,-0.058 -0.21447,-0.15024 -0.3281,-0.20485 -0.19362,-0.0931 -0.223,-0.0992 -0.46826,-0.0982 -0.318509,0.001 -0.51217,0.0546 -0.716,0.19674 -0.18698,0.13039 -0.39533,0.38529 -0.45868,0.56114 -0.0468,0.12994 -0.0513,0.13373 -0.159789,0.13409 -0.0614,2.1e-4 -0.141471,0.008 -0.177951,0.0181 -0.0656,0.0175 -0.0661,0.016 -0.0485,-0.13098 z"
       id="path10245-4-0-9"
       inkscape:connector-curvature="0" />
    <path
       style="opacity:1;fill:#a76d7f;fill-opacity:1;fill-rule:evenodd;stroke:#040000;stroke-width:0.15000001;stroke-linecap:butt;stroke-linejoin:miter;stroke-miterlimit:4;stroke-dasharray:none;stroke-dashoffset:0;stroke-opacity:1;paint-order:fill markers stroke"
       d="m 41.044838,103.23787 c 0,-0.009 0.083,-0.17877 0.1845,-0.37806 0.27799,-0.54596 0.48106,-0.7341 0.84967,-0.78729 0.19763,-0.0285 0.6736,-0.0392 0.6736,-0.0151 0,0.007 -0.13311,0.27967 -0.2958,0.60489 l -0.29581,0.5913 h -0.55808 c -0.30695,0 -0.55808,-0.007 -0.55808,-0.0157 z"
       id="path10247-4-8-1"
       inkscape:connector-curvature="0" />
    <path
       style="fill:#000000;stroke-width:1"
       d="m 35.659428,111.3788 c -0.44057,-0.0863 -0.80431,-0.38989 -0.94473,-0.78861 l -0.0369,-0.10465 -0.25702,-0.0103 c -0.20438,-0.008 -0.27527,-0.0186 -0.34614,-0.0508 -0.12729,-0.0577 -0.2388,-0.16595 -0.30075,-0.29187 l -0.0536,-0.10895 -0.006,-0.72713 c -0.004,-0.45133 0.002,-0.76861 0.0146,-0.83651 0.08,-0.43226 0.47748,-0.75555 0.92883,-0.75555 h 0.0937 l 0.25318,-0.50516 c 0.29235,-0.58332 0.3454,-0.67122 0.50623,-0.8389 0.20396,-0.21265 0.45023,-0.36456 0.72869,-0.44947 0.13953,-0.0426 0.15814,-0.0432 1.48136,-0.0498 0.93244,-0.005 1.38632,-4e-5 1.49218,0.0152 0.29713,0.0428 0.60273,0.18427 0.82156,0.38051 0.0583,0.0523 0.35748,0.39942 0.66479,0.77137 l 0.55873,0.67626 0.45353,5.3e-4 c 0.29208,5.3e-4 0.50501,0.01 0.59815,0.0265 0.32055,0.0573 0.60902,0.2147 0.84176,0.45928 0.16009,0.1682 0.25967,0.32606 0.33404,0.52949 0.0817,0.22333 0.1005,0.4008 0.0934,0.87979 -0.006,0.41816 -0.007,0.4248 -0.0599,0.53238 -0.0617,0.12546 -0.17281,0.23355 -0.30074,0.29258 -0.0828,0.0383 -0.1291,0.0418 -0.65461,0.0508 l -0.56548,0.01 -0.0369,0.10464 c -0.0583,0.16534 -0.15159,0.30691 -0.29947,0.45439 -0.16846,0.16802 -0.38047,0.27944 -0.62385,0.32784 -0.58219,0.1158 -1.19228,-0.22807 -1.38778,-0.78223 l -0.0369,-0.10464 h -1.27552 -1.27552 l -0.0369,0.10464 c -0.0979,0.27763 -0.33202,0.53984 -0.59835,0.67027 -0.24818,0.12153 -0.52994,0.16496 -0.76798,0.11835 z m 0.47107,-0.65421 c 0.12197,-0.0578 0.23809,-0.1731 0.29884,-0.29679 0.0681,-0.13862 0.0686,-0.38213 7.93e-4,-0.51914 -0.06019,-0.12211 -0.178043,-0.23975 -0.300363,-0.29984 -0.0789,-0.0387 -0.12489,-0.0471 -0.2598,-0.0471 -0.13489,0 -0.18085,0.008 -0.25979,0.0471 -0.34349,0.16872 -0.45916,0.58339 -0.25087,0.89933 0.072,0.10927 0.20262,0.2094 0.32549,0.24957 0.11689,0.0382 0.32798,0.0225 0.44547,-0.0331 z m 4.936,0 c 0.12197,-0.0578 0.23809,-0.1731 0.29884,-0.29679 0.0681,-0.13862 0.0686,-0.38213 7.94e-4,-0.51914 -0.0602,-0.12211 -0.17805,-0.23975 -0.30036,-0.29984 -0.0789,-0.0387 -0.12489,-0.0471 -0.2598,-0.0471 -0.13492,0 -0.18085,0.008 -0.2598,0.0471 -0.34349,0.16872 -0.45915,0.58339 -0.25087,0.89933 0.072,0.10927 0.20263,0.2094 0.32549,0.24957 0.11689,0.0382 0.32799,0.0225 0.44548,-0.0331 z m -6.35182,-0.97883 c 0.0844,-0.2394 0.30168,-0.50227 0.52324,-0.63289 0.20618,-0.12153 0.36301,-0.16306 0.62264,-0.16484 0.19279,-0.001 0.25389,0.006 0.36635,0.0428 0.37567,0.12373 0.67647,0.40797 0.79886,0.75487 l 0.0369,0.10465 h 1.27552 1.27552 l 0.0369,-0.10465 c 0.0845,-0.23953 0.30177,-0.50229 0.52329,-0.63289 0.20617,-0.12154 0.36301,-0.16307 0.62264,-0.16484 0.19278,-0.001 0.25389,0.006 0.36635,0.0428 0.37566,0.12373 0.67651,0.40801 0.79885,0.75486 l 0.0369,0.10466 0.4835,0.005 0.48352,0.005 v -0.30829 -0.30827 h -0.33933 c -0.3824,0 -0.43431,-0.0129 -0.52459,-0.13111 -0.0742,-0.0971 -0.0742,-0.25657 0,-0.35365 0.0827,-0.1082 0.15313,-0.13112 0.40305,-0.13112 h 0.21778 l -0.0665,-0.0684 c -0.0811,-0.0836 -0.29052,-0.19081 -0.42773,-0.21909 -0.0715,-0.0147 -1.22329,-0.0194 -3.90328,-0.0158 l -3.80182,0.005 -0.0532,0.0397 c -0.0293,0.0218 -0.0711,0.0636 -0.093,0.0928 -0.0381,0.0509 -0.04,0.081 -0.0453,0.72609 l -0.006,0.67298 0.17577,-0.005 0.17577,-0.005 z m 2.19671,-2.6572 0.30861,-0.61589 h -0.34306 c -0.48927,0 -0.63851,0.0467 -0.88588,0.27686 -0.11236,0.10458 -0.13798,0.14556 -0.33383,0.53409 l -0.21213,0.42082 h 0.57884 0.57883 z m 3.51534,0.57258 c -0.0215,-0.0238 -0.20807,-0.24716 -0.41454,-0.49631 -0.39904,-0.48152 -0.48154,-0.55636 -0.70648,-0.641 -0.10243,-0.0385 -0.15083,-0.0416 -0.74994,-0.0473 l -0.64046,-0.006 -0.3092,0.61707 -0.30921,0.61705 h 1.58448 1.58448 z"
       id="path9402-6-9-5-0"
       inkscape:connector-curvature="0" />
    <path
       style="opacity:1;fill:#a76d7f;fill-opacity:1;fill-rule:evenodd;stroke:#040000;stroke-width:0.15000001;stroke-linecap:butt;stroke-linejoin:miter;stroke-miterlimit:4;stroke-dasharray:none;stroke-dashoffset:0;stroke-opacity:1;paint-order:fill markers stroke"
       d="m 34.336088,109.71992 c 0.01,-0.0818 0.018,-0.38592 0.0181,-0.67586 2.3e-4,-0.52687 2.6e-4,-0.52721 0.0715,-0.61176 l 0.0713,-0.0846 3.87447,2e-5 3.87446,2e-5 0.16526,0.0786 c 0.0909,0.0432 0.18771,0.10378 0.21513,0.13457 0.0497,0.0558 0.0489,0.056 -0.18819,0.0658 -0.22877,0.009 -0.24117,0.0132 -0.31841,0.0995 -0.0622,0.0694 -0.0804,0.11635 -0.0804,0.20697 0,0.24957 0.13283,0.32188 0.59132,0.32188 h 0.31765 v 0.30604 0.30604 l -0.10329,-0.0171 c -0.0568,-0.009 -0.26564,-0.0172 -0.46407,-0.0173 l -0.36078,-2.5e-4 -0.10067,-0.20332 c -0.11909,-0.24054 -0.33771,-0.45781 -0.57864,-0.57508 -0.61173,-0.29775 -1.35816,-0.0325 -1.6493,0.58619 l -0.0899,0.19112 -1.27175,5.3e-4 -1.27175,5.3e-4 -0.0178,-0.0812 c -0.0266,-0.12085 -0.20893,-0.38746 -0.34704,-0.50744 -0.0668,-0.058 -0.21448,-0.15025 -0.3281,-0.20487 -0.19363,-0.0931 -0.22302,-0.0992 -0.46827,-0.0982 -0.31851,0.001 -0.51217,0.0546 -0.716,0.19676 -0.18698,0.13039 -0.39532,0.38528 -0.45868,0.56114 -0.0468,0.12993 -0.0513,0.13372 -0.15979,0.13409 -0.0614,2e-4 -0.14147,0.008 -0.17796,0.018 -0.0656,0.0175 -0.0661,0.016 -0.0485,-0.13098 z"
       id="path10245-1-9-0-7"
       inkscape:connector-curvature="0" />
    <path
       style="opacity:1;fill:#a76d7f;fill-opacity:1;fill-rule:evenodd;stroke:#040000;stroke-width:0.15000001;stroke-linecap:butt;stroke-linejoin:miter;stroke-miterlimit:4;stroke-dasharray:none;stroke-dashoffset:0;stroke-opacity:1;paint-order:fill markers stroke"
       d="m 35.486618,107.68869 c 0,-0.009 0.083,-0.17877 0.1845,-0.37806 0.27799,-0.54595 0.48106,-0.7341 0.84967,-0.78728 0.19763,-0.0285 0.6736,-0.0392 0.6736,-0.0151 0,0.007 -0.13311,0.27967 -0.29581,0.60489 l -0.29581,0.5913 h -0.55807 c -0.30695,0 -0.55808,-0.007 -0.55808,-0.0157 z"
       id="path10247-3-3-6-5"
       inkscape:connector-curvature="0" />
    <path
       style="fill:#000000;stroke-width:1"
       d="m 46.527938,112.01603 c -0.44057,-0.0863 -0.80432,-0.38989 -0.94474,-0.78862 l -0.0369,-0.10463 -0.25702,-0.0103 c -0.20436,-0.008 -0.27527,-0.0186 -0.34614,-0.0508 -0.12728,-0.0577 -0.23879,-0.16595 -0.30075,-0.29188 l -0.0536,-0.10894 -0.006,-0.72714 c -0.003,-0.45133 0.002,-0.76861 0.0146,-0.8365 0.08,-0.43226 0.4775,-0.75556 0.92884,-0.75556 h 0.0937 l 0.25317,-0.50515 c 0.29236,-0.58332 0.345419,-0.67123 0.50624,-0.83891 0.20395,-0.21265 0.450239,-0.36455 0.72869,-0.44946 0.13954,-0.0426 0.15815,-0.0432 1.48136,-0.0498 0.932449,-0.005 1.38633,-5e-5 1.49219,0.0152 0.29713,0.0428 0.60273,0.18428 0.82157,0.38051 0.0583,0.0523 0.35747,0.39942 0.66478,0.77137 l 0.55873,0.67627 0.45353,5.3e-4 c 0.29209,5.3e-4 0.50501,0.01 0.59815,0.0265 0.32055,0.0573 0.60903,0.2147 0.84176,0.45928 0.1601,0.16821 0.25967,0.32607 0.33405,0.52948 0.0817,0.22333 0.10049,0.40081 0.0934,0.87982 -0.006,0.41814 -0.007,0.42478 -0.0599,0.53236 -0.0617,0.12546 -0.17282,0.23355 -0.30073,0.29259 -0.0828,0.0383 -0.12911,0.0418 -0.65462,0.0508 l -0.56548,0.01 -0.0369,0.10464 c -0.0583,0.16533 -0.1516,0.30691 -0.29949,0.4544 -0.16845,0.16801 -0.38046,0.27942 -0.62384,0.32783 -0.5822,0.11579 -1.192271,-0.22808 -1.38778,-0.78223 l -0.0369,-0.10463 h -1.275499 -1.27551 l -0.0369,0.10464 c -0.0979,0.27762 -0.33203,0.53985 -0.59837,0.67026 -0.24817,0.12154 -0.52993,0.16496 -0.767971,0.11837 z m 0.47107,-0.6542 c 0.12196,-0.0578 0.23808,-0.1731 0.29884,-0.29679 0.0681,-0.13863 0.0686,-0.38214 7.94e-4,-0.51915 -0.0602,-0.1221 -0.17806,-0.23976 -0.30037,-0.29985 -0.0789,-0.0387 -0.12489,-0.0471 -0.25979,-0.0471 -0.13491,0 -0.18085,0.008 -0.2598,0.0471 -0.34348,0.16874 -0.45916,0.58341 -0.25087,0.89934 0.072,0.10927 0.20263,0.2094 0.32549,0.24957 0.1169,0.0382 0.32799,0.0225 0.44547,-0.0331 z m 4.936,0 c 0.12197,-0.0578 0.23809,-0.1731 0.29885,-0.29679 0.0681,-0.13863 0.0686,-0.38214 7.94e-4,-0.51915 -0.0602,-0.1221 -0.17806,-0.23976 -0.30038,-0.29985 -0.0789,-0.0387 -0.12489,-0.0471 -0.2598,-0.0471 -0.13489,0 -0.18084,0.008 -0.25979,0.0471 -0.34348,0.16874 -0.45915,0.58341 -0.25087,0.89934 0.072,0.10927 0.20262,0.2094 0.32549,0.24957 0.1169,0.0382 0.32798,0.0225 0.44547,-0.0331 z m -6.35182,-0.97883 c 0.0844,-0.2394 0.30168,-0.50228 0.52324,-0.63289 0.20617,-0.12154 0.363,-0.16307 0.62264,-0.16485 0.19278,-0.001 0.25388,0.006 0.36634,0.0428 0.37567,0.12373 0.67648,0.40798 0.79886,0.75487 l 0.0369,0.10465 h 1.27553 1.27552 l 0.0369,-0.10465 c 0.0845,-0.23953 0.30176,-0.50229 0.52328,-0.63289 0.20619,-0.12154 0.36301,-0.16306 0.62264,-0.16484 0.19279,-0.001 0.25389,0.006 0.36635,0.0428 0.37567,0.12374 0.67651,0.40801 0.79885,0.75487 l 0.0369,0.10465 0.48352,0.005 0.48352,0.005 v -0.30827 -0.30827 h -0.33933 c -0.3824,0 -0.43432,-0.013 -0.5246,-0.13112 -0.0742,-0.0971 -0.0742,-0.25657 0,-0.35364 0.0827,-0.10821 0.15313,-0.13113 0.40305,-0.13113 h 0.21778 l -0.0665,-0.0684 c -0.0811,-0.0836 -0.29052,-0.19082 -0.42772,-0.2191 -0.0715,-0.0147 -1.2233,-0.0194 -3.90329,-0.0158 l -3.80183,0.005 -0.0533,0.0397 c -0.0293,0.0218 -0.0711,0.0636 -0.093,0.0928 -0.0381,0.0509 -0.04,0.081 -0.0453,0.72611 l -0.006,0.67296 0.17576,-0.005 0.17578,-0.005 z m 2.19671,-2.65721 0.30861,-0.61589 h -0.34307 c -0.48927,0 -0.63851,0.0467 -0.88587,0.27687 -0.11237,0.10458 -0.13798,0.14555 -0.33384,0.53408 l -0.21213,0.42082 h 0.57884 0.57884 z m 3.51535,0.57258 c -0.0215,-0.0238 -0.20807,-0.24716 -0.41455,-0.49631 -0.39904,-0.48151 -0.48154,-0.55636 -0.70648,-0.641 -0.10242,-0.0385 -0.15084,-0.0416 -0.74995,-0.0473 l -0.64045,-0.006 -0.30921,0.61706 -0.30921,0.61706 h 1.58449 1.58449 z"
       id="path9402-2-6-4-8"
       inkscape:connector-curvature="0" />
    <path
       style="opacity:1;fill:#a76d7f;fill-opacity:1;fill-rule:evenodd;stroke:#040000;stroke-width:0.15000001;stroke-linecap:butt;stroke-linejoin:miter;stroke-miterlimit:4;stroke-dasharray:none;stroke-dashoffset:0;stroke-opacity:1;paint-order:fill markers stroke"
       d="m 45.204588,110.35715 c 0.01,-0.0818 0.018,-0.38592 0.0181,-0.67587 2.4e-4,-0.52685 2.65e-4,-0.5272 0.0716,-0.61175 l 0.0713,-0.0846 3.87447,2e-5 3.87447,2e-5 0.16527,0.0786 c 0.0909,0.0432 0.1877,0.10376 0.21512,0.13456 0.0497,0.0558 0.0489,0.056 -0.18818,0.0658 -0.22878,0.009 -0.24117,0.0132 -0.31842,0.0996 -0.0622,0.0694 -0.0804,0.11635 -0.0804,0.20697 0,0.24955 0.13283,0.32187 0.59133,0.32187 h 0.31765 v 0.30604 0.30603 l -0.1033,-0.0171 c -0.0568,-0.009 -0.26564,-0.0172 -0.46407,-0.0173 l -0.36078,-2.6e-4 -0.10066,-0.20332 c -0.1191,-0.24053 -0.33772,-0.45781 -0.57865,-0.57508 -0.61173,-0.29775 -1.35816,-0.0325 -1.64929,0.5862 l -0.0899,0.19111 -1.27176,5.3e-4 -1.27175,5.3e-4 -0.0178,-0.0812 c -0.0266,-0.12085 -0.20893,-0.38746 -0.34704,-0.50744 -0.0668,-0.058 -0.21448,-0.15025 -0.3281,-0.20487 -0.19363,-0.0931 -0.22301,-0.0992 -0.46827,-0.0982 -0.31851,0.001 -0.51217,0.0546 -0.716,0.19676 -0.18697,0.13039 -0.39532,0.38528 -0.45867,0.56114 -0.0468,0.12993 -0.0513,0.13372 -0.1598,0.13408 -0.0614,2.2e-4 -0.14147,0.008 -0.17795,0.018 -0.0656,0.0175 -0.0661,0.016 -0.0484,-0.13097 z"
       id="path10245-15-0-62-7"
       inkscape:connector-curvature="0" />
    <path
       style="opacity:1;fill:#a76d7f;fill-opacity:1;fill-rule:evenodd;stroke:#040000;stroke-width:0.15000001;stroke-linecap:butt;stroke-linejoin:miter;stroke-miterlimit:4;stroke-dasharray:none;stroke-dashoffset:0;stroke-opacity:1;paint-order:fill markers stroke"
       d="m 46.352288,108.30935 c 0,-0.009 0.083,-0.17876 0.1845,-0.37805 0.27799,-0.54596 0.48106,-0.7341 0.84968,-0.78729 0.19762,-0.0285 0.67359,-0.0392 0.67359,-0.0151 0,0.007 -0.13311,0.27967 -0.2958,0.60489 l -0.29581,0.59132 h -0.55808 c -0.30694,0 -0.55808,-0.007 -0.55808,-0.0157 z"
       id="path10247-9-5-5-0"
       inkscape:connector-curvature="0" />
    <path
       style="fill:none;stroke:#000000;stroke-width:0.26499999;stroke-linecap:butt;stroke-linejoin:miter;stroke-miterlimit:4;stroke-dasharray:none;stroke-opacity:1;marker-end:url(#Arrow2Lend)"
       d="m 43.668723,113.09167 c -20.922281,31.81846 11.541836,26.31901 13.027631,26.27258"
       id="path24768"
       inkscape:connector-curvature="0"
       sodipodi:nodetypes="cc" />
    <rect
       style="opacity:1;fill:#c9a4b0;fill-opacity:0.2107438;fill-rule:evenodd;stroke:#091112;stroke-width:0.26499999;stroke-linecap:square;stroke-linejoin:round;stroke-miterlimit:4;stroke-dasharray:none;stroke-dashoffset:0;stroke-opacity:1;paint-order:stroke fill markers"
       id="rect25503"
       width="26.458332"
       height="20.788691"
       x="30.30434"
       y="92.585609" />
    <text
       xml:space="preserve"
       style="font-style:italic;font-variant:normal;font-weight:normal;font-stretch:normal;font-size:4.93888903px;line-height:5px;font-family:Calibri;-inkscape-font-specification:'Calibri Italic';font-variant-ligatures:normal;font-variant-position:normal;font-variant-caps:normal;font-variant-numeric:normal;font-variant-alternates:normal;font-feature-settings:normal;text-indent:0;text-align:start;text-decoration:none;text-decoration-line:none;text-decoration-style:solid;text-decoration-color:#000000;letter-spacing:0px;word-spacing:0px;text-transform:none;writing-mode:lr-tb;direction:ltr;text-orientation:mixed;dominant-baseline:auto;baseline-shift:baseline;text-anchor:start;white-space:normal;shape-padding:0;opacity:1;vector-effect:none;fill:#000000;fill-opacity:1;stroke:none;stroke-width:0.26458332;stroke-linecap:butt;stroke-linejoin:miter;stroke-miterlimit:4;stroke-dasharray:none;stroke-dashoffset:0;stroke-opacity:1"
       x="42.792839"
       y="98.016518"
       id="text5208-4-4-5"><tspan
         sodipodi:role="line"
         x="42.792839"
         y="98.016518"
         style="font-style:italic;font-variant:normal;font-weight:bold;font-stretch:normal;font-size:4.93888903px;line-height:5px;font-family:Calibri;-inkscape-font-specification:'Calibri Bold Italic';text-align:center;text-anchor:middle;stroke-width:0.26458332"
         id="tspan13236-4">	(t+n)</tspan></text>
    <text
       xml:space="preserve"
       style="font-style:italic;font-variant:normal;font-weight:normal;font-stretch:normal;font-size:4.93888903px;line-height:5px;font-family:Calibri;-inkscape-font-specification:'Calibri Italic';font-variant-ligatures:normal;font-variant-position:normal;font-variant-caps:normal;font-variant-numeric:normal;font-variant-alternates:normal;font-feature-settings:normal;text-indent:0;text-align:start;text-decoration:none;text-decoration-line:none;text-decoration-style:solid;text-decoration-color:#000000;letter-spacing:0px;word-spacing:0px;text-transform:none;writing-mode:lr-tb;direction:ltr;text-orientation:mixed;dominant-baseline:auto;baseline-shift:baseline;text-anchor:start;white-space:normal;shape-padding:0;opacity:1;vector-effect:none;fill:#000000;fill-opacity:1;stroke:none;stroke-width:0.26458332;stroke-linecap:butt;stroke-linejoin:miter;stroke-miterlimit:4;stroke-dasharray:none;stroke-dashoffset:0;stroke-opacity:1"
       x="138.1134"
       y="-171.71442"
       id="text5208-4-4-5-8"
       transform="rotate(90)"><tspan
         sodipodi:role="line"
         x="138.1134"
         y="-171.71442"
         style="font-style:italic;font-variant:normal;font-weight:bold;font-stretch:normal;font-size:4.93888903px;line-height:5px;font-family:Calibri;-inkscape-font-specification:'Calibri Bold Italic';text-align:center;text-anchor:middle;stroke-width:0.26458332"
         id="tspan13236-4-7">c(t+n)=3</tspan></text>
    <path
       style="fill:none;stroke:#000000;stroke-width:0.565;stroke-linecap:butt;stroke-linejoin:miter;stroke-miterlimit:4;stroke-dasharray:none;stroke-opacity:1;marker-start:url(#marker25551);marker-end:url(#marker25551)"
       d="M 169.40893,176.50578 V 102.20485"
       id="path25541"
       inkscape:connector-curvature="0" />
  </g>
</svg>
