<?xml version="1.0" encoding="UTF-8" standalone="no"?>
<!-- Created with Inkscape (http://www.inkscape.org/) -->

<svg
   xmlns:dc="http://purl.org/dc/elements/1.1/"
   xmlns:cc="http://creativecommons.org/ns#"
   xmlns:rdf="http://www.w3.org/1999/02/22-rdf-syntax-ns#"
   xmlns:svg="http://www.w3.org/2000/svg"
   xmlns="http://www.w3.org/2000/svg"
   xmlns:sodipodi="http://sodipodi.sourceforge.net/DTD/sodipodi-0.dtd"
   xmlns:inkscape="http://www.inkscape.org/namespaces/inkscape"
   width="68.661621mm"
   height="72.074493mm"
   viewBox="0 0 68.661621 72.074494"
   version="1.1"
   id="svg3516"
   inkscape:version="0.92.4 (unknown)"
   sodipodi:docname="okpi-radio.svg">
  <defs
     id="defs3510" />
  <sodipodi:namedview
     id="base"
     pagecolor="#ffffff"
     bordercolor="#666666"
     borderopacity="1.0"
     inkscape:pageopacity="0.0"
     inkscape:pageshadow="2"
     inkscape:zoom="1.979899"
     inkscape:cx="92.50104"
     inkscape:cy="163.01497"
     inkscape:document-units="mm"
     inkscape:current-layer="layer1"
     showgrid="false"
     fit-margin-top="0"
     fit-margin-left="0"
     fit-margin-right="0"
     fit-margin-bottom="0"
     inkscape:window-width="1368"
     inkscape:window-height="704"
     inkscape:window-x="0"
     inkscape:window-y="27"
     inkscape:window-maximized="1" />
  <metadata
     id="metadata3513">
    <rdf:RDF>
      <cc:Work
         rdf:about="">
        <dc:format>image/svg+xml</dc:format>
        <dc:type
           rdf:resource="http://purl.org/dc/dcmitype/StillImage" />
        <dc:title />
      </cc:Work>
    </rdf:RDF>
  </metadata>
  <g
     inkscape:label="Capa 1"
     inkscape:groupmode="layer"
     id="layer1"
     transform="translate(-16.947916,-98.965656)">
    <path
       d="m 50.330054,131.62529 -4.15925,-11.13825 -4.116917,11.12872 0.635,0.004 0.201084,-0.54751 3.280833,-1.84891 3.242027,1.74767 0.23989,0.64875 z m -4.166306,-5.88539 1.876779,1.73143 -1.87325,1.05587 -1.855613,-1.02059 z m -1.520471,0.61171 0.557387,-1.50177 0.515057,0.4766 z m 1.961444,-1.03222 0.525639,-0.50095 0.553861,1.4979 z m 0.292806,-1.12148 -0.740833,0.70802 -0.726723,-0.67239 0.740833,-1.99849 z m -3.679473,5.99122 0.797277,-2.15159 1.527529,0.84032 z m 3.577167,-1.31727 1.520473,-0.8576 0.79022,2.12972 z"
       style="fill:#4bacc6;fill-opacity:1;fill-rule:evenodd;stroke:none;stroke-width:0.35277775"
       id="path922"
       inkscape:connector-curvature="0" />
    <path
       d="m 50.330054,131.62529 -4.15925,-11.13825 -4.116917,11.12872 0.635,0.004 0.201084,-0.54751 3.280833,-1.84891 3.242027,1.74767 0.23989,0.64875 z m -4.166306,-5.88539 1.876779,1.73143 -1.87325,1.05587 -1.855613,-1.02059 z m -1.520471,0.61171 0.557387,-1.50177 0.515057,0.4766 z m 1.961444,-1.03222 0.525639,-0.50095 0.553861,1.4979 z m 0.292806,-1.12148 -0.740833,0.70802 -0.726723,-0.67239 0.740833,-1.99849 z m -3.679473,5.99122 0.797277,-2.15159 1.527529,0.84032 z m 3.577167,-1.31727 1.520473,-0.8576 0.79022,2.12972 z"
       style="fill:none;stroke:#000000;stroke-width:0.2648479;stroke-linecap:round;stroke-linejoin:round;stroke-miterlimit:10;stroke-dasharray:none;stroke-opacity:1"
       id="path924"
       inkscape:connector-curvature="0" />
    <path
       d="m 48.820164,119.34721 c 0,0.94051 -0.486833,1.76848 -1.22061,2.25037 l 0.218723,0.45015 c 0.899584,-0.5648 1.499304,-1.56281 1.499304,-2.70052 0,-0.004 0,-0.007 0,-0.0109 0,-0.004 0,-0.007 0,-0.0106 0,-1.13771 -0.59972,-2.13395 -1.499304,-2.70192 l -0.218723,0.45155 c 0.733777,0.48154 1.22061,1.30951 1.22061,2.25037 0,0.003 0,0.006 0,0.01 v 0 c 0,2.6e-4 0,7.9e-4 0,10e-4 0,2.7e-4 0,7.9e-4 0,0.001 v 0 c 0,0.003 0,0.006 0,0.01 z M 47.13036,118.3171 c 0.278694,0.25788 0.455084,0.62512 0.455084,1.03329 0,0.40816 -0.17639,0.7754 -0.455084,1.03293 l 0.215194,0.46919 c 0.4445,-0.34677 0.73025,-0.8837 0.737306,-1.48731 v 0 c 0,-0.004 0,-0.008 0,-0.0116 0,-0.001 0,-0.002 0,-0.003 0,-0.001 0,-0.002 0,-0.003 0,-0.004 0,-0.008 0,-0.012 v 0 c -0.0071,-0.60325 -0.292806,-1.13982 -0.737306,-1.4866 z m -3.820583,1.03011 c 0,-0.003 0,-0.007 0,-0.01 v -0.002 c 0,-0.003 0,-0.006 0,-0.01 0,-0.94086 0.486833,-1.76883 1.22061,-2.25037 l -0.218723,-0.45155 c -0.899583,0.56797 -1.499304,1.56421 -1.499304,2.70192 0,0.004 0,0.007 0,0.0106 0,0.004 0,0.007 0,0.0109 0,1.13771 0.599721,2.13572 1.499304,2.70052 l 0.218723,-0.45015 c -0.733777,-0.48189 -1.22061,-1.30986 -1.22061,-2.25037 z m 1.735667,-1.03011 -0.218723,-0.46849 c -0.440973,0.34678 -0.726723,0.88336 -0.733777,1.48661 v 0 c 0,0.004 0,0.008 0,0.012 0,0.001 0,0.002 0,0.003 0,0.001 0,0.002 0,0.003 0,0.004 0,0.008 0,0.0116 v 0 c 0.0071,0.6036 0.292804,1.14053 0.733777,1.48731 l 0.218723,-0.46919 c -0.278696,-0.25753 -0.455084,-0.62477 -0.455084,-1.03294 0,-0.40816 0.176388,-0.7754 0.455084,-1.03328 z m 1.559277,1.03858 c 0,-0.28011 -0.225777,-0.50694 -0.508,-0.50694 -0.278694,0 -0.504473,0.22683 -0.504473,0.50694 0,0.27975 0.225779,0.50694 0.504473,0.50694 0.282223,0 0.508,-0.22719 0.508,-0.50694 z"
       style="fill:#4bacc6;fill-opacity:1;fill-rule:evenodd;stroke:none;stroke-width:0.35277775"
       id="path926"
       inkscape:connector-curvature="0" />
    <path
       d="m 48.820164,119.34721 c 0,0.94051 -0.486833,1.76848 -1.22061,2.25037 l 0.218723,0.45015 c 0.899584,-0.5648 1.499304,-1.56281 1.499304,-2.70052 0,-0.004 0,-0.007 0,-0.0109 0,-0.004 0,-0.007 0,-0.0106 0,-1.13771 -0.59972,-2.13395 -1.499304,-2.70192 l -0.218723,0.45155 c 0.733777,0.48154 1.22061,1.30951 1.22061,2.25037 0,0.003 0,0.006 0,0.01 v 0 c 0,2.6e-4 0,7.9e-4 0,10e-4 0,2.7e-4 0,7.9e-4 0,0.001 v 0 c 0,0.003 0,0.006 0,0.01 z M 47.13036,118.3171 c 0.278694,0.25788 0.455084,0.62512 0.455084,1.03329 0,0.40816 -0.17639,0.7754 -0.455084,1.03293 l 0.215194,0.46919 c 0.4445,-0.34677 0.73025,-0.8837 0.737306,-1.48731 v 0 c 0,-0.004 0,-0.008 0,-0.0116 0,-0.001 0,-0.002 0,-0.003 0,-0.001 0,-0.002 0,-0.003 0,-0.004 0,-0.008 0,-0.012 v 0 c -0.0071,-0.60325 -0.292806,-1.13982 -0.737306,-1.4866 z m -3.820583,1.03011 c 0,-0.003 0,-0.007 0,-0.01 v -0.002 c 0,-0.003 0,-0.006 0,-0.01 0,-0.94086 0.486833,-1.76883 1.22061,-2.25037 l -0.218723,-0.45155 c -0.899583,0.56797 -1.499304,1.56421 -1.499304,2.70192 0,0.004 0,0.007 0,0.0106 0,0.004 0,0.007 0,0.0109 0,1.13771 0.599721,2.13572 1.499304,2.70052 l 0.218723,-0.45015 c -0.733777,-0.48189 -1.22061,-1.30986 -1.22061,-2.25037 z m 1.735667,-1.03011 -0.218723,-0.46849 c -0.440973,0.34678 -0.726723,0.88336 -0.733777,1.48661 v 0 c 0,0.004 0,0.008 0,0.012 0,0.001 0,0.002 0,0.003 0,0.001 0,0.002 0,0.003 0,0.004 0,0.008 0,0.0116 v 0 c 0.0071,0.6036 0.292804,1.14053 0.733777,1.48731 l 0.218723,-0.46919 c -0.278696,-0.25753 -0.455084,-0.62477 -0.455084,-1.03294 0,-0.40816 0.176388,-0.7754 0.455084,-1.03328 z m 1.559277,1.03858 c 0,-0.28011 -0.225777,-0.50694 -0.508,-0.50694 -0.278694,0 -0.504473,0.22683 -0.504473,0.50694 0,0.27975 0.225779,0.50694 0.504473,0.50694 0.282223,0 0.508,-0.22719 0.508,-0.50694 z"
       style="fill:none;stroke:#000000;stroke-width:0.2648479;stroke-linecap:round;stroke-linejoin:round;stroke-miterlimit:10;stroke-dasharray:none;stroke-opacity:1"
       id="path928"
       inkscape:connector-curvature="0" />
    <ellipse
       style="opacity:1;fill:#ffdf7f;fill-opacity:1;fill-rule:evenodd;stroke:none;stroke-width:0.55299997;stroke-linecap:butt;stroke-linejoin:miter;stroke-miterlimit:4;stroke-dasharray:none;stroke-dashoffset:0;stroke-opacity:1;paint-order:fill markers stroke"
       id="path7330"
       cx="47.858215"
       cy="157.72374"
       rx="21.544643"
       ry="11.199752" />
    <path
       d="m 63.643462,158.04627 h -0.831147 v -0.83079 h -3.09245 l 0.364067,-1.45521 0.883356,-3.53201 h 1.845027 v 2.70086 h 0.831147 v -3.53307 h -3.323874 l -1.663348,6.65022 h -1.245655 c -0.458965,0 -0.831147,0.37218 -0.831147,0.83114 v 1.24707 h 0.831147 c 0,-1.66335 2.492727,-1.66335 2.492727,0 h 1.247068 c 0,-1.66335 2.493082,-1.66335 2.493082,0 h 0.832201 v -2.07821 z"
       style="fill:#92cddc;fill-opacity:1;fill-rule:nonzero;stroke:none;stroke-width:0.35277775"
       id="path5319-2-9"
       inkscape:connector-curvature="0" />
    <path
       d="m 62.812315,160.12448 c 0,0.2286 -0.185912,0.41487 -0.414864,0.41487 -0.230013,0 -0.415927,-0.18627 -0.415927,-0.41487 0,-0.23036 0.185914,-0.41628 0.415927,-0.41628 0.228952,0 0.414864,0.18592 0.414864,0.41628 z"
       style="fill:#92cddc;fill-opacity:1;fill-rule:nonzero;stroke:none;stroke-width:0.35277775"
       id="path5321-9-7"
       inkscape:connector-curvature="0" />
    <path
       d="m 59.07252,160.12448 c 0,0.2286 -0.186267,0.41487 -0.41628,0.41487 -0.228952,0 -0.414864,-0.18627 -0.414864,-0.41487 0,-0.23036 0.185912,-0.41628 0.414864,-0.41628 0.230013,0 0.41628,0.18592 0.41628,0.41628 z"
       style="fill:#92cddc;fill-opacity:1;fill-rule:nonzero;stroke:none;stroke-width:0.35277775"
       id="path5323-1-3"
       inkscape:connector-curvature="0" />
    <path
       d="m 53.254155,153.05905 v 2.49308 c 0,0.23001 0.186267,0.41486 0.414867,0.41628 h 2.49414 c 0.228951,-0.001 0.414866,-0.18627 0.416276,-0.41628 v -2.49308 c -0.0013,-0.23001 -0.187325,-0.41452 -0.416276,-0.41593 0.228951,0 0.414866,-0.18626 0.416276,-0.41486 v -2.49414 c -0.0013,-0.22896 -0.187325,-0.41487 -0.416276,-0.41487 H 55.33237 v 1.66194 l -0.416277,-0.41628 -0.414515,0.41628 v -1.66194 h -0.832556 c -0.2286,0 -0.414867,0.18591 -0.414867,0.41487 v 2.49414 c 0,0.2286 0.186267,0.41486 0.414867,0.41486 -0.2286,10e-4 -0.414867,0.18592 -0.414867,0.41593 z m 2.078215,-0.41593 v 1.66335 l -0.416277,-0.41628 -0.414515,0.41628 v -1.66335 z"
       style="fill:#92cddc;fill-opacity:1;fill-rule:nonzero;stroke:none;stroke-width:0.35277775"
       id="path5325-2-6"
       inkscape:connector-curvature="0" />
    <path
       d="m 64.475663,157.83813 h -0.208137 v -2.90901 c 0,-0.1143 -0.09349,-0.20814 -0.208139,-0.20814 h -0.20814 v -3.32493 c 0,-0.11465 -0.09208,-0.20672 -0.207785,-0.20672 h -3.323874 c -0.09525,0 -0.17921,0.0645 -0.202493,0.15698 l -1.252715,5.01192 v -7.03898 c 0,-0.11571 -0.09243,-0.20814 -0.20814,-0.20814 h -0.831143 c -0.1143,0 -0.207785,0.0924 -0.207785,0.20814 v 6.44102 h -0.868186 c 0.02328,-0.0663 0.03704,-0.13653 0.03704,-0.20814 v -2.49308 c 0,-0.15417 -0.05786,-0.30163 -0.161221,-0.41593 0.103365,-0.11324 0.161221,-0.26176 0.161221,-0.41486 v -2.49414 c 0,-0.34467 -0.278341,-0.62301 -0.623006,-0.62301 h -2.49414 c -0.3429,0 -0.622652,0.27834 -0.622652,0.62301 v 2.49414 c 0,0.1531 0.05786,0.30162 0.162277,0.41486 -0.10442,0.1143 -0.162277,0.26176 -0.162277,0.41593 v 2.49308 c 0.0011,0.0716 0.01376,0.14181 0.03845,0.20814 H 52.42336 c -0.115711,0 -0.208139,0.0935 -0.208139,0.20814 v 0.83079 c 0,0.1143 0.09243,0.20814 0.208139,0.20814 h 5.193948 v 0.83079 h -0.206727 c -0.574675,0.001 -1.039283,0.46602 -1.039283,1.03928 v 1.24707 c 0,0.1143 0.09243,0.20814 0.20673,0.20814 h 0.640995 c 0.238125,1.66052 2.637367,1.66052 2.875844,0 h 0.863951 c 0.23848,1.66052 2.637722,1.66052 2.876199,0 h 0.640646 c 0.1143,0 0.206727,-0.0938 0.206727,-0.20814 v -2.07821 c 0,-0.1143 -0.09243,-0.20814 -0.206727,-0.20814 z m -3.533423,-0.83079 v -0.83115 c -0.0013,-0.33196 -0.26035,-0.6036 -0.590902,-0.61983 l 0.778579,-3.12138 h 1.474261 v 2.286 h -0.206727 c -0.344313,0 -0.624064,0.27976 -0.624064,0.62442 v 1.66194 z m -0.694266,-1.03893 h 0.07161 c 0.1143,0 0.20814,0.0921 0.20814,0.20778 v 0.83115 h -0.541867 z m 1.941338,-0.62301 c 0,-0.11571 0.09243,-0.20814 0.208139,-0.20814 h 0.206727 v 1.87008 h -0.414866 z m 0.831143,-0.20814 h 0.830792 v 2.70087 h -0.830792 z m -2.538235,-3.53342 h 2.954515 v 3.11714 h -0.41628 v -2.49272 c 0,-0.11572 -0.09243,-0.20814 -0.20814,-0.20814 h -1.843616 c -0.09525,0 -0.179211,0.0649 -0.202846,0.15698 l -1.245658,4.98722 c -0.03316,0.13088 0.06632,0.25788 0.201083,0.25788 h 2.8829 v 0.41593 h -3.680531 z m -5.774267,-2.07786 h 0.416277 v 0.95356 l -0.06068,-0.0607 c -0.08114,-0.0811 -0.213432,-0.0811 -0.293511,0 l -0.06209,0.0607 z m -1.245658,0.20814 c 0,-0.11466 0.09243,-0.20814 0.206727,-0.20814 h 0.624416 v 1.45521 c 0,0.1845 0.222957,0.27693 0.35419,0.14746 l 0.268465,-0.26882 0.268817,0.26882 c 0.130878,0.12947 0.3556,0.037 0.3556,-0.14746 v -1.45521 h 0.622652 c 0.114651,0 0.208139,0.0935 0.208139,0.20814 v 2.49414 c 0,0.1143 -0.09349,0.20672 -0.208139,0.20672 h -2.49414 c -0.1143,0 -0.206727,-0.0924 -0.206727,-0.20672 z m 1.245658,3.11714 h 0.416277 v 0.95356 l -0.06068,-0.0621 c -0.08114,-0.0801 -0.213432,-0.0801 -0.293511,0 l -0.06209,0.0621 z m -1.245658,2.70087 v -2.49308 c 0,-0.1143 0.09243,-0.20779 0.206727,-0.20779 h 0.624416 v 1.45521 c 0,0.1845 0.222957,0.27693 0.35419,0.14605 l 0.268465,-0.26882 0.268817,0.26882 c 0.130878,0.13088 0.3556,0.0385 0.3556,-0.14605 v -1.45521 h 0.622652 c 0.114651,0 0.208139,0.0935 0.208139,0.20779 v 2.49308 c 0,0.11571 -0.09349,0.20814 -0.208139,0.20814 h -2.49414 c -0.1143,0 -0.206727,-0.0924 -0.206727,-0.20814 z m -0.832204,1.03893 v -0.41487 h 4.987221 v 0.41487 z m 5.403146,-7.06508 h 0.416276 v 8.31215 h -0.416276 z m 0.623003,11.63743 c -0.924628,0 -1.389237,-1.11901 -0.73448,-1.77341 0.654402,-0.65476 1.773412,-0.19156 1.773412,0.73448 0,0.57326 -0.464257,1.03752 -1.038932,1.03893 z m 3.741211,0 c -0.926044,0 -1.388888,-1.11901 -0.734486,-1.77341 0.654757,-0.65476 1.77377,-0.19156 1.77377,0.73448 -0.0013,0.57326 -0.466022,1.03752 -1.039284,1.03893 z m 1.870075,-1.24707 H 63.83502 c -0.23848,-1.66193 -2.637721,-1.66193 -2.876198,0 H 60.09487 c -0.23848,-1.66193 -2.637721,-1.66193 -2.875846,0 h -0.432856 v -1.03893 c 0,-0.34466 0.279752,-0.623 0.624417,-0.623 h 6.856941 z"
       style="fill:#000000;fill-opacity:1;fill-rule:nonzero;stroke:none;stroke-width:0.35277775"
       id="path5327-7-1"
       inkscape:connector-curvature="0" />
    <path
       d="m 58.65624,159.50006 c -0.55527,0 -0.832202,0.6724 -0.43956,1.06539 0.392642,0.39264 1.063625,0.1143 1.063625,-0.44097 0,-0.34466 -0.279752,-0.62442 -0.624065,-0.62442 z m 0,0.83256 c -0.184853,0 -0.276928,-0.22472 -0.14605,-0.3556 0.130882,-0.13088 0.35419,-0.0388 0.35419,0.14746 0,0.1143 -0.09243,0.20814 -0.20814,0.20814 z"
       style="fill:#000000;fill-opacity:1;fill-rule:nonzero;stroke:none;stroke-width:0.35277775"
       id="path5329-0-2"
       inkscape:connector-curvature="0" />
    <path
       d="m 62.397451,159.50006 c -0.555273,0 -0.833614,0.6724 -0.440973,1.06539 0.392994,0.39264 1.063977,0.1143 1.063977,-0.44097 0,-0.34466 -0.278342,-0.62442 -0.623004,-0.62442 z m 0,0.83256 c -0.185914,0 -0.278344,-0.22472 -0.147463,-0.3556 0.130882,-0.13088 0.35419,-0.0388 0.35419,0.14746 0,0.1143 -0.09207,0.20814 -0.206727,0.20814 z"
       style="fill:#000000;fill-opacity:1;fill-rule:nonzero;stroke:none;stroke-width:0.35277775"
       id="path5331-9-9"
       inkscape:connector-curvature="0" />
    <path
       d="m 65.409764,153.69333 c -0.08748,-0.0376 -0.141377,-0.10626 -0.167865,-0.21037 -0.01233,-0.0551 -0.01847,-1.0632 -0.01543,-3.48463 l 0.0062,-3.4067 0.0453,-0.0727 c 0.02463,-0.0388 0.12351,-0.1654 0.219609,-0.27998 0.186031,-0.22084 0.286446,-0.29846 0.42508,-0.33212 0.05698,-0.0123 0.631626,-0.0185 1.953776,-0.0123 l 1.873784,0.006 0.08655,0.041 c 0.06653,0.0317 0.131212,0.093 0.283366,0.26858 0.109032,0.12475 0.218683,0.26273 0.245176,0.30555 l 0.04866,0.0776 0.0062,3.40772 c 0.0031,2.42152 0,3.42944 -0.01537,3.48362 -0.02774,0.10503 -0.08039,0.17248 -0.167867,0.21036 -0.07084,0.032 -0.170016,0.0326 -2.41264,0.0326 -2.243553,0 -2.342883,-0.001 -2.413725,-0.0326 z m 4.684652,-3.64686 -0.0031,-3.36792 h -4.535794 l -0.0031,3.36792 -0.0062,3.36793 h 4.553627 z m -2.360687,2.56751 c -0.09302,-0.0246 -0.154313,-0.0755 -0.196815,-0.15831 -0.06222,-0.12598 -0.04433,-0.25133 0.04866,-0.34755 0.07084,-0.0718 0.134292,-0.0983 0.236548,-0.0983 0.243944,0 0.393142,0.23008 0.287367,0.44251 -0.04219,0.0828 -0.109646,0.13614 -0.207902,0.16263 -0.08162,0.0216 -0.08562,0.0216 -0.167862,-0.001 z m -0.06468,-1.12126 c -0.288605,-0.17064 -0.180797,-0.58139 0.153078,-0.58139 0.208213,0 0.354113,0.17556 0.314909,0.37909 -0.01233,0.0693 -0.09703,0.17156 -0.17341,0.20975 -0.07177,0.0357 -0.227925,0.0317 -0.294452,-0.009 z m -1.461645,-1.72518 c -0.04957,-0.0246 -0.09487,-0.0665 -0.1192,-0.10842 -0.04036,-0.0671 -0.04097,-0.0736 -0.0339,-0.57936 0.0031,-0.28121 0.0062,-0.5265 0.0062,-0.54581 0,-0.0185 -0.0021,-0.26273 -0.0021,-0.54092 0,-0.48428 0,-0.50788 0.03695,-0.55389 0.05328,-0.0687 0.116427,-0.11057 0.196818,-0.12875 0.09302,-0.0216 2.970472,-0.0216 3.063584,0 0.08039,0.0185 0.143534,0.0601 0.196816,0.12875 0.03573,0.0459 0.03695,0.0696 0.03695,0.55389 0,0.27813 -0.0021,0.5213 -0.0021,0.54092 0,0.0185 0,0.26457 0.0062,0.54581 0.0062,0.50575 0.0062,0.51209 -0.0339,0.57936 -0.02463,0.0422 -0.06961,0.0841 -0.1192,0.10842 l -0.07916,0.041 h -3.072265 z m 3.066759,-0.66153 v -0.39034 h -2.904006 v 0.77978 h 2.904006 z m 0,-1.10183 v -0.39856 h -2.904006 v 0.79841 h 2.904006 z m 0.537842,-1.66179 c 0,-0.009 -0.03171,-0.044 -0.07177,-0.0779 l -0.07207,-0.0631 h -3.694477 l -0.0847,0.0776 -0.08347,0.0776 h 2.002439 c 1.148744,10e-4 2.003644,-0.006 2.003644,-0.0154 z"
       style="fill:#000000;fill-opacity:1;fill-rule:nonzero;stroke:none;stroke-width:0.0352778"
       id="path888-5-1-6-1-5-3-8"
       inkscape:connector-curvature="0" />
    <path
       d="m 65.568289,150.89688 c 0.02463,-1.35831 0.04097,-2.85581 0.04097,-3.32499 v -0.85358 h 4.460857 v 6.65115 h -4.542018 z m 2.484692,1.65904 c 0.318907,-0.30877 -0.136448,-0.75966 -0.471591,-0.4661 -0.138295,0.12135 -0.143531,0.25133 -0.01543,0.42708 0.113038,0.15554 0.347707,0.17372 0.488405,0.0391 z m -0.04158,-1.07731 c 0.152154,-0.10318 0.187266,-0.37525 0.06345,-0.49481 -0.120737,-0.11643 -0.4694,-0.0878 -0.542184,0.045 -0.09517,0.17186 -0.07916,0.28922 0.05883,0.42317 0.149074,0.14414 0.237781,0.14907 0.419629,0.0277 z m 1.511233,-1.74378 c 0.102566,-0.089 0.114269,-0.20852 0.114269,-1.16829 0,-0.98963 -0.0093,-1.07837 -0.124743,-1.18876 -0.117348,-0.11365 -0.206362,-0.12073 -1.658118,-0.12073 -1.289132,0 -1.557835,0.0154 -1.672785,0.0939 -0.13429,0.0899 -0.137369,0.12259 -0.137369,1.22448 0,1.01509 0.01233,1.13857 0.107804,1.19376 0.0656,0.037 0.729419,0.0616 1.683528,0.0625 1.380085,0.002 1.58836,-0.009 1.68769,-0.097 z"
       style="fill:#ed7d31;fill-opacity:1;fill-rule:evenodd;stroke:none;stroke-width:0.0352778"
       id="path890-6-8-5-1-6-1-4"
       inkscape:connector-curvature="0" />
    <path
       d="m 66.41485,149.11522 v -0.35979 h 2.850071 v 0.71855 H 66.41485 Z"
       style="fill:#ed7d31;fill-opacity:1;fill-rule:evenodd;stroke:none;stroke-width:0.0352778"
       id="path892-2-7-6-5-1-9-5"
       inkscape:connector-curvature="0" />
    <path
       d="m 66.41485,148.0063 v -0.38932 h 2.850071 v 0.77867 H 66.41485 Z"
       style="fill:#ed7d31;fill-opacity:1;fill-rule:evenodd;stroke:none;stroke-width:0.0352778"
       id="path894-9-9-9-9-1-4-0"
       inkscape:connector-curvature="0" />
    <path
       d="m 65.904355,146.28187 0.07392,-0.0736 h 3.685022 l 0.05914,0.0601 0.05944,0.0594 -1.166665,0.0154 c -0.641427,0.009 -1.53122,0.0154 -1.976263,0.0154 h -0.80941 z"
       style="fill:#ed7d31;fill-opacity:1;fill-rule:evenodd;stroke:none;stroke-width:0.0352778"
       id="path896-1-2-3-7-5-7-3"
       inkscape:connector-curvature="0" />
    <path
       style="fill:none;stroke:#000000;stroke-width:0.26458332px;stroke-linecap:butt;stroke-linejoin:miter;stroke-opacity:1"
       d="M 50.239466,127.17147 76.981282,101.2801"
       id="path7663"
       inkscape:connector-curvature="0" />
    <ellipse
       style="opacity:1;fill:#ed7d31;fill-opacity:1;fill-rule:evenodd;stroke:#000000;stroke-width:1.36500001;stroke-linecap:square;stroke-linejoin:round;stroke-miterlimit:4;stroke-dasharray:none;stroke-dashoffset:0;stroke-opacity:1;paint-order:stroke fill markers"
       id="path5500-3"
       cx="71.922432"
       cy="156.64301"
       rx="5.1814232"
       ry="4.9452238" />
    <text
       y="160.07977"
       x="70.217987"
       style="font-style:italic;font-variant:normal;font-weight:bold;font-stretch:normal;font-size:3.03716779px;font-family:Calibri;-inkscape-font-specification:'Calibri Bold Italic';text-align:center;writing-mode:lr-tb;text-anchor:middle;fill:#000000;fill-opacity:1;fill-rule:nonzero;stroke:none;stroke-width:0.35277775"
       id="text1156-3-6"
       transform="scale(1.0236031,0.97694116)">
      <tspan
         style="font-style:italic;font-variant:normal;font-weight:bold;font-stretch:normal;font-size:3.03716779px;line-height:0.80000001;font-family:Calibri;-inkscape-font-specification:'Calibri Bold Italic';text-align:center;text-anchor:middle;stroke-width:0.35277775"
         sodipodi:role="line"
         id="tspan1154-6-7"
         x="70.217987"
         y="160.07977">VNF</tspan>
      <tspan
         style="font-style:italic;font-variant:normal;font-weight:bold;font-stretch:normal;font-size:3.03716779px;line-height:0.80000001;font-family:Calibri;-inkscape-font-specification:'Calibri Bold Italic';text-align:center;text-anchor:middle;stroke-width:0.35277775"
         sodipodi:role="line"
         x="70.217987"
         y="163.87624"
         id="tspan5520-53">1</tspan>
    </text>
    <path
       style="fill:none;stroke:#ed7d31;stroke-width:1;stroke-linecap:butt;stroke-linejoin:miter;stroke-miterlimit:4;stroke-dasharray:6.00000023, 6.00000023;stroke-dashoffset:0;stroke-opacity:1"
       d="M 65.232679,146.59163 C 48.508466,116.06884 44.056465,129.86313 43.599553,126.9792"
       id="path6272"
       inkscape:connector-curvature="0"
       sodipodi:nodetypes="cc" />
    <path
       d="m 29.918961,132.13378 c -0.171871,-0.0738 -0.27777,-0.20878 -0.329811,-0.41332 -0.02421,-0.10832 -0.0363,-2.08895 -0.0303,-6.84648 l 0.01209,-6.69337 0.089,-0.14282 c 0.0484,-0.0762 0.24267,-0.32497 0.43148,-0.55009 0.365511,-0.4339 0.5628,-0.5864 0.835181,-0.65254 0.11195,-0.0242 1.240999,-0.0363 3.83871,-0.0242 l 3.68155,0.0121 0.17005,0.0805 c 0.13072,0.0623 0.2578,0.18276 0.55675,0.5277 0.21422,0.24509 0.429659,0.5162 0.481711,0.60032 l 0.0956,0.1525 0.01209,6.69537 c 0.006,4.75771 0,6.73803 -0.0302,6.84448 -0.0545,0.20636 -0.157951,0.33889 -0.329819,0.41332 -0.139182,0.0629 -0.334042,0.0641 -4.740273,0.0641 -4.40805,0 -4.60321,-0.002 -4.742399,-0.0641 z m 9.20424,-7.16521 -0.006,-6.61718 h -8.91177 l -0.006,6.61718 -0.01209,6.61718 h 8.946809 z m -4.638191,5.04455 c -0.18276,-0.0484 -0.303191,-0.14826 -0.386699,-0.31105 -0.12224,-0.24751 -0.0871,-0.49381 0.0956,-0.68286 0.139178,-0.14101 0.26385,-0.19305 0.464759,-0.19305 0.47929,0 0.77243,0.45206 0.56461,0.86943 -0.0829,0.16279 -0.215429,0.26749 -0.40848,0.31953 -0.160369,0.0424 -0.16823,0.0424 -0.329811,-0.002 z m -0.127079,-2.20302 c -0.567042,-0.33526 -0.355229,-1.1423 0.30076,-1.1423 0.409091,0 0.695748,0.34494 0.61872,0.74483 -0.02421,0.13616 -0.19063,0.33707 -0.340712,0.41211 -0.140999,0.0702 -0.447818,0.0623 -0.57853,-0.0182 z m -2.87179,-3.38956 c -0.0974,-0.0484 -0.186391,-0.13072 -0.234201,-0.21302 -0.0793,-0.13192 -0.0805,-0.14463 -0.0666,-1.13831 0.006,-0.55251 0.01209,-1.03446 0.01209,-1.0724 0,-0.0363 -0.004,-0.5162 -0.004,-1.06278 0,-0.95149 0,-0.99785 0.0726,-1.08826 0.10469,-0.13495 0.228751,-0.21725 0.386701,-0.25296 0.182759,-0.0424 5.83628,-0.0424 6.019221,0 0.157948,0.0363 0.282009,0.11801 0.386699,0.25296 0.0702,0.0902 0.0726,0.13677 0.0726,1.08826 0,0.54646 -0.004,1.02423 -0.004,1.06278 0,0.0363 0,0.51983 0.01209,1.0724 0.01209,0.99368 0.01209,1.00614 -0.0666,1.13831 -0.0484,0.0829 -0.136771,0.16521 -0.234201,0.21302 l -0.15553,0.0805 h -6.036266 z m 6.025459,-1.29977 v -0.76692 h -5.705689 v 1.53209 H 37.5116 Z m 0,-2.16483 v -0.78308 h -5.705689 v 1.56869 H 37.5116 Z m 1.05673,-3.26502 c 0,-0.0182 -0.0623,-0.0865 -0.141009,-0.15311 l -0.1416,-0.12406 h -7.25878 l -0.16641,0.1525 -0.164002,0.1525 h 3.934322 c 2.25701,0.002 3.936688,-0.0121 3.936688,-0.0303 z"
       style="fill:#000000;fill-opacity:1;fill-rule:nonzero;stroke:none;stroke-width:0.0352778"
       id="path888-5-1-6-1-5-3-6"
       inkscape:connector-curvature="0" />
    <path
       d="m 30.230431,126.63942 c 0.0484,-2.66876 0.0805,-5.61099 0.0805,-6.53283 v -1.67708 h 8.764529 v 13.06795 h -8.923989 z m 4.88183,3.25963 c 0.626578,-0.60667 -0.268092,-1.49257 -0.92656,-0.91579 -0.27172,0.23843 -0.282012,0.49381 -0.0303,0.83912 0.222092,0.3056 0.68316,0.34131 0.959599,0.0768 z m -0.0817,-2.11667 c 0.29895,-0.20273 0.36794,-0.73727 0.124661,-0.97219 -0.23722,-0.22875 -0.922261,-0.17247 -1.06526,0.0884 -0.186992,0.33767 -0.155519,0.56824 0.115589,0.83142 0.292891,0.28322 0.46718,0.2929 0.82447,0.0545 z m 2.96922,-3.42611 c 0.20152,-0.17489 0.22451,-0.40969 0.22451,-2.29543 0,-1.94438 -0.0182,-2.11873 -0.245089,-2.33562 -0.23056,-0.2233 -0.40545,-0.23722 -3.257812,-0.23722 -2.532838,0 -3.060779,0.0303 -3.286627,0.18457 -0.263851,0.17671 -0.269902,0.24086 -0.269902,2.40582 0,1.99442 0.02421,2.23703 0.21181,2.34547 0.128899,0.0726 1.433142,0.12104 3.307741,0.12285 2.71154,0.004 3.12075,-0.0182 3.315909,-0.19062 z"
       style="fill:#4bacc6;fill-opacity:1;fill-rule:evenodd;stroke:none;stroke-width:0.0352778"
       id="path890-6-8-5-1-6-1-2"
       inkscape:connector-curvature="0" />
    <path
       d="m 31.893721,123.13887 v -0.70689 h 5.599718 v 1.41178 h -5.599718 z"
       style="fill:#4bacc6;fill-opacity:1;fill-rule:evenodd;stroke:none;stroke-width:0.0352778"
       id="path892-2-7-6-5-1-9-9"
       inkscape:connector-curvature="0" />
    <path
       d="m 31.893721,120.96011 v -0.76492 h 5.599718 v 1.5299 h -5.599718 z"
       style="fill:#4bacc6;fill-opacity:1;fill-rule:evenodd;stroke:none;stroke-width:0.0352778"
       id="path894-9-9-9-9-1-4-1"
       inkscape:connector-curvature="0" />
    <path
       d="m 30.89072,117.572 0.14524,-0.14463 h 7.240202 l 0.116189,0.11801 0.116789,0.11679 -2.29222,0.0303 c -1.26025,0.0181 -3.00849,0.0303 -3.88289,0.0303 h -1.590299 z"
       style="fill:#4bacc6;fill-opacity:1;fill-rule:evenodd;stroke:none;stroke-width:0.0352778"
       id="path896-1-2-3-7-5-7-2"
       inkscape:connector-curvature="0" />
    <path
       style="fill:none;stroke:#000000;stroke-width:0.26458332px;stroke-linecap:butt;stroke-linejoin:miter;stroke-opacity:1"
       d="m 39.252828,126.9792 h 4.346725"
       id="path7673-7"
       inkscape:connector-curvature="0" />
    <ellipse
       style="opacity:1;fill:#4bacc6;fill-opacity:1;fill-rule:evenodd;stroke:#000000;stroke-width:1.36500001;stroke-linecap:square;stroke-linejoin:round;stroke-miterlimit:4;stroke-dasharray:none;stroke-dashoffset:0;stroke-opacity:1;paint-order:stroke fill markers"
       id="path5500-3-0"
       cx="39.646549"
       cy="125.56807"
       rx="5.1814232"
       ry="4.9452238" />
    <text
       y="128.27141"
       x="38.686317"
       style="font-style:italic;font-variant:normal;font-weight:bold;font-stretch:normal;font-size:3.03716779px;font-family:Calibri;-inkscape-font-specification:'Calibri Bold Italic';text-align:center;writing-mode:lr-tb;text-anchor:middle;fill:#000000;fill-opacity:1;fill-rule:nonzero;stroke:none;stroke-width:0.35277775"
       id="text1156-3-6-9"
       transform="scale(1.0236031,0.97694116)">
      <tspan
         style="font-style:italic;font-variant:normal;font-weight:bold;font-stretch:normal;font-size:3.03716779px;line-height:0.80000001;font-family:Calibri;-inkscape-font-specification:'Calibri Bold Italic';text-align:center;text-anchor:middle;stroke-width:0.35277775"
         sodipodi:role="line"
         id="tspan1154-6-7-3"
         x="38.686317"
         y="128.27141">VNF</tspan>
      <tspan
         style="font-style:italic;font-variant:normal;font-weight:bold;font-stretch:normal;font-size:3.03716779px;line-height:0.80000001;font-family:Calibri;-inkscape-font-specification:'Calibri Bold Italic';text-align:center;text-anchor:middle;stroke-width:0.35277775"
         sodipodi:role="line"
         x="38.686317"
         y="132.06787"
         id="tspan5520-53-6">v</tspan>
    </text>
    <rect
       style="opacity:1;fill:#b2d0d8;fill-opacity:1;fill-rule:evenodd;stroke:none;stroke-width:1.56500006;stroke-linecap:square;stroke-linejoin:round;stroke-miterlimit:4;stroke-dasharray:none;stroke-dashoffset:0;stroke-opacity:1;paint-order:stroke fill markers"
       id="rect4421"
       width="11.22532"
       height="4.1426778"
       x="40.721653"
       y="133.17326" />
    <text
       y="139.28603"
       x="44.974377"
       style="font-style:italic;font-variant:normal;font-weight:bold;font-stretch:normal;font-size:3.03716779px;font-family:Calibri;-inkscape-font-specification:'Calibri Bold Italic';text-align:center;writing-mode:lr-tb;text-anchor:middle;fill:#000000;fill-opacity:1;fill-rule:nonzero;stroke:none;stroke-width:0.35277775"
       id="text1156-3-6-9-0"
       transform="scale(1.0236031,0.97694116)">
      <tspan
         style="font-style:italic;font-variant:normal;font-weight:bold;font-stretch:normal;font-size:3.03716779px;line-height:0.80000001;font-family:Calibri;-inkscape-font-specification:'Calibri Bold Italic';text-align:center;text-anchor:middle;stroke-width:0.35277775"
         sodipodi:role="line"
         x="44.974377"
         y="139.28603"
         id="tspan5520-53-6-2">radio i</tspan>
    </text>
    <path
       style="fill:none;stroke:#4bacc6;stroke-width:1;stroke-linecap:butt;stroke-linejoin:miter;stroke-miterlimit:4;stroke-dasharray:none;stroke-opacity:1"
       d="m 81.620992,101.29704 c -13.674593,6.77147 -22.310883,23.35534 -27.528761,23.78698 l -7.928483,0.65588"
       id="path4441"
       inkscape:connector-curvature="0"
       sodipodi:nodetypes="csc" />
    <rect
       style="opacity:1;fill:#b2d0d8;fill-opacity:1;fill-rule:evenodd;stroke:none;stroke-width:1.56500006;stroke-linecap:square;stroke-linejoin:round;stroke-miterlimit:4;stroke-dasharray:none;stroke-dashoffset:0;stroke-opacity:1;paint-order:stroke fill markers"
       id="rect4421-1"
       width="4.4099469"
       height="4.1426778"
       x="32.607533"
       y="133.17326" />
    <text
       y="139.28604"
       x="33.945583"
       style="font-style:italic;font-variant:normal;font-weight:bold;font-stretch:normal;font-size:3.03716779px;font-family:Calibri;-inkscape-font-specification:'Calibri Bold Italic';text-align:center;writing-mode:lr-tb;text-anchor:middle;fill:#000000;fill-opacity:1;fill-rule:nonzero;stroke:none;stroke-width:0.35277775"
       id="text1156-3-6-9-0-8"
       transform="scale(1.0236031,0.97694116)">
      <tspan
         style="font-style:italic;font-variant:normal;font-weight:bold;font-stretch:normal;font-size:3.03716779px;line-height:0.80000001;font-family:Calibri;-inkscape-font-specification:'Calibri Bold Italic';text-align:center;text-anchor:middle;stroke-width:0.35277775"
         sodipodi:role="line"
         x="33.945583"
         y="139.28604"
         id="tspan5520-53-6-2-7">c</tspan>
    </text>
    <rect
       style="opacity:1;fill:#b2d0d8;fill-opacity:0.17768597;fill-rule:evenodd;stroke:none;stroke-width:0.5;stroke-linecap:square;stroke-linejoin:round;stroke-miterlimit:4;stroke-dasharray:none;stroke-dashoffset:0;stroke-opacity:1;paint-order:stroke fill markers"
       id="rect4443-9"
       width="36.474705"
       height="30.427084"
       x="21.998251"
       y="111.1869" />
  </g>
</svg>
