<?xml version="1.0" encoding="UTF-8" standalone="no"?>
<!-- Created with Inkscape (http://www.inkscape.org/) -->

<svg
   xmlns:dc="http://purl.org/dc/elements/1.1/"
   xmlns:cc="http://creativecommons.org/ns#"
   xmlns:rdf="http://www.w3.org/1999/02/22-rdf-syntax-ns#"
   xmlns:svg="http://www.w3.org/2000/svg"
   xmlns="http://www.w3.org/2000/svg"
   xmlns:sodipodi="http://sodipodi.sourceforge.net/DTD/sodipodi-0.dtd"
   xmlns:inkscape="http://www.inkscape.org/namespaces/inkscape"
   version="1.1"
   id="svg1038"
   xml:space="preserve"
   width="928"
   height="418.66666"
   viewBox="0 0 928 418.66666"
   sodipodi:docname="revolution-function.pdf"
   inkscape:version="0.92.4 (unknown)"><metadata
     id="metadata1044"><rdf:RDF><cc:Work
         rdf:about=""><dc:format>image/svg+xml</dc:format><dc:type
           rdf:resource="http://purl.org/dc/dcmitype/StillImage" /><dc:title></dc:title></cc:Work></rdf:RDF></metadata><defs
     id="defs1042"><clipPath
       clipPathUnits="userSpaceOnUse"
       id="clipPath1056"><path
         d="M 0,0 H 354015 V 159905 H 0 Z"
         id="path1054"
         inkscape:connector-curvature="0" /></clipPath></defs><sodipodi:namedview
     pagecolor="#ffffff"
     bordercolor="#666666"
     borderopacity="1"
     objecttolerance="10"
     gridtolerance="10"
     guidetolerance="10"
     inkscape:pageopacity="0"
     inkscape:pageshadow="2"
     inkscape:window-width="1368"
     inkscape:window-height="704"
     id="namedview1040"
     showgrid="false"
     inkscape:zoom="0.85668103"
     inkscape:cx="464"
     inkscape:cy="209.33333"
     inkscape:window-x="0"
     inkscape:window-y="27"
     inkscape:window-maximized="1"
     inkscape:current-layer="g1046" /><g
     id="g1046"
     inkscape:groupmode="layer"
     inkscape:label="revolution-function"
     transform="matrix(1.3333333,0,0,-1.3333333,0,418.66667)"><g
       id="g1048"
       transform="matrix(1,0,0,-1,0,314)"><g
         id="g1050"
         transform="scale(0.0019685)"><g
           id="g1052"
           clip-path="url(#clipPath1056)"><g
             id="g1058"><g
               id="g1060"><g
                 id="g1062"><path
                   d="M 0,0 H 354015 V 159905 H 0 Z"
                   style="fill:#000000;fill-opacity:0;fill-rule:evenodd;stroke:none"
                   id="path1064"
                   inkscape:connector-curvature="0" /></g></g></g><g
             id="g1066"><g
               id="g1068"><path
                 d="m 4148.5,152473.5 36135.95,-58116 H 349376.5 l -36135.94,58116 z"
                 style="fill:#f9f9f9;fill-opacity:0.76149998;fill-rule:evenodd;stroke:none"
                 id="path1070"
                 inkscape:connector-curvature="0" /></g><path
               d="m 4148.5,152473.5 36135.95,-58116 H 349376.5 l -36135.94,58116 z"
               style="fill:none;stroke:#000000;stroke-width:381;stroke-linecap:butt;stroke-linejoin:round;stroke-miterlimit:8;stroke-dasharray:none;stroke-opacity:1"
               id="path1072"
               inkscape:connector-curvature="0" /></g><g
             id="g1074"><g
               id="g1076"><path
                 d="m 202700.5,61194.215 h 16929 v 52472.995 h -16929 z"
                 style="fill:#f3f3f3;fill-opacity:1;fill-rule:evenodd;stroke:none"
                 id="path1078"
                 inkscape:connector-curvature="0" /></g><g
               id="g1080"><path
                 d="m 219629.5,61194.215 5643,-5643 v 52472.995 l -5643,5643 z"
                 style="fill:#c2c2c2;fill-opacity:1;fill-rule:evenodd;stroke:none"
                 id="path1082"
                 inkscape:connector-curvature="0" /></g><g
               id="g1084"><path
                 d="m 202700.5,61194.215 5643,-5643 h 16929 l -5643,5643 z"
                 style="fill:#f5f5f5;fill-opacity:1;fill-rule:evenodd;stroke:none"
                 id="path1086"
                 inkscape:connector-curvature="0" /></g><g
               id="g1088"><g
                 id="g1090"><path
                   d="m 202700.5,61194.215 5643,-5643 h 16929 v 52472.995 l -5643,5643 h -16929 z m 0,0 h 16929 l 5643,-5643 m -5643,5643 v 52472.995"
                   style="fill:#000000;fill-opacity:0;fill-rule:evenodd;stroke:none"
                   id="path1092"
                   inkscape:connector-curvature="0" /></g></g><path
               d="m 202700.5,61194.215 5643,-5643 h 16929 v 52472.995 l -5643,5643 h -16929 z m 0,0 h 16929 l 5643,-5643 m -5643,5643 v 52472.995"
               style="fill:none;stroke:#000000;stroke-width:381;stroke-linecap:butt;stroke-linejoin:round;stroke-miterlimit:8;stroke-dasharray:none;stroke-opacity:1"
               id="path1094"
               inkscape:connector-curvature="0" /></g><g
             id="g1096"><g
               id="g1098"><path
                 d="m 146755.5,125609.5 v 0 c 0,-9099.44 36238.08,-16476 80940,-16476 v 0 c 44701.94,0 80940,7376.56 80940,16476 v 0 c 0,9099.44 -36238.06,16476 -80940,16476 v 0 c -44701.92,0 -80940,-7376.56 -80940,-16476 z"
                 style="fill:#ebebeb;fill-opacity:1;fill-rule:evenodd;stroke:none"
                 id="path1100"
                 inkscape:connector-curvature="0" /></g><path
               d="m 146755.5,125609.5 v 0 c 0,-9099.44 36238.08,-16476 80940,-16476 v 0 c 44701.94,0 80940,7376.56 80940,16476 v 0 c 0,9099.44 -36238.06,16476 -80940,16476 v 0 c -44701.92,0 -80940,-7376.56 -80940,-16476 z"
               style="fill:none;stroke:#000000;stroke-width:381;stroke-linecap:butt;stroke-linejoin:round;stroke-miterlimit:8;stroke-dasharray:none;stroke-opacity:1"
               id="path1102"
               inkscape:connector-curvature="0" /></g><g
             id="g1104"><g
               id="g1106"><path
                 d="m 51206.5,117405.5 c 0,-8453.27 19843.63,-15306 44322,-15306 v 0 c 24478.37,0 44322,6852.73 44322,15306 v 0 c 0,8453.27 -19843.63,15306 -44322,15306 v 0 c -24478.37,0 -44322,-6852.73 -44322,-15306 z"
                 style="fill:#ebebeb;fill-opacity:1;fill-rule:evenodd;stroke:none"
                 id="path1108"
                 inkscape:connector-curvature="0" /></g><path
               d="m 51206.5,117405.5 c 0,-8453.27 19843.63,-15306 44322,-15306 v 0 c 24478.37,0 44322,6852.73 44322,15306 v 0 c 0,8453.27 -19843.63,15306 -44322,15306 v 0 c -24478.37,0 -44322,-6852.73 -44322,-15306 z"
               style="fill:none;stroke:#000000;stroke-width:381;stroke-linecap:butt;stroke-linejoin:round;stroke-miterlimit:8;stroke-dasharray:none;stroke-opacity:1"
               id="path1110"
               inkscape:connector-curvature="0" /></g><g
             id="g1112"><g
               id="g1114"><path
                 d="m 209344.5,76904.375 h 16929 v 41373.005 h -16929 z"
                 style="fill:#f3f3f3;fill-opacity:1;fill-rule:evenodd;stroke:none"
                 id="path1116"
                 inkscape:connector-curvature="0" /></g><g
               id="g1118"><path
                 d="m 226273.5,76904.375 5643,-5643 v 41373.005 l -5643,5643 z"
                 style="fill:#c2c2c2;fill-opacity:1;fill-rule:evenodd;stroke:none"
                 id="path1120"
                 inkscape:connector-curvature="0" /></g><g
               id="g1122"><path
                 d="m 209344.5,76904.375 5643,-5643 h 16929 l -5643,5643 z"
                 style="fill:#f5f5f5;fill-opacity:1;fill-rule:evenodd;stroke:none"
                 id="path1124"
                 inkscape:connector-curvature="0" /></g><g
               id="g1126"><g
                 id="g1128"><path
                   d="m 209344.5,76904.375 5643,-5643 h 16929 v 41373.005 l -5643,5643 h -16929 z m 0,0 h 16929 l 5643,-5643 m -5643,5643 v 41373.005"
                   style="fill:#000000;fill-opacity:0;fill-rule:evenodd;stroke:none"
                   id="path1130"
                   inkscape:connector-curvature="0" /></g></g><path
               d="m 209344.5,76904.375 5643,-5643 h 16929 v 41373.005 l -5643,5643 h -16929 z m 0,0 h 16929 l 5643,-5643 m -5643,5643 v 41373.005"
               style="fill:none;stroke:#000000;stroke-width:381;stroke-linecap:butt;stroke-linejoin:round;stroke-miterlimit:8;stroke-dasharray:none;stroke-opacity:1"
               id="path1132"
               inkscape:connector-curvature="0" /></g><g
             id="g1134"><g
               id="g1136"><path
                 d="m 90338.5,74035.5 h 16929 v 35097 h -16929 z"
                 style="fill:#f3f3f3;fill-opacity:1;fill-rule:evenodd;stroke:none"
                 id="path1138"
                 inkscape:connector-curvature="0" /></g><g
               id="g1140"><path
                 d="m 107267.5,74035.5 5643,-5643 v 35097 l -5643,5643 z"
                 style="fill:#c2c2c2;fill-opacity:1;fill-rule:evenodd;stroke:none"
                 id="path1142"
                 inkscape:connector-curvature="0" /></g><g
               id="g1144"><path
                 d="m 90338.5,74035.5 5643,-5643 h 16929 l -5643,5643 z"
                 style="fill:#f5f5f5;fill-opacity:1;fill-rule:evenodd;stroke:none"
                 id="path1146"
                 inkscape:connector-curvature="0" /></g><g
               id="g1148"><g
                 id="g1150"><path
                   d="m 90338.5,74035.5 5643,-5643 h 16929 v 35097 l -5643,5643 h -16929 z m 0,0 h 16929 l 5643,-5643 m -5643,5643 v 35097"
                   style="fill:#000000;fill-opacity:0;fill-rule:evenodd;stroke:none"
                   id="path1152"
                   inkscape:connector-curvature="0" /></g></g><path
               d="m 90338.5,74035.5 5643,-5643 h 16929 v 35097 l -5643,5643 h -16929 z m 0,0 h 16929 l 5643,-5643 m -5643,5643 v 35097"
               style="fill:none;stroke:#000000;stroke-width:381;stroke-linecap:butt;stroke-linejoin:round;stroke-miterlimit:8;stroke-dasharray:none;stroke-opacity:1"
               id="path1154"
               inkscape:connector-curvature="0" /></g><g
             id="g1156"><g
               id="g1158"><path
                 d="m 74410.5,93172 h 16929 v 20505 h -16929 z"
                 style="fill:#f3f3f3;fill-opacity:1;fill-rule:evenodd;stroke:none"
                 id="path1160"
                 inkscape:connector-curvature="0" /></g><g
               id="g1162"><path
                 d="m 91339.5,93172 5643,-5643 v 20505 l -5643,5643 z"
                 style="fill:#c2c2c2;fill-opacity:1;fill-rule:evenodd;stroke:none"
                 id="path1164"
                 inkscape:connector-curvature="0" /></g><g
               id="g1166"><path
                 d="m 74410.5,93172 5643,-5643 h 16929 l -5643,5643 z"
                 style="fill:#f5f5f5;fill-opacity:1;fill-rule:evenodd;stroke:none"
                 id="path1168"
                 inkscape:connector-curvature="0" /></g><g
               id="g1170"><g
                 id="g1172"><path
                   d="m 74410.5,93172 5643,-5643 h 16929 v 20505 l -5643,5643 h -16929 z m 0,0 h 16929 l 5643,-5643 m -5643,5643 v 20505"
                   style="fill:#000000;fill-opacity:0;fill-rule:evenodd;stroke:none"
                   id="path1174"
                   inkscape:connector-curvature="0" /></g></g><path
               d="m 74410.5,93172 5643,-5643 h 16929 v 20505 l -5643,5643 h -16929 z m 0,0 h 16929 l 5643,-5643 m -5643,5643 v 20505"
               style="fill:none;stroke:#000000;stroke-width:381;stroke-linecap:butt;stroke-linejoin:round;stroke-miterlimit:8;stroke-dasharray:none;stroke-opacity:1"
               id="path1176"
               inkscape:connector-curvature="0" /></g><g
             id="g1178"><g
               id="g1180"><path
                 d="m 96982.5,85047.5 h 16929 v 27309 h -16929 z"
                 style="fill:#f3f3f3;fill-opacity:1;fill-rule:evenodd;stroke:none"
                 id="path1182"
                 inkscape:connector-curvature="0" /></g><g
               id="g1184"><path
                 d="m 113911.5,85047.5 5643,-5643 v 27309 l -5643,5643 z"
                 style="fill:#c2c2c2;fill-opacity:1;fill-rule:evenodd;stroke:none"
                 id="path1186"
                 inkscape:connector-curvature="0" /></g><g
               id="g1188"><path
                 d="m 96982.5,85047.5 5643,-5643 h 16929 l -5643,5643 z"
                 style="fill:#f5f5f5;fill-opacity:1;fill-rule:evenodd;stroke:none"
                 id="path1190"
                 inkscape:connector-curvature="0" /></g><g
               id="g1192"><g
                 id="g1194"><path
                   d="m 96982.5,85047.5 5643,-5643 h 16929 v 27309 l -5643,5643 h -16929 z m 0,0 h 16929 l 5643,-5643 m -5643,5643 v 27309"
                   style="fill:#000000;fill-opacity:0;fill-rule:evenodd;stroke:none"
                   id="path1196"
                   inkscape:connector-curvature="0" /></g></g><path
               d="m 96982.5,85047.5 5643,-5643 h 16929 v 27309 l -5643,5643 h -16929 z m 0,0 h 16929 l 5643,-5643 m -5643,5643 v 27309"
               style="fill:none;stroke:#000000;stroke-width:381;stroke-linecap:butt;stroke-linejoin:round;stroke-miterlimit:8;stroke-dasharray:none;stroke-opacity:1"
               id="path1198"
               inkscape:connector-curvature="0" /></g><g
             id="g1200"><g
               id="g1202"><path
                 d="m 86560.5,100000.5 h 16929 v 24969 h -16929 z"
                 style="fill:#f3f3f3;fill-opacity:1;fill-rule:evenodd;stroke:none"
                 id="path1204"
                 inkscape:connector-curvature="0" /></g><g
               id="g1206"><path
                 d="m 103489.5,100000.5 5643,-5643 v 24969 l -5643,5643 z"
                 style="fill:#c2c2c2;fill-opacity:1;fill-rule:evenodd;stroke:none"
                 id="path1208"
                 inkscape:connector-curvature="0" /></g><g
               id="g1210"><path
                 d="m 86560.5,100000.5 5643,-5643 h 16929 l -5643,5643 z"
                 style="fill:#f5f5f5;fill-opacity:1;fill-rule:evenodd;stroke:none"
                 id="path1212"
                 inkscape:connector-curvature="0" /></g><g
               id="g1214"><g
                 id="g1216"><path
                   d="m 86560.5,100000.5 5643,-5643 h 16929 v 24969 l -5643,5643 h -16929 z m 0,0 h 16929 l 5643,-5643 m -5643,5643 v 24969"
                   style="fill:#000000;fill-opacity:0;fill-rule:evenodd;stroke:none"
                   id="path1218"
                   inkscape:connector-curvature="0" /></g></g><path
               d="m 86560.5,100000.5 5643,-5643 h 16929 v 24969 l -5643,5643 h -16929 z m 0,0 h 16929 l 5643,-5643 m -5643,5643 v 24969"
               style="fill:none;stroke:#000000;stroke-width:381;stroke-linecap:butt;stroke-linejoin:round;stroke-miterlimit:8;stroke-dasharray:none;stroke-opacity:1"
               id="path1220"
               inkscape:connector-curvature="0" /></g><g
             id="g1222"><g
               id="g1224"><path
                 d="m 186772.5,88495.12 h 16929 v 31665 h -16929 z"
                 style="fill:#f3f3f3;fill-opacity:1;fill-rule:evenodd;stroke:none"
                 id="path1226"
                 inkscape:connector-curvature="0" /></g><g
               id="g1228"><path
                 d="m 203701.5,88495.12 5643,-5643 v 31665 l -5643,5643 z"
                 style="fill:#c2c2c2;fill-opacity:1;fill-rule:evenodd;stroke:none"
                 id="path1230"
                 inkscape:connector-curvature="0" /></g><g
               id="g1232"><path
                 d="m 186772.5,88495.12 5643,-5643 h 16929 l -5643,5643 z"
                 style="fill:#f5f5f5;fill-opacity:1;fill-rule:evenodd;stroke:none"
                 id="path1234"
                 inkscape:connector-curvature="0" /></g><g
               id="g1236"><g
                 id="g1238"><path
                   d="m 186772.5,88495.12 5643,-5643 h 16929 v 31665 l -5643,5643 h -16929 z m 0,0 h 16929 l 5643,-5643 m -5643,5643 v 31665"
                   style="fill:#000000;fill-opacity:0;fill-rule:evenodd;stroke:none"
                   id="path1240"
                   inkscape:connector-curvature="0" /></g></g><path
               d="m 186772.5,88495.12 5643,-5643 h 16929 v 31665 l -5643,5643 h -16929 z m 0,0 h 16929 l 5643,-5643 m -5643,5643 v 31665"
               style="fill:none;stroke:#000000;stroke-width:381;stroke-linecap:butt;stroke-linejoin:round;stroke-miterlimit:8;stroke-dasharray:none;stroke-opacity:1"
               id="path1242"
               inkscape:connector-curvature="0" /></g><g
             id="g1244"><g
               id="g1246"><path
                 d="m 196719.5,93472.29 h 16929 v 38024.99 h -16929 z"
                 style="fill:#f3f3f3;fill-opacity:1;fill-rule:evenodd;stroke:none"
                 id="path1248"
                 inkscape:connector-curvature="0" /></g><g
               id="g1250"><path
                 d="m 213648.5,93472.29 5643,-5643 v 38025 l -5643,5642.99 z"
                 style="fill:#c2c2c2;fill-opacity:1;fill-rule:evenodd;stroke:none"
                 id="path1252"
                 inkscape:connector-curvature="0" /></g><g
               id="g1254"><path
                 d="m 196719.5,93472.29 5643,-5643 h 16929 l -5643,5643 z"
                 style="fill:#f5f5f5;fill-opacity:1;fill-rule:evenodd;stroke:none"
                 id="path1256"
                 inkscape:connector-curvature="0" /></g><g
               id="g1258"><g
                 id="g1260"><path
                   d="m 196719.5,93472.29 5643,-5643 h 16929 v 38025 l -5643,5642.99 h -16929 z m 0,0 h 16929 l 5643,-5643 m -5643,5643 v 38024.99"
                   style="fill:#000000;fill-opacity:0;fill-rule:evenodd;stroke:none"
                   id="path1262"
                   inkscape:connector-curvature="0" /></g></g><path
               d="m 196719.5,93472.29 5643,-5643 h 16929 v 38025 l -5643,5642.99 h -16929 z m 0,0 h 16929 l 5643,-5643 m -5643,5643 v 38024.99"
               style="fill:none;stroke:#000000;stroke-width:381;stroke-linecap:butt;stroke-linejoin:round;stroke-miterlimit:8;stroke-dasharray:none;stroke-opacity:1"
               id="path1264"
               inkscape:connector-curvature="0" /></g><g
             id="g1266"><g
               id="g1268"><g
                 id="g1270"><path
                   d="m 51500.5,115666.02 c 6240.168,-16334.67 22758.164,-97824.332 37441,-98007.999 14682.84,-183.667 42213.33,80754.999 50656,96905.999"
                   style="fill:#000000;fill-opacity:0;fill-rule:evenodd;stroke:none"
                   id="path1272"
                   inkscape:connector-curvature="0" /></g></g><path
               d="m 51500.5,115666.02 c 6240.168,-16334.67 22758.164,-97824.332 37441,-98007.999 14682.84,-183.667 42213.33,80754.999 50656,96905.999"
               style="fill:none;stroke:#000000;stroke-width:381;stroke-linecap:butt;stroke-linejoin:round;stroke-miterlimit:8;stroke-dasharray:none;stroke-opacity:1"
               id="path1274"
               inkscape:connector-curvature="0" /></g><g
             id="g1276"><g
               id="g1278"><path
                 d="m 260708.5,107944.41 h 16929 v 20505 h -16929 z"
                 style="fill:#f3f3f3;fill-opacity:1;fill-rule:evenodd;stroke:none"
                 id="path1280"
                 inkscape:connector-curvature="0" /></g><g
               id="g1282"><path
                 d="m 277637.5,107944.41 5643,-5643 v 20505 l -5643,5643 z"
                 style="fill:#c2c2c2;fill-opacity:1;fill-rule:evenodd;stroke:none"
                 id="path1284"
                 inkscape:connector-curvature="0" /></g><g
               id="g1286"><path
                 d="m 260708.5,107944.41 5643,-5643 h 16929 l -5643,5643 z"
                 style="fill:#f5f5f5;fill-opacity:1;fill-rule:evenodd;stroke:none"
                 id="path1288"
                 inkscape:connector-curvature="0" /></g><g
               id="g1290"><g
                 id="g1292"><path
                   d="m 260708.5,107944.41 5643,-5643 h 16929 v 20505 l -5643,5643 h -16929 z m 0,0 h 16929 l 5643,-5643 m -5643,5643 v 20505"
                   style="fill:#000000;fill-opacity:0;fill-rule:evenodd;stroke:none"
                   id="path1294"
                   inkscape:connector-curvature="0" /></g></g><path
               d="m 260708.5,107944.41 5643,-5643 h 16929 v 20505 l -5643,5643 h -16929 z m 0,0 h 16929 l 5643,-5643 m -5643,5643 v 20505"
               style="fill:none;stroke:#000000;stroke-width:381;stroke-linecap:butt;stroke-linejoin:round;stroke-miterlimit:8;stroke-dasharray:none;stroke-opacity:1"
               id="path1296"
               inkscape:connector-curvature="0" /></g><g
             id="g1298"><g
               id="g1300"><g
                 id="g1302"><path
                   d="M 47459,117577 C 54228.5,99120.836 71971.5,6840 88076,6840 c 16104.5,0 46675,92280.836 56010,110737"
                   style="fill:#000000;fill-opacity:0;fill-rule:evenodd;stroke:none"
                   id="path1304"
                   inkscape:connector-curvature="0" /></g></g><path
               d="M 47459,117577 C 54228.5,99120.836 71971.5,6840 88076,6840 c 16104.5,0 46675,92280.836 56010,110737"
               style="fill:none;stroke:#a61c00;stroke-width:762;stroke-linecap:butt;stroke-linejoin:round;stroke-miterlimit:8;stroke-dasharray:3048, 2286;stroke-dashoffset:0;stroke-opacity:1"
               id="path1306"
               inkscape:connector-curvature="0" /></g><g
             id="g1308"><g
               id="g1310"><path
                 d="m 60861.5,100086.5 h 3300 v 16128 h -3300 z"
                 style="fill:#bf9000;fill-opacity:1;fill-rule:evenodd;stroke:none"
                 id="path1312"
                 inkscape:connector-curvature="0" /></g><path
               d="m 60861.5,100086.5 h 3300 v 16128 h -3300 z"
               style="fill:none;stroke:#000000;stroke-width:381;stroke-linecap:butt;stroke-linejoin:round;stroke-miterlimit:8;stroke-dasharray:none;stroke-opacity:1"
               id="path1314"
               inkscape:connector-curvature="0" /></g><g
             id="g1316"><g
               id="g1318"><path
                 d="m 53244.25,93180.76 v 0 c -181.992,-1301.2 415.527,-2589.31 1539.008,-3317.73 1123.484,-728.43 2575.894,-769.42 3740.922,-105.585 v 0 c 412.687,-756.57 1168.03,-1278.929 2037.547,-1409.075 869.515,-130.14 1751.083,147.21 2378.033,748.17 v 0 c 351.56,-685.954 1041.85,-1146.83 1825.92,-1219.08 784.07,-72.25 1550.96,254.345 2028.53,863.9 v 0 c 635.14,-727.11 1645.665,-1033.26 2594.31,-785.96 948.65,247.29 1665.035,1003.61 1839.175,1941.68 v 0 c 778.155,206.5 1426.345,731.46 1777.095,1439.24 350.74,707.77 369.65,1528.946 51.82,2251.344 v 0 c 766.25,970.256 945.5,2263.106 470.84,3396.096 -474.65,1132.98 -1531.895,1935.88 -2777.184,2109.06 -8.776,1063.34 -608.186,2039.06 -1567.206,2551.06 -959.01,512 -2127.87,480.33 -3056.044,-82.8 -395.352,1273.55 -1508.141,2210.6 -2857.596,2406.33 -1349.455,195.74 -2693.662,-384.94 -3451.873,-1491.16 -929.41,545.26 -2044.627,702.33 -3094.074,435.78 -1049.45,-266.55 -1944.731,-934.26 -2483.891,-1852.52 v 0 c -949.742,108.12 -1868.008,-370.6 -2299.072,-1198.596 -431.06,-827.994 -283.155,-1828.984 370.314,-2506.194 v 0 c -847.191,-485.13 -1279.48,-1447.77 -1071.444,-2385.95 208.038,-938.184 1009.257,-1639.31 1985.86,-1737.77 z"
                 style="fill:#b6d7a8;fill-opacity:1;fill-rule:evenodd;stroke:none"
                 id="path1320"
                 inkscape:connector-curvature="0" /></g><g
               id="g1322"><g
                 id="g1324"><path
                   d="m 52311.066,97354.625 v 0 c 399.794,228.93 861.644,332.775 1323.551,297.605 m 604.996,3407.27 c 198.637,-22.62 393.337,-70.51 579.082,-142.44 m 4998.605,1559.12 c -139.706,-203.84 -256.68,-421.65 -348.917,-649.73 m 6658.627,-265.47 v 0 c 72.076,-232.19 118.78,-471.16 139.326,-712.92 M 70750.09,99092.8 c 9.35,-1132.1 -651.574,-2168.65 -1698.86,-2664.44 m 4005.18,-2840.594 c -169.61,385.5 -428.535,727.468 -756.47,999.104 m -1072.28,-4689.79 v 0 c 28.895,155.67 42.27,313.686 39.93,471.85 m -4473.35,-1627.52 v 0 c -158.435,181.37 -288.97,384.06 -387.52,601.75 m -3466.96,-246.65 v 0 c -84.43,164.74 -147.483,339.07 -187.694,518.97 m -4227.953,141.95 v 0 c 246.52,140.46 474.582,309.53 679.18,503.484 M 53244.25,93180.76 v 0 c 25.082,179.33 64.715,356.47 118.527,529.724"
                   style="fill:#000000;fill-opacity:0;fill-rule:evenodd;stroke:none"
                   id="path1326"
                   inkscape:connector-curvature="0" /></g></g><path
               d="m 53244.25,93180.76 v 0 c -181.992,-1301.2 415.527,-2589.31 1539.008,-3317.73 1123.484,-728.43 2575.894,-769.42 3740.922,-105.585 v 0 c 412.687,-756.57 1168.03,-1278.929 2037.547,-1409.075 869.515,-130.14 1751.083,147.21 2378.033,748.17 v 0 c 351.56,-685.954 1041.85,-1146.83 1825.92,-1219.08 784.07,-72.25 1550.96,254.345 2028.53,863.9 v 0 c 635.14,-727.11 1645.665,-1033.26 2594.31,-785.96 948.65,247.29 1665.035,1003.61 1839.175,1941.68 v 0 c 778.155,206.5 1426.345,731.46 1777.095,1439.24 350.74,707.77 369.65,1528.946 51.82,2251.344 v 0 c 766.25,970.256 945.5,2263.106 470.84,3396.096 -474.65,1132.98 -1531.895,1935.88 -2777.184,2109.06 -8.776,1063.34 -608.186,2039.06 -1567.206,2551.06 -959.01,512 -2127.87,480.33 -3056.044,-82.8 -395.352,1273.55 -1508.141,2210.6 -2857.596,2406.33 -1349.455,195.74 -2693.662,-384.94 -3451.873,-1491.16 -929.41,545.26 -2044.627,702.33 -3094.074,435.78 -1049.45,-266.55 -1944.731,-934.26 -2483.891,-1852.52 v 0 c -949.742,108.12 -1868.008,-370.6 -2299.072,-1198.596 -431.06,-827.994 -283.155,-1828.984 370.314,-2506.194 v 0 c -847.191,-485.13 -1279.48,-1447.77 -1071.444,-2385.95 208.038,-938.184 1009.257,-1639.31 1985.86,-1737.77 z"
               style="fill:none;stroke:#000000;stroke-width:381;stroke-linecap:butt;stroke-linejoin:round;stroke-miterlimit:8;stroke-dasharray:none;stroke-opacity:1"
               id="path1328"
               inkscape:connector-curvature="0" /><path
               d="m 52311.066,97354.625 v 0 c 399.794,228.93 861.644,332.775 1323.551,297.605 m 604.996,3407.27 c 198.637,-22.62 393.337,-70.51 579.082,-142.44 m 4998.605,1559.12 c -139.706,-203.84 -256.68,-421.65 -348.917,-649.73 m 6658.627,-265.47 v 0 c 72.076,-232.19 118.78,-471.16 139.326,-712.92 M 70750.09,99092.8 c 9.35,-1132.1 -651.574,-2168.65 -1698.86,-2664.44 m 4005.18,-2840.594 c -169.61,385.5 -428.535,727.468 -756.47,999.104 m -1072.28,-4689.79 v 0 c 28.895,155.67 42.27,313.686 39.93,471.85 m -4473.35,-1627.52 v 0 c -158.435,181.37 -288.97,384.06 -387.52,601.75 m -3466.96,-246.65 v 0 c -84.43,164.74 -147.483,339.07 -187.694,518.97 m -4227.953,141.95 v 0 c 246.52,140.46 474.582,309.53 679.18,503.484 M 53244.25,93180.76 v 0 c 25.082,179.33 64.715,356.47 118.527,529.724"
               style="fill:none;stroke:#000000;stroke-width:381;stroke-linecap:butt;stroke-linejoin:round;stroke-miterlimit:8;stroke-dasharray:none;stroke-opacity:1"
               id="path1330"
               inkscape:connector-curvature="0" /></g><g
             id="g1332"><g
               id="g1334"><path
                 d="m 123286,104032.5 h 3300 v 16128 h -3300 z"
                 style="fill:#bf9000;fill-opacity:1;fill-rule:evenodd;stroke:none"
                 id="path1336"
                 inkscape:connector-curvature="0" /></g><path
               d="m 123286,104032.5 h 3300 v 16128 h -3300 z"
               style="fill:none;stroke:#000000;stroke-width:381;stroke-linecap:butt;stroke-linejoin:round;stroke-miterlimit:8;stroke-dasharray:none;stroke-opacity:1"
               id="path1338"
               inkscape:connector-curvature="0" /></g><g
             id="g1340"><g
               id="g1342"><path
                 d="m 115668.75,97126.76 v 0 c -181.99,-1301.2 415.52,-2589.31 1539.01,-3317.73 1123.48,-728.43 2575.9,-769.42 3740.92,-105.585 v 0 c 412.69,-756.57 1168.03,-1278.929 2037.55,-1409.075 869.51,-130.14 1751.08,147.21 2378.04,748.17 v 0 c 351.55,-685.954 1041.84,-1146.83 1825.91,-1219.08 784.07,-72.25 1550.96,254.345 2028.53,863.9 v 0 c 635.14,-727.11 1645.67,-1033.26 2594.31,-785.96 948.65,247.29 1665.04,1003.61 1839.18,1941.68 v 0 c 778.16,206.5 1426.33,731.46 1777.08,1439.24 350.75,707.77 369.66,1528.946 51.83,2251.344 v 0 c 766.25,970.256 945.5,2263.106 470.84,3396.096 -474.65,1132.98 -1531.89,1935.88 -2777.18,2109.06 -8.77,1063.34 -608.19,2039.06 -1567.21,2551.06 -959.01,512 -2127.87,480.33 -3056.04,-82.8 -395.36,1273.55 -1508.14,2210.6 -2857.6,2406.33 -1349.45,195.74 -2693.66,-384.94 -3451.87,-1491.16 -929.42,545.26 -2044.63,702.33 -3094.07,435.78 -1049.46,-266.55 -1944.74,-934.26 -2483.9,-1852.52 v 0 c -949.74,108.12 -1868.01,-370.6 -2299.07,-1198.6 -431.06,-827.99 -283.15,-1828.98 370.32,-2506.19 v 0 c -847.2,-485.13 -1279.49,-1447.77 -1071.45,-2385.95 208.03,-938.184 1009.26,-1639.31 1985.85,-1737.77 z"
                 style="fill:#b6d7a8;fill-opacity:1;fill-rule:evenodd;stroke:none"
                 id="path1344"
                 inkscape:connector-curvature="0" /></g><g
               id="g1346"><g
                 id="g1348"><path
                   d="m 114735.56,101300.63 v 0 c 399.8,228.93 861.65,332.77 1323.56,297.6 m 604.99,3407.27 c 198.64,-22.62 393.34,-70.51 579.09,-142.44 m 4998.6,1559.12 c -139.71,-203.84 -256.67,-421.65 -348.92,-649.73 m 6658.63,-265.47 v 0 c 72.08,-232.19 118.78,-471.16 139.33,-712.92 m 4483.76,-1755.26 c 9.34,-1132.1 -651.58,-2168.65 -1698.88,-2664.44 m 4005.18,-2840.594 c -169.6,385.5 -428.52,727.468 -756.46,999.104 m -1072.28,-4689.79 v 0 c 28.89,155.67 42.26,313.686 39.94,471.85 m -4473.36,-1627.52 v 0 c -158.43,181.37 -288.97,384.06 -387.52,601.75 m -3466.96,-246.65 v 0 c -84.43,164.74 -147.48,339.07 -187.7,518.97 m -4227.95,141.95 v 0 c 246.52,140.46 474.59,309.53 679.19,503.484 m -5959.05,2919.846 v 0 c 25.09,179.33 64.72,356.47 118.53,529.724"
                   style="fill:#000000;fill-opacity:0;fill-rule:evenodd;stroke:none"
                   id="path1350"
                   inkscape:connector-curvature="0" /></g></g><path
               d="m 115668.75,97126.76 v 0 c -181.99,-1301.2 415.52,-2589.31 1539.01,-3317.73 1123.48,-728.43 2575.9,-769.42 3740.92,-105.585 v 0 c 412.69,-756.57 1168.03,-1278.929 2037.55,-1409.075 869.51,-130.14 1751.08,147.21 2378.04,748.17 v 0 c 351.55,-685.954 1041.84,-1146.83 1825.91,-1219.08 784.07,-72.25 1550.96,254.345 2028.53,863.9 v 0 c 635.14,-727.11 1645.67,-1033.26 2594.31,-785.96 948.65,247.29 1665.04,1003.61 1839.18,1941.68 v 0 c 778.16,206.5 1426.33,731.46 1777.08,1439.24 350.75,707.77 369.66,1528.946 51.83,2251.344 v 0 c 766.25,970.256 945.5,2263.106 470.84,3396.096 -474.65,1132.98 -1531.89,1935.88 -2777.18,2109.06 -8.77,1063.34 -608.19,2039.06 -1567.21,2551.06 -959.01,512 -2127.87,480.33 -3056.04,-82.8 -395.36,1273.55 -1508.14,2210.6 -2857.6,2406.33 -1349.45,195.74 -2693.66,-384.94 -3451.87,-1491.16 -929.42,545.26 -2044.63,702.33 -3094.07,435.78 -1049.46,-266.55 -1944.74,-934.26 -2483.9,-1852.52 v 0 c -949.74,108.12 -1868.01,-370.6 -2299.07,-1198.6 -431.06,-827.99 -283.15,-1828.98 370.32,-2506.19 v 0 c -847.2,-485.13 -1279.49,-1447.77 -1071.45,-2385.95 208.03,-938.184 1009.26,-1639.31 1985.85,-1737.77 z"
               style="fill:none;stroke:#000000;stroke-width:381;stroke-linecap:butt;stroke-linejoin:round;stroke-miterlimit:8;stroke-dasharray:none;stroke-opacity:1"
               id="path1352"
               inkscape:connector-curvature="0" /><path
               d="m 114735.56,101300.63 v 0 c 399.8,228.93 861.65,332.77 1323.56,297.6 m 604.99,3407.27 c 198.64,-22.62 393.34,-70.51 579.09,-142.44 m 4998.6,1559.12 c -139.71,-203.84 -256.67,-421.65 -348.92,-649.73 m 6658.63,-265.47 v 0 c 72.08,-232.19 118.78,-471.16 139.33,-712.92 m 4483.76,-1755.26 c 9.34,-1132.1 -651.58,-2168.65 -1698.88,-2664.44 m 4005.18,-2840.594 c -169.6,385.5 -428.52,727.468 -756.46,999.104 m -1072.28,-4689.79 v 0 c 28.89,155.67 42.26,313.686 39.94,471.85 m -4473.36,-1627.52 v 0 c -158.43,181.37 -288.97,384.06 -387.52,601.75 m -3466.96,-246.65 v 0 c -84.43,164.74 -147.48,339.07 -187.7,518.97 m -4227.95,141.95 v 0 c 246.52,140.46 474.59,309.53 679.19,503.484 m -5959.05,2919.846 v 0 c 25.09,179.33 64.72,356.47 118.53,529.724"
               style="fill:none;stroke:#000000;stroke-width:381;stroke-linecap:butt;stroke-linejoin:round;stroke-miterlimit:8;stroke-dasharray:none;stroke-opacity:1"
               id="path1354"
               inkscape:connector-curvature="0" /></g><g
             id="g1356"><g
               id="g1358"><path
                 d="m 161680,113447 h 3300 v 16128 h -3300 z"
                 style="fill:#bf9000;fill-opacity:1;fill-rule:evenodd;stroke:none"
                 id="path1360"
                 inkscape:connector-curvature="0" /></g><path
               d="m 161680,113447 h 3300 v 16128 h -3300 z"
               style="fill:none;stroke:#000000;stroke-width:381;stroke-linecap:butt;stroke-linejoin:round;stroke-miterlimit:8;stroke-dasharray:none;stroke-opacity:1"
               id="path1362"
               inkscape:connector-curvature="0" /></g><g
             id="g1364"><g
               id="g1366"><path
                 d="m 169791.5,106222 h 3300 v 16128 h -3300 z"
                 style="fill:#bf9000;fill-opacity:1;fill-rule:evenodd;stroke:none"
                 id="path1368"
                 inkscape:connector-curvature="0" /></g><path
               d="m 169791.5,106222 h 3300 v 16128 h -3300 z"
               style="fill:none;stroke:#000000;stroke-width:381;stroke-linecap:butt;stroke-linejoin:round;stroke-miterlimit:8;stroke-dasharray:none;stroke-opacity:1"
               id="path1370"
               inkscape:connector-curvature="0" /></g><g
             id="g1372"><g
               id="g1374"><g
                 id="g1376"><path
                   d="m 147398,124429.47 c 10461.67,-18537.16 45884.67,-104432.17 62770,-111223.002 16885.33,-6790.833 27530,63044.837 38542,70478.002 11012,7433.16 17527.34,-32761.5 27530,-25879 10002.66,6882.5 27071.66,55978.34 32486,67174"
                   style="fill:#000000;fill-opacity:0;fill-rule:evenodd;stroke:none"
                   id="path1378"
                   inkscape:connector-curvature="0" /></g></g><path
               d="m 147398,124429.47 c 10461.67,-18537.16 45884.67,-104432.17 62770,-111223.002 16885.33,-6790.833 27530,63044.837 38542,70478.002 11012,7433.16 17527.34,-32761.5 27530,-25879 10002.66,6882.5 27071.66,55978.34 32486,67174"
               style="fill:none;stroke:#000000;stroke-width:381;stroke-linecap:butt;stroke-linejoin:round;stroke-miterlimit:8;stroke-dasharray:none;stroke-opacity:1"
               id="path1380"
               inkscape:connector-curvature="0" /></g><g
             id="g1382"><g
               id="g1384"><path
                 d="m 162174.25,99316.26 v 0 c -182,-1301.2 415.53,-2589.31 1539.02,-3317.73 1123.46,-728.43 2575.89,-769.42 3740.92,-105.585 v 0 c 412.69,-756.57 1168.01,-1278.929 2037.53,-1409.075 869.53,-130.14 1751.09,147.21 2378.05,748.17 v 0 c 351.56,-685.954 1041.84,-1146.83 1825.92,-1219.08 784.06,-72.25 1550.95,254.345 2028.51,863.9 v 0 c 635.14,-727.11 1645.68,-1033.26 2594.32,-785.96 948.65,247.29 1665.04,1003.61 1839.18,1941.68 v 0 c 778.16,206.5 1426.33,731.46 1777.08,1439.24 350.75,707.77 369.66,1528.946 51.83,2251.344 v 0 c 766.25,970.256 945.5,2263.106 470.84,3396.096 -474.65,1132.98 -1531.89,1935.88 -2777.18,2109.06 -8.77,1063.34 -608.19,2039.06 -1567.21,2551.06 -959.01,512 -2127.87,480.33 -3056.04,-82.8 -395.36,1273.55 -1508.14,2210.6 -2857.6,2406.33 -1349.45,195.74 -2693.65,-384.94 -3451.87,-1491.16 -929.41,545.26 -2044.63,702.33 -3094.08,435.78 -1049.44,-266.55 -1944.74,-934.26 -2483.89,-1852.52 v 0 c -949.74,108.12 -1868,-370.6 -2299.06,-1198.6 -431.07,-827.99 -283.16,-1828.98 370.31,-2506.19 v 0 c -847.21,-485.13 -1279.49,-1447.77 -1071.45,-2385.95 208.04,-938.18 1009.26,-1639.31 1985.85,-1737.77 z"
                 style="fill:#b6d7a8;fill-opacity:1;fill-rule:evenodd;stroke:none"
                 id="path1386"
                 inkscape:connector-curvature="0" /></g><g
               id="g1388"><g
                 id="g1390"><path
                   d="m 161241.06,103490.13 v 0 c 399.8,228.93 861.66,332.77 1323.55,297.6 m 605,3407.27 c 198.64,-22.62 393.34,-70.51 579.08,-142.44 m 4998.61,1559.12 c -139.7,-203.84 -256.68,-421.65 -348.92,-649.73 m 6658.64,-265.47 v 0 c 72.08,-232.19 118.78,-471.16 139.31,-712.92 m 4483.77,-1755.26 c 9.34,-1132.1 -651.58,-2168.65 -1698.88,-2664.44 m 4005.18,-2840.594 c -169.6,385.504 -428.52,727.464 -756.46,999.104 m -1072.28,-4689.79 v 0 c 28.89,155.67 42.26,313.686 39.94,471.85 m -4473.35,-1627.52 v 0 c -158.44,181.37 -288.97,384.06 -387.53,601.75 m -3466.95,-246.65 v 0 c -84.44,164.74 -147.49,339.07 -187.71,518.97 m -4227.95,141.95 v 0 c 246.51,140.46 474.59,309.53 679.19,503.484 m -5959.05,2919.846 v 0 c 25.08,179.33 64.72,356.47 118.53,529.724"
                   style="fill:#000000;fill-opacity:0;fill-rule:evenodd;stroke:none"
                   id="path1392"
                   inkscape:connector-curvature="0" /></g></g><path
               d="m 162174.25,99316.26 v 0 c -182,-1301.2 415.53,-2589.31 1539.02,-3317.73 1123.46,-728.43 2575.89,-769.42 3740.92,-105.585 v 0 c 412.69,-756.57 1168.01,-1278.929 2037.53,-1409.075 869.53,-130.14 1751.09,147.21 2378.05,748.17 v 0 c 351.56,-685.954 1041.84,-1146.83 1825.92,-1219.08 784.06,-72.25 1550.95,254.345 2028.51,863.9 v 0 c 635.14,-727.11 1645.68,-1033.26 2594.32,-785.96 948.65,247.29 1665.04,1003.61 1839.18,1941.68 v 0 c 778.16,206.5 1426.33,731.46 1777.08,1439.24 350.75,707.77 369.66,1528.946 51.83,2251.344 v 0 c 766.25,970.256 945.5,2263.106 470.84,3396.096 -474.65,1132.98 -1531.89,1935.88 -2777.18,2109.06 -8.77,1063.34 -608.19,2039.06 -1567.21,2551.06 -959.01,512 -2127.87,480.33 -3056.04,-82.8 -395.36,1273.55 -1508.14,2210.6 -2857.6,2406.33 -1349.45,195.74 -2693.65,-384.94 -3451.87,-1491.16 -929.41,545.26 -2044.63,702.33 -3094.08,435.78 -1049.44,-266.55 -1944.74,-934.26 -2483.89,-1852.52 v 0 c -949.74,108.12 -1868,-370.6 -2299.06,-1198.6 -431.07,-827.99 -283.16,-1828.98 370.31,-2506.19 v 0 c -847.21,-485.13 -1279.49,-1447.77 -1071.45,-2385.95 208.04,-938.18 1009.26,-1639.31 1985.85,-1737.77 z"
               style="fill:none;stroke:#000000;stroke-width:381;stroke-linecap:butt;stroke-linejoin:round;stroke-miterlimit:8;stroke-dasharray:none;stroke-opacity:1"
               id="path1394"
               inkscape:connector-curvature="0" /><path
               d="m 161241.06,103490.13 v 0 c 399.8,228.93 861.66,332.77 1323.55,297.6 m 605,3407.27 c 198.64,-22.62 393.34,-70.51 579.08,-142.44 m 4998.61,1559.12 c -139.7,-203.84 -256.68,-421.65 -348.92,-649.73 m 6658.64,-265.47 v 0 c 72.08,-232.19 118.78,-471.16 139.31,-712.92 m 4483.77,-1755.26 c 9.34,-1132.1 -651.58,-2168.65 -1698.88,-2664.44 m 4005.18,-2840.594 c -169.6,385.504 -428.52,727.464 -756.46,999.104 m -1072.28,-4689.79 v 0 c 28.89,155.67 42.26,313.686 39.94,471.85 m -4473.35,-1627.52 v 0 c -158.44,181.37 -288.97,384.06 -387.53,601.75 m -3466.95,-246.65 v 0 c -84.44,164.74 -147.49,339.07 -187.71,518.97 m -4227.95,141.95 v 0 c 246.51,140.46 474.59,309.53 679.19,503.484 m -5959.05,2919.846 v 0 c 25.08,179.33 64.72,356.47 118.53,529.724"
               style="fill:none;stroke:#000000;stroke-width:381;stroke-linecap:butt;stroke-linejoin:round;stroke-miterlimit:8;stroke-dasharray:none;stroke-opacity:1"
               id="path1396"
               inkscape:connector-curvature="0" /></g><g
             id="g1398"><g
               id="g1400"><path
                 d="m 154062.75,106541.26 v 0 c -182,-1301.2 415.53,-2589.31 1539.02,-3317.73 1123.46,-728.43 2575.89,-769.42 3740.92,-105.59 v 0 c 412.69,-756.56 1168.01,-1278.92 2037.53,-1409.07 869.53,-130.14 1751.09,147.21 2378.05,748.17 v 0 c 351.56,-685.95 1041.84,-1146.83 1825.92,-1219.08 784.06,-72.25 1550.95,254.35 2028.51,863.9 v 0 c 635.14,-727.11 1645.68,-1033.26 2594.32,-785.96 948.65,247.29 1665.04,1003.61 1839.18,1941.68 v 0 c 778.16,206.5 1426.33,731.46 1777.08,1439.24 350.75,707.77 369.66,1528.95 51.83,2251.34 v 0 c 766.25,970.26 945.5,2263.11 470.84,3396.1 -474.65,1132.98 -1531.89,1935.88 -2777.18,2109.06 -8.77,1063.34 -608.19,2039.06 -1567.21,2551.06 -959.01,512 -2127.87,480.33 -3056.04,-82.8 -395.36,1273.55 -1508.14,2210.6 -2857.6,2406.33 -1349.45,195.74 -2693.65,-384.94 -3451.87,-1491.16 -929.41,545.26 -2044.63,702.33 -3094.08,435.78 -1049.44,-266.55 -1944.74,-934.26 -2483.89,-1852.52 v 0 c -949.74,108.12 -1868,-370.6 -2299.06,-1198.6 -431.07,-827.99 -283.16,-1828.98 370.31,-2506.19 v 0 c -847.21,-485.13 -1279.49,-1447.77 -1071.45,-2385.95 208.04,-938.18 1009.26,-1639.31 1985.85,-1737.77 z"
                 style="fill:#b6d7a8;fill-opacity:1;fill-rule:evenodd;stroke:none"
                 id="path1402"
                 inkscape:connector-curvature="0" /></g><g
               id="g1404"><g
                 id="g1406"><path
                   d="m 153129.56,110715.13 v 0 c 399.8,228.93 861.66,332.77 1323.55,297.6 m 605,3407.27 c 198.64,-22.62 393.34,-70.51 579.08,-142.44 m 4998.61,1559.12 c -139.7,-203.84 -256.68,-421.65 -348.92,-649.73 m 6658.64,-265.47 v 0 c 72.08,-232.19 118.78,-471.16 139.31,-712.92 m 4483.77,-1755.26 c 9.34,-1132.1 -651.58,-2168.65 -1698.88,-2664.44 m 4005.18,-2840.59 c -169.6,385.5 -428.52,727.46 -756.46,999.1 m -1072.28,-4689.79 v 0 c 28.89,155.67 42.26,313.69 39.94,471.85 m -4473.35,-1627.52 v 0 c -158.44,181.37 -288.97,384.06 -387.53,601.75 m -3466.95,-246.65 v 0 c -84.44,164.74 -147.49,339.07 -187.71,518.97 m -4227.95,141.95 v 0 c 246.51,140.46 474.59,309.53 679.19,503.48 m -5959.05,2919.85 v 0 c 25.08,179.33 64.72,356.47 118.53,529.72"
                   style="fill:#000000;fill-opacity:0;fill-rule:evenodd;stroke:none"
                   id="path1408"
                   inkscape:connector-curvature="0" /></g></g><path
               d="m 154062.75,106541.26 v 0 c -182,-1301.2 415.53,-2589.31 1539.02,-3317.73 1123.46,-728.43 2575.89,-769.42 3740.92,-105.59 v 0 c 412.69,-756.56 1168.01,-1278.92 2037.53,-1409.07 869.53,-130.14 1751.09,147.21 2378.05,748.17 v 0 c 351.56,-685.95 1041.84,-1146.83 1825.92,-1219.08 784.06,-72.25 1550.95,254.35 2028.51,863.9 v 0 c 635.14,-727.11 1645.68,-1033.26 2594.32,-785.96 948.65,247.29 1665.04,1003.61 1839.18,1941.68 v 0 c 778.16,206.5 1426.33,731.46 1777.08,1439.24 350.75,707.77 369.66,1528.95 51.83,2251.34 v 0 c 766.25,970.26 945.5,2263.11 470.84,3396.1 -474.65,1132.98 -1531.89,1935.88 -2777.18,2109.06 -8.77,1063.34 -608.19,2039.06 -1567.21,2551.06 -959.01,512 -2127.87,480.33 -3056.04,-82.8 -395.36,1273.55 -1508.14,2210.6 -2857.6,2406.33 -1349.45,195.74 -2693.65,-384.94 -3451.87,-1491.16 -929.41,545.26 -2044.63,702.33 -3094.08,435.78 -1049.44,-266.55 -1944.74,-934.26 -2483.89,-1852.52 v 0 c -949.74,108.12 -1868,-370.6 -2299.06,-1198.6 -431.07,-827.99 -283.16,-1828.98 370.31,-2506.19 v 0 c -847.21,-485.13 -1279.49,-1447.77 -1071.45,-2385.95 208.04,-938.18 1009.26,-1639.31 1985.85,-1737.77 z"
               style="fill:none;stroke:#000000;stroke-width:381;stroke-linecap:butt;stroke-linejoin:round;stroke-miterlimit:8;stroke-dasharray:none;stroke-opacity:1"
               id="path1410"
               inkscape:connector-curvature="0" /><path
               d="m 153129.56,110715.13 v 0 c 399.8,228.93 861.66,332.77 1323.55,297.6 m 605,3407.27 c 198.64,-22.62 393.34,-70.51 579.08,-142.44 m 4998.61,1559.12 c -139.7,-203.84 -256.68,-421.65 -348.92,-649.73 m 6658.64,-265.47 v 0 c 72.08,-232.19 118.78,-471.16 139.31,-712.92 m 4483.77,-1755.26 c 9.34,-1132.1 -651.58,-2168.65 -1698.88,-2664.44 m 4005.18,-2840.59 c -169.6,385.5 -428.52,727.46 -756.46,999.1 m -1072.28,-4689.79 v 0 c 28.89,155.67 42.26,313.69 39.94,471.85 m -4473.35,-1627.52 v 0 c -158.44,181.37 -288.97,384.06 -387.53,601.75 m -3466.95,-246.65 v 0 c -84.44,164.74 -147.49,339.07 -187.71,518.97 m -4227.95,141.95 v 0 c 246.51,140.46 474.59,309.53 679.19,503.48 m -5959.05,2919.85 v 0 c 25.08,179.33 64.72,356.47 118.53,529.72"
               style="fill:none;stroke:#000000;stroke-width:381;stroke-linecap:butt;stroke-linejoin:round;stroke-miterlimit:8;stroke-dasharray:none;stroke-opacity:1"
               id="path1412"
               inkscape:connector-curvature="0" /></g><g
             id="g1414"><g
               id="g1416"><path
                 d="m 244681,110168 h 3300 v 16128 h -3300 z"
                 style="fill:#bf9000;fill-opacity:1;fill-rule:evenodd;stroke:none"
                 id="path1418"
                 inkscape:connector-curvature="0" /></g><path
               d="m 244681,110168 h 3300 v 16128 h -3300 z"
               style="fill:none;stroke:#000000;stroke-width:381;stroke-linecap:butt;stroke-linejoin:round;stroke-miterlimit:8;stroke-dasharray:none;stroke-opacity:1"
               id="path1420"
               inkscape:connector-curvature="0" /></g><g
             id="g1422"><g
               id="g1424"><path
                 d="m 237063.75,103262.26 v 0 c -182,-1301.2 415.53,-2589.31 1539.02,-3317.73 1123.46,-728.43 2575.89,-769.42 3740.92,-105.585 v 0 c 412.69,-756.57 1168.01,-1278.929 2037.53,-1409.075 869.53,-130.14 1751.09,147.21 2378.05,748.17 v 0 c 351.56,-685.954 1041.84,-1146.83 1825.92,-1219.08 784.06,-72.25 1550.95,254.345 2028.51,863.9 v 0 c 635.14,-727.11 1645.68,-1033.26 2594.32,-785.96 948.65,247.29 1665.04,1003.61 1839.18,1941.68 v 0 c 778.16,206.5 1426.33,731.46 1777.08,1439.24 350.75,707.77 369.66,1528.95 51.83,2251.34 v 0 c 766.25,970.26 945.5,2263.11 470.84,3396.1 -474.65,1132.98 -1531.89,1935.88 -2777.18,2109.06 -8.77,1063.34 -608.19,2039.06 -1567.21,2551.06 -959.01,512 -2127.87,480.33 -3056.04,-82.8 -395.36,1273.55 -1508.14,2210.6 -2857.6,2406.33 -1349.45,195.74 -2693.65,-384.94 -3451.87,-1491.16 -929.41,545.26 -2044.63,702.33 -3094.08,435.78 -1049.44,-266.55 -1944.74,-934.26 -2483.89,-1852.52 v 0 c -949.74,108.12 -1868,-370.6 -2299.06,-1198.6 -431.07,-827.99 -283.16,-1828.98 370.31,-2506.19 v 0 c -847.21,-485.13 -1279.49,-1447.77 -1071.45,-2385.95 208.04,-938.18 1009.26,-1639.31 1985.85,-1737.77 z"
                 style="fill:#b6d7a8;fill-opacity:1;fill-rule:evenodd;stroke:none"
                 id="path1426"
                 inkscape:connector-curvature="0" /></g><g
               id="g1428"><g
                 id="g1430"><path
                   d="m 236130.56,107436.13 v 0 c 399.8,228.93 861.66,332.77 1323.55,297.6 m 605,3407.27 c 198.64,-22.62 393.34,-70.51 579.08,-142.44 m 4998.61,1559.12 c -139.7,-203.84 -256.68,-421.65 -348.92,-649.73 m 6658.64,-265.47 v 0 c 72.08,-232.19 118.78,-471.16 139.31,-712.92 m 4483.77,-1755.26 c 9.34,-1132.1 -651.58,-2168.65 -1698.88,-2664.44 m 4005.18,-2840.59 c -169.6,385.5 -428.52,727.46 -756.46,999.1 m -1072.28,-4689.79 v 0 c 28.89,155.67 42.26,313.69 39.94,471.85 m -4473.35,-1627.52 v 0 c -158.44,181.37 -288.97,384.06 -387.53,601.75 m -3466.95,-246.65 v 0 c -84.44,164.74 -147.49,339.07 -187.71,518.97 m -4227.95,141.95 v 0 c 246.51,140.46 474.59,309.53 679.19,503.48 m -5959.05,2919.85 v 0 c 25.08,179.33 64.72,356.47 118.53,529.72"
                   style="fill:#000000;fill-opacity:0;fill-rule:evenodd;stroke:none"
                   id="path1432"
                   inkscape:connector-curvature="0" /></g></g><path
               d="m 237063.75,103262.26 v 0 c -182,-1301.2 415.53,-2589.31 1539.02,-3317.73 1123.46,-728.43 2575.89,-769.42 3740.92,-105.585 v 0 c 412.69,-756.57 1168.01,-1278.929 2037.53,-1409.075 869.53,-130.14 1751.09,147.21 2378.05,748.17 v 0 c 351.56,-685.954 1041.84,-1146.83 1825.92,-1219.08 784.06,-72.25 1550.95,254.345 2028.51,863.9 v 0 c 635.14,-727.11 1645.68,-1033.26 2594.32,-785.96 948.65,247.29 1665.04,1003.61 1839.18,1941.68 v 0 c 778.16,206.5 1426.33,731.46 1777.08,1439.24 350.75,707.77 369.66,1528.95 51.83,2251.34 v 0 c 766.25,970.26 945.5,2263.11 470.84,3396.1 -474.65,1132.98 -1531.89,1935.88 -2777.18,2109.06 -8.77,1063.34 -608.19,2039.06 -1567.21,2551.06 -959.01,512 -2127.87,480.33 -3056.04,-82.8 -395.36,1273.55 -1508.14,2210.6 -2857.6,2406.33 -1349.45,195.74 -2693.65,-384.94 -3451.87,-1491.16 -929.41,545.26 -2044.63,702.33 -3094.08,435.78 -1049.44,-266.55 -1944.74,-934.26 -2483.89,-1852.52 v 0 c -949.74,108.12 -1868,-370.6 -2299.06,-1198.6 -431.07,-827.99 -283.16,-1828.98 370.31,-2506.19 v 0 c -847.21,-485.13 -1279.49,-1447.77 -1071.45,-2385.95 208.04,-938.18 1009.26,-1639.31 1985.85,-1737.77 z"
               style="fill:none;stroke:#000000;stroke-width:381;stroke-linecap:butt;stroke-linejoin:round;stroke-miterlimit:8;stroke-dasharray:none;stroke-opacity:1"
               id="path1434"
               inkscape:connector-curvature="0" /><path
               d="m 236130.56,107436.13 v 0 c 399.8,228.93 861.66,332.77 1323.55,297.6 m 605,3407.27 c 198.64,-22.62 393.34,-70.51 579.08,-142.44 m 4998.61,1559.12 c -139.7,-203.84 -256.68,-421.65 -348.92,-649.73 m 6658.64,-265.47 v 0 c 72.08,-232.19 118.78,-471.16 139.31,-712.92 m 4483.77,-1755.26 c 9.34,-1132.1 -651.58,-2168.65 -1698.88,-2664.44 m 4005.18,-2840.59 c -169.6,385.5 -428.52,727.46 -756.46,999.1 m -1072.28,-4689.79 v 0 c 28.89,155.67 42.26,313.69 39.94,471.85 m -4473.35,-1627.52 v 0 c -158.44,181.37 -288.97,384.06 -387.53,601.75 m -3466.95,-246.65 v 0 c -84.44,164.74 -147.49,339.07 -187.71,518.97 m -4227.95,141.95 v 0 c 246.51,140.46 474.59,309.53 679.19,503.48 m -5959.05,2919.85 v 0 c 25.08,179.33 64.72,356.47 118.53,529.72"
               style="fill:none;stroke:#000000;stroke-width:381;stroke-linecap:butt;stroke-linejoin:round;stroke-miterlimit:8;stroke-dasharray:none;stroke-opacity:1"
               id="path1436"
               inkscape:connector-curvature="0" /></g><g
             id="g1438"><g
               id="g1440"><g
                 id="g1442"><path
                   d="M 144086,117576.83 C 155345,98550.664 194110.17,10189.494 211640,3419.8274 229169.83,-3349.839 239003.67,69761.664 249265,76958.83 c 10261.33,7197.16 13111.66,-38337.17 23943,-30356 10831.34,7981.166 34204.16,65202.5 41045,78243"
                   style="fill:#000000;fill-opacity:0;fill-rule:evenodd;stroke:none"
                   id="path1444"
                   inkscape:connector-curvature="0" /></g></g><path
               d="M 144086,117576.83 C 155345,98550.664 194110.17,10189.494 211640,3419.8274 229169.83,-3349.839 239003.67,69761.664 249265,76958.83 c 10261.33,7197.16 13111.66,-38337.17 23943,-30356 10831.34,7981.166 34204.16,65202.5 41045,78243"
               style="fill:none;stroke:#a61c00;stroke-width:762;stroke-linecap:butt;stroke-linejoin:round;stroke-miterlimit:8;stroke-dasharray:3048, 2286;stroke-dashoffset:0;stroke-opacity:1"
               id="path1446"
               inkscape:connector-curvature="0" /></g><g
             id="g1448"><g
               id="g1450"><g
                 id="g1452"><path
                   d="m 305186,47050 h 36240"
                   style="fill:#000000;fill-opacity:0;fill-rule:evenodd;stroke:none"
                   id="path1454"
                   inkscape:connector-curvature="0" /></g></g><path
               d="m 305186,47050 h 36240"
               style="fill:none;stroke:#a61c00;stroke-width:762;stroke-linecap:butt;stroke-linejoin:round;stroke-miterlimit:8;stroke-dasharray:3048, 2286;stroke-dashoffset:0;stroke-opacity:1"
               id="path1456"
               inkscape:connector-curvature="0" /></g></g></g></g></g></svg>