<?xml version="1.0" encoding="UTF-8" standalone="no"?>
<!-- Created with Inkscape (http://www.inkscape.org/) -->

<svg
   xmlns:dc="http://purl.org/dc/elements/1.1/"
   xmlns:cc="http://creativecommons.org/ns#"
   xmlns:rdf="http://www.w3.org/1999/02/22-rdf-syntax-ns#"
   xmlns:svg="http://www.w3.org/2000/svg"
   xmlns="http://www.w3.org/2000/svg"
   xmlns:sodipodi="http://sodipodi.sourceforge.net/DTD/sodipodi-0.dtd"
   xmlns:inkscape="http://www.inkscape.org/namespaces/inkscape"
   width="247.60774mm"
   height="431.81238mm"
   viewBox="0 0 247.60777 431.81238"
   version="1.1"
   id="svg2131"
   inkscape:version="0.92.4 (unknown)"
   sodipodi:docname="robot-sfc.svg">
  <defs
     id="defs2125">
    <marker
       inkscape:stockid="Arrow2Mend"
       orient="auto"
       refY="0"
       refX="0"
       id="Arrow2Mend"
       style="overflow:visible"
       inkscape:isstock="true">
      <path
         id="path3097"
         style="fill:#5a8e9b;fill-opacity:1;fill-rule:evenodd;stroke:#5a8e9b;stroke-width:0.625;stroke-linejoin:round;stroke-opacity:1"
         d="M 8.7185878,4.0337352 -2.2072895,0.01601326 8.7185884,-4.0017078 c -1.7454984,2.3720609 -1.7354408,5.6174519 -6e-7,8.035443 z"
         transform="scale(-0.6)"
         inkscape:connector-curvature="0" />
    </marker>
    <marker
       inkscape:stockid="Arrow2Mend"
       orient="auto"
       refY="0"
       refX="0"
       id="Arrow2Mend-2"
       style="overflow:visible"
       inkscape:isstock="true">
      <path
         inkscape:connector-curvature="0"
         id="path3097-0"
         style="fill:#5a8e9b;fill-opacity:1;fill-rule:evenodd;stroke:#5a8e9b;stroke-width:0.625;stroke-linejoin:round;stroke-opacity:1"
         d="M 8.7185878,4.0337352 -2.2072895,0.01601326 8.7185884,-4.0017078 c -1.7454984,2.3720609 -1.7354408,5.6174519 -6e-7,8.035443 z"
         transform="scale(-0.6)" />
    </marker>
    <marker
       inkscape:stockid="Arrow2Mend"
       orient="auto"
       refY="0"
       refX="0"
       id="Arrow2Mend-2-3"
       style="overflow:visible"
       inkscape:isstock="true">
      <path
         inkscape:connector-curvature="0"
         id="path3097-0-7"
         style="fill:#5a8e9b;fill-opacity:1;fill-rule:evenodd;stroke:#5a8e9b;stroke-width:0.625;stroke-linejoin:round;stroke-opacity:1"
         d="M 8.7185878,4.0337352 -2.2072895,0.01601326 8.7185884,-4.0017078 c -1.7454984,2.3720609 -1.7354408,5.6174519 -6e-7,8.035443 z"
         transform="scale(-0.6)" />
    </marker>
  </defs>
  <sodipodi:namedview
     id="base"
     pagecolor="#ffffff"
     bordercolor="#666666"
     borderopacity="1.0"
     inkscape:pageopacity="0.0"
     inkscape:pageshadow="2"
     inkscape:zoom="0.175"
     inkscape:cx="336.21863"
     inkscape:cy="604.24991"
     inkscape:document-units="mm"
     inkscape:current-layer="layer1"
     showgrid="false"
     fit-margin-top="0"
     fit-margin-left="0"
     fit-margin-right="0"
     fit-margin-bottom="0"
     inkscape:window-width="1368"
     inkscape:window-height="704"
     inkscape:window-x="0"
     inkscape:window-y="27"
     inkscape:window-maximized="1"
     showguides="false" />
  <metadata
     id="metadata2128">
    <rdf:RDF>
      <cc:Work
         rdf:about="">
        <dc:format>image/svg+xml</dc:format>
        <dc:type
           rdf:resource="http://purl.org/dc/dcmitype/StillImage" />
        <dc:title></dc:title>
      </cc:Work>
    </rdf:RDF>
  </metadata>
  <g
     inkscape:label="Capa 1"
     inkscape:groupmode="layer"
     id="layer1"
     transform="translate(-25.864484,78.685715)">
    <circle
       style="opacity:1;fill:#ff0000;fill-opacity:1;fill-rule:nonzero;stroke:#d35f5f;stroke-width:4;stroke-linecap:round;stroke-linejoin:round;stroke-miterlimit:4;stroke-dasharray:none;stroke-dashoffset:0;stroke-opacity:0.2"
       id="path2663-9-3-2-3-7"
       cx="218.94725"
       cy="297.56058"
       r="51.449387" />
    <text
       xml:space="preserve"
       style="font-style:normal;font-weight:normal;font-size:49.84700775px;line-height:1.25;font-family:sans-serif;letter-spacing:0px;word-spacing:0px;fill:#000000;fill-opacity:1;stroke:none;stroke-width:0.26458332"
       x="177.23192"
       y="316.93134"
       id="text2705"><tspan
         sodipodi:role="line"
         id="tspan2703"
         x="177.23192"
         y="316.93134"
         style="font-style:italic;font-variant:normal;font-weight:bold;font-stretch:normal;font-size:28.22222137px;font-family:calibri;-inkscape-font-specification:'calibri Bold Italic';fill:#ffffff;fill-opacity:1;stroke-width:0.26458332">master</tspan></text>
    <circle
       style="opacity:1;fill:#002d7f;fill-opacity:1;fill-rule:nonzero;stroke:#d35f5f;stroke-width:4;stroke-linecap:round;stroke-linejoin:round;stroke-miterlimit:4;stroke-dasharray:none;stroke-dashoffset:0;stroke-opacity:0.2"
       id="path2663-9-3-2-3-7-3"
       cx="219.13948"
       cy="142.00519"
       r="51.449387" />
    <text
       xml:space="preserve"
       style="font-style:normal;font-weight:normal;font-size:49.84701157px;line-height:1.25;font-family:sans-serif;letter-spacing:0px;word-spacing:0px;fill:#ffffff;fill-opacity:1;stroke:none;stroke-width:0.26458332"
       x="195.03705"
       y="162.95261"
       id="text2705-6"><tspan
         sodipodi:role="line"
         id="tspan2703-7"
         x="195.03705"
         y="162.95261"
         style="font-style:italic;font-variant:normal;font-weight:bold;font-stretch:normal;font-size:28.22222137px;font-family:calibri;-inkscape-font-specification:'calibri Bold Italic';fill:#ffffff;fill-opacity:1;stroke-width:0.26458332">PoA</tspan></text>
    <circle
       style="opacity:1;fill:#fea401;fill-opacity:1;fill-rule:nonzero;stroke:#d35f5f;stroke-width:4;stroke-linecap:round;stroke-linejoin:round;stroke-miterlimit:4;stroke-dasharray:none;stroke-dashoffset:0;stroke-opacity:0.2"
       id="path2663-9-3-2-3-7-35"
       cx="218.62111"
       cy="-10.376078"
       r="51.449387" />
    <text
       xml:space="preserve"
       style="font-style:normal;font-weight:normal;font-size:49.84701157px;line-height:1.25;font-family:sans-serif;letter-spacing:0px;word-spacing:0px;fill:#000000;fill-opacity:1;stroke:none;stroke-width:0.26458332"
       x="188.63338"
       y="8.3793707"
       id="text2705-62"><tspan
         sodipodi:role="line"
         id="tspan2703-9"
         x="188.63338"
         y="8.3793707"
         style="font-style:italic;font-variant:normal;font-weight:bold;font-stretch:normal;font-size:28.22222137px;font-family:Calibri;-inkscape-font-specification:'Calibri Bold Italic';fill:#ffffff;fill-opacity:1;stroke-width:0.26458332">slave</tspan></text>
    <path
       style="fill:#000000;stroke:#050000;stroke-width:8.56499958;stroke-linecap:butt;stroke-linejoin:miter;stroke-miterlimit:4;stroke-dasharray:none;stroke-opacity:0.43983406"
       d="m 219.74021,241.37666 0.0325,-41.93624 v 0 0 0"
       id="path3794-1-62-2"
       inkscape:connector-curvature="0"
       sodipodi:nodetypes="ccccc" />
    <path
       style="fill:#000000;stroke:#050000;stroke-width:8.56499958;stroke-linecap:butt;stroke-linejoin:miter;stroke-miterlimit:4;stroke-dasharray:none;stroke-opacity:0.43983406"
       d="m 218.38489,88.13329 0.0325,-41.93624 v 0 0 0"
       id="path3794-1-62-2-3"
       inkscape:connector-curvature="0"
       sodipodi:nodetypes="ccccc" />
    <text
       xml:space="preserve"
       style="font-style:normal;font-weight:normal;font-size:49.84701538px;line-height:1.25;font-family:sans-serif;letter-spacing:0px;word-spacing:0px;fill:#ffffff;fill-opacity:1;stroke:none;stroke-width:0.26458332"
       x="201.58589"
       y="136.12262"
       id="text2705-6-7"><tspan
         sodipodi:role="line"
         id="tspan2703-7-5"
         x="201.58589"
         y="136.12262"
         style="font-style:italic;font-variant:normal;font-weight:bold;font-stretch:normal;font-size:19.75555611px;font-family:calibri;-inkscape-font-specification:'calibri Bold Italic';fill:#ffffff;fill-opacity:1;stroke-width:0.26458332">VNF</tspan></text>
    <text
       xml:space="preserve"
       style="font-style:normal;font-weight:normal;font-size:49.84701538px;line-height:1.25;font-family:sans-serif;letter-spacing:0px;word-spacing:0px;fill:#ffffff;fill-opacity:1;stroke:none;stroke-width:0.26458332"
       x="200.95848"
       y="-16.633295"
       id="text2705-6-7-3"><tspan
         sodipodi:role="line"
         id="tspan2703-7-5-5"
         x="200.95848"
         y="-16.633295"
         style="font-style:italic;font-variant:normal;font-weight:bold;font-stretch:normal;font-size:19.75555611px;font-family:calibri;-inkscape-font-specification:'calibri Bold Italic';fill:#ffffff;fill-opacity:1;stroke-width:0.26458332">VNF</tspan></text>
    <text
       xml:space="preserve"
       style="font-style:normal;font-weight:normal;font-size:49.84701538px;line-height:1.25;font-family:sans-serif;letter-spacing:0px;word-spacing:0px;fill:#ffffff;fill-opacity:1;stroke:none;stroke-width:0.26458332"
       x="202.02757"
       y="291.19662"
       id="text2705-6-7-6"><tspan
         sodipodi:role="line"
         id="tspan2703-7-5-2"
         x="202.02757"
         y="291.19662"
         style="font-style:italic;font-variant:normal;font-weight:bold;font-stretch:normal;font-size:19.75555611px;font-family:calibri;-inkscape-font-specification:'calibri Bold Italic';fill:#ffffff;fill-opacity:1;stroke-width:0.26458332">VNF</tspan></text>
    <path
       d="m 104.09721,191.77101 -30.657657,-81.00519 -30.345745,80.93588 4.680579,0.029 1.482164,-3.98188 24.183002,-13.44657 23.896775,12.71028 1.768228,4.71817 z m -30.709687,-42.8027 13.833652,12.59217 -13.807632,7.67904 -13.677654,-7.42246 z m -11.207343,4.44879 4.108522,-10.92194 3.796419,3.46618 z m 14.457715,-7.50705 3.874456,-3.64325 4.082489,10.89378 z m 2.158278,-8.15618 -5.46062,5.14922 -5.35669,-4.8901 5.46069,-14.53443 z m -27.12127,43.57237 5.876672,-15.64788 11.259392,6.1114 z m 26.367143,-9.58012 11.207397,-6.23707 5.824667,15.48883 z"
       style="fill:#4bacc6;fill-opacity:1;fill-rule:evenodd;stroke:#000000;stroke-width:0.96499997;stroke-miterlimit:10;stroke-dasharray:none;stroke-opacity:1"
       id="path922-8"
       inkscape:connector-curvature="0" />
    <path
       d="m 104.09721,191.77101 -30.657657,-81.00519 -30.345745,80.93588 4.680579,0.029 1.482164,-3.98188 24.183002,-13.44657 23.896775,12.71028 1.768228,4.71817 z m -30.709687,-42.8027 13.833652,12.59217 -13.807632,7.67904 -13.677654,-7.42246 z m -11.207343,4.44879 4.108522,-10.92194 3.796419,3.46618 z m 14.457715,-7.50705 3.874456,-3.64325 4.082489,10.89378 z m 2.158278,-8.15618 -5.46062,5.14922 -5.35669,-4.8901 5.46069,-14.53443 z m -27.12127,43.57237 5.876672,-15.64788 11.259392,6.1114 z m 26.367143,-9.58012 11.207397,-6.23707 5.824667,15.48883 z"
       style="fill:none;stroke:#000000;stroke-width:0.96499997;stroke-linecap:round;stroke-linejoin:round;stroke-miterlimit:10;stroke-dasharray:none;stroke-opacity:1"
       id="path924-1"
       inkscape:connector-curvature="0" />
    <path
       d="m 92.967862,102.47617 c 0,6.84004 -3.588469,12.86162 -8.997059,16.36627 l 1.612181,3.2738 c 6.630751,-4.10762 11.051267,-11.36584 11.051267,-19.64007 0,-0.0291 0,-0.0509 0,-0.0792 0,-0.0291 0,-0.0509 0,-0.0771 0,-8.274211 -4.420516,-15.519573 -11.051267,-19.650244 l -1.612181,3.283983 c 5.40859,3.502106 8.997059,9.523685 8.997059,16.366261 0,0.0218 0,0.0436 0,0.0727 v 0 c 0,0.002 0,0.006 0,0.007 0,0.002 0,0.006 0,0.007 v 0 c 0,0.0218 0,0.0436 0,0.0727 z M 80.512351,94.984495 c 2.054288,1.875479 3.354452,4.546298 3.354452,7.514795 0,2.96843 -1.300164,5.63925 -3.354452,7.5122 l 1.586231,3.41227 c 3.276392,-2.52195 5.38264,-6.42688 5.4346,-10.81676 v 0 c 0,-0.0291 0,-0.0581 0,-0.0843 0,-0.007 0,-0.0146 0,-0.0218 0,-0.007 0,-0.0146 0,-0.0218 0,-0.0291 0,-0.0581 0,-0.0873 v 0 c -0.0515,-4.387258 -2.158208,-8.289563 -5.4346,-10.811601 z m -28.16138,7.491675 c 0,-0.0218 0,-0.0509 0,-0.0727 v -0.0146 c 0,-0.0218 0,-0.0436 0,-0.0727 0,-6.842588 3.58841,-12.864167 8.997101,-16.366262 L 59.735889,82.666069 C 53.105023,86.79674 48.68448,94.042101 48.68448,102.31631 c 0,0.0291 0,0.0509 0,0.0771 0,0.0291 0,0.0509 0,0.0792 0,8.27423 4.420543,15.53247 11.051409,19.64009 l 1.612183,-3.2738 c -5.408691,-3.50465 -8.997101,-9.52623 -8.997101,-16.36629 z m 12.79361,-7.491675 -1.612266,-3.407196 c -3.250378,2.522038 -5.356647,6.424413 -5.408609,10.811671 v 0 c 0,0.0291 0,0.0581 0,0.0873 0,0.007 0,0.0146 0,0.0218 0,0.007 0,0.0146 0,0.0218 0,0.0291 0,0.0581 0,0.0843 v 0 c 0.05157,4.3898 2.158231,8.29473 5.408609,10.81676 l 1.612266,-3.41228 c -2.054296,-1.87294 -3.354467,-4.54377 -3.354467,-7.51227 0,-2.968427 1.300171,-5.639241 3.354467,-7.514719 z m 11.493314,7.553265 c 0,-2.03715 -1.664141,-3.686811 -3.744439,-3.686811 -2.054218,0 -3.718439,1.649661 -3.718439,3.686811 0,2.03454 1.664221,3.68683 3.718439,3.68683 2.080298,0 3.744439,-1.65229 3.744439,-3.68683 z"
       style="fill:#4bacc6;fill-opacity:1;fill-rule:evenodd;stroke:#000000;stroke-width:0.96499997;stroke-miterlimit:10;stroke-dasharray:none;stroke-opacity:1"
       id="path926-0"
       inkscape:connector-curvature="0" />
    <path
       d="m 92.967862,102.47617 c 0,6.84004 -3.588469,12.86162 -8.997059,16.36627 l 1.612181,3.2738 c 6.630751,-4.10762 11.051267,-11.36584 11.051267,-19.64007 0,-0.0291 0,-0.0509 0,-0.0792 0,-0.0291 0,-0.0509 0,-0.0771 0,-8.274211 -4.420516,-15.519573 -11.051267,-19.650244 l -1.612181,3.283983 c 5.40859,3.502106 8.997059,9.523685 8.997059,16.366261 0,0.0218 0,0.0436 0,0.0727 v 0 c 0,0.002 0,0.006 0,0.007 0,0.002 0,0.006 0,0.007 v 0 c 0,0.0218 0,0.0436 0,0.0727 z M 80.512351,94.984495 c 2.054288,1.875479 3.354452,4.546298 3.354452,7.514795 0,2.96843 -1.300164,5.63925 -3.354452,7.5122 l 1.586231,3.41227 c 3.276392,-2.52195 5.38264,-6.42688 5.4346,-10.81676 v 0 c 0,-0.0291 0,-0.0581 0,-0.0843 0,-0.007 0,-0.0146 0,-0.0218 0,-0.007 0,-0.0146 0,-0.0218 0,-0.0291 0,-0.0581 0,-0.0873 v 0 c -0.0515,-4.387258 -2.158208,-8.289563 -5.4346,-10.811601 z m -28.16138,7.491675 c 0,-0.0218 0,-0.0509 0,-0.0727 v -0.0146 c 0,-0.0218 0,-0.0436 0,-0.0727 0,-6.842588 3.58841,-12.864167 8.997101,-16.366262 L 59.735889,82.666069 C 53.105023,86.79674 48.68448,94.042101 48.68448,102.31631 c 0,0.0291 0,0.0509 0,0.0771 0,0.0291 0,0.0509 0,0.0792 0,8.27423 4.420543,15.53247 11.051409,19.64009 l 1.612183,-3.2738 c -5.408691,-3.50465 -8.997101,-9.52623 -8.997101,-16.36629 z m 12.79361,-7.491675 -1.612266,-3.407196 c -3.250378,2.522038 -5.356647,6.424413 -5.408609,10.811671 v 0 c 0,0.0291 0,0.0581 0,0.0873 0,0.007 0,0.0146 0,0.0218 0,0.007 0,0.0146 0,0.0218 0,0.0291 0,0.0581 0,0.0843 v 0 c 0.05157,4.3898 2.158231,8.29473 5.408609,10.81676 l 1.612266,-3.41228 c -2.054296,-1.87294 -3.354467,-4.54377 -3.354467,-7.51227 0,-2.968427 1.300171,-5.639241 3.354467,-7.514719 z m 11.493314,7.553265 c 0,-2.03715 -1.664141,-3.686811 -3.744439,-3.686811 -2.054218,0 -3.718439,1.649661 -3.718439,3.686811 0,2.03454 1.664221,3.68683 3.718439,3.68683 2.080298,0 3.744439,-1.65229 3.744439,-3.68683 z"
       style="fill:none;stroke:#000000;stroke-width:0.96499997;stroke-linecap:round;stroke-linejoin:round;stroke-miterlimit:10;stroke-dasharray:none;stroke-opacity:1"
       id="path928-3"
       inkscape:connector-curvature="0" />
    <path
       d="m 100.72171,310.35793 h -4.992473 v -4.99032 H 77.153725 l 2.186871,-8.74107 5.306105,-21.21585 h 11.082536 v 16.22335 h 4.992473 V 270.41183 H 80.756144 l -9.991301,39.9461 h -7.482344 c -2.756848,0 -4.99244,2.23559 -4.99244,4.99247 v 7.49086 h 4.99244 c 0,-9.99136 14.973159,-9.99136 14.973159,0 h 7.490816 c 0,-9.99136 14.975236,-9.99136 14.975236,0 h 4.9988 v -12.48333 z"
       style="fill:#92cddc;fill-opacity:1;fill-rule:nonzero;stroke:none;stroke-width:0.35277772"
       id="path5319-2-9-8-3"
       inkscape:connector-curvature="0" />
    <path
       d="m 95.729237,322.84126 c 0,1.37314 -1.116702,2.49203 -2.491948,2.49203 -1.381609,0 -2.498376,-1.11889 -2.498376,-2.49203 0,-1.38372 1.116767,-2.50049 2.498376,-2.50049 1.375246,0 2.491948,1.11677 2.491948,2.50049 z"
       style="fill:#92cddc;fill-opacity:1;fill-rule:nonzero;stroke:none;stroke-width:0.35277772"
       id="path5321-9-7-5-6"
       inkscape:connector-curvature="0" />
    <path
       d="m 73.265328,322.84126 c 0,1.37314 -1.118876,2.49203 -2.500485,2.49203 -1.375239,0 -2.492014,-1.11889 -2.492014,-2.49203 0,-1.38372 1.116775,-2.50049 2.492014,-2.50049 1.381609,0 2.500485,1.11677 2.500485,2.50049 z"
       style="fill:#92cddc;fill-opacity:1;fill-rule:nonzero;stroke:none;stroke-width:0.35277772"
       id="path5323-1-3-7-7"
       inkscape:connector-curvature="0" />
    <path
       d="m 38.315937,280.40102 v 14.97528 c 0,1.3816 1.118869,2.49195 2.492014,2.50048 h 14.981632 c 1.375238,-0.007 2.492012,-1.11888 2.500476,-2.50048 v -14.97528 c -0.006,-1.3816 -1.125238,-2.4899 -2.500476,-2.49837 1.375238,0 2.492012,-1.11881 2.500476,-2.49196 v -14.98163 c -0.006,-1.3753 -1.125238,-2.49201 -2.500476,-2.49201 h -4.990339 v 9.98283 l -2.500477,-2.50048 -2.489854,2.50048 v -9.98283 h -5.000962 c -1.373145,0 -2.492014,1.11671 -2.492014,2.49201 v 14.98163 c 0,1.37315 1.118869,2.49196 2.492014,2.49196 -1.373145,0.007 -2.492014,1.11677 -2.492014,2.49837 z m 12.483307,-2.49837 v 9.99129 l -2.500477,-2.50047 -2.489854,2.50047 v -9.99129 z"
       style="fill:#92cddc;fill-opacity:1;fill-rule:nonzero;stroke:none;stroke-width:0.35277772"
       id="path5325-2-6-41-5"
       inkscape:connector-curvature="0" />
    <path
       d="m 105.72051,309.10769 h -1.25024 v -17.47365 c 0,-0.68657 -0.56163,-1.25024 -1.25018,-1.25024 h -1.25024 v -19.97197 c 0,-0.68866 -0.55322,-1.24171 -1.24814,-1.24171 H 80.756144 c -0.571839,0 -1.076469,0.38743 -1.216365,0.94294 l -7.524694,30.10527 v -42.28128 c 0,-0.69503 -0.555022,-1.25024 -1.250242,-1.25024 h -4.992492 c -0.686568,0 -1.248081,0.55502 -1.248081,1.25024 v 38.68949 h -5.214984 c 0.139956,-0.39826 0.222246,-0.8201 0.222246,-1.25024 v -14.97528 c 0,-0.92605 -0.34779,-1.81181 -0.968406,-2.49837 0.620915,-0.6802 0.968406,-1.57233 0.968406,-2.49196 v -14.98163 c 0,-2.07033 -1.67191,-3.74225 -3.742189,-3.74225 H 40.807704 c -2.059706,0 -3.740088,1.67192 -3.740088,3.74225 v 14.98163 c 0,0.91963 0.347789,1.81176 0.974709,2.49196 -0.627218,0.68656 -0.974709,1.57232 -0.974709,2.49837 v 14.97528 c 0.006,0.43007 0.08289,0.85181 0.230658,1.25024 h -3.973212 c -0.695042,0 -1.250243,0.56163 -1.250243,1.25024 v 4.99034 c 0,0.68657 0.555023,1.25023 1.250243,1.25023 h 31.198669 v 4.99034 H 63.28196 c -3.451956,0.007 -6.242681,2.79927 -6.242681,6.24271 v 7.49086 c 0,0.68657 0.555023,1.25024 1.241771,1.25024 h 3.850258 c 1.430381,9.97436 15.841975,9.97436 17.274463,0 h 5.189513 c 1.432489,9.97436 15.844056,9.97436 17.276536,0 h 3.84816 c 0.68657,0 1.24177,-0.56342 1.24177,-1.25024 v -12.48333 c 0,-0.68656 -0.55503,-1.25024 -1.24177,-1.25024 z m -21.224278,-4.99034 v -4.9925 c -0.006,-1.99398 -1.563849,-3.62565 -3.549378,-3.72316 l 4.676724,-18.74929 h 8.855483 v 13.7314 h -1.241772 c -2.068178,0 -3.748619,1.68044 -3.748619,3.75073 v 9.98282 z m -4.170294,-6.24057 h 0.430086 c 0.686569,0 1.250242,0.55321 1.250242,1.24807 v 4.9925 h -3.254868 z m 11.661109,-3.74225 c 0,-0.69504 0.555023,-1.25025 1.250242,-1.25025 h 1.241772 v 11.23307 h -2.492014 z m 4.992431,-1.25025 h 4.990372 v 16.22341 H 96.979478 Z M 81.73302,271.65998 h 17.746923 v 18.72382 h -2.500465 v -14.97311 c 0,-0.69509 -0.555027,-1.25023 -1.250241,-1.25023 H 84.655173 c -0.571839,0 -1.076468,0.38983 -1.218467,0.94293 l -7.482344,29.9569 c -0.199428,0.78616 0.398243,1.54902 1.207894,1.54902 h 17.316805 v 2.49838 H 72.371047 Z M 47.048524,259.17883 h 2.500478 v 5.72778 L 49.184397,264.542 c -0.487149,-0.48716 -1.282019,-0.48716 -1.763036,0 l -0.373017,0.36461 z m -7.482352,1.25023 c 0,-0.68873 0.555023,-1.25023 1.241779,-1.25023 h 3.75072 v 8.74105 c 0,1.10824 1.3392,1.66344 2.127521,0.88576 l 1.612575,-1.61474 1.614726,1.61474 c 0.78616,0.77768 2.135993,0.22224 2.135993,-0.88576 v -8.74105 h 3.740097 c 0.68867,0 1.250235,0.56162 1.250235,1.25023 v 14.98163 c 0,0.68658 -0.561625,1.24171 -1.250235,1.24171 H 40.807951 c -0.686577,0 -1.241779,-0.55501 -1.241779,-1.24171 z m 7.482352,18.72383 h 2.500478 v 5.72778 l -0.364605,-0.37301 c -0.487149,-0.48116 -1.282019,-0.48116 -1.763036,0 l -0.373017,0.37301 z m -7.482352,16.22341 v -14.97528 c 0,-0.68656 0.555023,-1.24813 1.241779,-1.24813 h 3.75072 v 8.74105 c 0,1.10825 1.3392,1.66346 2.127521,0.87729 l 1.612575,-1.61473 1.614726,1.61473 c 0.78616,0.78617 2.135993,0.23126 2.135993,-0.87729 v -8.74105 h 3.740097 c 0.68867,0 1.250235,0.56163 1.250235,1.24813 v 14.97528 c 0,0.69503 -0.561625,1.25024 -1.250235,1.25024 H 40.807951 c -0.686577,0 -1.241779,-0.55503 -1.241779,-1.25024 z m -4.998802,6.24058 v -2.49203 h 29.9569 v 2.49203 z m 32.455216,-42.43805 h 2.500486 v 49.92886 h -2.500486 z m 3.742257,69.90303 c -5.554005,0 -8.34479,-6.72163 -4.411824,-10.65245 3.930807,-3.93299 10.652397,-1.15066 10.652397,4.41185 0,3.44344 -2.788684,6.23214 -6.240573,6.2406 z m 22.472446,0 c -5.562475,0 -8.342688,-6.72163 -4.411882,-10.65245 3.932966,-3.93299 10.654536,-1.15066 10.654536,4.41185 -0.007,3.44344 -2.799242,6.23214 -6.242654,6.2406 z M 104.47027,321.591 h -2.59791 c -1.43249,-9.98282 -15.84405,-9.98282 -17.276531,0 H 79.40631 c -1.432488,-9.98282 -15.844076,-9.98282 -17.274463,0 H 59.53183 v -6.2406 c 0,-2.0703 1.680389,-3.74222 3.750669,-3.74222 h 41.187771 z"
       style="fill:#000000;fill-opacity:1;fill-rule:nonzero;stroke:none;stroke-width:0.35277772"
       id="path5327-7-1-8-3"
       inkscape:connector-curvature="0" />
    <path
       d="m 70.764843,319.0905 c -3.335356,0 -4.998802,4.03896 -2.640316,6.39956 2.358479,2.35849 6.388875,0.68657 6.388875,-2.6488 0,-2.07029 -1.68038,-3.75076 -3.748559,-3.75076 z m 0,5.001 c -1.110405,0 -1.663446,-1.34984 -0.877279,-2.136 0.786159,-0.78617 2.127521,-0.23307 2.127521,0.88576 0,0.68657 -0.555022,1.25024 -1.250242,1.25024 z"
       style="fill:#000000;fill-opacity:1;fill-rule:nonzero;stroke:none;stroke-width:0.35277772"
       id="path5329-0-2-5-5"
       inkscape:connector-curvature="0" />
    <path
       d="m 93.237289,319.0905 c -3.335355,0 -5.007332,4.03896 -2.648786,6.39956 2.360586,2.35849 6.390975,0.68657 6.390975,-2.6488 0,-2.07029 -1.671911,-3.75076 -3.742189,-3.75076 z m 0,5.001 c -1.116766,0 -1.671909,-1.34984 -0.88575,-2.136 0.78616,-0.78617 2.127522,-0.23307 2.127522,0.88576 0,0.68657 -0.553214,1.25024 -1.241772,1.25024 z"
       style="fill:#000000;fill-opacity:1;fill-rule:nonzero;stroke:none;stroke-width:0.35277772"
       id="path5331-9-9-9-6"
       inkscape:connector-curvature="0" />
    <path
       d="m 111.82534,325.38422 c -0.52559,-0.22586 -0.84917,-0.63827 -1.0083,-1.26366 -0.0738,-0.33096 -0.11116,-6.38639 -0.0925,-20.9313 l 0.036,-20.46314 0.27211,-0.43668 c 0.14777,-0.23307 0.74189,-0.99353 1.31913,-1.68178 1.11743,-1.32652 1.72057,-1.79276 2.55335,-1.99495 0.34238,-0.0739 3.79397,-0.11116 11.73577,-0.0739 l 11.25535,0.036 0.51959,0.24628 c 0.39945,0.19041 0.78815,0.55862 1.70206,1.61328 0.65492,0.74935 1.31362,1.57816 1.47274,1.83537 l 0.29252,0.46612 0.036,20.46927 c 0.018,14.54546 0,20.59981 -0.0925,20.92524 -0.16638,0.6309 -0.48294,1.03605 -1.00834,1.26359 -0.42528,0.19221 -1.02122,0.19581 -14.49208,0.19581 -13.47642,0 -14.07307,-0.007 -14.49858,-0.19581 z m 28.1395,-21.9058 -0.018,-20.2302 H 112.7015 l -0.018,20.2302 -0.036,20.23034 h 27.35242 z m -14.18004,15.4224 c -0.55862,-0.14778 -0.9269,-0.45351 -1.18225,-0.95093 -0.37362,-0.75673 -0.26609,-1.50969 0.29254,-2.08766 0.42527,-0.43127 0.8067,-0.59046 1.42089,-0.59046 1.46534,0 2.36148,1.38203 1.72616,2.65805 -0.25349,0.49736 -0.65864,0.81777 -1.24881,0.97688 -0.49014,0.12969 -0.51417,0.12969 -1.00828,-0.007 z m -0.38863,-6.73515 c -1.7336,-1.02501 -1.08603,-3.49227 0.91951,-3.49227 1.25065,0 2.12704,1.05456 1.89157,2.27709 -0.0739,0.41627 -0.58265,1.03054 -1.04162,1.25992 -0.43129,0.21445 -1.36911,0.19042 -1.76875,-0.054 z m -8.77974,-10.36272 c -0.29793,-0.14775 -0.57005,-0.39944 -0.71601,-0.65124 -0.24267,-0.40305 -0.24627,-0.44209 -0.20362,-3.48006 0.018,-1.68916 0.036,-3.16255 0.036,-3.27854 0,-0.11117 -0.0117,-1.57815 -0.0117,-3.24916 0,-2.90894 0,-3.05069 0.22164,-3.32708 0.32016,-0.41265 0.69937,-0.66414 1.18224,-0.77335 0.55862,-0.12969 17.84282,-0.12969 18.40211,0 0.48295,0.11116 0.86221,0.361 1.18224,0.77335 0.21444,0.27572 0.22165,0.41807 0.22165,3.32708 0,1.67066 -0.0117,3.13131 -0.0117,3.24916 0,0.11116 0,1.5892 0.036,3.27854 0.036,3.0379 0.036,3.07597 -0.20363,3.48006 -0.14777,0.25348 -0.41807,0.50517 -0.71601,0.65124 l -0.47573,0.24628 h -18.45483 z m 18.4212,-3.97362 v -2.34468 h -17.44355 v 4.68394 h 17.44355 z m 0,-6.61839 v -2.39407 h -17.44355 v 4.79585 h 17.44355 z m 3.23072,-9.98195 c 0,-0.054 -0.1904,-0.26428 -0.43129,-0.46793 l -0.43307,-0.379 h -22.19176 l -0.50876,0.46611 -0.50158,0.46612 h 12.02813 c 6.90018,0.007 12.03533,-0.036 12.03533,-0.0925 z"
       style="fill:#000000;fill-opacity:1;fill-rule:nonzero;stroke:none;stroke-width:0.03527782"
       id="path888-5-1-6-1-5-3-8-7-2"
       inkscape:connector-curvature="0" />
    <path
       d="m 112.77757,308.58661 c 0.14778,-8.15901 0.24629,-17.1541 0.24629,-19.97233 v -5.12723 h 26.79518 v 39.95176 h -27.28269 z m 14.92489,9.96546 c 1.91561,-1.85472 -0.81963,-4.56312 -2.83272,-2.79976 -0.83067,0.72892 -0.86214,1.50969 -0.0925,2.56536 0.67901,0.93429 2.08861,1.04351 2.93369,0.23488 z m -0.24989,-6.47115 c 0.91398,-0.61978 1.12488,-2.25404 0.38082,-2.9722 -0.72525,-0.69937 -2.81956,-0.52739 -3.25673,0.27029 -0.57183,1.03232 -0.47572,1.73728 0.3532,2.54188 0.89542,0.86582 1.42829,0.89543 2.5206,0.1664 z m 9.07755,-10.47444 c 0.61612,-0.53461 0.68639,-1.25254 0.68639,-7.01761 0,-5.94443 -0.054,-6.47748 -0.74928,-7.14056 -0.70489,-0.68266 -1.23954,-0.72518 -9.95987,-0.72518 -7.74347,0 -9.35749,0.0925 -10.04795,0.56403 -0.80665,0.53999 -0.82515,0.73636 -0.82515,7.3551 0,6.09739 0.0738,6.83911 0.64754,7.17062 0.39403,0.22225 4.38142,0.37 10.1125,0.37541 8.28984,0.0117 9.54085,-0.054 10.1375,-0.58265 z"
       style="fill:#ed7d31;fill-opacity:1;fill-rule:evenodd;stroke:none;stroke-width:0.03527782"
       id="path890-6-8-5-1-6-1-4-53-9"
       inkscape:connector-curvature="0" />
    <path
       d="m 117.86263,297.88465 v -2.16117 h 17.11962 v 4.31615 h -17.11962 z"
       style="fill:#ed7d31;fill-opacity:1;fill-rule:evenodd;stroke:none;stroke-width:0.03527782"
       id="path892-2-7-6-5-1-9-5-8-1"
       inkscape:connector-curvature="0" />
    <path
       d="m 117.86263,291.22366 v -2.33855 h 17.11962 v 4.67727 h -17.11962 z"
       style="fill:#ed7d31;fill-opacity:1;fill-rule:evenodd;stroke:none;stroke-width:0.03527782"
       id="path894-9-9-9-9-1-4-0-8-2"
       inkscape:connector-curvature="0" />
    <path
       d="m 114.79627,280.86547 0.44389,-0.4421 h 22.13493 l 0.355,0.36101 0.35681,0.35681 -7.00789,0.0925 c -3.85284,0.054 -9.19762,0.0925 -11.87086,0.0925 h -4.86191 z"
       style="fill:#ed7d31;fill-opacity:1;fill-rule:evenodd;stroke:none;stroke-width:0.03527782"
       id="path896-1-2-3-7-5-7-3-3-7"
       inkscape:connector-curvature="0" />
    <path
       d="m 96.628065,1.6136598 h -4.99249 v -4.99032 h -18.57551 l 2.18687,-8.7410718 5.3061,-21.21585 h 11.08254 v 16.22335 h 4.99249 v -21.22221 h -19.96558 l -9.99131,39.9461018 h -7.482343 c -2.75685,0 -4.99244,2.235589 -4.99244,4.992471 v 7.4908582 h 4.99244 c 0,-9.9913592 14.973163,-9.9913592 14.973163,0 h 7.49082 c 0,-9.9913592 14.97525,-9.9913592 14.97525,0 h 4.998785 V 1.6136598 Z"
       style="fill:#92cddc;fill-opacity:1;fill-rule:nonzero;stroke:none;stroke-width:0.35277772"
       id="path5319-2-9-8-3-0"
       inkscape:connector-curvature="0" />
    <path
       d="m 91.635575,14.096989 c 0,1.37314 -1.1167,2.492031 -2.49195,2.492031 -1.38161,0 -2.49838,-1.118891 -2.49838,-2.492031 0,-1.383721 1.11677,-2.50049 2.49838,-2.50049 1.37525,0 2.49195,1.116769 2.49195,2.50049 z"
       style="fill:#92cddc;fill-opacity:1;fill-rule:nonzero;stroke:none;stroke-width:0.35277772"
       id="path5321-9-7-5-6-9"
       inkscape:connector-curvature="0" />
    <path
       d="m 69.171665,14.096989 c 0,1.37314 -1.11888,2.492031 -2.50049,2.492031 -1.37523,0 -2.492013,-1.118891 -2.492013,-2.492031 0,-1.383721 1.116783,-2.50049 2.492013,-2.50049 1.38161,0 2.50049,1.116769 2.50049,2.50049 z"
       style="fill:#92cddc;fill-opacity:1;fill-rule:nonzero;stroke:none;stroke-width:0.35277772"
       id="path5323-1-3-7-7-3"
       inkscape:connector-curvature="0" />
    <path
       d="m 34.222272,-28.343252 v 14.975282 c 0,1.381598 1.11887,2.49195 2.49201,2.50048 h 14.98163 c 1.37524,-0.007 2.49202,-1.118882 2.50048,-2.50048 v -14.975282 c -0.006,-1.3816 -1.12524,-2.4899 -2.50048,-2.49837 1.37524,0 2.49202,-1.11881 2.50048,-2.49196 v -14.98163 c -0.006,-1.3753 -1.12524,-2.49201 -2.50048,-2.49201 h -4.99033 v 9.98283 l -2.50048,-2.50048 -2.48986,2.50048 v -9.98283 h -5.00096 c -1.37314,0 -2.49201,1.11671 -2.49201,2.49201 v 14.98163 c 0,1.37315 1.11887,2.49196 2.49201,2.49196 -1.37314,0.007 -2.49201,1.11677 -2.49201,2.49837 z m 12.48331,-2.49837 v 9.991291 l -2.50048,-2.500472 -2.48986,2.500472 v -9.991291 z"
       style="fill:#92cddc;fill-opacity:1;fill-rule:nonzero;stroke:none;stroke-width:0.35277772"
       id="path5325-2-6-41-5-6"
       inkscape:connector-curvature="0" />
    <path
       d="m 101.62685,0.36341886 h -1.25024 V -17.110232 c 0,-0.68657 -0.561627,-1.250241 -1.250174,-1.250241 h -1.250231 v -19.971969 c 0,-0.68866 -0.553217,-1.24171 -1.24814,-1.24171 h -19.96558 c -0.57184,0 -1.07647,0.38743 -1.21637,0.94294 l -7.52469,30.1052708 V -50.807222 c 0,-0.69503 -0.55502,-1.25024 -1.25025,-1.25024 h -4.992493 c -0.68657,0 -1.24808,0.55502 -1.24808,1.25024 v 38.68949 h -5.21498 c 0.13995,-0.398259 0.22224,-0.8201 0.22224,-1.250238 v -14.975282 c 0,-0.92605 -0.34779,-1.81181 -0.9684,-2.49837 0.62091,-0.6802 0.9684,-1.57233 0.9684,-2.49196 v -14.98163 c 0,-2.07033 -1.67191,-3.74225 -3.74219,-3.74225 h -14.98163 c -2.05971,0 -3.74009,1.67192 -3.74009,3.74225 v 14.98163 c 0,0.91963 0.34779,1.81176 0.97471,2.49196 -0.62722,0.68656 -0.97471,1.57232 -0.97471,2.49837 v 14.975282 c 0.006,0.430069 0.0829,0.851807 0.23065,1.250238 h -3.97321 c -0.69504,0 -1.25024,0.561631 -1.25024,1.250242 v 4.9903398 c 0,0.68657 0.55502,1.250231 1.25024,1.250231 h 31.19867 v 4.99033806 h -1.24177 c -3.45195,0.007 -6.24268,2.79927094 -6.24268,6.24271194 v 7.4908582 c 0,0.68657 0.55502,1.250241 1.24177,1.250241 h 3.85026 c 1.43038,9.97436 15.841973,9.97436 17.274463,0 h 5.18952 c 1.43248,9.97436 15.84407,9.97436 17.27655,0 h 3.848145 c 0.68657,0 1.24177,-0.563423 1.24177,-1.250241 V 1.6136598 c 0,-0.68655897 -0.55503,-1.25024094 -1.24177,-1.25024094 z M 80.402565,-4.6269192 v -4.992502 c -0.006,-1.9939808 -1.56384,-3.6256498 -3.54937,-3.7231598 l 4.67672,-18.749291 h 8.85548 v 13.731399 h -1.24177 c -2.06818,0 -3.74862,1.680441 -3.74862,3.750731 v 9.9828228 z m -4.17029,-6.2405708 h 0.43009 c 0.68656,0 1.25024,0.553209 1.25024,1.2480688 v 4.992502 h -3.25487 z m 11.66111,-3.742252 c 0,-0.695039 0.55502,-1.250249 1.25024,-1.250249 h 1.24177 v 11.2330718 h -2.49201 z m 4.99243,-1.250249 h 4.99039 V 0.36341886 h -4.99039 z m -15.24646,-21.224301 h 17.74694 v 18.723819 h -2.50048 v -14.973109 c 0,-0.69509 -0.55503,-1.25023 -1.25024,-1.25023 h -11.07407 c -0.57183,0 -1.07646,0.38983 -1.21846,0.94293 l -7.48235,29.9569008 c -0.19942,0.7861621 0.39825,1.5490211 1.2079,1.5490211 h 17.3168 v 2.49837896 h -22.10801 z m -34.684493,-12.48115 h 2.50047 v 5.72778 l -0.3646,-0.36461 c -0.48715,-0.48716 -1.28202,-0.48716 -1.76304,0 l -0.37301,0.36461 z m -7.48236,1.25023 c 0,-0.68873 0.55503,-1.25023 1.24178,-1.25023 h 3.75072 v 8.74105 c 0,1.10824 1.3392,1.66344 2.12752,0.88576 l 1.61258,-1.61474 1.61472,1.61474 c 0.78616,0.77768 2.136,0.22224 2.136,-0.88576 v -8.74105 h 3.74009 c 0.68867,0 1.25024,0.56162 1.25024,1.25023 v 14.98163 c 0,0.68658 -0.56163,1.24171 -1.25024,1.24171 h -14.98163 c -0.68657,0 -1.24178,-0.55501 -1.24178,-1.24171 z m 7.48236,18.72383 h 2.50047 v 5.72778 l -0.3646,-0.37301 c -0.48715,-0.48116 -1.28202,-0.48116 -1.76304,0 l -0.37301,0.37301 z m -7.48236,16.223412 v -14.975282 c 0,-0.68656 0.55503,-1.24813 1.24178,-1.24813 h 3.75072 v 8.741051 c 0,1.108249 1.3392,1.663459 2.12752,0.877289 l 1.61258,-1.614731 1.61472,1.614731 c 0.78616,0.78617 2.136,0.231259 2.136,-0.877289 v -8.741051 h 3.74009 c 0.68867,0 1.25024,0.56163 1.25024,1.24813 v 14.975282 c 0,0.695028 -0.56163,1.250238 -1.25024,1.250238 h -14.98163 c -0.68657,0 -1.24178,-0.55503 -1.24178,-1.250238 z m -4.9988,6.2405798 v -2.492031 h 29.9569 v 2.492031 z m 32.45522,-42.4380518 h 2.500483 V 0.36341886 h -2.500483 z m 3.742253,69.903031 c -5.554003,0 -8.344793,-6.721631 -4.411823,-10.6524497 3.930813,-3.9329885 10.652403,-1.1506594 10.652403,4.4118497 0,3.443441 -2.78869,6.232139 -6.24058,6.2406 z m 22.47245,0 c -5.56247,0 -8.34269,-6.721631 -4.41188,-10.6524497 3.93297,-3.9329885 10.65455,-1.1506594 10.65455,4.4118497 -0.007,3.443441 -2.79926,6.232139 -6.24267,6.2406 z M 100.37661,12.84673 h -2.597895 c -1.43249,-9.9828212 -15.84407,-9.9828212 -17.27655,0 h -5.18952 c -1.43249,-9.9828212 -15.844083,-9.9828212 -17.274463,0 h -2.60002 V 6.6061308 c 0,-2.070302 1.68039,-3.742222 3.75067,-3.742222 h 41.187778 z"
       style="fill:#000000;fill-opacity:1;fill-rule:nonzero;stroke:none;stroke-width:0.35277772"
       id="path5327-7-1-8-3-0"
       inkscape:connector-curvature="0" />
    <path
       d="m 66.671175,10.346229 c -3.335353,0 -4.998803,4.03896 -2.640313,6.399559 2.358483,2.358491 6.388873,0.68657 6.388873,-2.648799 0,-2.07029 -1.68038,-3.75076 -3.74856,-3.75076 z m 0,5.001001 c -1.1104,0 -1.66344,-1.349841 -0.87728,-2.136 0.78616,-0.786172 2.12753,-0.233071 2.12753,0.885759 0,0.68657 -0.55502,1.250241 -1.25025,1.250241 z"
       style="fill:#000000;fill-opacity:1;fill-rule:nonzero;stroke:none;stroke-width:0.35277772"
       id="path5329-0-2-5-5-6"
       inkscape:connector-curvature="0" />
    <path
       d="m 89.143625,10.346229 c -3.33535,0 -5.00733,4.03896 -2.64879,6.399559 2.36059,2.358491 6.39098,0.68657 6.39098,-2.648799 0,-2.07029 -1.67191,-3.75076 -3.74219,-3.75076 z m 0,5.001001 c -1.11676,0 -1.67191,-1.349841 -0.88575,-2.136 0.78616,-0.786172 2.12752,-0.233071 2.12752,0.885759 0,0.68657 -0.55321,1.250241 -1.24177,1.250241 z"
       style="fill:#000000;fill-opacity:1;fill-rule:nonzero;stroke:none;stroke-width:0.35277772"
       id="path5331-9-9-9-6-2"
       inkscape:connector-curvature="0" />
    <path
       d="m 107.73168,16.639949 c -0.52559,-0.225861 -0.84917,-0.63827 -1.0083,-1.26366 -0.0738,-0.33096 -0.11116,-6.3863904 -0.0925,-20.9313002 l 0.036,-20.4631408 0.27211,-0.43668 c 0.14777,-0.23307 0.74189,-0.99353 1.31913,-1.68178 1.11743,-1.32652 1.72057,-1.79276 2.55335,-1.99495 0.34238,-0.0739 3.79397,-0.11116 11.73577,-0.0739 l 11.25535,0.036 0.51959,0.24628 c 0.39945,0.19041 0.78815,0.55862 1.70206,1.61328 0.65492,0.74935 1.31362,1.57816 1.47274,1.83537 l 0.29252,0.46612 0.036,20.4692698 c 0.018,14.5454608 0,20.5998092 -0.0925,20.9252422 -0.16638,0.630898 -0.48294,1.03605 -1.00834,1.263589 -0.42528,0.192209 -1.02122,0.19581 -14.49208,0.19581 -13.47642,0 -14.07307,-0.007 -14.49858,-0.19581 z m 28.1395,-21.9058002 -0.018,-20.2302008 h -27.24535 l -0.018,20.2302008 -0.036,20.2303402 h 27.35242 z M 121.69114,10.156549 c -0.55862,-0.14778 -0.9269,-0.4535107 -1.18225,-0.9509304 -0.37362,-0.7567287 -0.26609,-1.5096878 0.29254,-2.0876598 0.42527,-0.431268 0.8067,-0.59046 1.42089,-0.59046 1.46534,0 2.36148,1.3820304 1.72616,2.6580518 -0.25349,0.4973577 -0.65864,0.8177684 -1.24881,0.9768774 -0.49014,0.129691 -0.51417,0.129691 -1.00828,-0.007 z m -0.38863,-6.7351502 c -1.7336,-1.025009 -1.08603,-3.49226991 0.91951,-3.49226991 1.25065,0 2.12704,1.05456094 1.89157,2.27709191 -0.0739,0.416269 -0.58265,1.030539 -1.04162,1.259919 -0.43129,0.21445 -1.36911,0.190421 -1.76875,-0.054 z m -8.77974,-10.362719 c -0.29793,-0.147751 -0.57005,-0.399441 -0.71601,-0.65124 -0.24267,-0.40305 -0.24627,-0.442089 -0.20362,-3.4800628 0.018,-1.689158 0.036,-3.162548 0.036,-3.278539 0,-0.11117 -0.0117,-1.57815 -0.0117,-3.24916 0,-2.90894 0,-3.050691 0.22164,-3.32708 0.32015,-0.412649 0.69937,-0.664138 1.18224,-0.773351 0.55862,-0.129688 17.84282,-0.129688 18.40211,0 0.48294,0.111162 0.86221,0.361001 1.18224,0.773351 0.21443,0.27572 0.22164,0.418071 0.22164,3.32708 0,1.670661 -0.0117,3.131309 -0.0117,3.24916 0,0.111159 0,1.589201 0.036,3.278539 0.036,3.0379018 0.036,3.0759728 -0.20363,3.4800628 -0.14777,0.253479 -0.41807,0.505169 -0.71601,0.65124 l -0.47573,0.24628 h -18.45483 z m 18.4212,-3.9736208 v -2.34468 h -17.44355 v 4.6839408 h 17.44355 z m 0,-6.618391 v -2.394069 h -17.44355 v 4.79585 h 17.44355 z m 3.23072,-9.98195 c 0,-0.054 -0.1904,-0.26428 -0.43129,-0.46793 l -0.43307,-0.379 h -22.19176 l -0.50876,0.46611 -0.50158,0.46612 h 12.02813 c 6.90018,0.007 12.03533,-0.036 12.03533,-0.0925 z"
       style="fill:#000000;fill-opacity:1;fill-rule:nonzero;stroke:none;stroke-width:0.03527782"
       id="path888-5-1-6-1-5-3-8-7-2-6"
       inkscape:connector-curvature="0" />
    <path
       d="M 108.68391,-0.15765911 C 108.83169,-8.3166712 108.9302,-17.311762 108.9302,-20.129993 v -5.127228 h 26.79518 V 14.69454 H 108.44269 Z M 123.6088,9.8078003 c 1.91561,-1.8547211 -0.81963,-4.5631205 -2.83272,-2.7997595 -0.83067,0.728919 -0.86214,1.5096881 -0.0925,2.5653595 0.67901,0.9342887 2.08861,1.0435087 2.93369,0.234878 z m -0.24989,-6.4711505 c 0.91398,-0.619781 1.12488,-2.254041 0.38082,-2.97219894 -0.72525,-0.69937097 -2.81956,-0.52739097 -3.25673,0.27028797 -0.57183,1.03232197 -0.47572,1.73727997 0.3532,2.54188097 0.89542,0.86582 1.42829,0.895429 2.5206,0.166399 z m 9.07755,-10.474441 c 0.61612,-0.534609 0.68639,-1.25254 0.68639,-7.0176108 0,-5.944431 -0.054,-6.477479 -0.74928,-7.140559 -0.70489,-0.68266 -1.23954,-0.725181 -9.95987,-0.725181 -7.74347,0 -9.35749,0.0925 -10.04795,0.564031 -0.80665,0.539988 -0.82515,0.736359 -0.82515,7.355099 0,6.0973898 0.0738,6.8391128 0.64754,7.1706218 0.39403,0.22225 4.38142,0.369999 10.1125,0.37541 8.28984,0.01169 9.54085,-0.054 10.1375,-0.58265 z"
       style="fill:#ed7d31;fill-opacity:1;fill-rule:evenodd;stroke:none;stroke-width:0.03527782"
       id="path890-6-8-5-1-6-1-4-53-9-1"
       inkscape:connector-curvature="0" />
    <path
       d="m 113.76897,-10.859621 v -2.161171 h 17.11962 v 4.3161518 h -17.11962 z"
       style="fill:#ed7d31;fill-opacity:1;fill-rule:evenodd;stroke:none;stroke-width:0.03527782"
       id="path892-2-7-6-5-1-9-5-8-1-8"
       inkscape:connector-curvature="0" />
    <path
       d="m 113.76897,-17.520611 v -2.338552 h 17.11962 v 4.67727 h -17.11962 z"
       style="fill:#ed7d31;fill-opacity:1;fill-rule:evenodd;stroke:none;stroke-width:0.03527782"
       id="path894-9-9-9-9-1-4-0-8-2-7"
       inkscape:connector-curvature="0" />
    <path
       d="m 110.70261,-27.878802 0.44389,-0.4421 h 22.13493 l 0.355,0.36101 0.35681,0.35681 -7.00789,0.0925 c -3.85284,0.054 -9.19762,0.0925 -11.87086,0.0925 h -4.86191 z"
       style="fill:#ed7d31;fill-opacity:1;fill-rule:evenodd;stroke:none;stroke-width:0.03527782"
       id="path896-1-2-3-7-5-7-3-3-7-9"
       inkscape:connector-curvature="0" />
    <path
       style="fill:none;stroke:#5a8e9b;stroke-width:2.46499991;stroke-linecap:butt;stroke-linejoin:miter;stroke-miterlimit:4;stroke-dasharray:14.79, 2.465;stroke-dashoffset:0;stroke-opacity:1;marker-end:url(#Arrow2Mend)"
       d="m 182.27701,-46.687075 c -41.69405,-59.868385 -79.11178,-1.069078 -79.11178,-1.069078"
       id="path3068"
       inkscape:connector-curvature="0"
       sodipodi:nodetypes="cc" />
    <path
       style="fill:none;stroke:#5a8e9b;stroke-width:2.46499991;stroke-linecap:butt;stroke-linejoin:miter;stroke-miterlimit:4;stroke-dasharray:14.79, 2.465;stroke-dashoffset:0;stroke-opacity:1;marker-end:url(#Arrow2Mend-2)"
       d="m 182.27701,101.47966 c -41.69405,-59.868349 -79.11178,-1.06908 -79.11178,-1.06908"
       id="path3068-2"
       inkscape:connector-curvature="0"
       sodipodi:nodetypes="cc" />
    <path
       style="fill:none;stroke:#5a8e9b;stroke-width:2.46499991;stroke-linecap:butt;stroke-linejoin:miter;stroke-miterlimit:4;stroke-dasharray:14.79, 2.465;stroke-dashoffset:0;stroke-opacity:1;marker-end:url(#Arrow2Mend-2-3)"
       d="m 182.27701,257.58451 c -41.69405,-59.86857 -79.11178,-1.06908 -79.11178,-1.06908"
       id="path3068-2-5"
       inkscape:connector-curvature="0"
       sodipodi:nodetypes="cc" />
  </g>
</svg>
