<?xml version="1.0" encoding="UTF-8" standalone="no"?>
<!-- Created with Inkscape (http://www.inkscape.org/) -->

<svg
   xmlns:dc="http://purl.org/dc/elements/1.1/"
   xmlns:cc="http://creativecommons.org/ns#"
   xmlns:rdf="http://www.w3.org/1999/02/22-rdf-syntax-ns#"
   xmlns:svg="http://www.w3.org/2000/svg"
   xmlns="http://www.w3.org/2000/svg"
   xmlns:sodipodi="http://sodipodi.sourceforge.net/DTD/sodipodi-0.dtd"
   xmlns:inkscape="http://www.inkscape.org/namespaces/inkscape"
   width="306.3819mm"
   height="96.409637mm"
   viewBox="0 0 306.3819 96.409637"
   version="1.1"
   id="svg1389"
   inkscape:version="0.92.4 (unknown)"
   sodipodi:docname="v2n-scaling.svg">
  <defs
     id="defs1383">
    <marker
       inkscape:stockid="Arrow2Lend"
       orient="auto"
       refY="0.0"
       refX="0.0"
       id="Arrow2Lend"
       style="overflow:visible;"
       inkscape:isstock="true">
      <path
         id="path7111"
         style="fill-rule:evenodd;stroke-width:0.625;stroke-linejoin:round;stroke:#a76d7f;stroke-opacity:1;fill:#a76d7f;fill-opacity:1"
         d="M 8.7185878,4.0337352 L -2.2072895,0.016013256 L 8.7185884,-4.0017078 C 6.9730900,-1.6296469 6.9831476,1.6157441 8.7185878,4.0337352 z "
         transform="scale(1.1) rotate(180) translate(1,0)" />
    </marker>
    <marker
       inkscape:stockid="Arrow2Mstart"
       orient="auto"
       refY="0"
       refX="0"
       id="marker8654"
       style="overflow:visible"
       inkscape:isstock="true">
      <path
         inkscape:connector-curvature="0"
         id="path8652"
         style="fill:#000000;fill-opacity:1;fill-rule:evenodd;stroke:#000000;stroke-width:0.625;stroke-linejoin:round;stroke-opacity:1"
         d="M 8.7185878,4.0337352 -2.2072895,0.01601326 8.7185884,-4.0017078 c -1.7454984,2.3720609 -1.7354408,5.6174519 -6e-7,8.035443 z"
         transform="scale(0.6)" />
    </marker>
    <marker
       inkscape:isstock="true"
       style="overflow:visible"
       id="marker8582"
       refX="0"
       refY="0"
       orient="auto"
       inkscape:stockid="Arrow2Mstart"
       inkscape:collect="always">
      <path
         transform="scale(0.6)"
         d="M 8.7185878,4.0337352 -2.2072895,0.01601326 8.7185884,-4.0017078 c -1.7454984,2.3720609 -1.7354408,5.6174519 -6e-7,8.035443 z"
         style="fill:#000000;fill-opacity:1;fill-rule:evenodd;stroke:#000000;stroke-width:0.625;stroke-linejoin:round;stroke-opacity:1"
         id="path8580"
         inkscape:connector-curvature="0" />
    </marker>
    <marker
       inkscape:stockid="Arrow2Mend"
       orient="auto"
       refY="0"
       refX="0"
       id="marker6875"
       style="overflow:visible"
       inkscape:isstock="true">
      <path
         inkscape:connector-curvature="0"
         id="path6873"
         style="fill:#000000;fill-opacity:1;fill-rule:evenodd;stroke:#000000;stroke-width:0.625;stroke-linejoin:round;stroke-opacity:1"
         d="M 8.7185878,4.0337352 -2.2072895,0.01601326 8.7185884,-4.0017078 c -1.7454984,2.3720609 -1.7354408,5.6174519 -6e-7,8.035443 z"
         transform="scale(-0.6)" />
    </marker>
    <marker
       inkscape:stockid="Arrow2Mend"
       orient="auto"
       refY="0"
       refX="0"
       id="marker17716"
       style="overflow:visible"
       inkscape:isstock="true">
      <path
         id="path17714"
         style="fill:#000000;fill-opacity:1;fill-rule:evenodd;stroke:#000000;stroke-width:0.625;stroke-linejoin:round;stroke-opacity:1"
         d="M 8.7185878,4.0337352 -2.2072895,0.01601326 8.7185884,-4.0017078 c -1.7454984,2.3720609 -1.7354408,5.6174519 -6e-7,8.035443 z"
         transform="scale(-0.6)"
         inkscape:connector-curvature="0" />
    </marker>
    <marker
       inkscape:stockid="Arrow2Mstart"
       orient="auto"
       refY="0"
       refX="0"
       id="Arrow2Mstart-8-3-7"
       style="overflow:visible"
       inkscape:isstock="true">
      <path
         inkscape:connector-curvature="0"
         id="path4700-3-3-3"
         style="fill:#000000;fill-opacity:1;fill-rule:evenodd;stroke:#000000;stroke-width:0.625;stroke-linejoin:round;stroke-opacity:1"
         d="M 8.7185878,4.0337352 -2.2072895,0.01601326 8.7185884,-4.0017078 c -1.7454984,2.3720609 -1.7354408,5.6174519 -6e-7,8.035443 z"
         transform="scale(0.6)" />
    </marker>
    <marker
       inkscape:stockid="Arrow2Mstart"
       orient="auto"
       refY="0"
       refX="0"
       id="Arrow2Mstart-8-3"
       style="overflow:visible"
       inkscape:isstock="true">
      <path
         inkscape:connector-curvature="0"
         id="path4700-3-3"
         style="fill:#000000;fill-opacity:1;fill-rule:evenodd;stroke:#000000;stroke-width:0.625;stroke-linejoin:round;stroke-opacity:1"
         d="M 8.7185878,4.0337352 -2.2072895,0.01601326 8.7185884,-4.0017078 c -1.7454984,2.3720609 -1.7354408,5.6174519 -6e-7,8.035443 z"
         transform="scale(0.6)" />
    </marker>
    <marker
       inkscape:stockid="Arrow2Mstart"
       orient="auto"
       refY="0"
       refX="0"
       id="Arrow2Mstart-3-4"
       style="overflow:visible"
       inkscape:isstock="true">
      <path
         inkscape:connector-curvature="0"
         id="path4700-8-7"
         style="fill:#000000;fill-opacity:1;fill-rule:evenodd;stroke:#000000;stroke-width:0.625;stroke-linejoin:round;stroke-opacity:1"
         d="M 8.7185878,4.0337352 -2.2072895,0.01601326 8.7185884,-4.0017078 c -1.7454984,2.3720609 -1.7354408,5.6174519 -6e-7,8.035443 z"
         transform="scale(0.6)" />
    </marker>
    <marker
       inkscape:stockid="Arrow2Mstart"
       orient="auto"
       refY="0"
       refX="0"
       id="Arrow2Mstart-8"
       style="overflow:visible"
       inkscape:isstock="true">
      <path
         inkscape:connector-curvature="0"
         id="path4700-3"
         style="fill:#000000;fill-opacity:1;fill-rule:evenodd;stroke:#000000;stroke-width:0.625;stroke-linejoin:round;stroke-opacity:1"
         d="M 8.7185878,4.0337352 -2.2072895,0.01601326 8.7185884,-4.0017078 c -1.7454984,2.3720609 -1.7354408,5.6174519 -6e-7,8.035443 z"
         transform="scale(0.6)" />
    </marker>
    <marker
       inkscape:stockid="Arrow2Mstart"
       orient="auto"
       refY="0"
       refX="0"
       id="Arrow2Mstart"
       style="overflow:visible"
       inkscape:isstock="true">
      <path
         id="path4700"
         style="fill:#000000;fill-opacity:1;fill-rule:evenodd;stroke:#000000;stroke-width:0.625;stroke-linejoin:round;stroke-opacity:1"
         d="M 8.7185878,4.0337352 -2.2072895,0.01601326 8.7185884,-4.0017078 c -1.7454984,2.3720609 -1.7354408,5.6174519 -6e-7,8.035443 z"
         transform="scale(0.6)"
         inkscape:connector-curvature="0" />
    </marker>
    <marker
       inkscape:stockid="StopL"
       orient="auto"
       refY="0"
       refX="0"
       id="StopL"
       style="overflow:visible"
       inkscape:isstock="true">
      <path
         id="path4845"
         d="M 0,5.65 V -5.65"
         style="fill:none;fill-opacity:0.75;fill-rule:evenodd;stroke:#000000;stroke-width:1.00000003pt;stroke-opacity:1"
         transform="scale(0.8)"
         inkscape:connector-curvature="0" />
    </marker>
    <marker
       inkscape:stockid="StopL"
       orient="auto"
       refY="0"
       refX="0"
       id="marker1255"
       style="overflow:visible"
       inkscape:isstock="true">
      <path
         id="path1253"
         d="M 0,5.65 V -5.65"
         style="fill:none;fill-opacity:0.75;fill-rule:evenodd;stroke:#000000;stroke-width:1.00000003pt;stroke-opacity:1"
         transform="scale(0.8)"
         inkscape:connector-curvature="0" />
    </marker>
    <marker
       inkscape:isstock="true"
       style="overflow:visible"
       id="marker10584"
       refX="0"
       refY="0"
       orient="auto"
       inkscape:stockid="Arrow2Mend">
      <path
         inkscape:connector-curvature="0"
         transform="scale(-0.6)"
         d="M 8.7185878,4.0337352 -2.2072895,0.01601326 8.7185884,-4.0017078 c -1.7454984,2.3720609 -1.7354408,5.6174519 -6e-7,8.035443 z"
         style="fill:#000000;fill-opacity:1;fill-rule:evenodd;stroke:#000000;stroke-width:0.625;stroke-linejoin:round;stroke-opacity:1"
         id="path10582" />
    </marker>
    <marker
       inkscape:isstock="true"
       style="overflow:visible"
       id="marker10486"
       refX="0"
       refY="0"
       orient="auto"
       inkscape:stockid="Arrow2Mend">
      <path
         inkscape:connector-curvature="0"
         transform="scale(-0.6)"
         d="M 8.7185878,4.0337352 -2.2072895,0.01601326 8.7185884,-4.0017078 c -1.7454984,2.3720609 -1.7354408,5.6174519 -6e-7,8.035443 z"
         style="fill:#000000;fill-opacity:1;fill-rule:evenodd;stroke:#000000;stroke-width:0.625;stroke-linejoin:round;stroke-opacity:1"
         id="path10484" />
    </marker>
    <marker
       inkscape:isstock="true"
       style="overflow:visible"
       id="marker10532"
       refX="0"
       refY="0"
       orient="auto"
       inkscape:stockid="Arrow2Mend">
      <path
         inkscape:connector-curvature="0"
         transform="scale(-0.6)"
         d="M 8.7185878,4.0337352 -2.2072895,0.01601326 8.7185884,-4.0017078 c -1.7454984,2.3720609 -1.7354408,5.6174519 -6e-7,8.035443 z"
         style="fill:#000000;fill-opacity:1;fill-rule:evenodd;stroke:#000000;stroke-width:0.625;stroke-linejoin:round;stroke-opacity:1"
         id="path10530" />
    </marker>
    <marker
       inkscape:stockid="StopL"
       orient="auto"
       refY="0"
       refX="0"
       id="StopL-5"
       style="overflow:visible"
       inkscape:isstock="true">
      <path
         id="path4845-4"
         d="M 0,5.65 V -5.65"
         style="fill:none;fill-opacity:0.75;fill-rule:evenodd;stroke:#000000;stroke-width:1.00000003pt;stroke-opacity:1"
         transform="scale(0.8)"
         inkscape:connector-curvature="0" />
    </marker>
    <marker
       inkscape:stockid="StopL"
       orient="auto"
       refY="0"
       refX="0"
       id="marker5257"
       style="overflow:visible"
       inkscape:isstock="true">
      <path
         id="path5255"
         d="M 0,5.65 V -5.65"
         style="fill:none;fill-opacity:0.75;fill-rule:evenodd;stroke:#000000;stroke-width:1.00000003pt;stroke-opacity:1"
         transform="scale(0.8)"
         inkscape:connector-curvature="0" />
    </marker>
    <marker
       inkscape:stockid="StopL"
       orient="auto"
       refY="0"
       refX="0"
       id="StopL-5-4"
       style="overflow:visible"
       inkscape:isstock="true">
      <path
         id="path4845-4-8"
         d="M 0,5.65 V -5.65"
         style="fill:none;fill-opacity:0.75;fill-rule:evenodd;stroke:#000000;stroke-width:1.00000003pt;stroke-opacity:1"
         transform="scale(0.8)"
         inkscape:connector-curvature="0" />
    </marker>
    <marker
       inkscape:stockid="StopL"
       orient="auto"
       refY="0"
       refX="0"
       id="marker5977"
       style="overflow:visible"
       inkscape:isstock="true">
      <path
         id="path5975"
         d="M 0,5.65 V -5.65"
         style="fill:none;fill-opacity:0.75;fill-rule:evenodd;stroke:#000000;stroke-width:1.00000003pt;stroke-opacity:1"
         transform="scale(0.8)"
         inkscape:connector-curvature="0" />
    </marker>
    <marker
       inkscape:stockid="Arrow2Mend"
       orient="auto"
       refY="0"
       refX="0"
       id="marker6875-0"
       style="overflow:visible"
       inkscape:isstock="true">
      <path
         inkscape:connector-curvature="0"
         id="path6873-4"
         style="fill:#000000;fill-opacity:1;fill-rule:evenodd;stroke:#000000;stroke-width:0.625;stroke-linejoin:round;stroke-opacity:1"
         d="M 8.7185878,4.0337352 -2.2072895,0.01601326 8.7185884,-4.0017078 c -1.7454984,2.3720609 -1.7354408,5.6174519 -6e-7,8.035443 z"
         transform="scale(-0.6)" />
    </marker>
    <marker
       inkscape:stockid="Arrow2Mstart"
       orient="auto"
       refY="0"
       refX="0"
       id="marker8654-3"
       style="overflow:visible"
       inkscape:isstock="true">
      <path
         inkscape:connector-curvature="0"
         id="path8652-9"
         style="fill:#000000;fill-opacity:1;fill-rule:evenodd;stroke:#000000;stroke-width:0.625;stroke-linejoin:round;stroke-opacity:1"
         d="M 8.7185878,4.0337352 -2.2072895,0.01601326 8.7185884,-4.0017078 c -1.7454984,2.3720609 -1.7354408,5.6174519 -6e-7,8.035443 z"
         transform="scale(0.6)" />
    </marker>
    <marker
       inkscape:stockid="Arrow2Mstart"
       orient="auto"
       refY="0"
       refX="0"
       id="marker8654-3-8"
       style="overflow:visible"
       inkscape:isstock="true">
      <path
         inkscape:connector-curvature="0"
         id="path8652-9-3"
         style="fill:#000000;fill-opacity:1;fill-rule:evenodd;stroke:#000000;stroke-width:0.625;stroke-linejoin:round;stroke-opacity:1"
         d="M 8.7185878,4.0337352 -2.2072895,0.01601326 8.7185884,-4.0017078 c -1.7454984,2.3720609 -1.7354408,5.6174519 -6e-7,8.035443 z"
         transform="scale(0.6)" />
    </marker>
    <marker
       inkscape:stockid="Arrow2Mstart"
       orient="auto"
       refY="0"
       refX="0"
       id="marker8654-3-1"
       style="overflow:visible"
       inkscape:isstock="true">
      <path
         inkscape:connector-curvature="0"
         id="path8652-9-7"
         style="fill:#000000;fill-opacity:1;fill-rule:evenodd;stroke:#000000;stroke-width:0.625;stroke-linejoin:round;stroke-opacity:1"
         d="M 8.7185878,4.0337352 -2.2072895,0.01601326 8.7185884,-4.0017078 c -1.7454984,2.3720609 -1.7354408,5.6174519 -6e-7,8.035443 z"
         transform="scale(0.6)" />
    </marker>
    <marker
       inkscape:stockid="Arrow2Mstart"
       orient="auto"
       refY="0"
       refX="0"
       id="marker8654-3-1-9"
       style="overflow:visible"
       inkscape:isstock="true">
      <path
         inkscape:connector-curvature="0"
         id="path8652-9-7-1"
         style="fill:#000000;fill-opacity:1;fill-rule:evenodd;stroke:#000000;stroke-width:0.625;stroke-linejoin:round;stroke-opacity:1"
         d="M 8.7185878,4.0337352 -2.2072895,0.01601326 8.7185884,-4.0017078 c -1.7454984,2.3720609 -1.7354408,5.6174519 -6e-7,8.035443 z"
         transform="scale(0.6)" />
    </marker>
    <marker
       inkscape:stockid="Arrow2Mstart"
       orient="auto"
       refY="0"
       refX="0"
       id="marker8654-3-1-9-4"
       style="overflow:visible"
       inkscape:isstock="true">
      <path
         inkscape:connector-curvature="0"
         id="path8652-9-7-1-9"
         style="fill:#000000;fill-opacity:1;fill-rule:evenodd;stroke:#000000;stroke-width:0.625;stroke-linejoin:round;stroke-opacity:1"
         d="M 8.7185878,4.0337352 -2.2072895,0.01601326 8.7185884,-4.0017078 c -1.7454984,2.3720609 -1.7354408,5.6174519 -6e-7,8.035443 z"
         transform="scale(0.6)" />
    </marker>
    <marker
       inkscape:stockid="Arrow2Mstart"
       orient="auto"
       refY="0"
       refX="0"
       id="marker8654-3-1-2"
       style="overflow:visible"
       inkscape:isstock="true">
      <path
         inkscape:connector-curvature="0"
         id="path8652-9-7-5"
         style="fill:#000000;fill-opacity:1;fill-rule:evenodd;stroke:#000000;stroke-width:0.625;stroke-linejoin:round;stroke-opacity:1"
         d="M 8.7185878,4.0337352 -2.2072895,0.01601326 8.7185884,-4.0017078 c -1.7454984,2.3720609 -1.7354408,5.6174519 -6e-7,8.035443 z"
         transform="scale(0.6)" />
    </marker>
    <marker
       inkscape:stockid="Arrow2Mstart"
       orient="auto"
       refY="0"
       refX="0"
       id="marker8654-3-8-7"
       style="overflow:visible"
       inkscape:isstock="true">
      <path
         inkscape:connector-curvature="0"
         id="path8652-9-3-4"
         style="fill:#000000;fill-opacity:1;fill-rule:evenodd;stroke:#000000;stroke-width:0.625;stroke-linejoin:round;stroke-opacity:1"
         d="M 8.7185878,4.0337352 -2.2072895,0.01601326 8.7185884,-4.0017078 c -1.7454984,2.3720609 -1.7354408,5.6174519 -6e-7,8.035443 z"
         transform="scale(0.6)" />
    </marker>
    <marker
       inkscape:stockid="Arrow2Mstart"
       orient="auto"
       refY="0"
       refX="0"
       id="marker8654-3-9"
       style="overflow:visible"
       inkscape:isstock="true">
      <path
         inkscape:connector-curvature="0"
         id="path8652-9-9"
         style="fill:#000000;fill-opacity:1;fill-rule:evenodd;stroke:#000000;stroke-width:0.625;stroke-linejoin:round;stroke-opacity:1"
         d="M 8.7185878,4.0337352 -2.2072895,0.01601326 8.7185884,-4.0017078 c -1.7454984,2.3720609 -1.7354408,5.6174519 -6e-7,8.035443 z"
         transform="scale(0.6)" />
    </marker>
    <marker
       inkscape:stockid="Arrow2Mstart"
       orient="auto"
       refY="0"
       refX="0"
       id="marker8654-3-1-9-4-7"
       style="overflow:visible"
       inkscape:isstock="true">
      <path
         inkscape:connector-curvature="0"
         id="path8652-9-7-1-9-0"
         style="fill:#000000;fill-opacity:1;fill-rule:evenodd;stroke:#000000;stroke-width:0.625;stroke-linejoin:round;stroke-opacity:1"
         d="M 8.7185878,4.0337352 -2.2072895,0.01601326 8.7185884,-4.0017078 c -1.7454984,2.3720609 -1.7354408,5.6174519 -6e-7,8.035443 z"
         transform="scale(0.6)" />
    </marker>
    <marker
       inkscape:stockid="Arrow2Mstart"
       orient="auto"
       refY="0"
       refX="0"
       id="marker8654-3-1-2-8"
       style="overflow:visible"
       inkscape:isstock="true">
      <path
         inkscape:connector-curvature="0"
         id="path8652-9-7-5-1"
         style="fill:#000000;fill-opacity:1;fill-rule:evenodd;stroke:#000000;stroke-width:0.625;stroke-linejoin:round;stroke-opacity:1"
         d="M 8.7185878,4.0337352 -2.2072895,0.01601326 8.7185884,-4.0017078 c -1.7454984,2.3720609 -1.7354408,5.6174519 -6e-7,8.035443 z"
         transform="scale(0.6)" />
    </marker>
    <marker
       inkscape:stockid="Arrow2Mstart"
       orient="auto"
       refY="0"
       refX="0"
       id="marker8654-3-8-7-9"
       style="overflow:visible"
       inkscape:isstock="true">
      <path
         inkscape:connector-curvature="0"
         id="path8652-9-3-4-9"
         style="fill:#000000;fill-opacity:1;fill-rule:evenodd;stroke:#000000;stroke-width:0.625;stroke-linejoin:round;stroke-opacity:1"
         d="M 8.7185878,4.0337352 -2.2072895,0.01601326 8.7185884,-4.0017078 c -1.7454984,2.3720609 -1.7354408,5.6174519 -6e-7,8.035443 z"
         transform="scale(0.6)" />
    </marker>
    <marker
       inkscape:stockid="Arrow2Mstart"
       orient="auto"
       refY="0"
       refX="0"
       id="marker8654-3-9-7"
       style="overflow:visible"
       inkscape:isstock="true">
      <path
         inkscape:connector-curvature="0"
         id="path8652-9-9-8"
         style="fill:#000000;fill-opacity:1;fill-rule:evenodd;stroke:#000000;stroke-width:0.625;stroke-linejoin:round;stroke-opacity:1"
         d="M 8.7185878,4.0337352 -2.2072895,0.01601326 8.7185884,-4.0017078 c -1.7454984,2.3720609 -1.7354408,5.6174519 -6e-7,8.035443 z"
         transform="scale(0.6)" />
    </marker>
    <marker
       inkscape:isstock="true"
       style="overflow:visible"
       id="marker8582-3"
       refX="0"
       refY="0"
       orient="auto"
       inkscape:stockid="Arrow2Mstart"
       inkscape:collect="always">
      <path
         transform="scale(0.6)"
         d="M 8.7185878,4.0337352 -2.2072895,0.01601326 8.7185884,-4.0017078 c -1.7454984,2.3720609 -1.7354408,5.6174519 -6e-7,8.035443 z"
         style="fill:#000000;fill-opacity:1;fill-rule:evenodd;stroke:#000000;stroke-width:0.625;stroke-linejoin:round;stroke-opacity:1"
         id="path8580-6"
         inkscape:connector-curvature="0" />
    </marker>
    <marker
       inkscape:stockid="Arrow2Lend"
       orient="auto"
       refY="0"
       refX="0"
       id="Arrow2Lend-3"
       style="overflow:visible"
       inkscape:isstock="true">
      <path
         inkscape:connector-curvature="0"
         id="path7111-7"
         style="fill:#a76d7f;fill-opacity:1;fill-rule:evenodd;stroke:#a76d7f;stroke-width:0.625;stroke-linejoin:round;stroke-opacity:1"
         d="M 8.7185878,4.0337352 -2.2072895,0.01601326 8.7185884,-4.0017078 c -1.7454984,2.3720609 -1.7354408,5.6174519 -6e-7,8.035443 z"
         transform="matrix(-1.1,0,0,-1.1,-1.1,0)" />
    </marker>
    <marker
       inkscape:stockid="Arrow2Mend"
       orient="auto"
       refY="0"
       refX="0"
       id="marker6875-6"
       style="overflow:visible"
       inkscape:isstock="true">
      <path
         inkscape:connector-curvature="0"
         id="path6873-1"
         style="fill:#000000;fill-opacity:1;fill-rule:evenodd;stroke:#000000;stroke-width:0.625;stroke-linejoin:round;stroke-opacity:1"
         d="M 8.7185878,4.0337352 -2.2072895,0.01601326 8.7185884,-4.0017078 c -1.7454984,2.3720609 -1.7354408,5.6174519 -6e-7,8.035443 z"
         transform="scale(-0.6)" />
    </marker>
  </defs>
  <sodipodi:namedview
     id="base"
     pagecolor="#ffffff"
     bordercolor="#666666"
     borderopacity="1.0"
     inkscape:pageopacity="0.0"
     inkscape:pageshadow="2"
     inkscape:zoom="0.7"
     inkscape:cx="733.42122"
     inkscape:cy="192.72535"
     inkscape:document-units="mm"
     inkscape:current-layer="layer1"
     showgrid="false"
     inkscape:window-width="1368"
     inkscape:window-height="704"
     inkscape:window-x="0"
     inkscape:window-y="27"
     inkscape:window-maximized="1"
     fit-margin-top="0"
     fit-margin-left="0"
     fit-margin-right="0"
     fit-margin-bottom="0" />
  <metadata
     id="metadata1386">
    <rdf:RDF>
      <cc:Work
         rdf:about="">
        <dc:format>image/svg+xml</dc:format>
        <dc:type
           rdf:resource="http://purl.org/dc/dcmitype/StillImage" />
        <dc:title />
      </cc:Work>
    </rdf:RDF>
  </metadata>
  <g
     inkscape:label="Capa 1"
     inkscape:groupmode="layer"
     id="layer1"
     transform="translate(21.39589,-89.520685)">
    <path
       d="m 109.81109,127.48522 -6.18507,-16.48104 -6.111685,16.46696 0.93825,0.006 0.30401,-0.81021 4.869425,-2.73649 4.81701,2.58668 0.35643,0.96002 z m -6.19555,-8.708 2.78852,2.56317 -2.78327,1.56087 -2.75184,-1.50868 z m -2.25912,0.9031 0.82817,-2.21862 0.76527,0.70474 z m 2.91432,-1.52433 0.78099,-0.74127 0.82292,2.21341 z m 0.44028,-1.66005 -1.10597,1.04405 -1.07976,-0.99184 1.10073,-2.95992 z m -5.472215,8.86409 1.189855,-3.18439 2.2696,1.24243 z m 5.314975,-1.94719 2.25911,-1.26853 1.17412,3.14891 z"
       style="fill:#4bacc6;fill-opacity:1;fill-rule:evenodd;stroke:none;stroke-width:0.35277775"
       id="path1708-9-3"
       inkscape:connector-curvature="0" />
    <path
       d="m 109.81109,127.48522 -6.18507,-16.48104 -6.111685,16.46696 0.93825,0.006 0.30401,-0.81021 4.869425,-2.73649 4.81701,2.58668 0.35643,0.96002 z m -6.19555,-8.708 2.78852,2.56317 -2.78327,1.56087 -2.75184,-1.50868 z m -2.25912,0.9031 0.82817,-2.21862 0.76527,0.70474 z m 2.91432,-1.52433 0.78099,-0.74127 0.82292,2.21341 z m 0.44028,-1.66005 -1.10597,1.04405 -1.07976,-0.99184 1.10073,-2.95992 z m -5.472215,8.86409 1.189855,-3.18439 2.2696,1.24243 z m 5.314975,-1.94719 2.25911,-1.26853 1.17412,3.14891 z"
       style="fill:none;stroke:#000000;stroke-width:0.36500001;stroke-linecap:round;stroke-linejoin:round;stroke-miterlimit:10;stroke-dasharray:none;stroke-opacity:1"
       id="path1710-1-6"
       inkscape:connector-curvature="0" />
    <path
       d="m 107.56244,109.318 c 0,1.38861 -0.71809,2.61538 -1.80834,3.33057 l 0.32497,0.66297 c 1.33137,-0.83524 2.22768,-2.31259 2.22768,-3.99354 0,-0.006 0,-0.0103 -0.006,-0.0157 0.006,-0.006 0.006,-0.0104 0.006,-0.0157 0,-1.68614 -0.89631,-3.16351 -2.22768,-3.99875 l -0.32497,0.6682 c 1.09025,0.70995 1.80834,1.93673 1.80834,3.33055 0,0.006 0,0.006 0,0.0104 v 0 c 0,0 0,0.006 0,0.006 0,0 0,0 0,0 v 0 c 0,0.006 0,0.0104 0,0.0157 z m -2.51071,-1.52431 c 0.41408,0.38109 0.67617,0.924 0.67617,1.52954 0,0.60034 -0.26209,1.14326 -0.67617,1.52433 l 0.32498,0.69431 c 0.65519,-0.51159 1.085,-1.30509 1.09024,-2.19776 v 0 c 0,-0.006 0.006,-0.0104 0.006,-0.0209 0,0 0,0 0,0 0,-0.006 0,-0.006 0,-0.006 0,-0.006 -0.006,-0.0157 -0.006,-0.0209 v 0 c -0.006,-0.89267 -0.43505,-1.68615 -1.09024,-2.19774 z m -5.671395,1.52431 c 0,-0.006 0,-0.0103 0,-0.0157 v -0.006 c 0,-0.006 0,-0.006 0,-0.0104 0,-1.39381 0.718095,-2.62059 1.808355,-3.33054 l -0.32497,-0.66821 c -1.331375,0.83524 -2.227685,2.3126 -2.227685,3.99875 0,0.006 0,0.0103 0,0.0157 0,0.006 0,0.0104 0,0.0157 0,1.68095 0.89631,3.15829 2.227685,3.99354 l 0.32497,-0.66297 c -1.09026,-0.7152 -1.808355,-1.94198 -1.808355,-3.33058 z m 2.573615,-1.52431 -0.31973,-0.69429 c -0.66043,0.51158 -1.085,1.30507 -1.09549,2.19772 v 0 c 0,0.006 0,0.0157 0,0.0209 0,0 0,0 0,0.006 0,0 0,0 0,0 0,0.0104 0,0.0157 0,0.0209 v 0 c 0.0104,0.89268 0.43506,1.68616 1.09549,2.19775 l 0.31973,-0.6943 c -0.41408,-0.38108 -0.67092,-0.924 -0.67616,-1.52433 0.006,-0.60555 0.26208,-1.14846 0.67616,-1.52953 z m 2.32203,1.53476 c 0,-0.41238 -0.34071,-0.75171 -0.75479,-0.75171 -0.41932,0 -0.75479,0.33933 -0.75479,0.75171 0,0.4124 0.33547,0.75173 0.75479,0.75173 0.41408,0 0.75479,-0.33933 0.75479,-0.75173 z"
       style="fill:#4bacc6;fill-opacity:1;fill-rule:evenodd;stroke:none;stroke-width:0.36500001;stroke-miterlimit:10;stroke-dasharray:none"
       id="path1712-0-7"
       inkscape:connector-curvature="0" />
    <path
       d="m 107.56244,109.318 c 0,1.38861 -0.71809,2.61538 -1.80834,3.33057 l 0.32497,0.66297 c 1.33137,-0.83524 2.22768,-2.31259 2.22768,-3.99354 0,-0.006 0,-0.0103 -0.006,-0.0157 0.006,-0.006 0.006,-0.0104 0.006,-0.0157 0,-1.68614 -0.89631,-3.16351 -2.22768,-3.99875 l -0.32497,0.6682 c 1.09025,0.70995 1.80834,1.93673 1.80834,3.33055 0,0.006 0,0.006 0,0.0104 v 0 c 0,0 0,0.006 0,0.006 0,0 0,0 0,0 v 0 c 0,0.006 0,0.0104 0,0.0157 z m -2.51071,-1.52431 c 0.41408,0.38109 0.67617,0.924 0.67617,1.52954 0,0.60034 -0.26209,1.14326 -0.67617,1.52433 l 0.32498,0.69431 c 0.65519,-0.51159 1.085,-1.30509 1.09024,-2.19776 v 0 c 0,-0.006 0.006,-0.0104 0.006,-0.0209 0,0 0,0 0,0 0,-0.006 0,-0.006 0,-0.006 0,-0.006 -0.006,-0.0157 -0.006,-0.0209 v 0 c -0.006,-0.89267 -0.43505,-1.68615 -1.09024,-2.19774 z m -5.671395,1.52431 c 0,-0.006 0,-0.0103 0,-0.0157 v -0.006 c 0,-0.006 0,-0.006 0,-0.0104 0,-1.39381 0.718095,-2.62059 1.808355,-3.33054 l -0.32497,-0.66821 c -1.331375,0.83524 -2.227685,2.3126 -2.227685,3.99875 0,0.006 0,0.0103 0,0.0157 0,0.006 0,0.0104 0,0.0157 0,1.68095 0.89631,3.15829 2.227685,3.99354 l 0.32497,-0.66297 c -1.09026,-0.7152 -1.808355,-1.94198 -1.808355,-3.33058 z m 2.573615,-1.52431 -0.31973,-0.69429 c -0.66043,0.51158 -1.085,1.30507 -1.09549,2.19772 v 0 c 0,0.006 0,0.0157 0,0.0209 0,0 0,0 0,0.006 0,0 0,0 0,0 0,0.0104 0,0.0157 0,0.0209 v 0 c 0.0104,0.89268 0.43506,1.68616 1.09549,2.19775 l 0.31973,-0.6943 c -0.41408,-0.38108 -0.67092,-0.924 -0.67616,-1.52433 0.006,-0.60555 0.26208,-1.14846 0.67616,-1.52953 z m 2.32203,1.53476 c 0,-0.41238 -0.34071,-0.75171 -0.75479,-0.75171 -0.41932,0 -0.75479,0.33933 -0.75479,0.75171 0,0.4124 0.33547,0.75173 0.75479,0.75173 0.41408,0 0.75479,-0.33933 0.75479,-0.75173 z"
       style="fill:none;stroke:#000000;stroke-width:0.36500001;stroke-linecap:round;stroke-linejoin:round;stroke-miterlimit:10;stroke-dasharray:none;stroke-opacity:1"
       id="path1714-7-5"
       inkscape:connector-curvature="0" />
    <path
       d="m 96.925265,116.34632 h 13.112345 c 0.0938,0 0.17176,0.1388 0.17176,0.31217 v 5.61386 c 0,0.17337 -0.078,0.31161 -0.17176,0.31161 H 96.925265 c -0.096,0 -0.17402,-0.13821 -0.17402,-0.31161 v -5.61386 c 0,-0.17332 0.078,-0.31217 0.17402,-0.31217 z"
       style="fill:#ffffff;fill-opacity:1;fill-rule:evenodd;stroke:none;stroke-width:0.03527778"
       id="path6463-5-3"
       inkscape:connector-curvature="0" />
    <path
       d="m 96.925265,116.34632 h 13.112345 c 0.0938,0 0.17176,0.1388 0.17176,0.31217 v 5.61386 c 0,0.17337 -0.078,0.31161 -0.17176,0.31161 H 96.925265 c -0.096,0 -0.17402,-0.13821 -0.17402,-0.31161 v -5.61386 c 0,-0.17332 0.078,-0.31217 0.17402,-0.31217 z"
       style="fill:none;stroke:#92cddc;stroke-width:0.33333337;stroke-linecap:butt;stroke-linejoin:miter;stroke-miterlimit:4;stroke-dasharray:none;stroke-opacity:1"
       id="path6465-8-5"
       inkscape:connector-curvature="0" />
    <g
       id="g6467-7-6"
       transform="matrix(0.52415908,0,0,-0.52203109,85.985484,172.63798)"
       style="stroke-width:0.67440605">
      <text
         transform="matrix(1,0,0,-1,25.3941,98.0043)"
         style="font-style:italic;font-variant:normal;font-weight:bold;font-size:13.3611002px;font-family:Carlito;-inkscape-font-specification:Carlito-BoldItalic;writing-mode:lr-tb;fill:#000000;fill-opacity:1;fill-rule:nonzero;stroke:none;stroke-width:0.67440605"
         id="text6471-0-2">
        <tspan
           x="0 6.7740779"
           y="0"
           sodipodi:role="line"
           id="tspan6469-48-9"
           style="stroke-width:0.67440605">5G</tspan>
      </text>
    </g>
    <path
       d="m 147.1094,114.55771 h -7.47536 l -2.52589,4.90714 v 7.38717 h 12.49891 v -7.38717 z"
       style="fill:#92cddc;fill-opacity:1;fill-rule:evenodd;stroke:none;stroke-width:0.465;stroke-miterlimit:10;stroke-dasharray:none"
       id="path882"
       inkscape:connector-curvature="0" />
    <path
       d="m 137.10815,119.46485 h 12.49891 m -2.49766,-4.90714 h -7.47536 l -2.52589,4.90714 v 7.38717 h 12.49891 v -7.38717 z"
       style="fill:none;stroke:#000000;stroke-width:0.465;stroke-linecap:round;stroke-linejoin:round;stroke-miterlimit:10;stroke-dasharray:none;stroke-opacity:1"
       id="path884"
       inkscape:connector-curvature="0" />
    <path
       d="m 143.92029,123.19018 2.42358,-1.4605 1.56281,-0.004 -0.80787,0.80081 h 0.94192 l 1.04775,-1.13947 -1.04422,-1.13948 h -0.94897 l 0.80433,0.79728 h -1.66511 l -2.93864,1.77095 -2.72697,-1.64748 h -1.66511 l 0.80433,-0.79727 h -0.94897 l -1.04775,1.143 1.05128,1.13947 h 0.94191 l -0.81139,-0.80434 1.56281,0.004 2.21897,1.33703 -2.21897,1.34056 h -1.56281 l 0.81139,-0.80081 h -0.94191 l -1.05128,1.13948 1.04775,1.13947 h 0.94897 l -0.80433,-0.79375 h 1.66511 l 2.72697,-1.64747 2.93864,1.77094 h 1.66511 l -0.80433,0.79728 h 0.94897 l 1.04422,-1.13947 -1.04775,-1.143 h -0.94192 l 0.80787,0.80433 -1.56281,-0.004 z"
       style="fill:#92cddc;fill-opacity:1;fill-rule:evenodd;stroke:none;stroke-width:0.465;stroke-miterlimit:10;stroke-dasharray:none"
       id="path886"
       inkscape:connector-curvature="0" />
    <path
       d="m 143.92029,123.19018 2.42358,-1.4605 1.56281,-0.004 -0.80787,0.80081 h 0.94192 l 1.04775,-1.13947 -1.04422,-1.13948 h -0.94897 l 0.80433,0.79728 h -1.66511 l -2.93864,1.77095 -2.72697,-1.64748 h -1.66511 l 0.80433,-0.79727 h -0.94897 l -1.04775,1.143 1.05128,1.13947 h 0.94191 l -0.81139,-0.80434 1.56281,0.004 2.21897,1.33703 -2.21897,1.34056 h -1.56281 l 0.81139,-0.80081 h -0.94191 l -1.05128,1.13948 1.04775,1.13947 h 0.94897 l -0.80433,-0.79375 h 1.66511 l 2.72697,-1.64747 2.93864,1.77094 h 1.66511 l -0.80433,0.79728 h 0.94897 l 1.04422,-1.13947 -1.04775,-1.143 h -0.94192 l 0.80787,0.80433 -1.56281,-0.004 z"
       style="fill:none;stroke:#000000;stroke-width:0.36500001;stroke-linecap:round;stroke-linejoin:round;stroke-miterlimit:10;stroke-dasharray:none;stroke-opacity:1"
       id="path888"
       inkscape:connector-curvature="0" />
    <text
       y="164.0081"
       x="101.35323"
       style="font-style:italic;font-variant:normal;font-weight:normal;font-size:4.25097179px;font-family:Calibri;-inkscape-font-specification:'Calibri Italic';writing-mode:lr-tb;fill:#000000;fill-opacity:1;fill-rule:nonzero;stroke:none;stroke-width:0.35277775"
       id="text1066">
      <tspan
         style="stroke-width:0.35277775"
         x="101.35323 103.73377 105.58294 107.43212 109.28555 110.87115 112.72033 113.51526 115.09662 115.89155 118.26785"
         y="164.0081"
         sodipodi:role="line"
         id="tspan5202" />
    </text>
    <text
       xml:space="preserve"
       style="font-style:italic;font-variant:normal;font-weight:normal;font-stretch:normal;font-size:4.93888903px;line-height:5px;font-family:Calibri;-inkscape-font-specification:'Calibri Italic';font-variant-ligatures:normal;font-variant-position:normal;font-variant-caps:normal;font-variant-numeric:normal;font-variant-alternates:normal;font-feature-settings:normal;text-indent:0;text-align:start;text-decoration:none;text-decoration-line:none;text-decoration-style:solid;text-decoration-color:#000000;letter-spacing:0px;word-spacing:0px;text-transform:none;writing-mode:lr-tb;direction:ltr;text-orientation:mixed;dominant-baseline:auto;baseline-shift:baseline;text-anchor:start;white-space:normal;shape-padding:0;opacity:1;vector-effect:none;fill:#000000;fill-opacity:1;stroke:none;stroke-width:0.26458332;stroke-linecap:butt;stroke-linejoin:miter;stroke-miterlimit:4;stroke-dasharray:none;stroke-dashoffset:0;stroke-opacity:1"
       x="143.20781"
       y="132.14453"
       id="text5208"><tspan
         sodipodi:role="line"
         x="143.20781"
         y="132.14453"
         style="font-style:italic;font-variant:normal;font-weight:normal;font-stretch:normal;font-size:4.93888903px;line-height:5px;font-family:Calibri;-inkscape-font-specification:'Calibri Italic';text-align:center;text-anchor:middle;stroke-width:0.26458332"
         id="tspan5218">switch</tspan></text>
    <path
       style="fill:#000000;stroke-width:1"
       d="m 58.888724,132.85527 c -0.440571,-0.0863 -0.804312,-0.3899 -0.944732,-0.78862 l -0.0369,-0.10464 -0.257021,-0.0103 c -0.20438,-0.008 -0.27527,-0.0186 -0.346136,-0.0508 -0.127281,-0.0577 -0.2388,-0.16595 -0.300749,-0.29187 l -0.0536,-0.10895 -0.006,-0.72713 c -0.004,-0.45134 0.0021,-0.76862 0.01461,-0.83651 0.08,-0.43226 0.477477,-0.75555 0.928827,-0.75555 h 0.0937 l 0.25318,-0.50516 c 0.292348,-0.58332 0.3454,-0.67122 0.50623,-0.8389 0.203959,-0.21265 0.450239,-0.36456 0.728689,-0.44947 0.13953,-0.0426 0.158141,-0.0432 1.481352,-0.0498 0.932449,-0.005 1.386329,-4e-5 1.492189,0.0152 0.297129,0.0428 0.602739,0.18429 0.821571,0.38052 0.0583,0.0523 0.357478,0.39941 0.664789,0.77137 l 0.558729,0.67627 0.45353,5.3e-4 c 0.292081,5.3e-4 0.50501,0.01 0.598151,0.0265 0.320548,0.0573 0.609018,0.2147 0.841759,0.45928 0.160091,0.16821 0.25967,0.32606 0.334042,0.52949 0.0817,0.22333 0.100488,0.4008 0.0934,0.8798 -0.006,0.41815 -0.007,0.42478 -0.0599,0.53237 -0.0617,0.12546 -0.172821,0.23354 -0.300742,0.29258 -0.0828,0.0383 -0.129098,0.0418 -0.654608,0.0508 l -0.565491,0.01 -0.0369,0.10465 c -0.0583,0.16533 -0.15159,0.3069 -0.299479,0.45439 -0.168453,0.16801 -0.380461,0.27943 -0.623822,0.32783 -0.58221,0.1158 -1.192299,-0.22807 -1.38779,-0.78222 l -0.0369,-0.10465 H 61.56718 60.291661 l -0.0369,0.10465 c -0.0979,0.27762 -0.332028,0.53984 -0.598358,0.67026 -0.248181,0.12153 -0.529942,0.16496 -0.767971,0.11836 z m 0.471069,-0.65421 c 0.121971,-0.0578 0.238091,-0.1731 0.29885,-0.29679 0.0681,-0.13862 0.0686,-0.38213 7.94e-4,-0.51914 -0.0602,-0.12211 -0.178052,-0.23975 -0.300371,-0.29985 -0.0789,-0.0387 -0.124891,-0.0471 -0.259789,-0.0471 -0.134911,0 -0.180862,0.008 -0.259803,0.0471 -0.34349,0.16873 -0.459158,0.5834 -0.25087,0.89934 0.072,0.10926 0.202642,0.2094 0.325491,0.24957 0.116901,0.0382 0.32798,0.0225 0.445471,-0.0331 z m 4.936009,0 c 0.12197,-0.0578 0.23809,-0.1731 0.298852,-0.29679 0.0681,-0.13862 0.0686,-0.38213 5.29e-4,-0.51914 -0.0602,-0.12211 -0.178051,-0.23975 -0.300371,-0.29985 -0.0789,-0.0387 -0.124899,-0.0471 -0.259799,-0.0471 -0.134909,0 -0.180851,0.008 -0.2598,0.0471 -0.343479,0.16873 -0.45915,0.5834 -0.25087,0.89934 0.072,0.10926 0.202631,0.2094 0.325501,0.24957 0.11689,0.0382 0.32797,0.0225 0.445468,-0.0331 z m -6.351818,-0.97883 c 0.0844,-0.2394 0.30167,-0.50228 0.52324,-0.63289 0.206169,-0.12154 0.362998,-0.16306 0.622628,-0.16485 0.192792,-0.001 0.253892,0.006 0.36635,0.0428 0.375672,0.12373 0.676471,0.40797 0.798862,0.75487 l 0.0369,0.10465 h 1.27553 1.275519 l 0.0369,-0.10465 c 0.0845,-0.23954 0.301771,-0.50229 0.523291,-0.63289 0.206168,-0.12154 0.363008,-0.16307 0.622638,-0.16484 0.192781,-0.001 0.253892,0.006 0.36635,0.0428 0.375672,0.12373 0.676511,0.40801 0.798851,0.75486 l 0.0369,0.10466 0.483521,0.005 0.48351,0.005 v -0.30828 -0.30827 h -0.33932 c -0.3824,0 -0.434319,-0.0129 -0.5246,-0.13111 -0.0742,-0.0971 -0.0742,-0.25657 0,-0.35365 0.0827,-0.1082 0.15313,-0.13112 0.40305,-0.13112 h 0.217789 l -0.0665,-0.0684 c -0.0811,-0.0836 -0.290518,-0.19081 -0.427728,-0.21909 -0.0715,-0.0147 -1.22329,-0.0194 -3.903292,-0.0158 l -3.801798,0.005 -0.0533,0.0397 c -0.0293,0.0218 -0.0711,0.0636 -0.093,0.0928 -0.0381,0.0509 -0.04,0.081 -0.0453,0.7261 l -0.006,0.67297 0.17576,-0.005 0.175782,-0.005 z m 2.196698,-2.65721 0.308621,-0.61588 h -0.34307 c -0.48927,0 -0.638511,0.0467 -0.88588,0.27686 -0.112361,0.10458 -0.13797,0.14556 -0.33383,0.53409 l -0.21213,0.42082 h 0.578839 0.57884 z m 3.515352,0.57259 c -0.02151,-0.0238 -0.20806,-0.24716 -0.414541,-0.49631 -0.399039,-0.48152 -0.481539,-0.55636 -0.70648,-0.641 -0.102431,-0.0385 -0.150839,-0.0416 -0.749951,-0.0473 l -0.640458,-0.006 -0.3092,0.61707 -0.309211,0.61705 h 1.584481 1.584489 z"
       id="path9402-5-1"
       inkscape:connector-curvature="0" />
    <path
       style="opacity:1;fill:#92cddc;fill-opacity:1;fill-rule:evenodd;stroke:#040000;stroke-width:0.15000001;stroke-linecap:butt;stroke-linejoin:miter;stroke-miterlimit:4;stroke-dasharray:none;stroke-dashoffset:0;stroke-opacity:1;paint-order:fill markers stroke"
       d="m 57.565384,131.19639 c 0.01,-0.0818 0.01799,-0.38593 0.0181,-0.67587 2.39e-4,-0.52686 2.6e-4,-0.52721 0.0716,-0.61175 l 0.0713,-0.0846 3.874471,2e-5 3.874461,2e-5 0.16528,0.0786 c 0.0909,0.0432 0.18769,0.10378 0.215119,0.13456 0.0497,0.0558 0.0489,0.056 -0.18819,0.0658 -0.22878,0.009 -0.24117,0.0132 -0.31841,0.0995 -0.0622,0.0694 -0.0804,0.11635 -0.0804,0.20697 0,0.24958 0.132821,0.32189 0.591323,0.32189 h 0.317648 v 0.30603 0.30604 l -0.103291,-0.017 c -0.0568,-0.009 -0.265649,-0.0172 -0.464068,-0.0173 l -0.360787,-2.6e-4 -0.100669,-0.20331 c -0.119091,-0.24054 -0.337711,-0.4578 -0.578641,-0.57508 -0.61173,-0.29776 -1.358169,-0.0325 -1.649298,0.58619 l -0.0899,0.19113 -1.27177,5.3e-4 -1.271741,5.3e-4 -0.01781,-0.0811 c -0.0266,-0.12083 -0.208928,-0.38746 -0.347038,-0.50744 -0.0668,-0.058 -0.214471,-0.15024 -0.328102,-0.20485 -0.193619,-0.0931 -0.222999,-0.0992 -0.46826,-0.0982 -0.318508,0.001 -0.512169,0.0546 -0.715999,0.19674 -0.186981,0.13039 -0.39533,0.38529 -0.458679,0.56114 -0.0468,0.12994 -0.0513,0.13373 -0.15979,0.13409 -0.0614,2.1e-4 -0.14147,0.008 -0.177951,0.0181 -0.0656,0.0175 -0.0661,0.016 -0.0485,-0.13098 z"
       id="path10245-4-0"
       inkscape:connector-curvature="0" />
    <path
       style="opacity:1;fill:#92cddc;fill-opacity:1;fill-rule:evenodd;stroke:#040000;stroke-width:0.15000001;stroke-linecap:butt;stroke-linejoin:miter;stroke-miterlimit:4;stroke-dasharray:none;stroke-dashoffset:0;stroke-opacity:1;paint-order:fill markers stroke"
       d="m 58.713083,129.14859 c 0,-0.009 0.083,-0.17877 0.184499,-0.37806 0.27799,-0.54596 0.48106,-0.7341 0.84967,-0.78729 0.19763,-0.0285 0.6736,-0.0392 0.6736,-0.0151 0,0.007 -0.133109,0.27967 -0.295799,0.60489 l -0.295809,0.5913 h -0.558081 c -0.306951,0 -0.55808,-0.007 -0.55808,-0.0157 z"
       id="path10247-4-8"
       inkscape:connector-curvature="0" />
    <path
       style="fill:#000000;stroke-width:1"
       d="m 53.327666,137.28952 c -0.44057,-0.0863 -0.804309,-0.38989 -0.944729,-0.78861 l -0.0369,-0.10465 -0.257019,-0.0103 c -0.20438,-0.008 -0.27527,-0.0186 -0.346141,-0.0508 -0.127291,-0.0577 -0.2388,-0.16595 -0.300749,-0.29187 l -0.0536,-0.10895 -0.006,-0.72713 c -0.004,-0.45133 0.0021,-0.76861 0.01461,-0.83651 0.08,-0.43226 0.477481,-0.75555 0.928831,-0.75555 h 0.0937 l 0.25318,-0.50516 c 0.292351,-0.58332 0.3454,-0.67122 0.50623,-0.8389 0.203959,-0.21265 0.450231,-0.36456 0.728689,-0.44947 0.139531,-0.0426 0.158141,-0.0432 1.481362,-0.0498 0.93244,-0.005 1.386319,-4e-5 1.492179,0.0152 0.29713,0.0428 0.602737,0.18427 0.821568,0.38051 0.0583,0.0523 0.357479,0.39942 0.66479,0.77137 l 0.558728,0.67626 0.45353,5.3e-4 c 0.292082,5.3e-4 0.505011,0.01 0.598152,0.0265 0.320548,0.0573 0.60902,0.21469 0.841758,0.45927 0.160092,0.16821 0.25967,0.32606 0.334042,0.52949 0.0817,0.22333 0.1005,0.4008 0.0934,0.8798 -0.006,0.41815 -0.007,0.42479 -0.0599,0.53237 -0.0617,0.12546 -0.17281,0.23355 -0.300741,0.29258 -0.0828,0.0383 -0.129098,0.0418 -0.654608,0.0508 l -0.565481,0.01 -0.0369,0.10464 c -0.0583,0.16534 -0.15159,0.30691 -0.299471,0.45439 -0.16846,0.16802 -0.380471,0.27944 -0.623851,0.32784 -0.582189,0.1158 -1.192278,-0.22807 -1.387779,-0.78223 l -0.0369,-0.10464 h -1.275522 -1.275519 l -0.0369,0.10464 c -0.0979,0.27763 -0.332029,0.53984 -0.598358,0.67027 -0.248182,0.12153 -0.529942,0.16496 -0.76798,0.11835 z m 0.47107,-0.65421 c 0.12197,-0.0578 0.238091,-0.1731 0.298849,-0.29679 0.0681,-0.13862 0.0686,-0.38213 7.94e-4,-0.51914 -0.0602,-0.12211 -0.178051,-0.23975 -0.300371,-0.29984 -0.0789,-0.0387 -0.124888,-0.0471 -0.259799,-0.0471 -0.13489,0 -0.180851,0.008 -0.259789,0.0471 -0.34349,0.16872 -0.459161,0.58339 -0.25087,0.89933 0.072,0.10927 0.202618,0.2094 0.325487,0.24957 0.116891,0.0382 0.327981,0.0225 0.445471,-0.0331 z m 4.936006,0 c 0.12197,-0.0578 0.23809,-0.1731 0.298841,-0.29679 0.0681,-0.13862 0.0686,-0.38213 7.94e-4,-0.51914 -0.0602,-0.12211 -0.178049,-0.23975 -0.300368,-0.29984 -0.0789,-0.0387 -0.124891,-0.0471 -0.2598,-0.0471 -0.134911,0 -0.18085,0.008 -0.259799,0.0471 -0.343483,0.16872 -0.45915,0.58339 -0.25087,0.89933 0.072,0.10927 0.202628,0.2094 0.325498,0.24957 0.11689,0.0382 0.32798,0.0225 0.445471,-0.0331 z m -6.351826,-0.97883 c 0.0844,-0.2394 0.301681,-0.50227 0.52324,-0.63289 0.206179,-0.12153 0.363011,-0.16306 0.622639,-0.16484 0.192791,-10e-4 0.253891,0.006 0.36635,0.0428 0.375671,0.12373 0.676471,0.40797 0.798862,0.75487 l 0.0369,0.10465 h 1.275522 1.275519 l 0.0369,-0.10465 c 0.0845,-0.23953 0.301771,-0.50229 0.52329,-0.63289 0.206172,-0.12154 0.363011,-0.16307 0.622642,-0.16484 0.192778,-0.001 0.253889,0.006 0.36635,0.0428 0.375668,0.12373 0.67651,0.40801 0.798848,0.75486 l 0.0369,0.10466 0.48351,0.005 0.483518,0.005 v -0.30829 -0.30827 h -0.339328 c -0.3824,0 -0.434311,-0.0129 -0.524592,-0.13111 -0.0742,-0.0971 -0.0742,-0.25657 0,-0.35365 0.0827,-0.1082 0.15313,-0.13112 0.40305,-0.13112 h 0.217781 l -0.0665,-0.0684 c -0.0811,-0.0836 -0.29052,-0.19081 -0.427731,-0.21909 -0.0715,-0.0147 -1.22329,-0.0194 -3.903284,-0.0158 l -3.801819,0.005 -0.0532,0.0397 c -0.0293,0.0218 -0.0711,0.0636 -0.093,0.0928 -0.0381,0.0509 -0.04,0.081 -0.0453,0.72609 l -0.006,0.67298 0.175771,-0.005 0.17577,-0.005 z m 2.196711,-2.6572 0.308618,-0.61589 h -0.343069 c -0.48927,0 -0.638511,0.0467 -0.885881,0.27686 -0.112358,0.10458 -0.13798,0.14556 -0.33383,0.53409 l -0.21213,0.42082 h 0.57884 0.578832 z m 3.515347,0.57258 c -0.02151,-0.0238 -0.208071,-0.24716 -0.414541,-0.49631 -0.399037,-0.48152 -0.481537,-0.55636 -0.706477,-0.641 -0.102431,-0.0385 -0.150839,-0.0416 -0.749949,-0.0473 l -0.640461,-0.006 -0.3092,0.61707 -0.30921,0.61705 h 1.584489 1.584478 z"
       id="path9402-6-9-5"
       inkscape:connector-curvature="0" />
    <path
       style="opacity:1;fill:#92cddc;fill-opacity:1;fill-rule:evenodd;stroke:#040000;stroke-width:0.15000001;stroke-linecap:butt;stroke-linejoin:miter;stroke-miterlimit:4;stroke-dasharray:none;stroke-dashoffset:0;stroke-opacity:1;paint-order:fill markers stroke"
       d="m 52.004326,135.63064 c 0.01,-0.0818 0.01799,-0.38592 0.0181,-0.67586 2.38e-4,-0.52687 2.59e-4,-0.52721 0.0715,-0.61176 l 0.0713,-0.0846 3.874471,2e-5 3.874469,2e-5 0.165258,0.0786 c 0.0909,0.0432 0.187712,0.10378 0.21513,0.13457 0.0497,0.0558 0.0489,0.056 -0.18819,0.0658 -0.228769,0.009 -0.24117,0.0132 -0.31841,0.0995 -0.0622,0.0694 -0.0804,0.11635 -0.0804,0.20697 0,0.24957 0.132829,0.32188 0.59132,0.32188 h 0.317648 v 0.30604 0.30604 l -0.103288,-0.0171 c -0.0568,-0.009 -0.265641,-0.0172 -0.464071,-0.0173 l -0.360784,-2.6e-4 -0.100668,-0.20332 c -0.119092,-0.24054 -0.337712,-0.45781 -0.578641,-0.57508 -0.61173,-0.29775 -1.358159,-0.0325 -1.649299,0.58619 l -0.0899,0.19112 -1.271752,5.3e-4 -1.271749,5.3e-4 -0.01781,-0.0812 c -0.0266,-0.12084 -0.208928,-0.38745 -0.347038,-0.50743 -0.0668,-0.058 -0.214482,-0.15025 -0.328102,-0.20487 -0.19363,-0.0931 -0.22302,-0.0992 -0.46827,-0.0982 -0.318508,0.001 -0.51217,0.0546 -0.716,0.19676 -0.186978,0.13039 -0.395319,0.38528 -0.458679,0.56114 -0.0468,0.12993 -0.0513,0.13372 -0.15979,0.13409 -0.0614,2e-4 -0.14147,0.008 -0.177961,0.018 -0.0656,0.0175 -0.0661,0.016 -0.0485,-0.13098 z"
       id="path10245-1-9-0"
       inkscape:connector-curvature="0" />
    <path
       style="opacity:1;fill:#92cddc;fill-opacity:1;fill-rule:evenodd;stroke:#040000;stroke-width:0.15000001;stroke-linecap:butt;stroke-linejoin:miter;stroke-miterlimit:4;stroke-dasharray:none;stroke-dashoffset:0;stroke-opacity:1;paint-order:fill markers stroke"
       d="m 53.154857,133.59941 c 0,-0.009 0.083,-0.17877 0.184502,-0.37806 0.27799,-0.54595 0.48106,-0.7341 0.849669,-0.78728 0.197631,-0.0285 0.673601,-0.0392 0.673601,-0.0151 0,0.007 -0.13311,0.27967 -0.29581,0.60489 l -0.295812,0.5913 h -0.55807 c -0.306948,0 -0.55808,-0.007 -0.55808,-0.0157 z"
       id="path10247-3-3-6"
       inkscape:connector-curvature="0" />
    <path
       style="fill:#000000;stroke-width:1"
       d="m 46.952087,132.27656 c -0.440571,-0.0863 -0.804321,-0.38989 -0.94474,-0.78862 l -0.0369,-0.10463 -0.257019,-0.0103 c -0.204369,-0.008 -0.275269,-0.0186 -0.346141,-0.0508 -0.12728,-0.0577 -0.238789,-0.16595 -0.300749,-0.29188 l -0.0536,-0.10894 -0.006,-0.72714 c -0.003,-0.45133 0.0021,-0.76861 0.01461,-0.8365 0.08,-0.43226 0.477491,-0.75556 0.92883,-0.75556 h 0.0937 l 0.253179,-0.50515 c 0.29236,-0.58332 0.345411,-0.67123 0.50623,-0.83891 0.20396,-0.21265 0.450242,-0.36455 0.7287,-0.44946 0.139531,-0.0426 0.158141,-0.0432 1.481352,-0.0498 0.93245,-0.005 1.386329,-5e-5 1.492189,0.0152 0.29713,0.0428 0.602739,0.18428 0.821571,0.38051 0.0583,0.0523 0.357478,0.39942 0.664779,0.77137 l 0.558739,0.67627 0.45353,5.3e-4 c 0.292082,5.3e-4 0.50501,0.01 0.598141,0.0265 0.320551,0.0573 0.609031,0.2147 0.841769,0.45928 0.160092,0.16821 0.259662,0.32607 0.334042,0.52948 0.0817,0.22333 0.100489,0.40081 0.0934,0.87982 -0.006,0.41814 -0.007,0.42478 -0.0599,0.53236 -0.0617,0.12546 -0.172821,0.23355 -0.300731,0.29259 -0.0828,0.0383 -0.129109,0.0418 -0.654619,0.0508 l -0.56548,0.01 -0.0369,0.10464 c -0.0583,0.16533 -0.151601,0.30691 -0.299482,0.4544 -0.16845,0.16801 -0.380468,0.27942 -0.62384,0.32783 -0.5822,0.11579 -1.192279,-0.22808 -1.38779,-0.78223 l -0.0369,-0.10464 h -1.27549 -1.275519 l -0.0369,0.10464 c -0.0979,0.27762 -0.332021,0.53985 -0.598361,0.67026 -0.248179,0.12154 -0.529939,0.16496 -0.767979,0.11837 z m 0.471069,-0.6542 c 0.12196,-0.0578 0.23808,-0.1731 0.298839,-0.29679 0.0681,-0.13863 0.0686,-0.38214 7.94e-4,-0.51915 -0.0602,-0.1221 -0.178052,-0.23976 -0.300371,-0.29985 -0.0789,-0.0387 -0.124889,-0.0471 -0.259789,-0.0471 -0.134911,0 -0.180851,0.008 -0.2598,0.0471 -0.343479,0.16874 -0.45916,0.58341 -0.25087,0.89934 0.072,0.10927 0.202629,0.2094 0.325491,0.24957 0.116898,0.0382 0.327988,0.0225 0.445468,-0.0331 z m 4.936001,0 c 0.12197,-0.0578 0.23809,-0.1731 0.298849,-0.29679 0.0681,-0.13863 0.0686,-0.38214 7.94e-4,-0.51915 -0.0602,-0.1221 -0.178052,-0.23976 -0.300371,-0.29985 -0.0789,-0.0387 -0.124891,-0.0471 -0.2598,-0.0471 -0.1349,0 -0.18085,0.008 -0.259791,0.0471 -0.34348,0.16874 -0.459158,0.58341 -0.25087,0.89934 0.072,0.10927 0.20262,0.2094 0.32549,0.24957 0.116901,0.0382 0.32798,0.0225 0.445471,-0.0331 z m -6.351821,-0.97883 c 0.0844,-0.2394 0.301681,-0.50228 0.52324,-0.63289 0.206169,-0.12154 0.363001,-0.16307 0.622639,-0.16485 0.192781,-0.001 0.253881,0.006 0.366342,0.0428 0.375669,0.12373 0.676479,0.40798 0.798859,0.75487 l 0.0369,0.10465 h 1.275532 1.275519 l 0.0369,-0.10465 c 0.0845,-0.23953 0.30176,-0.50229 0.52328,-0.63289 0.206182,-0.12154 0.363011,-0.16306 0.622641,-0.16484 0.192789,-0.001 0.253889,0.006 0.36635,0.0428 0.375669,0.12374 0.676511,0.40801 0.798849,0.75487 l 0.0369,0.10465 0.483521,0.005 0.483518,0.005 v -0.30827 -0.30827 h -0.339328 c -0.382402,0 -0.434321,-0.013 -0.5246,-0.13112 -0.0742,-0.0971 -0.0742,-0.25657 0,-0.35364 0.0827,-0.10821 0.15313,-0.13113 0.403048,-0.13113 h 0.217781 l -0.0665,-0.0684 c -0.0811,-0.0836 -0.290522,-0.19082 -0.427722,-0.2191 -0.0715,-0.0147 -1.223298,-0.0194 -3.903289,-0.0158 l -3.80183,0.005 -0.0533,0.0397 c -0.0293,0.0218 -0.0711,0.0636 -0.093,0.0928 -0.0381,0.0509 -0.04,0.081 -0.0453,0.72611 l -0.006,0.67296 0.17577,-0.005 0.175782,-0.005 z m 2.196711,-2.65721 0.30861,-0.61589 h -0.343072 c -0.48927,0 -0.638508,0.0467 -0.88587,0.27687 -0.112368,0.10458 -0.13798,0.14555 -0.33384,0.53408 l -0.21213,0.42082 h 0.578842 0.57884 z m 3.51535,0.57258 c -0.02151,-0.0238 -0.208071,-0.24716 -0.414552,-0.49631 -0.399039,-0.48151 -0.481539,-0.55636 -0.70648,-0.641 -0.10242,-0.0385 -0.150839,-0.0416 -0.749948,-0.0473 l -0.640451,-0.006 -0.30921,0.61706 -0.309211,0.61706 h 1.584492 1.584489 z"
       id="path9402-2-6-4"
       inkscape:connector-curvature="0" />
    <path
       style="opacity:1;fill:#92cddc;fill-opacity:1;fill-rule:evenodd;stroke:#040000;stroke-width:0.15000001;stroke-linecap:butt;stroke-linejoin:miter;stroke-miterlimit:4;stroke-dasharray:none;stroke-dashoffset:0;stroke-opacity:1;paint-order:fill markers stroke"
       d="m 45.628736,130.61768 c 0.01,-0.0818 0.01799,-0.38592 0.0181,-0.67587 2.41e-4,-0.52685 2.65e-4,-0.5272 0.0716,-0.61175 l 0.0713,-0.0846 3.874471,2e-5 3.874471,2e-5 0.16527,0.0786 c 0.0909,0.0432 0.1877,0.10376 0.215119,0.13456 0.0497,0.0558 0.0489,0.056 -0.188179,0.0658 -0.22878,0.009 -0.241171,0.0132 -0.318421,0.0996 -0.0622,0.0694 -0.0804,0.11635 -0.0804,0.20697 0,0.24955 0.132829,0.32187 0.59133,0.32187 h 0.317649 v 0.30604 0.30603 l -0.103302,-0.0171 c -0.0568,-0.009 -0.265642,-0.0172 -0.464071,-0.0173 l -0.360781,-2.6e-4 -0.100658,-0.20332 c -0.119099,-0.24053 -0.337719,-0.45781 -0.578652,-0.57508 -0.61173,-0.29775 -1.358159,-0.0325 -1.649288,0.5862 l -0.0899,0.19111 -1.271759,5.3e-4 -1.271752,5.3e-4 -0.01781,-0.0812 c -0.0266,-0.12086 -0.208931,-0.38747 -0.347041,-0.50745 -0.0668,-0.058 -0.214482,-0.15025 -0.328099,-0.20487 -0.19363,-0.0931 -0.223012,-0.0992 -0.46827,-0.0982 -0.318511,0.001 -0.512173,0.0546 -0.716003,0.19676 -0.186967,0.13039 -0.395319,0.38528 -0.458668,0.56114 -0.0468,0.12993 -0.0513,0.13372 -0.159801,0.13408 -0.0614,2.2e-4 -0.14147,0.008 -0.17795,0.018 -0.0656,0.0175 -0.0661,0.016 -0.0484,-0.13097 z"
       id="path10245-15-0-62"
       inkscape:connector-curvature="0" />
    <path
       style="opacity:1;fill:#92cddc;fill-opacity:1;fill-rule:evenodd;stroke:#040000;stroke-width:0.15000001;stroke-linecap:butt;stroke-linejoin:miter;stroke-miterlimit:4;stroke-dasharray:none;stroke-dashoffset:0;stroke-opacity:1;paint-order:fill markers stroke"
       d="m 46.776435,128.56988 c 0,-0.009 0.083,-0.17876 0.184502,-0.37805 0.27799,-0.54596 0.48106,-0.7341 0.84968,-0.78729 0.19762,-0.0285 0.67359,-0.0392 0.67359,-0.0151 0,0.007 -0.133112,0.27967 -0.295802,0.60489 l -0.295809,0.59132 h -0.558081 c -0.30694,0 -0.55808,-0.007 -0.55808,-0.0157 z"
       id="path10247-9-5-5"
       inkscape:connector-curvature="0" />
    <path
       style="fill:#000000;stroke-width:1"
       d="m 43.267036,138.68529 c -0.440571,-0.0863 -0.804309,-0.38989 -0.944729,-0.78861 l -0.0369,-0.10465 -0.257018,-0.0103 c -0.204381,-0.008 -0.27527,-0.0186 -0.346142,-0.0508 -0.127288,-0.0577 -0.238799,-0.16595 -0.300749,-0.29187 l -0.0536,-0.10895 -0.006,-0.72713 c -0.004,-0.45133 0.0021,-0.76861 0.0146,-0.83651 0.08,-0.43226 0.47748,-0.75555 0.92883,-0.75555 h 0.0937 l 0.25318,-0.50516 c 0.292351,-0.58332 0.3454,-0.67122 0.506229,-0.8389 0.20396,-0.21265 0.450231,-0.36456 0.728692,-0.44947 0.139528,-0.0426 0.158139,-0.0432 1.48136,-0.0498 0.932439,-0.005 1.386319,-4e-5 1.492178,0.0152 0.29713,0.0428 0.60274,0.18427 0.821571,0.38051 0.0583,0.0523 0.357479,0.39942 0.66479,0.77137 l 0.558731,0.67626 0.45353,5.3e-4 c 0.292079,5.3e-4 0.505008,0.01 0.598149,0.0265 0.320551,0.0573 0.609021,0.21469 0.841759,0.45928 0.160091,0.1682 0.25967,0.32605 0.334041,0.52949 0.0817,0.22332 0.1005,0.4008 0.0934,0.8798 -0.006,0.41815 -0.007,0.42478 -0.0599,0.53237 -0.0617,0.12546 -0.17281,0.23354 -0.300738,0.29258 -0.0828,0.0383 -0.129101,0.0418 -0.654611,0.0508 l -0.565481,0.01 -0.0369,0.10464 c -0.0583,0.16532 -0.15159,0.30689 -0.299471,0.45438 -0.16846,0.16801 -0.380468,0.27943 -0.623848,0.32783 -0.582192,0.11581 -1.192281,-0.22807 -1.387782,-0.78221 l -0.0369,-0.10464 h -1.275519 -1.275522 l -0.0369,0.10464 c -0.0979,0.27761 -0.332031,0.53984 -0.598361,0.67025 -0.248179,0.12155 -0.529939,0.16496 -0.76798,0.11837 z m 0.471069,-0.65421 c 0.121971,-0.0578 0.238091,-0.1731 0.29885,-0.29679 0.0681,-0.13862 0.0686,-0.38213 7.94e-4,-0.51914 -0.0602,-0.12211 -0.178052,-0.23975 -0.300371,-0.29984 -0.0789,-0.0387 -0.124889,-0.0471 -0.2598,-0.0471 -0.1349,0 -0.18085,0.008 -0.259789,0.0471 -0.34349,0.16872 -0.45916,0.58339 -0.25087,0.89933 0.072,0.10927 0.202621,0.2094 0.325491,0.24957 0.11689,0.0382 0.32798,0.0225 0.445468,-0.0331 z m 4.936012,0 c 0.12197,-0.0578 0.23809,-0.1731 0.298839,-0.29679 0.0681,-0.13862 0.0686,-0.38213 7.93e-4,-0.51914 -0.0602,-0.12211 -0.178051,-0.23975 -0.300371,-0.29984 -0.0789,-0.0387 -0.124888,-0.0471 -0.259799,-0.0471 -0.134911,0 -0.180851,0.008 -0.2598,0.0471 -0.343479,0.16872 -0.45915,0.58339 -0.25087,0.89933 0.072,0.10927 0.202629,0.2094 0.325498,0.24957 0.116891,0.0382 0.327981,0.0225 0.445471,-0.0331 z m -6.351831,-0.97883 c 0.0844,-0.2394 0.30168,-0.50227 0.52324,-0.63289 0.206179,-0.12153 0.363011,-0.16306 0.622641,-0.16484 0.192789,-0.001 0.253889,0.006 0.36635,0.0428 0.375669,0.12373 0.676468,0.40797 0.798859,0.75487 l 0.0369,0.10465 h 1.275522 1.275519 l 0.0369,-0.10465 c 0.0845,-0.23953 0.30177,-0.50229 0.52329,-0.63289 0.206171,-0.12154 0.363011,-0.16307 0.622641,-0.16484 0.192781,-0.001 0.253889,0.006 0.36635,0.0428 0.375669,0.12373 0.676511,0.40801 0.798849,0.75486 l 0.0369,0.10466 0.483511,0.005 0.48352,0.005 v -0.30829 -0.30826 h -0.339331 c -0.382399,0 -0.43431,-0.0129 -0.524589,-0.13111 -0.0742,-0.0971 -0.0742,-0.25657 0,-0.35365 0.0827,-0.1082 0.153128,-0.13112 0.403048,-0.13112 h 0.217781 l -0.0665,-0.0684 c -0.0811,-0.0836 -0.290521,-0.19081 -0.427731,-0.21909 -0.0715,-0.0147 -1.223288,-0.0194 -3.90329,-0.0158 l -3.801819,0.005 -0.0532,0.0397 c -0.0293,0.0218 -0.0711,0.0636 -0.093,0.0928 -0.0381,0.0509 -0.04,0.081 -0.0453,0.72609 l -0.006,0.67298 0.175771,-0.005 0.175771,-0.005 z m 2.196711,-2.6572 0.308618,-0.61589 h -0.34307 c -0.48927,0 -0.638508,0.0467 -0.88588,0.27686 -0.112358,0.10458 -0.13798,0.14556 -0.33383,0.53409 l -0.21213,0.42082 h 0.578842 0.578829 z m 3.515349,0.57258 c -0.02151,-0.0238 -0.208071,-0.24716 -0.414541,-0.49631 -0.399039,-0.48152 -0.481539,-0.55636 -0.70648,-0.641 -0.102428,-0.0385 -0.150839,-0.0416 -0.749948,-0.0473 l -0.640461,-0.006 -0.3092,0.61707 -0.309211,0.61705 h 1.584492 1.584478 z"
       id="path9402-6-9-0-8"
       inkscape:connector-curvature="0" />
    <path
       style="opacity:1;fill:#92cddc;fill-opacity:1;fill-rule:evenodd;stroke:#040000;stroke-width:0.15000001;stroke-linecap:butt;stroke-linejoin:miter;stroke-miterlimit:4;stroke-dasharray:none;stroke-dashoffset:0;stroke-opacity:1;paint-order:fill markers stroke"
       d="m 41.943696,137.02641 c 0.01,-0.0818 0.01799,-0.38592 0.0181,-0.67586 2.4e-4,-0.52687 2.64e-4,-0.52721 0.0715,-0.61176 l 0.0713,-0.0846 3.874469,2e-5 3.874471,2e-5 0.165259,0.0786 c 0.0909,0.0432 0.187711,0.10378 0.21513,0.13457 0.0497,0.0558 0.0489,0.056 -0.188191,0.0658 -0.228769,0.009 -0.24117,0.0132 -0.31841,0.0995 -0.0622,0.0694 -0.0804,0.11635 -0.0804,0.20697 0,0.24957 0.132829,0.32188 0.59132,0.32188 h 0.317651 v 0.30604 0.30604 l -0.103291,-0.0171 c -0.0568,-0.009 -0.265639,-0.0172 -0.464071,-0.0173 l -0.360778,-2.6e-4 -0.100671,-0.20332 c -0.11909,-0.24054 -0.33771,-0.45781 -0.578639,-0.57508 -0.611733,-0.29775 -1.358162,-0.0325 -1.649302,0.58619 l -0.0899,0.19112 -1.271749,5.3e-4 -1.271751,5.3e-4 -0.01781,-0.0812 c -0.0266,-0.12084 -0.208931,-0.38745 -0.347041,-0.50743 -0.0668,-0.058 -0.214479,-0.15025 -0.328099,-0.20487 -0.19363,-0.0931 -0.223012,-0.0992 -0.46827,-0.0982 -0.318511,0.001 -0.51217,0.0546 -0.716,0.19677 -0.186981,0.13039 -0.395321,0.38527 -0.458681,0.56114 -0.0468,0.12993 -0.0513,0.13372 -0.15979,0.13409 -0.0614,2e-4 -0.14147,0.008 -0.177951,0.018 -0.0656,0.0175 -0.0661,0.016 -0.0485,-0.13098 z"
       id="path10245-1-9-2-6"
       inkscape:connector-curvature="0" />
    <path
       style="opacity:1;fill:#92cddc;fill-opacity:1;fill-rule:evenodd;stroke:#040000;stroke-width:0.15000001;stroke-linecap:butt;stroke-linejoin:miter;stroke-miterlimit:4;stroke-dasharray:none;stroke-dashoffset:0;stroke-opacity:1;paint-order:fill markers stroke"
       d="m 43.091395,134.97861 c 0,-0.009 0.083,-0.17877 0.184502,-0.37806 0.27799,-0.54595 0.48106,-0.7341 0.84967,-0.78728 0.19763,-0.0285 0.6736,-0.0392 0.6736,-0.0151 0,0.007 -0.133112,0.27967 -0.29581,0.60489 l -0.295812,0.5913 h -0.55807 c -0.306948,0 -0.55808,-0.007 -0.55808,-0.0157 z"
       id="path10247-3-3-9-2"
       inkscape:connector-curvature="0" />
    <path
       style="fill:#000000;stroke-width:1"
       d="m 35.833107,132.61401 c -0.440571,-0.0863 -0.804312,-0.38989 -0.944732,-0.78861 l -0.0369,-0.10465 -0.257021,-0.0103 c -0.20438,-0.008 -0.27527,-0.0186 -0.346139,-0.0508 -0.127291,-0.0577 -0.238799,-0.16595 -0.300749,-0.29187 l -0.0536,-0.10895 -0.006,-0.72713 c -0.004,-0.45133 0.0021,-0.76861 0.0146,-0.83651 0.08,-0.43226 0.47748,-0.75555 0.92883,-0.75555 h 0.0937 l 0.25318,-0.50516 c 0.292348,-0.58332 0.3454,-0.67122 0.50623,-0.8389 0.203959,-0.21265 0.450228,-0.36456 0.728689,-0.44947 0.13953,-0.0426 0.158141,-0.0432 1.481359,-0.0498 0.932442,-0.005 1.386322,-4e-5 1.492182,0.0152 0.297129,0.0428 0.602739,0.18427 0.821571,0.38051 0.0583,0.0523 0.357478,0.39942 0.664789,0.77137 l 0.558729,0.67626 0.45353,5.3e-4 c 0.292081,5.3e-4 0.50501,0.01 0.598151,0.0265 0.320548,0.0573 0.609018,0.21469 0.841759,0.45928 0.160091,0.1682 0.25967,0.32605 0.334039,0.52949 0.0817,0.22332 0.100502,0.40079 0.0934,0.8798 -0.006,0.41815 -0.007,0.42478 -0.0599,0.53237 -0.0617,0.12546 -0.17281,0.23354 -0.300742,0.29258 -0.0828,0.0383 -0.129098,0.0418 -0.654608,0.0508 l -0.565481,0.01 -0.0369,0.10463 c -0.0583,0.16533 -0.15159,0.3069 -0.299471,0.45439 -0.16846,0.16801 -0.380471,0.27943 -0.62385,0.32783 -0.582189,0.11581 -1.192279,-0.22807 -1.38778,-0.78222 l -0.0369,-0.10463 h -1.275519 -1.275519 l -0.0369,0.10463 c -0.0979,0.27762 -0.33203,0.53985 -0.59836,0.67026 -0.248182,0.12154 -0.529942,0.16496 -0.767982,0.11837 z m 0.471069,-0.65421 c 0.121971,-0.0578 0.238091,-0.1731 0.29885,-0.29679 0.0681,-0.13862 0.0686,-0.38213 7.94e-4,-0.51914 -0.0602,-0.12211 -0.178052,-0.23975 -0.300371,-0.29984 -0.0789,-0.0387 -0.124892,-0.0471 -0.2598,-0.0471 -0.1349,0 -0.180851,0.008 -0.259792,0.0471 -0.34349,0.16872 -0.459158,0.58339 -0.25087,0.89933 0.072,0.10927 0.202621,0.2094 0.325491,0.24957 0.11689,0.0382 0.32798,0.0225 0.445471,-0.0331 z m 4.936009,0 c 0.12197,-0.0578 0.23809,-0.1731 0.298841,-0.29679 0.0681,-0.13862 0.0686,-0.38213 7.94e-4,-0.51914 -0.0602,-0.12211 -0.178049,-0.23975 -0.300368,-0.29984 -0.0789,-0.0387 -0.124891,-0.0471 -0.2598,-0.0471 -0.134911,0 -0.18085,0.008 -0.259802,0.0471 -0.343479,0.16872 -0.45915,0.58339 -0.25087,0.89933 0.072,0.10927 0.202631,0.2094 0.325501,0.24957 0.11689,0.0382 0.32798,0.0225 0.445471,-0.0331 z m -6.351828,-0.97883 c 0.0844,-0.2394 0.30168,-0.50227 0.52324,-0.63289 0.206179,-0.12153 0.363008,-0.16306 0.622638,-0.16484 0.192792,-0.001 0.253892,0.006 0.36635,0.0428 0.375672,0.12373 0.676471,0.40797 0.798862,0.75487 l 0.0369,0.10465 h 1.275519 1.275522 l 0.0369,-0.10465 c 0.0845,-0.23953 0.30177,-0.50229 0.52329,-0.63289 0.206179,-0.12154 0.363019,-0.16307 0.622649,-0.16484 0.19277,-0.001 0.253881,0.006 0.36635,0.0428 0.375661,0.12373 0.6765,0.40801 0.798841,0.75486 l 0.0369,0.10466 0.483508,0.005 0.48352,0.005 v -0.30829 -0.30827 h -0.33933 c -0.3824,0 -0.434309,-0.0129 -0.52459,-0.13111 -0.0742,-0.0971 -0.0742,-0.25657 0,-0.35365 0.0827,-0.1082 0.153131,-0.13112 0.403051,-0.13112 h 0.217781 l -0.0665,-0.0684 c -0.0811,-0.0836 -0.290521,-0.19081 -0.427731,-0.21909 -0.0715,-0.0147 -1.223291,-0.0194 -3.90329,-0.0158 l -3.801821,0.005 -0.0532,0.0397 c -0.0293,0.0218 -0.0711,0.0636 -0.093,0.0928 -0.0381,0.0509 -0.04,0.081 -0.0453,0.72609 l -0.006,0.67298 0.175771,-0.005 0.175768,-0.005 z m 2.196708,-2.6572 0.308621,-0.61589 h -0.34307 c -0.48927,0 -0.638511,0.0467 -0.88588,0.27686 -0.112361,0.10458 -0.137981,0.14556 -0.33383,0.53409 l -0.21213,0.42082 h 0.578839 0.578832 z m 3.515352,0.57258 c -0.02151,-0.0238 -0.208071,-0.24716 -0.414541,-0.49631 -0.399039,-0.48152 -0.481539,-0.55636 -0.70648,-0.641 -0.102431,-0.0385 -0.150839,-0.0416 -0.749951,-0.0473 l -0.640458,-0.006 -0.3092,0.61707 -0.309211,0.61705 h 1.584489 1.584481 z"
       id="path9402-6-9-4-8"
       inkscape:connector-curvature="0" />
    <path
       style="opacity:1;fill:#92cddc;fill-opacity:1;fill-rule:evenodd;stroke:#040000;stroke-width:0.15000001;stroke-linecap:butt;stroke-linejoin:miter;stroke-miterlimit:4;stroke-dasharray:none;stroke-dashoffset:0;stroke-opacity:1;paint-order:fill markers stroke"
       d="m 34.509767,130.95513 c 0.01,-0.0818 0.01799,-0.38592 0.0181,-0.67586 2.39e-4,-0.52687 2.65e-4,-0.52721 0.0715,-0.61176 l 0.0713,-0.0846 3.874471,2e-5 3.874468,2e-5 0.165261,0.0786 c 0.0909,0.0432 0.187709,0.10378 0.215131,0.13457 0.0497,0.0558 0.0489,0.056 -0.188191,0.0658 -0.228769,0.009 -0.24117,0.0132 -0.31841,0.0995 -0.0622,0.0694 -0.0804,0.11635 -0.0804,0.20697 0,0.24957 0.132829,0.32188 0.59132,0.32188 h 0.317648 v 0.30604 0.30604 l -0.103288,-0.0171 c -0.0568,-0.009 -0.265641,-0.0172 -0.464071,-0.0173 l -0.36078,-2.6e-4 -0.100672,-0.20333 c -0.119092,-0.24053 -0.337712,-0.4578 -0.578641,-0.57508 -0.61173,-0.29774 -1.358159,-0.0325 -1.649299,0.58619 l -0.0899,0.19113 -1.271752,5.3e-4 -1.271749,5.3e-4 -0.01781,-0.0812 c -0.0266,-0.12084 -0.208928,-0.38745 -0.347038,-0.50743 -0.0668,-0.058 -0.214482,-0.15025 -0.328102,-0.20487 -0.19363,-0.0931 -0.223009,-0.0992 -0.46827,-0.0982 -0.318508,0.001 -0.51217,0.0546 -0.716,0.19676 -0.186978,0.13039 -0.395319,0.38528 -0.458679,0.56114 -0.0468,0.12993 -0.0513,0.13372 -0.159789,0.13409 -0.0614,2e-4 -0.141471,0.008 -0.177951,0.018 -0.0656,0.0175 -0.0661,0.016 -0.0485,-0.13098 z"
       id="path10245-1-9-3-4"
       inkscape:connector-curvature="0" />
    <path
       style="opacity:1;fill:#92cddc;fill-opacity:1;fill-rule:evenodd;stroke:#040000;stroke-width:0.15000001;stroke-linecap:butt;stroke-linejoin:miter;stroke-miterlimit:4;stroke-dasharray:none;stroke-dashoffset:0;stroke-opacity:1;paint-order:fill markers stroke"
       d="m 35.657466,128.90733 c 0,-0.009 0.083,-0.17877 0.184499,-0.37806 0.27799,-0.54595 0.48106,-0.7341 0.84967,-0.78728 0.19763,-0.0285 0.6736,-0.0392 0.6736,-0.0151 0,0.007 -0.133109,0.27967 -0.29581,0.60489 l -0.295809,0.5913 h -0.55807 c -0.306951,0 -0.55808,-0.007 -0.55808,-0.0157 z"
       id="path10247-3-3-5-7"
       inkscape:connector-curvature="0" />
    <path
       style="fill:#000000;stroke-width:1"
       d="m 32.607807,137.34665 c -0.440571,-0.0863 -0.804312,-0.38989 -0.944732,-0.78861 l -0.0369,-0.10465 -0.257021,-0.0103 c -0.20438,-0.008 -0.27527,-0.0186 -0.346139,-0.0508 -0.127291,-0.0577 -0.238799,-0.16595 -0.300749,-0.29187 l -0.0536,-0.10895 -0.006,-0.72713 c -0.004,-0.45133 0.0021,-0.76861 0.01461,-0.83651 0.08,-0.43226 0.47748,-0.75555 0.928828,-0.75555 h 0.0937 l 0.25318,-0.50516 c 0.292349,-0.58332 0.3454,-0.67122 0.50623,-0.8389 0.203959,-0.21265 0.450228,-0.36456 0.728689,-0.44947 0.13953,-0.0426 0.158141,-0.0432 1.48137,-0.0498 0.932439,-0.005 1.386321,-4e-5 1.492181,0.0152 0.29713,0.0428 0.60274,0.18427 0.821569,0.38051 0.0583,0.0523 0.357481,0.39942 0.664789,0.77137 l 0.558731,0.67626 0.45353,5.3e-4 c 0.292079,5.3e-4 0.505011,0.01 0.598149,0.0265 0.320551,0.0573 0.609021,0.2147 0.841762,0.45928 0.160088,0.16821 0.25967,0.32606 0.334039,0.52949 0.0817,0.22333 0.100499,0.4008 0.0934,0.8798 -0.006,0.41815 -0.007,0.42478 -0.0599,0.53237 -0.0617,0.12546 -0.17281,0.23354 -0.300741,0.29258 -0.0828,0.0383 -0.129101,0.0418 -0.654611,0.0508 l -0.565478,0.01 -0.0369,0.10464 c -0.0583,0.16533 -0.15159,0.3069 -0.299468,0.45439 -0.16846,0.16801 -0.380471,0.27943 -0.623851,0.32783 -0.582189,0.1158 -1.192281,-0.22807 -1.387779,-0.78222 l -0.0369,-0.10464 h -1.275532 -1.275519 l -0.0369,0.10464 c -0.0979,0.27762 -0.332032,0.53984 -0.598362,0.67026 -0.248189,0.12154 -0.52995,0.16496 -0.76799,0.11836 z m 0.471069,-0.65421 c 0.121971,-0.0578 0.238091,-0.1731 0.298861,-0.29679 0.0681,-0.13862 0.0686,-0.38213 7.93e-4,-0.51914 -0.0602,-0.12211 -0.178059,-0.23975 -0.300379,-0.29984 -0.0789,-0.0387 -0.124891,-0.0471 -0.259799,-0.0471 -0.134901,0 -0.180851,0.008 -0.259792,0.0471 -0.34349,0.16872 -0.459158,0.58339 -0.25087,0.89933 0.072,0.10927 0.202621,0.2094 0.325491,0.24957 0.11689,0.0382 0.32798,0.0225 0.445471,-0.0331 z m 4.936019,0 c 0.121971,-0.0578 0.238091,-0.1731 0.298842,-0.29679 0.0681,-0.13862 0.0686,-0.38213 7.94e-4,-0.51914 -0.0602,-0.12211 -0.178052,-0.23975 -0.300371,-0.29984 -0.0789,-0.0387 -0.124889,-0.0471 -0.2598,-0.0471 -0.134911,0 -0.18085,0.008 -0.259799,0.0471 -0.34348,0.16872 -0.45915,0.58339 -0.25087,0.89933 0.072,0.10927 0.202631,0.2094 0.325501,0.24957 0.116887,0.0382 0.32798,0.0225 0.445468,-0.0331 z m -6.351838,-0.97883 c 0.0844,-0.2394 0.301678,-0.50227 0.52324,-0.63289 0.206179,-0.12153 0.363008,-0.16306 0.622638,-0.16484 0.192792,-10e-4 0.253892,0.006 0.36635,0.0428 0.37568,0.12373 0.676482,0.40797 0.79887,0.75487 l 0.0369,0.10465 h 1.27552 1.275519 l 0.0369,-0.10465 c 0.0845,-0.23953 0.301771,-0.50229 0.523291,-0.63289 0.206168,-0.12154 0.363008,-0.16307 0.622638,-0.16484 0.192781,-0.001 0.253892,0.006 0.36635,0.0428 0.375672,0.12373 0.676511,0.40801 0.798851,0.75486 l 0.0369,0.10466 0.48351,0.005 0.483521,0.005 v -0.30829 -0.30827 h -0.339331 c -0.382399,0 -0.434308,-0.0129 -0.524589,-0.13111 -0.0742,-0.0971 -0.0742,-0.25656 0,-0.35365 0.0827,-0.1082 0.15313,-0.13111 0.40305,-0.13111 h 0.217779 l -0.0665,-0.0684 c -0.0811,-0.0836 -0.29052,-0.19082 -0.427731,-0.2191 -0.0715,-0.0147 -1.22329,-0.0194 -3.903289,-0.0158 l -3.801832,0.005 -0.0532,0.0397 c -0.0293,0.0218 -0.0711,0.0636 -0.093,0.0928 -0.0381,0.0509 -0.04,0.081 -0.0453,0.72609 l -0.006,0.67298 0.175768,-0.005 0.17577,-0.005 z m 2.196719,-2.6572 0.30862,-0.61589 h -0.343069 c -0.489281,0 -0.638522,0.0467 -0.885891,0.27686 -0.112361,0.10458 -0.13798,0.14556 -0.33383,0.53409 l -0.21213,0.42082 h 0.578839 0.57884 z m 3.515349,0.57258 c -0.02151,-0.0238 -0.208068,-0.24716 -0.414539,-0.49631 -0.399041,-0.48152 -0.481541,-0.55636 -0.706479,-0.641 -0.102431,-0.0385 -0.150842,-0.0416 -0.749951,-0.0473 l -0.640461,-0.006 -0.3092,0.61707 -0.309208,0.61705 h 1.584489 1.584481 z"
       id="path9402-6-9-1-2"
       inkscape:connector-curvature="0" />
    <path
       style="opacity:1;fill:#92cddc;fill-opacity:1;fill-rule:evenodd;stroke:#040000;stroke-width:0.15000001;stroke-linecap:butt;stroke-linejoin:miter;stroke-miterlimit:4;stroke-dasharray:none;stroke-dashoffset:0;stroke-opacity:1;paint-order:fill markers stroke"
       d="m 31.284467,135.68777 c 0.01,-0.0818 0.01799,-0.38592 0.0181,-0.67586 2.41e-4,-0.52687 2.65e-4,-0.52721 0.0715,-0.61176 l 0.0713,-0.0846 3.874482,2e-5 3.874468,2e-5 0.165262,0.0786 c 0.0909,0.0432 0.187708,0.10378 0.21513,0.13457 0.0497,0.0558 0.0489,0.056 -0.18819,0.0658 -0.228772,0.009 -0.241171,0.0132 -0.318411,0.0995 -0.0622,0.0694 -0.0804,0.11634 -0.0804,0.20696 0,0.24957 0.132831,0.32188 0.59132,0.32188 h 0.317651 v 0.30605 0.30603 l -0.103291,-0.0171 c -0.0568,-0.009 -0.265639,-0.0172 -0.464069,-0.0173 l -0.360783,-2.6e-4 -0.100661,-0.20332 c -0.119099,-0.24054 -0.337719,-0.45781 -0.578649,-0.57508 -0.61173,-0.29775 -1.358151,-0.0325 -1.649291,0.58619 l -0.0899,0.19112 -1.271759,5.3e-4 -1.271741,5.3e-4 -0.01781,-0.0812 c -0.0266,-0.12084 -0.208931,-0.38745 -0.34704,-0.50743 -0.0668,-0.058 -0.21448,-0.15025 -0.32811,-0.20487 -0.19363,-0.0931 -0.22301,-0.0992 -0.46827,-0.0982 -0.318511,0.001 -0.51217,0.0546 -0.716,0.19676 -0.186981,0.13039 -0.395319,0.38528 -0.458679,0.56114 -0.0468,0.12993 -0.0513,0.13372 -0.159792,0.13409 -0.0614,2e-4 -0.141468,0.008 -0.177949,0.018 -0.0656,0.0175 -0.0661,0.016 -0.0485,-0.13098 z"
       id="path10245-1-9-7-4"
       inkscape:connector-curvature="0" />
    <path
       style="opacity:1;fill:#92cddc;fill-opacity:1;fill-rule:evenodd;stroke:#040000;stroke-width:0.15000001;stroke-linecap:butt;stroke-linejoin:miter;stroke-miterlimit:4;stroke-dasharray:none;stroke-dashoffset:0;stroke-opacity:1;paint-order:fill markers stroke"
       d="m 32.435005,133.65654 c 0,-0.009 0.083,-0.17877 0.184502,-0.37806 0.27799,-0.54595 0.48106,-0.7341 0.849669,-0.78728 0.197631,-0.0285 0.673601,-0.0392 0.673601,-0.0151 0,0.007 -0.13311,0.27967 -0.29581,0.60489 l -0.295812,0.5913 h -0.55807 c -0.306948,0 -0.55808,-0.007 -0.55808,-0.0157 z"
       id="path10247-3-3-6-9"
       inkscape:connector-curvature="0" />
    <rect
       style="opacity:1;fill:#4bacc6;fill-opacity:1;fill-rule:evenodd;stroke:#000000;stroke-width:0.26499999;stroke-linecap:butt;stroke-linejoin:miter;stroke-miterlimit:4;stroke-dasharray:none;stroke-dashoffset:0;stroke-opacity:1;paint-order:fill markers stroke"
       id="rect4593-5-6-2-1-0"
       width="2.2678568"
       height="2.2678568"
       x="72.492798"
       y="119.21312"
       rx="0.097660154"
       ry="0.20249146" />
    <rect
       style="opacity:1;fill:#4bacc6;fill-opacity:1;fill-rule:evenodd;stroke:#000000;stroke-width:0.26499999;stroke-linecap:butt;stroke-linejoin:miter;stroke-miterlimit:4;stroke-dasharray:none;stroke-dashoffset:0;stroke-opacity:1;paint-order:fill markers stroke"
       id="rect4593-5-6-2-1-0-4"
       width="2.2678568"
       height="2.2678568"
       x="68.108269"
       y="119.21312"
       rx="0.097660154"
       ry="0.20249146" />
    <rect
       style="opacity:1;fill:#4bacc6;fill-opacity:1;fill-rule:evenodd;stroke:#000000;stroke-width:0.26499999;stroke-linecap:butt;stroke-linejoin:miter;stroke-miterlimit:4;stroke-dasharray:none;stroke-dashoffset:0;stroke-opacity:1;paint-order:fill markers stroke"
       id="rect4593-5-6-2-1-0-2"
       width="2.2678568"
       height="2.2678568"
       x="63.19458"
       y="119.21312"
       rx="0.097660154"
       ry="0.20249146" />
    <rect
       style="opacity:1;fill:#4bacc6;fill-opacity:1;fill-rule:evenodd;stroke:#000000;stroke-width:0.26499999;stroke-linecap:butt;stroke-linejoin:miter;stroke-miterlimit:4;stroke-dasharray:none;stroke-dashoffset:0;stroke-opacity:1;paint-order:fill markers stroke"
       id="rect4593-5-6-2-1-0-4-2"
       width="2.2678568"
       height="2.2678568"
       x="58.810055"
       y="119.21312"
       rx="0.097660154"
       ry="0.20249146" />
    <rect
       style="opacity:1;fill:#4bacc6;fill-opacity:1;fill-rule:evenodd;stroke:#000000;stroke-width:0.26499999;stroke-linecap:butt;stroke-linejoin:miter;stroke-miterlimit:4;stroke-dasharray:none;stroke-dashoffset:0;stroke-opacity:1;paint-order:fill markers stroke"
       id="rect4593-5-6-2-1-0-4-2-2"
       width="2.2678568"
       height="2.2678568"
       x="54.425529"
       y="119.21312"
       rx="0.097660154"
       ry="0.20249146" />
    <path
       style="fill:none;stroke:#000000;stroke-width:0.30000001;stroke-linecap:butt;stroke-linejoin:miter;stroke-miterlimit:4;stroke-dasharray:0.3, 0.9;stroke-dashoffset:0;stroke-opacity:1"
       d="m 38.088986,127.70574 c 5.36054,-4.62752 16.336532,-6.2248 16.336532,-6.2248"
       id="path6770"
       inkscape:connector-curvature="0" />
    <path
       style="fill:none;stroke:#000000;stroke-width:0.30000001;stroke-linecap:butt;stroke-linejoin:miter;stroke-miterlimit:4;stroke-dasharray:0.3, 0.9;stroke-dashoffset:0;stroke-opacity:1"
       d="m 48.512656,127.37043 c 8.72808,-3.80478 10.297387,-5.88949 10.297387,-5.88949"
       id="path6772"
       inkscape:connector-curvature="0" />
    <path
       style="fill:none;stroke:#000000;stroke-width:0.26500002;stroke-linecap:butt;stroke-linejoin:miter;stroke-miterlimit:4;stroke-dasharray:0.265, 0.79500001;stroke-dashoffset:0;stroke-opacity:1"
       d="m 64.487457,129.18093 c 7.351244,-4.19789 8.005332,-7.69999 8.005332,-7.69999"
       id="path6774"
       inkscape:connector-curvature="0" />
    <path
       style="fill:none;stroke:#000000;stroke-width:0.30000001;stroke-linecap:butt;stroke-linejoin:miter;stroke-miterlimit:4;stroke-dasharray:0.3, 0.89999999;stroke-dashoffset:0;stroke-opacity:1"
       d="m 38.5772,133.13307 c 0,0 10.831525,-0.0884 16.19181,-4.58465 l 8.425558,-7.06748"
       id="path6785"
       inkscape:connector-curvature="0"
       sodipodi:nodetypes="csc" />
    <rect
       style="opacity:1;fill:#4bacc6;fill-opacity:1;fill-rule:evenodd;stroke:#000000;stroke-width:0.26499999;stroke-linecap:butt;stroke-linejoin:miter;stroke-miterlimit:4;stroke-dasharray:none;stroke-dashoffset:0;stroke-opacity:1;paint-order:fill markers stroke"
       id="rect4593-5-6-2-1-0-4-0"
       width="2.2678568"
       height="2.2678568"
       x="76.34816"
       y="119.21312"
       rx="0.097660154"
       ry="0.20249146" />
    <path
       style="fill:none;stroke:#000000;stroke-width:0.29999998;stroke-linecap:butt;stroke-linejoin:miter;stroke-miterlimit:4;stroke-dasharray:0.3, 0.89999998;stroke-dashoffset:0;stroke-opacity:1"
       d="m 48.034345,134.96763 c 3.518229,-1.43789 9.540379,-7.23433 11.945933,-8.63791 11.456466,-6.68459 8.119486,-4.86397 8.127983,-4.84878"
       id="path6802"
       inkscape:connector-curvature="0"
       sodipodi:nodetypes="csc" />
    <path
       style="fill:none;stroke:#000000;stroke-width:0.30000001;stroke-linecap:butt;stroke-linejoin:miter;stroke-miterlimit:4;stroke-dasharray:0.3, 0.9;stroke-dashoffset:0;stroke-opacity:1"
       d="m 61.959658,134.89693 c -0.663311,-1.20557 9.988745,1.58649 13.990043,-7.41665 l 2.666308,-5.99934"
       id="path6804"
       inkscape:connector-curvature="0"
       sodipodi:nodetypes="csc" />
    <path
       style="fill:none;stroke:#000000;stroke-width:0.30000001;stroke-linecap:butt;stroke-linejoin:miter;stroke-miterlimit:4;stroke-dasharray:0.30000001, 0.90000004;stroke-dashoffset:0;stroke-opacity:1;marker-end:url(#marker6875)"
       d="M 79.464852,120.39756 H 94.281004"
       id="path6865"
       inkscape:connector-curvature="0" />
    <rect
       style="opacity:1;fill:#4bacc6;fill-opacity:1;fill-rule:evenodd;stroke:#000000;stroke-width:0.26499999;stroke-linecap:butt;stroke-linejoin:miter;stroke-miterlimit:4;stroke-dasharray:none;stroke-dashoffset:0;stroke-opacity:1;paint-order:fill markers stroke"
       id="rect4593-5-6-2-1-0-6"
       width="1.508569"
       height="1.7316382"
       x="125.81423"
       y="119.75045"
       rx="0.097660154"
       ry="0.20249148" />
    <rect
       style="opacity:1;fill:#4bacc6;fill-opacity:1;fill-rule:evenodd;stroke:#000000;stroke-width:0.26499999;stroke-linecap:butt;stroke-linejoin:miter;stroke-miterlimit:4;stroke-dasharray:none;stroke-dashoffset:0;stroke-opacity:1;paint-order:fill markers stroke"
       id="rect4593-5-6-2-1-0-4-25"
       width="1.508569"
       height="1.7316382"
       x="123.24964"
       y="119.75045"
       rx="0.097660154"
       ry="0.20249148" />
    <rect
       style="opacity:1;fill:#4bacc6;fill-opacity:1;fill-rule:evenodd;stroke:#000000;stroke-width:0.26499999;stroke-linecap:butt;stroke-linejoin:miter;stroke-miterlimit:4;stroke-dasharray:none;stroke-dashoffset:0;stroke-opacity:1;paint-order:fill markers stroke"
       id="rect4593-5-6-2-1-0-2-4"
       width="1.508569"
       height="1.7316382"
       x="121.03706"
       y="119.75045"
       rx="0.097660154"
       ry="0.20249148" />
    <rect
       style="opacity:1;fill:#4bacc6;fill-opacity:1;fill-rule:evenodd;stroke:#000000;stroke-width:0.26499999;stroke-linecap:butt;stroke-linejoin:miter;stroke-miterlimit:4;stroke-dasharray:none;stroke-dashoffset:0;stroke-opacity:1;paint-order:fill markers stroke"
       id="rect4593-5-6-2-1-0-4-2-4"
       width="1.508569"
       height="1.7316382"
       x="118.4725"
       y="119.75045"
       rx="0.097660154"
       ry="0.20249148" />
    <rect
       style="opacity:1;fill:#4bacc6;fill-opacity:1;fill-rule:evenodd;stroke:#000000;stroke-width:0.26499999;stroke-linecap:butt;stroke-linejoin:miter;stroke-miterlimit:4;stroke-dasharray:none;stroke-dashoffset:0;stroke-opacity:1;paint-order:fill markers stroke"
       id="rect4593-5-6-2-1-0-4-2-2-9"
       width="1.508569"
       height="1.7316382"
       x="116.25993"
       y="119.75045"
       rx="0.097660154"
       ry="0.20249148" />
    <rect
       style="opacity:1;fill:#4bacc6;fill-opacity:1;fill-rule:evenodd;stroke:#000000;stroke-width:0.26499999;stroke-linecap:butt;stroke-linejoin:miter;stroke-miterlimit:4;stroke-dasharray:none;stroke-dashoffset:0;stroke-opacity:1;paint-order:fill markers stroke"
       id="rect4593-5-6-2-1-0-4-0-9"
       width="1.508569"
       height="1.7316382"
       x="128.02679"
       y="119.75045"
       rx="0.097660154"
       ry="0.20249148" />
    <path
       style="fill:none;stroke:#000000;stroke-width:0.40000001;stroke-linecap:butt;stroke-linejoin:miter;stroke-miterlimit:4;stroke-dasharray:none;stroke-opacity:1;marker-start:url(#marker8582)"
       d="M 135.90138,123.09308 H 110.76591"
       id="path7353"
       inkscape:connector-curvature="0" />
    <path
       style="fill:none;stroke:#000000;stroke-width:0.40000001;stroke-linecap:butt;stroke-linejoin:miter;stroke-miterlimit:4;stroke-dasharray:none;stroke-opacity:1;marker-start:url(#marker8654)"
       d="M 222.11018,123.09308 H 201.51834"
       id="path7353-3"
       inkscape:connector-curvature="0" />
    <rect
       style="opacity:1;fill:#4bacc6;fill-opacity:1;fill-rule:evenodd;stroke:#000000;stroke-width:0.26499999;stroke-linecap:butt;stroke-linejoin:miter;stroke-miterlimit:4;stroke-dasharray:none;stroke-dashoffset:0;stroke-opacity:1;paint-order:fill markers stroke"
       id="rect4593-5-6-2-1-0-6-0"
       width="1.508569"
       height="1.7316383"
       x="214.64902"
       y="119.75045"
       rx="0.097660154"
       ry="0.20249149" />
    <rect
       style="opacity:1;fill:#4bacc6;fill-opacity:1;fill-rule:evenodd;stroke:#000000;stroke-width:0.26499999;stroke-linecap:butt;stroke-linejoin:miter;stroke-miterlimit:4;stroke-dasharray:none;stroke-dashoffset:0;stroke-opacity:1;paint-order:fill markers stroke"
       id="rect4593-5-6-2-1-0-4-25-2"
       width="1.508569"
       height="1.7316383"
       x="212.08446"
       y="119.75045"
       rx="0.097660154"
       ry="0.20249149" />
    <rect
       style="opacity:1;fill:#4bacc6;fill-opacity:1;fill-rule:evenodd;stroke:#000000;stroke-width:0.26499999;stroke-linecap:butt;stroke-linejoin:miter;stroke-miterlimit:4;stroke-dasharray:none;stroke-dashoffset:0;stroke-opacity:1;paint-order:fill markers stroke"
       id="rect4593-5-6-2-1-0-2-4-9"
       width="1.508569"
       height="1.7316383"
       x="209.8719"
       y="119.75045"
       rx="0.097660154"
       ry="0.20249149" />
    <rect
       style="opacity:1;fill:#4bacc6;fill-opacity:1;fill-rule:evenodd;stroke:#000000;stroke-width:0.26499999;stroke-linecap:butt;stroke-linejoin:miter;stroke-miterlimit:4;stroke-dasharray:none;stroke-dashoffset:0;stroke-opacity:1;paint-order:fill markers stroke"
       id="rect4593-5-6-2-1-0-4-2-4-4"
       width="1.508569"
       height="1.7316383"
       x="207.30734"
       y="119.75045"
       rx="0.097660154"
       ry="0.20249149" />
    <rect
       style="opacity:1;fill:#4bacc6;fill-opacity:1;fill-rule:evenodd;stroke:#000000;stroke-width:0.26499999;stroke-linecap:butt;stroke-linejoin:miter;stroke-miterlimit:4;stroke-dasharray:none;stroke-dashoffset:0;stroke-opacity:1;paint-order:fill markers stroke"
       id="rect4593-5-6-2-1-0-4-2-2-9-3"
       width="1.508569"
       height="1.7316383"
       x="205.09477"
       y="119.75045"
       rx="0.097660154"
       ry="0.20249149" />
    <rect
       style="opacity:1;fill:#4bacc6;fill-opacity:1;fill-rule:evenodd;stroke:#000000;stroke-width:0.26499999;stroke-linecap:butt;stroke-linejoin:miter;stroke-miterlimit:4;stroke-dasharray:none;stroke-dashoffset:0;stroke-opacity:1;paint-order:fill markers stroke"
       id="rect4593-5-6-2-1-0-4-0-9-5"
       width="1.508569"
       height="1.7316383"
       x="216.86159"
       y="119.75045"
       rx="0.097660154"
       ry="0.20249149" />
    <text
       xml:space="preserve"
       style="font-style:italic;font-variant:normal;font-weight:normal;font-stretch:normal;font-size:4.93888903px;line-height:5px;font-family:Calibri;-inkscape-font-specification:'Calibri Italic';font-variant-ligatures:normal;font-variant-position:normal;font-variant-caps:normal;font-variant-numeric:normal;font-variant-alternates:normal;font-feature-settings:normal;text-indent:0;text-align:start;text-decoration:none;text-decoration-line:none;text-decoration-style:solid;text-decoration-color:#000000;letter-spacing:0px;word-spacing:0px;text-transform:none;writing-mode:lr-tb;direction:ltr;text-orientation:mixed;dominant-baseline:auto;baseline-shift:baseline;text-anchor:start;white-space:normal;shape-padding:0;opacity:1;vector-effect:none;fill:#000000;fill-opacity:1;stroke:none;stroke-width:0.26458332;stroke-linecap:butt;stroke-linejoin:miter;stroke-miterlimit:4;stroke-dasharray:none;stroke-dashoffset:0;stroke-opacity:1"
       x="103.55216"
       y="131.72356"
       id="text5208-3"><tspan
         sodipodi:role="line"
         x="103.55216"
         y="131.72356"
         style="font-style:italic;font-variant:normal;font-weight:normal;font-stretch:normal;font-size:4.93888903px;line-height:5px;font-family:Calibri;-inkscape-font-specification:'Calibri Italic';text-align:center;text-anchor:middle;stroke-width:0.26458332"
         id="tspan5218-8">gNB</tspan></text>
    <g
       id="g9514" />
    <text
       xml:space="preserve"
       style="font-style:italic;font-variant:normal;font-weight:normal;font-stretch:normal;font-size:4.93888903px;line-height:5px;font-family:Calibri;-inkscape-font-specification:'Calibri Italic';font-variant-ligatures:normal;font-variant-position:normal;font-variant-caps:normal;font-variant-numeric:normal;font-variant-alternates:normal;font-feature-settings:normal;text-indent:0;text-align:start;text-decoration:none;text-decoration-line:none;text-decoration-style:solid;text-decoration-color:#000000;letter-spacing:0px;word-spacing:0px;text-transform:none;writing-mode:lr-tb;direction:ltr;text-orientation:mixed;dominant-baseline:auto;baseline-shift:baseline;text-anchor:start;white-space:normal;shape-padding:0;opacity:1;vector-effect:none;fill:#000000;fill-opacity:1;stroke:none;stroke-width:0.26458332;stroke-linecap:butt;stroke-linejoin:miter;stroke-miterlimit:4;stroke-dasharray:none;stroke-dashoffset:0;stroke-opacity:1"
       x="230.70941"
       y="134.57625"
       id="text5208-4"><tspan
         sodipodi:role="line"
         x="230.70941"
         y="134.57625"
         style="font-style:italic;font-variant:normal;font-weight:normal;font-stretch:normal;font-size:4.93888903px;line-height:5px;font-family:Calibri;-inkscape-font-specification:'Calibri Italic';text-align:center;text-anchor:middle;stroke-width:0.26458332"
         id="tspan5243">server</tspan></text>
    <path
       style="fill:#000000;stroke-width:0;stroke-miterlimit:4;stroke-dasharray:none"
       d="m 224.62379,128.60249 c -0.22354,-0.10161 -0.36146,-0.28049 -0.4299,-0.55785 -0.0357,-0.14437 -0.0463,-2.80968 -0.0371,-9.21357 l 0.0137,-9.01048 0.11456,-0.19046 c 0.063,-0.10475 0.31683,-0.43859 0.56395,-0.74179 0.47577,-0.58377 0.7316,-0.79031 1.08684,-0.87752 0.14574,-0.0357 1.61463,-0.0467 4.99822,-0.0375 l 4.79185,0.0137 0.22144,0.10906 c 0.17104,0.0841 0.3364,0.24618 0.72587,0.71077 0.27746,0.33093 0.55956,0.69457 0.6269,0.80808 l 0.1224,0.20634 0.0137,9.01047 c 0.01,6.4039 -0.001,9.06924 -0.0371,9.2136 -0.0685,0.27734 -0.20636,0.45631 -0.4299,0.55784 -0.18027,0.082 -0.43423,0.0855 -6.17201,0.0855 -5.73785,0 -5.99188,-0.004 -6.17208,-0.0855 z m 11.98431,-9.64531 -0.0118,-8.90732 h -5.80074 -5.80071 l -0.0118,8.90732 -0.0118,8.90729 h 5.82386 5.82382 z m -6.03983,6.78999 c -0.23855,-0.0685 -0.39582,-0.19981 -0.50218,-0.4195 -0.16045,-0.33158 -0.11514,-0.66389 0.12515,-0.91785 0.18007,-0.19028 0.34141,-0.2596 0.60469,-0.2596 0.62304,0 1.00508,0.60864 0.73379,1.16903 -0.1071,0.22105 -0.28018,0.36165 -0.5313,0.43139 -0.20706,0.0575 -0.21793,0.0575 -0.43009,-0.004 z m -0.16418,-2.96631 c -0.7388,-0.45049 -0.46197,-1.53602 0.3917,-1.53602 0.53217,0 0.90635,0.46477 0.80578,1.00083 -0.0347,0.18478 -0.25036,0.45433 -0.44346,0.55418 -0.1838,0.0951 -0.58362,0.0849 -0.75402,-0.0196 z m -3.73954,-4.5608 c -0.12514,-0.0659 -0.24154,-0.17517 -0.30559,-0.2866 -0.10219,-0.17791 -0.10337,-0.19596 -0.0853,-1.5327 0.01,-0.744 0.0157,-1.39398 0.0137,-1.44442 -0.002,-0.0504 -0.006,-0.69378 -0.006,-1.42964 -0.001,-1.28095 0.002,-1.34331 0.0932,-1.46454 0.13653,-0.18281 0.29983,-0.29293 0.50512,-0.34054 0.23572,-0.0547 7.59843,-0.0547 7.83415,0 0.20529,0.0475 0.36855,0.15771 0.50512,0.34054 0.0904,0.12123 0.0945,0.18361 0.0932,1.46454 -7.6e-4,0.73586 -0.004,1.37919 -0.006,1.42964 -0.002,0.0504 0.004,0.70042 0.0137,1.44442 0.0177,1.33674 0.0177,1.35484 -0.0853,1.5327 -0.0641,0.11142 -0.18047,0.22062 -0.3056,0.2866 l -0.20204,0.10651 h -3.92909 -3.92916 z m 7.8455,-1.75051 v -1.03174 h -3.71426 -3.71429 v 1.03174 1.03174 h 3.71429 3.71426 z m 0,-2.9118 v -1.05465 h -3.71426 -3.71429 v 1.05465 1.05465 h 3.71429 3.71426 z m 1.37564,-4.39671 c 0,-0.0222 -0.0826,-0.11514 -0.1836,-0.20636 l -0.1836,-0.16575 h -4.72558 -4.72565 l -0.21514,0.2053 -0.21515,0.20526 5.12434,8.5e-4 c 2.93656,6.1e-4 5.12429,-0.0157 5.12429,-0.0396 z"
       id="path3972-8-4-4"
       inkscape:connector-curvature="0"
       sodipodi:nodetypes="ccccccccccccccccsccccccccccccccscccccscccccccccccccccccccccccccccccccccccccccccccccccccc" />
    <path
       style="opacity:1;fill:#92cddc;fill-opacity:1;fill-rule:evenodd;stroke:#040000;stroke-width:0;stroke-linecap:butt;stroke-linejoin:miter;stroke-miterlimit:4;stroke-dasharray:none;stroke-dashoffset:0;stroke-opacity:1;paint-order:fill markers stroke"
       d="m 225.03064,121.20763 c 0.0577,-3.59504 0.10494,-7.55254 0.10494,-8.79446 l 2.1e-4,-2.25805 h 5.70457 5.70454 v 8.79446 8.79447 h -5.80955 -5.80958 z m 6.35307,4.38591 c 0.81751,-0.8175 -0.34645,-2.00811 -1.20428,-1.2318 -0.35469,0.32101 -0.36783,0.66501 -0.0431,1.12862 0.28772,0.41075 0.89,0.46055 1.24739,0.10318 z m -0.10318,-2.84993 c 0.38799,-0.27175 0.4772,-0.99106 0.16202,-1.30622 -0.30962,-0.30965 -1.20084,-0.235 -1.38887,0.11632 -0.24341,0.45485 -0.20096,0.76579 0.1528,1.11964 0.38143,0.3814 0.60854,0.39625 1.07398,0.0702 z m 3.86542,-4.61088 c 0.26012,-0.2354 0.28978,-0.55174 0.28978,-3.08994 0,-2.61642 -0.0237,-2.85138 -0.31691,-3.14461 -0.29986,-0.29987 -0.5282,-0.31691 -4.24316,-0.31691 -3.29708,0 -3.98268,0.0396 -4.27843,0.24666 -0.3428,0.24012 -0.35217,0.32639 -0.35217,3.24054 0,2.68411 0.0286,3.01056 0.2773,3.15536 0.16791,0.0979 1.86546,0.1634 4.30558,0.16634 3.53033,0.004 4.06405,-0.0277 4.31801,-0.25744 z"
       id="path3976-7-7-5"
       inkscape:connector-curvature="0" />
    <path
       style="opacity:1;fill:#92cddc;fill-opacity:1;fill-rule:evenodd;stroke:#040000;stroke-width:0;stroke-linecap:butt;stroke-linejoin:miter;stroke-miterlimit:4;stroke-dasharray:none;stroke-dashoffset:0;stroke-opacity:1;paint-order:fill markers stroke"
       d="m 227.19584,116.49348 v -0.95075 h 3.6446 3.64455 v 0.95075 0.95075 h -3.64455 -3.6446 z"
       id="path3978-9-8-9"
       inkscape:connector-curvature="0" />
    <path
       style="opacity:1;fill:#92cddc;fill-opacity:1;fill-rule:evenodd;stroke:#040000;stroke-width:0;stroke-linecap:butt;stroke-linejoin:miter;stroke-miterlimit:4;stroke-dasharray:none;stroke-dashoffset:0;stroke-opacity:1;paint-order:fill markers stroke"
       d="m 227.19584,113.56199 v -1.02997 h 3.6446 3.64455 v 1.02997 1.02998 h -3.64455 -3.6446 z"
       id="path3980-2-4-3"
       inkscape:connector-curvature="0" />
    <path
       style="opacity:1;fill:#92cddc;fill-opacity:1;fill-rule:evenodd;stroke:#040000;stroke-width:0;stroke-linecap:butt;stroke-linejoin:miter;stroke-miterlimit:4;stroke-dasharray:none;stroke-dashoffset:0;stroke-opacity:1;paint-order:fill markers stroke"
       d="m 225.88827,109.00294 0.19007,-0.19616 h 4.71255 4.71256 l 0.15221,0.15889 0.15222,0.15889 -2.98496,0.0371 c -1.64172,0.0204 -3.9164,0.0371 -5.05481,0.0371 l -2.0699,6e-5 z"
       id="path3984-0-5-5"
       inkscape:connector-curvature="0" />
    <text
       xml:space="preserve"
       style="font-style:italic;font-variant:normal;font-weight:normal;font-stretch:normal;font-size:4.93888903px;line-height:5px;font-family:Calibri;-inkscape-font-specification:'Calibri Italic';font-variant-ligatures:normal;font-variant-position:normal;font-variant-caps:normal;font-variant-numeric:normal;font-variant-alternates:normal;font-feature-settings:normal;text-indent:0;text-align:start;text-decoration:none;text-decoration-line:none;text-decoration-style:solid;text-decoration-color:#000000;letter-spacing:0px;word-spacing:0px;text-transform:none;writing-mode:lr-tb;direction:ltr;text-orientation:mixed;dominant-baseline:auto;baseline-shift:baseline;text-anchor:start;white-space:normal;shape-padding:0;opacity:1;vector-effect:none;fill:#000000;fill-opacity:1;stroke:none;stroke-width:0.26458332;stroke-linecap:butt;stroke-linejoin:miter;stroke-miterlimit:4;stroke-dasharray:none;stroke-dashoffset:0;stroke-opacity:1"
       x="66.732025"
       y="117.95564"
       id="text5208-4-4-0-1-2"><tspan
         sodipodi:role="line"
         x="66.732025"
         y="117.95564"
         style="font-style:italic;font-variant:normal;font-weight:normal;font-stretch:normal;font-size:4.93888903px;line-height:5px;font-family:Calibri;-inkscape-font-specification:'Calibri Italic';text-align:center;text-anchor:middle;stroke-width:0.26458332"
         id="tspan13236-0-6-2">V2N packets</tspan></text>
    <path
       d="m 173.93342,124.64856 c -1.26839,-0.58474 -1.8731,-2.21508 -1.35689,-3.6472 0.41296,-1.15461 1.4503,-1.8583 2.54664,-1.72944 0.25071,-3.12194 2.69411,-5.42127 5.45707,-5.13881 0.63419,0.0645 1.25857,0.27255 1.82885,0.5996 1.72069,-1.70466 4.169,-2.10111 6.24367,-1.01089 1.25365,-1.75425 3.52987,-2.0268 5.08343,-0.60457 0.0934,0.0843 0.1819,0.17344 0.26547,0.26759 1.69613,-1.70964 4.30175,-1.5461 5.81596,0.37165 0.30481,0.38654 0.55062,0.83253 0.7276,1.3132 1.61746,0.18335 2.79738,1.8137 2.63513,3.64226 -0.0344,0.36669 -0.11804,0.72845 -0.25563,1.06542 1.2733,1.76414 1.03733,4.36078 -0.52114,5.79786 -0.68827,0.63431 -1.56337,0.96632 -2.45323,0.92172 -0.62434,2.78497 -3.12183,4.46981 -5.58488,3.76614 -0.32938,-0.0941 -0.64896,-0.22796 -0.95376,-0.40138 -1.32738,3.03274 -4.58197,4.27655 -7.26626,2.77505 -0.62927,-0.35184 -1.18973,-0.83747 -1.65677,-1.43213 -2.57122,1.41726 -5.65373,0.88206 -7.72839,-1.34292 -1.34215,0.75818 -2.96944,0.15361 -3.64298,-1.3578 -0.59978,-1.33797 -0.25563,-2.96832 0.81611,-3.85535 z"
       style="fill:#ffffff;fill-opacity:1;fill-rule:evenodd;stroke:#000000;stroke-width:0.35277778;stroke-opacity:1"
       id="path1146"
       inkscape:connector-curvature="0" />
    <text
       y="122.9562"
       x="180.92166"
       style="font-style:italic;font-variant:normal;font-weight:normal;font-size:4.24215269px;font-family:Calibri;-inkscape-font-specification:'Calibri Italic';writing-mode:lr-tb;fill:#000000;fill-opacity:1;fill-rule:nonzero;stroke:none;stroke-width:0.35277775"
       id="text1230">
      <tspan
         style="stroke-width:0.35277775"
         x="180.92166 181.99065 184.09474 185.67709 187.5309 189.11324 191.23004 193.34265"
         y="122.9562"
         sodipodi:role="line"
         id="tspan1228">Internet</tspan>
    </text>
    <rect
       style="opacity:1;fill:#4bacc6;fill-opacity:1;fill-rule:evenodd;stroke:#000000;stroke-width:0.26499999;stroke-linecap:butt;stroke-linejoin:miter;stroke-miterlimit:4;stroke-dasharray:none;stroke-dashoffset:0;stroke-opacity:1;paint-order:fill markers stroke"
       id="rect4593-5-6-2-1-0-6-7"
       width="1.508569"
       height="1.7316383"
       x="162.82092"
       y="119.74199"
       rx="0.097660154"
       ry="0.20249149" />
    <rect
       style="opacity:1;fill:#4bacc6;fill-opacity:1;fill-rule:evenodd;stroke:#000000;stroke-width:0.26499999;stroke-linecap:butt;stroke-linejoin:miter;stroke-miterlimit:4;stroke-dasharray:none;stroke-dashoffset:0;stroke-opacity:1;paint-order:fill markers stroke"
       id="rect4593-5-6-2-1-0-4-25-5"
       width="1.508569"
       height="1.7316383"
       x="160.25633"
       y="119.74199"
       rx="0.097660154"
       ry="0.20249149" />
    <rect
       style="opacity:1;fill:#4bacc6;fill-opacity:1;fill-rule:evenodd;stroke:#000000;stroke-width:0.26499999;stroke-linecap:butt;stroke-linejoin:miter;stroke-miterlimit:4;stroke-dasharray:none;stroke-dashoffset:0;stroke-opacity:1;paint-order:fill markers stroke"
       id="rect4593-5-6-2-1-0-2-4-3"
       width="1.508569"
       height="1.7316383"
       x="158.04376"
       y="119.74199"
       rx="0.097660154"
       ry="0.20249149" />
    <rect
       style="opacity:1;fill:#4bacc6;fill-opacity:1;fill-rule:evenodd;stroke:#000000;stroke-width:0.26499999;stroke-linecap:butt;stroke-linejoin:miter;stroke-miterlimit:4;stroke-dasharray:none;stroke-dashoffset:0;stroke-opacity:1;paint-order:fill markers stroke"
       id="rect4593-5-6-2-1-0-4-2-4-5"
       width="1.508569"
       height="1.7316383"
       x="155.4792"
       y="119.74199"
       rx="0.097660154"
       ry="0.20249149" />
    <rect
       style="opacity:1;fill:#4bacc6;fill-opacity:1;fill-rule:evenodd;stroke:#000000;stroke-width:0.26499999;stroke-linecap:butt;stroke-linejoin:miter;stroke-miterlimit:4;stroke-dasharray:none;stroke-dashoffset:0;stroke-opacity:1;paint-order:fill markers stroke"
       id="rect4593-5-6-2-1-0-4-2-2-9-6"
       width="1.508569"
       height="1.7316383"
       x="153.26663"
       y="119.74199"
       rx="0.097660154"
       ry="0.20249149" />
    <rect
       style="opacity:1;fill:#4bacc6;fill-opacity:1;fill-rule:evenodd;stroke:#000000;stroke-width:0.26499999;stroke-linecap:butt;stroke-linejoin:miter;stroke-miterlimit:4;stroke-dasharray:none;stroke-dashoffset:0;stroke-opacity:1;paint-order:fill markers stroke"
       id="rect4593-5-6-2-1-0-4-0-9-2"
       width="1.508569"
       height="1.7316383"
       x="165.03349"
       y="119.74199"
       rx="0.097660154"
       ry="0.20249149" />
    <path
       style="fill:none;stroke:#000000;stroke-width:0.40000004;stroke-linecap:butt;stroke-linejoin:miter;stroke-miterlimit:4;stroke-dasharray:none;stroke-opacity:1;marker-start:url(#marker8582-3)"
       d="M 171.51488,123.08519 H 150.39449"
       id="path7353-9"
       inkscape:connector-curvature="0" />
  </g>
</svg>
